<svg xmlns="http://www.w3.org/2000/svg" width="236" height="246" stroke="#000" stroke-linecap="round" stroke-linejoin="round" fill="#fff" fill-rule="evenodd">
<path d="M38.580094556 3.532275c-5.3079.5812-8.026 1.4195-13.2068 4.0672-3.6021 1.8062-11.6919 7.875-11.6919 8.7133 0 .2578-1.1364 1.7435-2.5275 3.229-1.3891 1.549-2.5272 3.2257-2.5272 3.7439s-.2527.9024-.6316.9024c-.3158 0-.7585.7754-1.0113 1.7425-.2528 1.0335-.7585 2.3902-1.2012 3.1006-.4416.7729-1.3271 3.6144-1.8947 6.4549-2.7185 12.3945.8838 25.4983 9.7315 35.374l31.4066 34.6644c10.0478 10.9092 15.4191 17.0431 15.2922 17.4947-.1893.4512-11.0593 12.5231-33.9973 37.6988-14.9143 16.3309-16.2412 17.9455-18.8314 23.2381-3.5398 7.2945-4.2341 10.3281-4.1705 18.3973 0 6.4555.2527 8.1345 1.7692 12.5886 1.958 5.6797 3.4746 8.5209 6.3824 11.942 7.7731 9.2311 16.6195 14.2014 27.2361 15.4923 7.4561.8389 76.779.8389 86.1946-.064 15.4818-1.4205 28.8155-5.3581 42.9076-12.6525 12.3859-6.3263 19.4636-11.6202 30.0797-22.464 10.6165-10.7805 15.7351-17.9467 21.991-30.6624 17.2518-34.9239 17.1253-73.2669-.2528-107.8025-6.1927-12.2662-11.3744-19.4966-21.7382-30.0182-10.553-10.8434-17.6308-16.0739-30.0165-22.4637-14.3445-7.3583-27.615-11.2972-42.9708-12.7167-8.2784-.7097-79.4334-.7097-86.3212 0zm88.2164 27.7571c31.7229 3.9385 59.4014 25.1112 71.6608 54.8706 5.0554 12.2001 7.3304 23.6896 7.3304 37.1178 0 22.0756-7.3936 42.797-21.3592 59.7108-13.8392 16.7828-33.6814 27.9512-55.4195 31.307-5.1186.7754-14.2817.9692-48.8478.9692-47.2052 0-44.1723.2582-48.3429-4.4544-2.6537-2.9698-2.7172-3.744-1.3264-9.296 1.3264-5.2286 2.1474-6.7127 5.9393-10.9742l3.2234-3.6144 41.2014-.1932 41.2016-.1945 5.6874-1.8066c17.3148-5.4232 31.28-17.1065 39.1161-32.6635 9.163-18.2684 9.5419-37.9575 1.0743-56.0326-8.1521-17.3006-21.6119-28.9837-40.1904-34.8588l-5.6874-1.8061-41.1382-.324-41.0755-.3227-3.6655-4.0025c-3.8544-4.2586-5.75-8.1981-6.4448-13.5557-.3798-3.0337-.2527-3.3553 1.7059-5.6795 4.4861-5.2303.8216-4.8421 47.9632-4.8421l47.3938.6454zm-5.0551 56.4194c12.2594 4.0672 21.2962 13.6195 24.3294 25.8849 1.2002 4.9066 1.2002 13.8143 0 18.7207-3.0967 12.3288-11.9432 21.7547-24.3294 25.8852-3.033 1.0336-6.635 1.1622-29.8265 1.42-23.1925.1947-26.4146.129-26.4146-.7737 0-.5175 6.8244-8.3919 15.1664-17.5583 12.5748-13.7509 15.1653-16.9139 15.1653-18.462 0-1.9375.3165-1.5491-22.6222-26.6616-4.2347-4.6469-7.7095-8.7791-7.7095-9.2308 0-.7104 4.8658-.8393 26.4146-.644 23.1915.2573 26.7935.3858 29.8265 1.4196z" stroke="#a440f2" stroke-linejoin="miter" fill-rule="nonzero" stroke-width="6" fill="#a440f2" fill-opacity=".2"/>
</svg>