<?xml version="1.0" encoding="UTF-8" standalone="no"?>
<svg
   viewBox="0 0 50 50"
   width="250px"
   height="250px"
   version="1.1"
   id="svg3523"
   sodipodi:docname="discord-logo.svg"
   inkscape:version="1.2.2 (732a01da63, 2022-12-09)"
   xmlns:inkscape="http://www.inkscape.org/namespaces/inkscape"
   xmlns:sodipodi="http://sodipodi.sourceforge.net/DTD/sodipodi-0.dtd"
   xmlns="http://www.w3.org/2000/svg"
   xmlns:svg="http://www.w3.org/2000/svg">
  <defs
     id="defs3527" />
  <sodipodi:namedview
     id="namedview3525"
     pagecolor="#ffffff"
     bordercolor="#000000"
     borderopacity="0.25"
     inkscape:showpageshadow="2"
     inkscape:pageopacity="0.0"
     inkscape:pagecheckerboard="0"
     inkscape:deskcolor="#d1d1d1"
     showgrid="false"
     inkscape:zoom="3.256"
     inkscape:cx="125.15356"
     inkscape:cy="125"
     inkscape:window-width="2560"
     inkscape:window-height="1001"
     inkscape:window-x="-9"
     inkscape:window-y="-9"
     inkscape:window-maximized="1"
     inkscape:current-layer="svg3523" />
  <path
     d="M 18.90625 7 C 18.90625 7 12.539063 7.4375 8.375 10.78125 C 8.355469 10.789063 8.332031 10.800781 8.3125 10.8125 C 7.589844 11.480469 7.046875 12.515625 6.375 14 C 5.703125 15.484375 4.992188 17.394531 4.34375 19.53125 C 3.050781 23.808594 2 29.058594 2 34 C 1.996094 34.175781 2.039063 34.347656 2.125 34.5 C 3.585938 37.066406 6.273438 38.617188 8.78125 39.59375 C 11.289063 40.570313 13.605469 40.960938 14.78125 41 C 15.113281 41.011719 15.429688 40.859375 15.625 40.59375 L 18.0625 37.21875 C 20.027344 37.683594 22.332031 38 25 38 C 27.667969 38 29.972656 37.683594 31.9375 37.21875 L 34.375 40.59375 C 34.570313 40.859375 34.886719 41.011719 35.21875 41 C 36.394531 40.960938 38.710938 40.570313 41.21875 39.59375 C 43.726563 38.617188 46.414063 37.066406 47.875 34.5 C 47.960938 34.347656 48.003906 34.175781 48 34 C 48 29.058594 46.949219 23.808594 45.65625 19.53125 C 45.007813 17.394531 44.296875 15.484375 43.625 14 C 42.953125 12.515625 42.410156 11.480469 41.6875 10.8125 C 41.667969 10.800781 41.644531 10.789063 41.625 10.78125 C 37.460938 7.4375 31.09375 7 31.09375 7 C 31.019531 6.992188 30.949219 6.992188 30.875 7 C 30.527344 7.046875 30.234375 7.273438 30.09375 7.59375 C 30.09375 7.59375 29.753906 8.339844 29.53125 9.40625 C 27.582031 9.09375 25.941406 9 25 9 C 24.058594 9 22.417969 9.09375 20.46875 9.40625 C 20.246094 8.339844 19.90625 7.59375 19.90625 7.59375 C 19.734375 7.203125 19.332031 6.964844 18.90625 7 Z M 18.28125 9.15625 C 18.355469 9.359375 18.40625 9.550781 18.46875 9.78125 C 16.214844 10.304688 13.746094 11.160156 11.4375 12.59375 C 11.074219 12.746094 10.835938 13.097656 10.824219 13.492188 C 10.816406 13.882813 11.039063 14.246094 11.390625 14.417969 C 11.746094 14.585938 12.167969 14.535156 12.46875 14.28125 C 17.101563 11.410156 22.996094 11 25 11 C 27.003906 11 32.898438 11.410156 37.53125 14.28125 C 37.832031 14.535156 38.253906 14.585938 38.609375 14.417969 C 38.960938 14.246094 39.183594 13.882813 39.175781 13.492188 C 39.164063 13.097656 38.925781 12.746094 38.5625 12.59375 C 36.253906 11.160156 33.785156 10.304688 31.53125 9.78125 C 31.59375 9.550781 31.644531 9.359375 31.71875 9.15625 C 32.859375 9.296875 37.292969 9.894531 40.3125 12.28125 C 40.507813 12.460938 41.1875 13.460938 41.8125 14.84375 C 42.4375 16.226563 43.09375 18.027344 43.71875 20.09375 C 44.9375 24.125 45.921875 29.097656 45.96875 33.65625 C 44.832031 35.496094 42.699219 36.863281 40.5 37.71875 C 38.5 38.496094 36.632813 38.84375 35.65625 38.9375 L 33.96875 36.65625 C 34.828125 36.378906 35.601563 36.078125 36.28125 35.78125 C 38.804688 34.671875 40.15625 33.5 40.15625 33.5 C 40.570313 33.128906 40.605469 32.492188 40.234375 32.078125 C 39.863281 31.664063 39.226563 31.628906 38.8125 32 C 38.8125 32 37.765625 32.957031 35.46875 33.96875 C 34.625 34.339844 33.601563 34.707031 32.4375 35.03125 C 32.167969 35 31.898438 35.078125 31.6875 35.25 C 29.824219 35.703125 27.609375 36 25 36 C 22.371094 36 20.152344 35.675781 18.28125 35.21875 C 18.070313 35.078125 17.8125 35.019531 17.5625 35.0625 C 16.394531 34.738281 15.378906 34.339844 14.53125 33.96875 C 12.234375 32.957031 11.1875 32 11.1875 32 C 10.960938 31.789063 10.648438 31.699219 10.34375 31.75 C 9.957031 31.808594 9.636719 32.085938 9.53125 32.464844 C 9.421875 32.839844 9.546875 33.246094 9.84375 33.5 C 9.84375 33.5 11.195313 34.671875 13.71875 35.78125 C 14.398438 36.078125 15.171875 36.378906 16.03125 36.65625 L 14.34375 38.9375 C 13.367188 38.84375 11.5 38.496094 9.5 37.71875 C 7.300781 36.863281 5.167969 35.496094 4.03125 33.65625 C 4.078125 29.097656 5.0625 24.125 6.28125 20.09375 C 6.90625 18.027344 7.5625 16.226563 8.1875 14.84375 C 8.8125 13.460938 9.492188 12.460938 9.6875 12.28125 C 12.707031 9.894531 17.140625 9.296875 18.28125 9.15625 Z M 18.5 21 C 15.949219 21 14 23.316406 14 26 C 14 28.683594 15.949219 31 18.5 31 C 21.050781 31 23 28.683594 23 26 C 23 23.316406 21.050781 21 18.5 21 Z M 31.5 21 C 28.949219 21 27 23.316406 27 26 C 27 28.683594 28.949219 31 31.5 31 C 34.050781 31 36 28.683594 36 26 C 36 23.316406 34.050781 21 31.5 21 Z M 18.5 23 C 19.816406 23 21 24.265625 21 26 C 21 27.734375 19.816406 29 18.5 29 C 17.183594 29 16 27.734375 16 26 C 16 24.265625 17.183594 23 18.5 23 Z M 31.5 23 C 32.816406 23 34 24.265625 34 26 C 34 27.734375 32.816406 29 31.5 29 C 30.183594 29 29 27.734375 29 26 C 29 24.265625 30.183594 23 31.5 23 Z"
     id="path3521" />
  <path
     style="fill:#6dd3b4;stroke:#6dd3b4;stroke-width:0.307125"
     d="M 69.103194,204.67377 C 51.280178,202.18353 32.642653,194.60024 21.498771,185.30434 17.108132,181.6418 13.193763,177.08569 10.889798,172.9561 l -1.0032445,-1.79821 0.1935615,-6.8013 C 10.964167,133.29314 20.526631,93.321462 33.459597,66.628934 37.998195,57.261662 39.904263,54.89243 46.367307,50.584726 57.672967,43.04935 74.15648,37.425146 91.172973,35.296953 c 3.957626,-0.494967 4.260424,-0.494571 5.574536,0.0073 0.782362,0.298786 1.708081,0.95489 2.118419,1.501428 0.812309,1.081936 2.098392,4.460528 2.941532,7.727495 0.66165,2.563769 -0.0788,2.441228 8.29696,1.373119 4.80435,-0.612669 7.08103,-0.726398 14.74202,-0.736421 7.76177,-0.01016 9.91848,0.09423 15.04914,0.72836 8.22298,1.016334 7.74407,1.042727 8.0507,-0.443683 0.40721,-1.973954 2.03596,-6.651232 2.78068,-7.985257 0.47481,-0.850528 1.14384,-1.455561 2.1745,-1.966497 l 1.48868,-0.737996 4.3467,0.530755 c 16.97568,2.072822 33.51979,7.706879 44.89585,15.289176 6.46319,4.307798 8.36943,6.677288 12.90748,16.044208 12.91004,26.647445 22.51083,66.77523 23.38188,97.72766 l 0.1914,6.8013 -1.00325,1.79821 c -6.3439,11.37074 -20.41694,21.15534 -39.17163,27.23496 -10.56552,3.42497 -22.62031,5.55686 -25.69099,4.54345 -1.48969,-0.49165 -1.88312,-0.96054 -8.40494,-10.01707 -3.16271,-4.39189 -5.85453,-8.09905 -5.98183,-8.23814 -0.1273,-0.13909 -1.94197,0.0992 -4.03262,0.52943 -10.55677,2.17268 -17.41833,2.79471 -30.82819,2.79471 -13.47123,0 -19.72178,-0.56951 -30.828953,-2.80896 -2.091059,-0.4216 -3.904432,-0.65309 -4.029717,-0.51442 -0.125286,0.13867 -2.612912,3.56908 -5.528062,7.62313 -6.586751,9.1601 -7.229475,9.95368 -8.487122,10.47916 -1.10446,0.46147 -4.095741,0.50041 -7.022952,0.0914 z m 6.762611,-15.70243 4.14289,-5.59254 -0.999435,-0.38076 c -0.549687,-0.20941 -2.670544,-0.99796 -4.713016,-1.75233 -11.240768,-4.15168 -24.764291,-12.02667 -26.334119,-15.33484 -1.052924,-2.21887 -0.440645,-4.75773 1.505335,-6.24201 0.990276,-0.75532 1.43945,-0.88508 3.063778,-0.88508 1.796846,0 2.004462,0.0793 3.70941,1.41635 4.730958,3.71016 11.824088,7.69025 18.875614,10.59147 4.978072,2.04814 12.169595,4.42339 13.392648,4.42339 0.570817,0 1.51476,0.19927 2.097656,0.44281 2.150866,0.8987 10.700724,2.48944 18.576484,3.45626 6.35889,0.78061 25.45806,0.77952 32.09459,-0.002 8.22666,-0.96855 15.8816,-2.40908 17.74513,-3.33932 0.6382,-0.31857 1.77903,-0.64183 2.53519,-0.71834 1.65392,-0.16736 7.87573,-2.14999 12.73565,-4.05832 6.50118,-2.55281 13.76885,-6.49913 18.33788,-9.95742 1.08311,-0.8198 2.36874,-1.69711 2.85697,-1.94958 2.1198,-1.0962 5.13711,-0.007 6.35345,2.29281 1.36304,2.57755 0.61587,4.94369 -2.25207,7.13187 -6.52315,4.97705 -15.58012,9.74181 -25.02905,13.16748 -2.42735,0.88003 -4.44574,1.62566 -4.48531,1.65697 -0.0396,0.0313 1.78961,2.56986 4.06483,5.64121 2.89995,3.9147 4.31568,5.58431 4.73516,5.58431 0.32911,0 2.50792,-0.35204 4.8418,-0.78232 20.41499,-3.76376 37.39242,-12.83557 45.1662,-24.13437 l 0.93593,-1.36033 -0.27169,-6.1336 c -1.11526,-25.17808 -7.79271,-55.77283 -17.6944,-81.072179 -3.09993,-7.920488 -7.74759,-16.817828 -10.06767,-19.27327 -0.99488,-1.05292 -5.39254,-4.00819 -8.45026,-5.67865 -7.53342,-4.115583 -18.26349,-7.584965 -29.12971,-9.418588 -2.59229,-0.437437 -4.89426,-0.79534 -5.11548,-0.79534 -0.32846,0 -1.55819,2.752152 -1.30367,2.917633 0.0417,0.02714 1.59616,0.436766 3.45427,0.910288 10.1099,2.576417 20.1278,6.562145 28.56883,11.366417 4.03963,2.29918 4.89396,2.952638 5.57685,4.265579 1.83648,3.530882 -1.53531,7.931324 -5.47374,7.143637 -0.51915,-0.10383 -1.93088,-0.794337 -3.13717,-1.534457 -12.27194,-7.529461 -29.4049,-12.868693 -48.56917,-15.135859 -6.47108,-0.76554 -20.03265,-0.762856 -26.41278,0.0052 -13.376823,1.610394 -25.445901,4.557394 -35.626534,8.699208 -4.068584,1.655233 -10.423661,4.811928 -13.135937,6.524886 -3.010807,1.901495 -5.085184,2.030307 -6.982761,0.433599 -2.44183,-2.054662 -2.560817,-5.594435 -0.257533,-7.661393 1.040024,-0.933314 7.541931,-4.58296 11.309852,-6.348438 6.786895,-3.180034 14.414288,-5.912281 21.658517,-7.758406 1.858108,-0.473522 3.412527,-0.883152 3.454263,-0.910288 0.04174,-0.02714 -0.147651,-0.705387 -0.420863,-1.507223 L 91.295863,45.867583 89.720412,46.07363 C 75.317776,47.9573 61.146969,52.837462 51.687334,59.171511 48.40715,61.36788 47.865252,61.93227 45.690246,65.417513 37.275451,78.90142 27.448169,109.8923 23.19312,136.36346 c -1.62301,10.09693 -2.341063,16.85753 -2.739153,25.78962 l -0.273366,6.1336 0.935932,1.36033 c 7.704796,11.19854 24.665258,20.30467 44.915408,24.11523 6.096143,1.14714 5.061468,1.65124 9.833864,-4.79108 z"
     id="path5098"
     transform="scale(0.2)" />
  <path
     style="fill:#6dd3b4;stroke:#6dd3b4;stroke-width:0.307125"
     d="m 87.119699,154.32054 c -3.693875,-0.96757 -6.276684,-2.53513 -9.598375,-5.82545 -2.603407,-2.57882 -3.130017,-3.29223 -4.534152,-6.14251 -2.274446,-4.61694 -2.884726,-7.18996 -2.913807,-12.28501 -0.01933,-3.38667 0.103705,-4.62441 0.671642,-6.75676 2.255464,-8.46827 8.111446,-15.03058 15.493879,-17.36271 11.893756,-3.75726 24.281254,3.76423 27.919414,16.95224 0.54758,1.98492 0.66447,3.2412 0.66687,7.16723 0.003,4.32247 -0.0748,5.01474 -0.84138,7.52457 -2.61792,8.5708 -8.82815,14.88173 -16.612813,16.88219 -2.569684,0.66034 -7.421058,0.58756 -10.251278,-0.15379 z m 10.331969,-10.72985 c 10.121022,-5.40535 9.785912,-22.61259 -0.534669,-27.45417 -5.39995,-2.53322 -11.758614,-0.0219 -14.84999,5.86484 -4.315398,8.21763 -1.206284,18.85361 6.455295,22.08295 1.508408,0.63579 2.161541,0.7317 4.383101,0.64365 2.264866,-0.0898 2.866897,-0.24036 4.546263,-1.13727 z"
     id="path5100"
     transform="scale(0.2)" />
  <path
     style="fill:#6dd3b4;stroke:#6dd3b4;stroke-width:0.307125"
     d="m 152.48771,154.45557 c -8.81738,-2.34227 -15.6213,-10.33882 -17.21788,-20.23593 -0.50497,-3.13028 -0.20543,-8.53833 0.63823,-11.52308 1.9547,-6.91547 6.58325,-12.69825 12.41988,-15.51705 5.14046,-2.48259 10.19569,-2.88594 15.43317,-1.23141 7.38733,2.33368 13.24712,8.90415 15.48472,17.36271 0.55936,2.11447 0.68741,3.39848 0.67387,6.75676 -0.0206,5.11625 -0.6328,7.694 -2.91741,12.28501 -1.40458,2.82258 -1.97049,3.58875 -4.53693,6.14251 -3.34891,3.33234 -5.89741,4.86567 -9.7062,5.83979 -2.86946,0.73388 -7.74735,0.7912 -10.27145,0.12069 z m 8.7422,-10.28254 c 6.11493,-2.28789 9.88107,-10.1723 8.33769,-17.45495 -1.0429,-4.92102 -3.72485,-8.68212 -7.52507,-10.55296 -1.77058,-0.87166 -2.31865,-0.99247 -4.48079,-0.98777 -2.10758,0.005 -2.7546,0.14255 -4.47874,0.95497 -7.2132,3.39886 -10.12689,13.51508 -6.20158,21.53161 1.51923,3.10268 4.26953,5.59896 7.40119,6.71762 1.7486,0.62461 4.97974,0.52763 6.9473,-0.20852 z"
     id="path5102"
     transform="scale(0.2)" />
  <path
     style="fill:#50d313;stroke:#50d313;stroke-width:0.307125"
     d="m 70.485258,205.1186 c -6.272113,-0.78247 -14.6909,-2.74125 -21.191646,-4.93062 -18.633423,-6.27549 -32.305967,-15.89591 -38.69857,-27.22949 l -1.0129102,-1.79581 0.2091706,-6.03589 C 10.89398,133.30761 19.500001,96.293563 32.215678,68.680719 c 3.622265,-7.865962 6.2794,-12.08575 9.316407,-14.795358 3.854147,-3.438659 13.126229,-8.679364 20.353664,-11.504167 8.961828,-3.50268 19.424549,-6.111195 29.529957,-7.362268 4.318222,-0.534606 5.55915,-0.325611 7.165028,1.206725 1.02891,0.981787 2.364756,4.110522 3.383086,7.923612 l 0.55364,2.073096 1.72038,-0.0097 c 0.94622,-0.0054 3.17156,-0.226326 4.94521,-0.491051 5.08192,-0.758501 22.78414,-0.928889 28.71621,-0.276399 2.53379,0.2787 5.71623,0.585135 7.07211,0.680968 l 2.46523,0.174241 0.73962,-2.572799 c 0.82357,-2.864864 1.96457,-5.825621 2.64559,-6.864977 0.24628,-0.37588 1.14907,-1.065107 2.00621,-1.531616 l 1.55841,-0.848198 2.96649,0.366077 c 18.37345,2.267356 34.2003,7.568316 46.27116,15.49781 5.56169,3.653541 7.89312,6.198143 11.13518,12.153315 4.60395,8.456766 10.97213,24.933477 14.77849,38.2371 6.55112,22.89692 10.75365,49.35684 10.78334,67.89409 0.004,2.72261 -0.0235,2.83013 -1.27342,4.914 -6.389,10.6517 -17.896,19.03769 -34.87453,25.41561 -9.73683,3.65761 -24.77744,6.86492 -29.13117,6.21204 -1.98431,-0.29756 -2.94363,-1.35456 -9.76795,-10.76252 -5.3144,-7.32639 -5.61173,-7.67379 -6.49058,-7.58324 -0.50657,0.0522 -2.696,0.43458 -4.86541,0.84976 -10.26682,1.96487 -22.86551,2.748 -36.48135,2.26769 -8.2865,-0.29232 -12.55453,-0.73723 -20.233673,-2.10921 -2.78598,-0.49776 -5.477245,-0.94959 -5.980596,-1.00407 -0.868443,-0.094 -1.154582,0.23032 -5.602918,6.35057 -6.708068,9.22931 -7.990737,10.846 -9.032561,11.38475 -0.955485,0.4941 -4.20758,0.78832 -6.101674,0.55203 z m 1.167171,-11.34485 c 1.024171,-0.71736 7.827451,-9.99662 7.532421,-10.27377 -0.139506,-0.13104 -2.326742,-1.02942 -4.860526,-1.99639 -12.549256,-4.78918 -24.998381,-12.1101 -26.604094,-15.645 -0.74894,-1.64875 -0.718854,-2.82379 0.114537,-4.47347 0.983356,-1.94653 2.331876,-2.7549 4.595706,-2.7549 2.079843,0 2.378652,0.13113 5.309085,2.3298 2.59691,1.94844 7.357933,4.7971 11.43316,6.84079 5.252684,2.63418 15.546391,6.45752 19.125808,7.10379 0.760135,0.13725 2.720491,0.60194 4.356348,1.03266 3.274773,0.86225 12.409756,2.43424 17.449546,3.00281 4.38863,0.4951 25.45466,0.48872 30.25185,-0.009 5.04211,-0.52331 14.00619,-2.04782 16.59934,-2.82303 1.17442,-0.35108 2.96454,-0.84608 3.97805,-1.1 11.62593,-2.91266 22.76697,-7.91992 31.60462,-14.20447 1.67309,-1.18974 3.51028,-2.25103 4.08266,-2.3584 3.05274,-0.5727 6.64202,2.96501 6.08084,5.99347 -0.33124,1.78757 -1.27376,2.97627 -3.9374,4.96581 -6.0137,4.4918 -14.6247,8.96116 -24.01008,12.46195 -2.02703,0.75609 -3.8007,1.48766 -3.9415,1.62571 -0.24133,0.23663 6.55096,9.56465 7.59632,10.43222 0.40592,0.33689 1.13359,0.29103 4.35953,-0.27473 20.56622,-3.60686 37.96163,-12.76912 45.92364,-24.18823 l 0.90676,-1.30047 -0.32525,-5.91698 c -1.41355,-25.71512 -7.13059,-52.74098 -16.46748,-77.845837 -3.22133,-8.661459 -7.42309,-17.314244 -10.27709,-21.163845 -1.24406,-1.678051 -3.42876,-3.354545 -7.72557,-5.928451 -7.35546,-4.406125 -18.67364,-8.213314 -30.63742,-10.305758 -2.44506,-0.427636 -4.59621,-0.77752 -4.78034,-0.77752 -0.32073,0 -1.50248,2.119706 -1.29655,2.325633 0.0548,0.05484 1.892,0.586938 4.08258,1.182442 8.89399,2.417812 16.20252,5.228998 24.09957,9.269759 8.05355,4.12084 9.48921,5.303037 9.7512,8.02965 0.24317,2.530716 -1.2837,4.787295 -3.80147,5.618231 -1.54338,0.509362 -2.70804,0.188634 -5.81406,-1.60109 -18.19868,-10.486284 -42.7044,-16.232067 -65.86049,-15.442107 -12.40185,0.423083 -26.725286,3.059926 -38.390691,7.067452 -6.992534,2.40221 -11.874718,4.604514 -18.56328,8.373709 -2.634039,1.484355 -3.275356,1.720722 -4.668704,1.720722 -1.335688,0 -1.811539,-0.158888 -2.74957,-0.918102 -1.701665,-1.37727 -2.335808,-2.731938 -2.189736,-4.677734 0.213861,-2.848723 1.514975,-3.939361 9.743802,-8.167575 7.786213,-4.000787 16.800298,-7.412374 25.696422,-9.725403 l 2.508458,-0.65221 -0.323716,-0.971345 C 91.431619,47.120152 91.178784,46.563932 91.047807,46.418348 90.680716,46.010315 82.904143,47.352319 77.088452,48.827316 66.44738,51.526142 56.541526,55.870117 49.987743,60.711682 41.836791,66.733142 28.67508,104.3178 23.495305,136.36364 c -1.62514,10.05429 -2.233402,15.71223 -2.766162,25.73031 l -0.323029,6.07429 0.994948,1.45028 c 1.496083,2.18075 6.238109,6.97498 8.936676,9.03506 8.751232,6.68068 20.743847,11.73177 34.814667,14.66338 5.044588,1.05102 5.596284,1.08979 6.500024,0.45679 z"
     id="path20186"
     transform="scale(0.2)" />
  <path
     style="fill:#50d313;stroke:#50d313;stroke-width:0.307125"
     d="m 89.029874,154.96588 c -4.590009,-0.73394 -8.069408,-2.67421 -12.085595,-6.73949 -2.150596,-2.17688 -2.876445,-3.17441 -4.05168,-5.56818 -2.331667,-4.74923 -2.773386,-6.52609 -2.94444,-11.84426 -0.18178,-5.65166 0.344204,-8.19743 2.66069,-12.87783 4.097581,-8.27905 11.428217,-13.13228 19.835868,-13.13228 9.735603,0 18.204713,6.69222 21.709983,17.15503 0.64539,1.9264 0.71016,2.66604 0.71016,8.1087 0,5.50143 -0.0583,6.15053 -0.71637,7.97403 -2.99185,8.2904 -8.36699,13.96951 -15.407704,16.27904 -2.239272,0.73454 -7.123034,1.05904 -9.710912,0.64524 z m 7.993778,-11.51124 c 8.488728,-4.15314 10.174598,-17.64324 3.079258,-24.63983 -6.869051,-6.77344 -17.133795,-2.67255 -19.3256,7.72082 -1.178575,5.58871 0.2758,10.73856 4.128,14.61697 2.653872,2.67194 4.400432,3.39362 7.879777,3.25595 1.968044,-0.0779 2.856867,-0.27791 4.238565,-0.95391 z"
     id="path20188"
     transform="scale(0.2)" />
  <path
     style="fill:#50d313;stroke:#50d313;stroke-width:0.307125"
     d="m 153.45258,154.92741 c -6.81719,-1.21932 -13.88625,-7.40978 -16.68135,-14.60805 -1.64753,-4.24293 -1.92278,-5.76205 -1.88533,-10.40536 0.0398,-4.93053 0.6248,-7.71702 2.41238,-11.48994 3.07146,-6.48272 8.16472,-10.91601 14.88231,-12.95391 7.44484,-2.25851 16.54842,0.77051 21.96185,7.30734 2.11458,2.5534 4.5563,7.39438 5.37636,10.65923 0.77018,3.06629 0.83096,8.96633 0.12745,12.37224 -0.95812,4.63856 -3.50878,9.34161 -6.91366,12.74783 -4.51706,4.51882 -8.34304,6.25972 -14.33098,6.52089 -1.81683,0.0793 -4.0439,0.0116 -4.94903,-0.15027 z m 8.62289,-11.44402 c 4.2476,-2.07816 7.6006,-7.99654 7.6006,-13.41582 0,-5.64118 -3.35881,-11.49307 -7.86666,-13.70571 -1.53989,-0.75584 -2.14881,-0.87954 -4.25413,-0.86421 -3.21415,0.0234 -5.33361,0.95772 -7.77172,3.42603 -7.40689,7.49867 -4.91107,21.67411 4.42705,25.14415 1.92904,0.71683 5.79186,0.42978 7.86486,-0.58444 z"
     id="path20190"
     transform="scale(0.2)" />
  <path
     style="fill:#50d313;fill-opacity:0.3;stroke:#50d313;stroke-width:0.307125"
     d="M 65.144558,193.16833 C 47.292053,189.27937 34.12083,182.8687 25.309355,173.77983 c -4.1403,-4.27064 -4.699077,-5.18503 -4.623697,-7.56629 0.724499,-22.88714 5.637005,-48.99628 13.850911,-73.61526 4.75991,-14.266554 9.491185,-24.66447 13.518629,-29.709871 1.544712,-1.935145 5.042508,-4.322888 10.031,-6.847588 7.887788,-3.992046 16.649152,-6.831637 26.931176,-8.728498 5.565584,-1.026756 5.872694,-1.019587 6.356483,0.148385 0.21215,0.512173 0.332571,0.972438 0.267605,1.02281 -0.06497,0.05037 -1.085565,0.338728 -2.267998,0.640789 -3.469975,0.886432 -11.366615,3.503203 -15.509828,5.139612 -4.643022,1.833815 -13.58691,6.195281 -16.124078,7.862868 -2.941124,1.933094 -3.623667,2.824323 -3.776017,4.930537 -0.15012,2.075395 0.246797,3.044115 1.897205,4.63035 0.895762,0.86093 1.381951,1.072698 2.713551,1.181937 1.75898,0.144299 1.157647,0.39626 8.839708,-3.703867 C 78.797393,63.090116 93.060921,58.874 109.95086,56.592395 c 4.11572,-0.555978 6.46069,-0.666397 14.43489,-0.679703 10.3461,-0.01726 13.92466,0.252583 22.42015,1.690623 14.75647,2.497843 26.58024,6.556981 39.7128,13.633527 3.75587,2.023872 5.0328,2.184953 7.03403,0.88733 1.88621,-1.223038 2.64845,-2.789546 2.48137,-5.099498 -0.12912,-1.785021 -0.20512,-1.93471 -1.66252,-3.274385 -2.67911,-2.4627 -12.72748,-7.510946 -21.30647,-10.704256 -2.2804,-0.848823 -6.4266,-2.195146 -9.21376,-2.991829 -2.78716,-0.796683 -5.19176,-1.563049 -5.34356,-1.703034 -0.16008,-0.147618 -0.0498,-0.599803 0.26264,-1.076592 0.50721,-0.774111 0.6365,-0.810571 2.21602,-0.624929 3.02822,0.355908 10.69425,2.009619 15.13901,3.26578 9.71695,2.746161 17.86782,6.518145 23.77363,11.001736 7.23672,5.49399 18.80234,36.310504 24.60281,65.554025 2.5875,13.04508 4.49252,28.73409 4.80917,39.6066 0.0569,1.95316 -0.009,2.1739 -1.14255,3.82194 -0.6616,0.96198 -2.3317,2.88878 -3.71133,4.28177 -8.19647,8.27587 -21.57008,14.90427 -37.06735,18.37179 -5.78736,1.29492 -8.33359,1.60082 -8.96474,1.07701 -0.62716,-0.52049 -3.34479,-4.07933 -5.77158,-7.55811 l -1.74592,-2.50275 4.84104,-1.90059 c 10.4496,-4.10251 22.47548,-10.84062 25.51912,-14.29838 2.05071,-2.32973 2.09821,-4.76309 0.13538,-6.9357 -1.36677,-1.51286 -2.47882,-2.11167 -3.92157,-2.11167 -1.375,0 -2.11421,0.38142 -6.70839,3.46141 -12.419,8.32586 -27.79567,13.74427 -46.99386,16.55965 -4.25375,0.62381 -5.83349,0.68321 -18.47219,0.69465 -14.48393,0.0131 -14.54766,0.009 -23.95578,-1.57001 -17.99627,-3.02029 -31.737293,-8.31506 -43.881887,-16.90883 l -2.727098,-1.92975 h -2.253004 c -2.066399,0 -2.34009,0.0765 -3.304518,0.92325 -1.919283,1.68515 -2.533533,4.06045 -1.617176,6.2536 1.426244,3.41348 13.234105,10.45171 26.358061,15.71107 l 5.129659,2.05568 -0.517092,0.81137 c -1.523768,2.39095 -5.115902,7.22725 -6.476615,8.71985 -0.973621,1.06798 -2.251342,1.07967 -6.917122,0.0633 z m 33.903354,-38.82281 c 5.585158,-1.87684 10.145818,-5.99931 13.354898,-12.0718 2.39605,-4.534 2.68941,-6.03188 2.55471,-13.04402 -0.11496,-5.98432 -0.13088,-6.10811 -1.09698,-8.52945 -1.58246,-3.96617 -3.08396,-6.23627 -6.21312,-9.39353 -2.41863,-2.44035 -3.36421,-3.1624 -5.52826,-4.2214 -3.624357,-1.77363 -5.949903,-2.32307 -9.828005,-2.32201 -5.830274,0.002 -10.415209,1.943 -14.776447,6.25682 -2.963446,2.93122 -4.872761,5.91137 -6.482589,10.11834 l -1.007549,2.63303 0.01161,6.1425 c 0.01314,6.95083 0.139125,7.52887 2.802964,12.86086 1.190977,2.38389 1.865277,3.26298 4.513907,5.88487 3.395479,3.36119 6.447672,5.24669 9.918562,6.12722 2.693849,0.68339 9.149045,0.44142 11.776293,-0.44143 z m 64.956998,-0.0175 c 7.38541,-2.31378 14.25118,-10.49618 15.84684,-18.88574 0.38655,-2.03238 0.37735,-9.09707 -0.0145,-11.14424 -0.85619,-4.47288 -3.99005,-10.14179 -7.41709,-13.41693 -2.63826,-2.52134 -5.14076,-4.03324 -8.72235,-5.26968 -2.13328,-0.73646 -2.94257,-0.85042 -6.1425,-0.86495 -4.1454,-0.0188 -6.2827,0.51774 -9.98158,2.50584 -5.91627,3.17991 -10.38187,9.02492 -12.1514,15.90495 -0.78257,3.04266 -0.80092,10.85796 -0.0321,13.66708 0.82544,3.01595 3.32878,7.89012 5.22702,10.17735 3.02884,3.6495 7.50745,6.66471 11.56336,7.78501 2.49728,0.68979 8.95852,0.43914 11.82433,-0.45869 z"
     id="path1726"
     transform="scale(0.2)" />
  <path
     style="fill:#50d313;fill-opacity:0.3;stroke:#50d313;stroke-width:0.307125"
     d="m 88.834301,143.77431 c -2.623759,-0.97619 -6.029675,-4.75375 -7.311624,-8.10946 -0.936132,-2.45047 -1.147132,-6.90947 -0.452632,-9.56535 1.158121,-4.42884 3.63265,-7.71842 7.078838,-9.41043 1.569636,-0.77066 2.198525,-0.90279 4.295834,-0.90258 3.150589,3.1e-4 5.319016,0.94826 7.664433,3.35058 2.79359,2.86137 4.1526,6.43857 4.1526,10.9305 0,5.86594 -2.68081,10.81538 -7.084047,13.0789 -1.380622,0.70972 -2.129332,0.87138 -4.42586,0.9556 -1.841717,0.0676 -3.149031,-0.0418 -3.917542,-0.32776 z"
     id="path1728"
     transform="scale(0.2)" />
  <path
     style="fill:#50d313;fill-opacity:0.3;stroke:#50d313;stroke-width:0.307125"
     d="m 153.25553,143.45786 c -4.72006,-2.40055 -7.52457,-7.3716 -7.52457,-13.33747 0,-4.73239 1.27908,-8.03925 4.29975,-11.11634 2.21817,-2.2596 3.96566,-3.07838 7.0163,-3.28748 2.16291,-0.14825 2.59039,-0.0798 4.30273,0.68862 3.37087,1.51276 6.75854,5.90686 7.69835,9.98541 0.47472,2.06017 0.39492,5.80889 -0.1637,7.69063 -1.19493,4.02514 -3.69571,7.44233 -6.61524,9.03941 -1.42299,0.77843 -2.03272,0.91325 -4.5603,1.00839 -2.63938,0.0993 -3.06418,0.0353 -4.45332,-0.67117 z"
     id="path1730"
     transform="scale(0.2)" />
</svg>
