<?xml version="1.0" encoding="UTF-8" standalone="no"?>
<svg
   version="1.1"
   width="256"
   height="256"
   viewBox="0 0 256 256"
   xml:space="preserve"
   id="svg16"
   sodipodi:docname="mail-142.svg"
   inkscape:version="1.2.2 (732a01da63, 2022-12-09)"
   xmlns:inkscape="http://www.inkscape.org/namespaces/inkscape"
   xmlns:sodipodi="http://sodipodi.sourceforge.net/DTD/sodipodi-0.dtd"
   xmlns="http://www.w3.org/2000/svg"
   xmlns:svg="http://www.w3.org/2000/svg"><sodipodi:namedview
   id="namedview18"
   pagecolor="#ffffff"
   bordercolor="#000000"
   borderopacity="0.25"
   inkscape:showpageshadow="2"
   inkscape:pageopacity="0.0"
   inkscape:pagecheckerboard="0"
   inkscape:deskcolor="#d1d1d1"
   showgrid="false"
   inkscape:zoom="3.1796875"
   inkscape:cx="128.15725"
   inkscape:cy="128"
   inkscape:window-width="2560"
   inkscape:window-height="1001"
   inkscape:window-x="-9"
   inkscape:window-y="-9"
   inkscape:window-maximized="1"
   inkscape:current-layer="svg16" />

<defs
   id="defs2">
</defs>
<g
   style="stroke: none; stroke-width: 0; stroke-dasharray: none; stroke-linecap: butt; stroke-linejoin: miter; stroke-miterlimit: 10; fill: none; fill-rule: nonzero; opacity: 1;"
   transform="translate(1.4065934065934016 1.4065934065934016) scale(2.81 2.81)"
   id="g14">
	<path
   d="M 75.546 78.738 H 14.455 C 6.484 78.738 0 72.254 0 64.283 V 25.716 c 0 -7.97 6.485 -14.455 14.455 -14.455 h 61.091 c 7.97 0 14.454 6.485 14.454 14.455 v 38.567 C 90 72.254 83.516 78.738 75.546 78.738 z M 14.455 15.488 c -5.64 0 -10.228 4.588 -10.228 10.228 v 38.567 c 0 5.64 4.588 10.229 10.228 10.229 h 61.091 c 5.64 0 10.228 -4.589 10.228 -10.229 V 25.716 c 0 -5.64 -4.588 -10.228 -10.228 -10.228 H 14.455 z"
   style="stroke: none; stroke-width: 1; stroke-dasharray: none; stroke-linecap: butt; stroke-linejoin: miter; stroke-miterlimit: 10; fill: rgb(29,29,27); fill-rule: nonzero; opacity: 1;"
   transform=" matrix(1 0 0 1 0 0) "
   stroke-linecap="round"
   id="path4" />
	<path
   d="M 11.044 25.917 C 21.848 36.445 32.652 46.972 43.456 57.5 c 2.014 1.962 5.105 -1.122 3.088 -3.088 C 35.74 43.885 24.936 33.357 14.132 22.83 C 12.118 20.867 9.027 23.952 11.044 25.917 L 11.044 25.917 z"
   style="stroke: none; stroke-width: 1; stroke-dasharray: none; stroke-linecap: butt; stroke-linejoin: miter; stroke-miterlimit: 10; fill: rgb(29,29,27); fill-rule: nonzero; opacity: 1;"
   transform=" matrix(1 0 0 1 0 0) "
   stroke-linecap="round"
   id="path6" />
	<path
   d="M 46.544 57.5 c 10.804 -10.527 21.608 -21.055 32.412 -31.582 c 2.016 -1.965 -1.073 -5.051 -3.088 -3.088 C 65.064 33.357 54.26 43.885 43.456 54.412 C 41.44 56.377 44.529 59.463 46.544 57.5 L 46.544 57.5 z"
   style="stroke: none; stroke-width: 1; stroke-dasharray: none; stroke-linecap: butt; stroke-linejoin: miter; stroke-miterlimit: 10; fill: rgb(29,29,27); fill-rule: nonzero; opacity: 1;"
   transform=" matrix(1 0 0 1 0 0) "
   stroke-linecap="round"
   id="path8" />
	<path
   d="M 78.837 64.952 c -7.189 -6.818 -14.379 -13.635 -21.568 -20.453 c -2.039 -1.933 -5.132 1.149 -3.088 3.088 c 7.189 6.818 14.379 13.635 21.568 20.453 C 77.788 69.973 80.881 66.89 78.837 64.952 L 78.837 64.952 z"
   style="stroke: none; stroke-width: 1; stroke-dasharray: none; stroke-linecap: butt; stroke-linejoin: miter; stroke-miterlimit: 10; fill: rgb(29,29,27); fill-rule: nonzero; opacity: 1;"
   transform=" matrix(1 0 0 1 0 0) "
   stroke-linecap="round"
   id="path10" />
	<path
   d="M 14.446 68.039 c 7.189 -6.818 14.379 -13.635 21.568 -20.453 c 2.043 -1.938 -1.048 -5.022 -3.088 -3.088 c -7.189 6.818 -14.379 13.635 -21.568 20.453 C 9.315 66.889 12.406 69.974 14.446 68.039 L 14.446 68.039 z"
   style="stroke: none; stroke-width: 1; stroke-dasharray: none; stroke-linecap: butt; stroke-linejoin: miter; stroke-miterlimit: 10; fill: rgb(29,29,27); fill-rule: nonzero; opacity: 1;"
   transform=" matrix(1 0 0 1 0 0) "
   stroke-linecap="round"
   id="path12" />
</g>
<path
   style="fill:#50d313;fill-opacity:1;stroke:#50d313;stroke-width:0.314496"
   d="M 35.178485,222.01404 C 20.462724,219.52997 7.8985674,208.54398 3.3705595,194.20147 1.4788148,188.20936 1.5724816,191.67435 1.5724816,127.6855 c 0,-56.434055 0.023991,-58.925196 0.5936407,-61.641274 C 5.3122415,51.043594 15.933313,39.225108 30.134213,34.923025 c 6.112132,-1.851636 0.06265,-1.743664 97.694317,-1.743664 99.33709,0 91.98657,-0.155075 98.75332,2.083415 8.42809,2.788074 15.74371,8.37986 20.74478,15.856543 2.93334,4.385394 4.6665,8.405746 6.0951,14.138666 0.66438,2.666099 0.66644,2.827322 0.77376,60.540545 0.0724,38.91665 -9e-5,58.80616 -0.22127,60.73416 -1.47703,12.87521 -9.05578,24.35878 -20.31576,30.78307 -2.95129,1.68384 -6.39302,3.05894 -10.52332,4.20449 l -2.98772,0.82864 -91.20393,0.0487 c -76.089463,0.0406 -91.628358,-0.0229 -93.765005,-0.38359 z M 220.70841,210.01506 c 2.86907,-0.81744 7.10842,-2.74616 9.20167,-4.18635 4.359,-2.99908 8.64609,-8.38353 10.49762,-13.18471 2.21767,-5.75061 2.06896,-1.09297 2.06896,-64.80125 0,-53.088549 -0.0405,-57.5772 -0.53989,-59.815898 C 239.46074,56.926854 231.30033,48.439163 220.46192,45.69073 l -2.83047,-0.717757 h -89.7887 -89.788696 l -2.767992,0.705555 c -10.840068,2.763108 -19.224567,11.436347 -21.423039,22.160793 -0.442272,2.15746 -0.49693,8.757266 -0.49693,60.003429 0,63.40586 -0.112109,59.64571 1.93162,64.78624 3.737538,9.40092 12.58414,16.4361 22.508858,17.89995 1.000982,0.14764 42.012594,0.24935 91.136919,0.22602 l 89.31695,-0.0424 z"
   id="path872" /><path
   style="fill:#50d313;fill-opacity:1;stroke:#50d313;stroke-width:0.314496"
   d="m 35.066339,193.5007 c -2.049382,-1.08652 -3.459947,-3.28479 -3.457848,-5.38882 0.0011,-1.12635 0.2154,-1.95835 0.707617,-2.74757 0.388303,-0.6226 13.443106,-13.20262 29.010673,-27.9556 15.567568,-14.75298 28.347468,-26.93217 28.399775,-27.06487 0.05231,-0.1327 -12.989207,-12.99596 -28.981148,-28.58501 C 42.287307,83.765739 31.472448,73.000567 31.130511,72.279987 c -0.733912,-1.546605 -0.492684,-3.803974 0.579666,-5.424405 1.804306,-2.72649 5.488363,-3.724882 8.037457,-2.178176 0.6688,0.405805 20.702317,19.737336 44.518927,42.958954 23.816609,23.22163 43.434939,42.22113 43.596289,42.22113 0.16134,0 19.88713,-19.09817 43.83508,-42.44037 23.94795,-23.342206 43.99269,-42.67358 44.54388,-42.958609 0.55118,-0.28503 1.69541,-0.512865 2.54272,-0.506302 4.05528,0.03141 7.17884,4.262468 5.93318,8.036863 -0.29694,0.899729 -6.60094,7.21082 -29.45363,29.486738 -15.99171,15.5881 -29.03527,28.4577 -28.98568,28.59913 0.0496,0.14142 12.93028,12.43436 28.62376,27.31763 15.69349,14.88327 28.7844,27.44324 29.09091,27.91104 0.88254,1.34692 0.7635,4.39365 -0.22894,5.85967 -1.73281,2.55968 -5.01717,3.71051 -7.55719,2.64803 -0.66332,-0.27746 -12.42977,-11.2082 -29.99603,-27.86555 l -28.90457,-27.40901 -3.17406,3.05845 c -1.74573,1.68215 -7.53483,7.30745 -12.86468,12.50067 -5.32984,5.19322 -10.14164,9.68395 -10.69287,9.9794 -1.48948,0.79833 -4.18587,0.72844 -5.62013,-0.14568 -0.63713,-0.3883 -5.87349,-5.30698 -11.63636,-10.9304 -5.76287,-5.62342 -11.41974,-11.11693 -12.57082,-12.2078 L 98.654538,138.80798 70.410592,165.596 c -15.534171,14.73341 -28.723166,27.15353 -29.308878,27.60027 -1.55427,1.1855 -4.128577,1.31535 -6.035375,0.30443 z"
   id="path1219" /><path
   style="fill:#50d313;fill-opacity:0.30000001;stroke:#50d313;stroke-width:0.314496"
   d="m 37.417687,210.24458 c -11.761978,-1.72896 -22.122173,-12.1925 -23.434471,-23.66824 -0.222117,-1.94237 -0.332933,-21.79869 -0.333147,-59.69431 -3.53e-4,-62.723874 -0.114368,-59.031664 1.978593,-64.074102 1.070965,-2.58021 3.377003,-6.259654 5.1817,-8.267763 3.403541,-3.787163 9.667965,-7.477062 14.866223,-8.756568 l 2.654471,-0.653376 89.492944,0.0022 c 87.47181,0.0022 89.54978,0.01597 92.00892,0.611936 10.63019,2.576166 18.62099,10.342922 21.63016,21.02369 l 0.68212,2.421139 0.10064,53.403834 c 0.10728,56.92354 -0.0163,63.92194 -1.19475,67.67725 -1.47986,4.7157 -3.91295,8.56304 -7.90548,12.50061 -2.48132,2.44716 -3.21472,2.95952 -6.63592,4.6359 -2.11547,1.03657 -4.96574,2.16903 -6.33395,2.51659 -2.46452,0.62603 -3.31888,0.63155 -91.83293,0.59268 -49.139895,-0.0216 -90.056202,-0.14374 -90.925123,-0.27147 z m 1.969465,-16.09483 c 1.246473,-0.31386 2.221741,-1.08935 6.822314,-5.42478 6.209868,-5.85198 38.227671,-36.17585 46.517731,-44.05667 3.093241,-2.94054 5.727771,-5.38634 5.85451,-5.43511 0.126738,-0.0488 5.240943,4.77123 11.364903,10.7111 14.36498,13.93317 14.73607,14.26704 16.33657,14.69801 1.54823,0.41689 3.28415,0.18534 4.5973,-0.61323 0.51743,-0.31468 5.22249,-4.72881 10.45567,-9.8092 5.23318,-5.08039 10.9824,-10.62251 12.77604,-12.31583 l 3.26117,-3.07876 21.33159,20.21881 c 36.30913,34.41504 36.69139,34.76725 38.16533,35.16413 3.1001,0.83477 6.85651,-1.42156 7.6814,-4.61393 0.5213,-2.01747 0.2116,-3.57526 -0.99876,-5.02361 -0.48924,-0.58545 -10.23007,-9.93379 -21.64629,-20.77408 -28.74664,-27.29645 -35.21038,-33.47047 -35.30838,-33.72577 -0.0466,-0.12151 8.08411,-8.20865 18.06835,-17.97143 30.39673,-29.722512 38.86254,-38.051776 39.50252,-38.86538 1.59255,-2.024596 1.16946,-5.354539 -0.94172,-7.411787 -2.2306,-2.173626 -4.66744,-2.674509 -6.95275,-1.429113 -0.71416,0.38919 -7.91873,7.141044 -16.01015,15.004123 -53.36788,51.861817 -68.71978,66.764687 -70.46025,68.399357 l -1.9697,1.84996 -2.59049,-2.49139 C 123.81928,145.78491 107.86437,130.29778 89.788698,112.73934 71.713022,95.180888 53.205949,77.208443 48.66187,72.800565 43.978749,68.257814 39.891829,64.55141 39.22698,64.24412 37.70797,63.54204 36.163618,63.555002 34.594595,64.283 c -3.764523,1.746669 -5.162373,6.077885 -2.907113,9.007642 0.818209,1.062918 9.958075,10.078928 38.052076,37.536418 10.854054,10.60814 19.734643,19.33082 19.734643,19.38373 0,0.1857 -7.565356,7.44444 -26.568915,25.49211 -31.510415,29.9254 -30.584403,29.02191 -31.121792,30.36498 -0.578783,1.44652 -0.599219,1.91346 -0.153932,3.51703 0.345743,1.2451 2.107202,3.44322 3.252404,4.05868 0.57042,0.30655 2.018033,0.74141 2.796951,0.84019 0.13962,0.0177 0.908326,-0.13261 1.708235,-0.33403 z"
   id="path1221" /></svg>
