<?xml version="1.0" encoding="UTF-8" standalone="no"?>
<!-- Created with Inkscape (http://www.inkscape.org/) -->

<svg
   version="1.1"
   id="svg3953"
   width="527"
   height="600.17212"
   viewBox="0 0 527 600.17212"
   sodipodi:docname="substack.png"
   inkscape:version="1.2.2 (732a01da63, 2022-12-09)"
   inkscape:dataloss="true"
   xmlns:inkscape="http://www.inkscape.org/namespaces/inkscape"
   xmlns:sodipodi="http://sodipodi.sourceforge.net/DTD/sodipodi-0.dtd"
   xmlns="http://www.w3.org/2000/svg"
   xmlns:svg="http://www.w3.org/2000/svg">
  <defs
     id="defs3957" />
  <sodipodi:namedview
     id="namedview3955"
     pagecolor="#ffffff"
     bordercolor="#000000"
     borderopacity="0.25"
     inkscape:showpageshadow="2"
     inkscape:pageopacity="0.0"
     inkscape:pagecheckerboard="0"
     inkscape:deskcolor="#d1d1d1"
     showgrid="false"
     showguides="true"
     inkscape:zoom="0.806"
     inkscape:cx="245.03722"
     inkscape:cy="193.54839"
     inkscape:window-width="2560"
     inkscape:window-height="1009"
     inkscape:window-x="1912"
     inkscape:window-y="-8"
     inkscape:window-maximized="1"
     inkscape:current-layer="g3959" />
  <g
     inkscape:groupmode="layer"
     inkscape:label="Image"
     id="g3959"
     transform="translate(-254.36973,-206.79653)">
    <g
       id="g4484"
       transform="translate(-13.647642,19.851117)"
       style="fill:#fcfcfc;fill-opacity:1">
      <path
         style="fill:#fcfcfc;fill-opacity:1"
         d="m 368.83054,419.25002 c 72.7818,-0.14156 191.5818,-0.14155 264,2e-5 72.4182,0.14157 12.86946,0.2574 -132.33054,0.25739 -145.2,-10e-6 -204.45126,-0.11584 -131.66946,-0.25741 z"
         id="path4490" />
      <path
         style="fill:#fcfcfc;fill-opacity:1"
         d="M 268.01737,622.53148 V 457.94541 h 263.5 263.49999 v 164.58333 c 0,90.52084 -0.3727,164.43334 -0.8282,164.25 -0.45548,-0.18333 -59.77961,-33.29257 -131.83138,-73.57609 L 531.35456,639.95989 405.93597,710.04711 c -68.98023,38.54797 -128.2311,71.65844 -131.6686,73.57883 l -6.25,3.4916 z m 0,-264.58607 v -35 h 263.5 263.49999 v 35 35 h -263.49999 -263.5 z m 0,-135.5 v -35.5 h 263.5 263.49999 v 35.5 35.5 h -263.49999 -263.5 z"
         id="path4486" />
    </g>
  </g>
</svg>
