<svg xmlns="http://www.w3.org/2000/svg" width="355" height="355" stroke="#000" stroke-linecap="round" stroke-linejoin="round" fill="#fff" fill-rule="evenodd"><path d="M23.4074 23.99L3 44.3973l27.7534 27.7534L58.5067 99.904l-5.247 9.0951c-23.439 41.0472-22.9727 97.4876 1.049 138.5339l4.198 7.1134-27.7533 27.8706L3 310.2704l20.7564 20.64 20.641 20.7563 27.7534-27.7534L99.904 296.16l8.1623 4.6644c10.1451 5.8306 22.5065 10.7286 36.033 14.2266 9.4459 2.5654 12.9442 2.799 33.8178 2.6827 21.3389 0 24.2543-.2337 34.6329-3.0327 12.594-3.498 27.2871-9.445 36.1493-14.9256l5.9471-3.7317 27.8707 27.8696 27.7534 27.7534 20.4062-20.4063c11.1951-11.195 20.4074-20.8737 20.4074-21.5737s-12.244-13.5267-27.287-28.4523L296.3938 253.83l2.099-2.9153c6.7633-9.6787 15.1593-31.4849 18.3072-47.577 2.4491-12.4777 2.6828-36.9657.5838-49.326-2.3327-13.4104-8.8623-32.0687-15.1593-43.7295l-5.7144-10.4949 27.5207-27.754 27.6359-27.636-20.7563-20.641L310.2705 3l-27.637 27.637-27.7534 27.5197-11.3113-6.0634c-21.3401-11.4276-40.3474-16.092-65.6517-16.2093-26.0043 0-48.0444 5.4807-68.4507 17.142l-8.8632 5.0143-27.1699-27.1706C58.3903 15.8276 45.6801 3.5827 44.98 3.5827S34.6013 12.795 23.4074 23.99zm175.3823 73.5813c20.8738 5.598 39.7647 20.4074 51.1923 40.1147 11.0788 19.3573 13.1778 49.443 4.6644 68.917l-2.0991 4.898-26.8205-27.5207-26.8197-27.637-20.99 20.99-20.99 20.9901 26.8199 26.8206c16.7919 16.9084 26.354 27.1707 25.6551 27.8697-4.0817 3.7316-25.4218 7.697-37.3157 6.7642-42.3301-3.1489-74.165-35.4502-77.1967-78.2465-1.7489-24.2554 10.7276-52.4751 29.7361-67.7507 8.1622-6.647 25.5373-15.1594 34.0503-16.792l8.746-1.749c4.4306-1.05 24.488.4663 31.3676 2.3316z" stroke-linejoin="miter" fill-rule="nonzero" stroke-width="6" fill="#a440f2" stroke="#a440f2" fill-opacity=".2"/></svg>