<?xml version="1.0" encoding="UTF-8" standalone="no"?>
<svg
   viewBox="0 0 50 50"
   width="250px"
   height="250px"
   version="1.1"
   id="svg6202"
   sodipodi:docname="telegram-logo.svg"
   inkscape:version="1.2.2 (732a01da63, 2022-12-09)"
   xmlns:inkscape="http://www.inkscape.org/namespaces/inkscape"
   xmlns:sodipodi="http://sodipodi.sourceforge.net/DTD/sodipodi-0.dtd"
   xmlns="http://www.w3.org/2000/svg"
   xmlns:svg="http://www.w3.org/2000/svg">
  <defs
     id="defs6206" />
  <sodipodi:namedview
     id="namedview6204"
     pagecolor="#ffffff"
     bordercolor="#000000"
     borderopacity="0.25"
     inkscape:showpageshadow="2"
     inkscape:pageopacity="0.0"
     inkscape:pagecheckerboard="0"
     inkscape:deskcolor="#d1d1d1"
     showgrid="false"
     inkscape:zoom="3.256"
     inkscape:cx="125.15356"
     inkscape:cy="125"
     inkscape:window-width="2560"
     inkscape:window-height="1001"
     inkscape:window-x="-9"
     inkscape:window-y="-9"
     inkscape:window-maximized="1"
     inkscape:current-layer="svg6202" />
  <path
     d="M 44.376953 5.9863281 C 43.889905 6.0076957 43.415817 6.1432497 42.988281 6.3144531 C 42.565113 6.4845113 40.128883 7.5243408 36.53125 9.0625 C 32.933617 10.600659 28.256963 12.603668 23.621094 14.589844 C 14.349356 18.562196 5.2382813 22.470703 5.2382812 22.470703 L 5.3046875 22.445312 C 5.3046875 22.445312 4.7547875 22.629122 4.1972656 23.017578 C 3.9185047 23.211806 3.6186028 23.462555 3.3730469 23.828125 C 3.127491 24.193695 2.9479735 24.711788 3.015625 25.259766 C 3.2532479 27.184511 5.2480469 27.730469 5.2480469 27.730469 L 5.2558594 27.734375 L 14.158203 30.78125 C 14.385177 31.538434 16.858319 39.792923 17.402344 41.541016 C 17.702797 42.507484 17.984013 43.064995 18.277344 43.445312 C 18.424133 43.635633 18.577962 43.782915 18.748047 43.890625 C 18.815627 43.933415 18.8867 43.965525 18.957031 43.994141 C 18.958531 43.994806 18.959437 43.99348 18.960938 43.994141 C 18.969579 43.997952 18.977708 43.998295 18.986328 44.001953 L 18.962891 43.996094 C 18.979231 44.002694 18.995359 44.013801 19.011719 44.019531 C 19.043456 44.030655 19.062905 44.030268 19.103516 44.039062 C 20.123059 44.395042 20.966797 43.734375 20.966797 43.734375 L 21.001953 43.707031 L 26.470703 38.634766 L 35.345703 45.554688 L 35.457031 45.605469 C 37.010484 46.295216 38.415349 45.910403 39.193359 45.277344 C 39.97137 44.644284 40.277344 43.828125 40.277344 43.828125 L 40.310547 43.742188 L 46.832031 9.7519531 C 46.998903 8.9915162 47.022612 8.334202 46.865234 7.7402344 C 46.707857 7.1462668 46.325492 6.6299361 45.845703 6.34375 C 45.365914 6.0575639 44.864001 5.9649605 44.376953 5.9863281 z M 44.429688 8.0195312 C 44.627491 8.0103707 44.774102 8.032983 44.820312 8.0605469 C 44.866523 8.0881109 44.887272 8.0844829 44.931641 8.2519531 C 44.976011 8.419423 45.000036 8.7721605 44.878906 9.3242188 L 44.875 9.3359375 L 38.390625 43.128906 C 38.375275 43.162926 38.240151 43.475531 37.931641 43.726562 C 37.616914 43.982653 37.266874 44.182554 36.337891 43.792969 L 26.632812 36.224609 L 26.359375 36.009766 L 26.353516 36.015625 L 23.451172 33.837891 L 39.761719 14.648438 A 1.0001 1.0001 0 0 0 38.974609 13 A 1.0001 1.0001 0 0 0 38.445312 13.167969 L 14.84375 28.902344 L 5.9277344 25.849609 C 5.9277344 25.849609 5.0423771 25.356927 5 25.013672 C 4.99765 24.994652 4.9871961 25.011869 5.0332031 24.943359 C 5.0792101 24.874869 5.1948546 24.759225 5.3398438 24.658203 C 5.6298218 24.456159 5.9609375 24.333984 5.9609375 24.333984 L 5.9941406 24.322266 L 6.0273438 24.308594 C 6.0273438 24.308594 15.138894 20.399882 24.410156 16.427734 C 29.045787 14.44166 33.721617 12.440122 37.318359 10.902344 C 40.914175 9.3649615 43.512419 8.2583658 43.732422 8.1699219 C 43.982886 8.0696253 44.231884 8.0286918 44.429688 8.0195312 z M 33.613281 18.792969 L 21.244141 33.345703 L 21.238281 33.351562 A 1.0001 1.0001 0 0 0 21.183594 33.423828 A 1.0001 1.0001 0 0 0 21.128906 33.507812 A 1.0001 1.0001 0 0 0 20.998047 33.892578 A 1.0001 1.0001 0 0 0 20.998047 33.900391 L 19.386719 41.146484 C 19.35993 41.068197 19.341173 41.039555 19.3125 40.947266 L 19.3125 40.945312 C 18.800713 39.30085 16.467362 31.5161 16.144531 30.439453 L 33.613281 18.792969 z M 22.640625 35.730469 L 24.863281 37.398438 L 21.597656 40.425781 L 22.640625 35.730469 z"
     id="path6200" />
  <path
     style="fill:#6dd3b4;stroke:#6dd3b4;stroke-width:0.307125"
     d="m 180.89681,229.27744 c -1.18244,-0.31462 -2.6336,-0.78263 -3.22482,-1.04003 -0.59122,-0.2574 -11.0048,-8.21566 -23.14129,-17.68501 -12.13649,-9.46936 -22.11002,-17.21702 -22.1634,-17.21702 -0.0534,0 -6.29367,5.74969 -13.86731,12.77709 -9.09767,8.4415 -14.29134,13.04403 -15.30589,13.5638 -1.11883,0.57318 -2.17136,0.82485 -3.877954,0.92725 -6.606536,0.39641 -9.437095,-3.1264 -13.642881,-16.97944 -1.128247,-3.71622 -4.930132,-16.34733 -8.44864,-28.06913 -3.518507,-11.72181 -6.508808,-21.414 -6.645107,-21.53821 -0.136302,-0.1242 -10.475095,-3.71554 -22.975095,-7.98074 -12.5,-4.2652 -23.551161,-8.18633 -24.558135,-8.71364 -6.694281,-3.50545 -9.827176,-10.99465 -7.017625,-16.77568 0.983411,-2.0235 3.90229,-4.99702 6.239402,-6.3562 1.439496,-0.83717 164.060285,-70.660618 185.809335,-79.779774 10.39204,-4.357281 10.24184,-4.312426 14.44134,-4.312426 3.37673,0 3.63173,0.04594 5.58099,1.005563 2.55765,1.259127 4.84925,3.680631 5.80694,6.136127 0.52087,1.3355 0.71762,2.586966 0.8086,5.143322 l 0.12024,3.378379 -16.62828,86.609339 c -18.80335,97.93833 -16.64912,88.37717 -20.86889,92.62279 -2.47489,2.49005 -4.38967,3.61496 -7.52265,4.41945 -2.44306,0.62734 -6.26973,0.56907 -8.91888,-0.13581 z m 8.21298,-10.31316 c 2.62355,-1.72832 1.13444,5.16794 19.13897,-88.63515 10.42786,-54.328838 16.40784,-86.160503 16.40634,-87.331587 -0.001,-1.013514 -0.10527,-2.004552 -0.23106,-2.202308 -0.38238,-0.601124 -1.74211,-0.778021 -3.48348,-0.453192 -1.85609,0.346229 -6.87671,2.477073 -115.66902,49.09206 C 39.948272,117.42362 27.286731,122.94581 26.186776,123.92606 l -1.309626,1.1671 0.628492,0.84948 c 1.736852,2.34754 2.882727,2.81891 26.367408,10.84659 l 22.38902,7.65316 59.45987,-39.64443 c 56.67894,-37.790257 59.5317,-39.649622 60.9955,-39.755549 2.0752,-0.150172 3.73972,0.798108 4.68367,2.66828 0.83571,1.655746 0.87465,2.898781 0.13617,4.347267 -0.30518,0.598581 -18.89394,22.663479 -41.30836,49.033112 -22.41442,26.36962 -40.75349,48.00627 -40.75349,48.08143 0,0.0752 3.2133,2.53565 7.14066,5.46776 3.92737,2.93211 18.05897,13.83746 31.40357,24.23411 13.34459,10.39666 24.67751,19.20485 25.18427,19.57377 1.24751,0.90819 4.02802,1.62914 5.52826,1.4334 0.67567,-0.0882 1.74559,-0.50092 2.3776,-0.91726 z m -87.96717,-32.46323 c 3.83811,-17.35965 4.15072,-18.57945 5.05679,-19.73201 1.02354,-1.30196 59.33426,-70.016162 60.69364,-71.522246 0.43855,-0.485888 -18.73707,12.134216 -42.61248,28.044666 -38.86283,25.89798 -43.392146,28.99844 -43.240733,29.59965 0.09302,0.36935 3.436935,11.52075 7.430928,24.78088 3.993989,13.26014 7.474186,24.83492 7.733768,25.72174 0.259582,0.88683 0.556367,1.61206 0.659518,1.61162 0.103151,-3.1e-4 2.028504,-8.32737 4.278569,-18.5043 z m 15.60318,7.41281 c 3.90614,-3.61208 7.09682,-6.70563 7.09041,-6.87455 -0.0123,-0.32467 -10.38208,-8.21253 -10.56115,-8.03345 -0.12484,0.12483 -5.01339,21.99485 -5.01339,22.42849 0,0.16527 0.31097,0.0184 0.69103,-0.32629 0.38007,-0.34473 3.88697,-3.58212 7.7931,-7.1942 z"
     id="path6688"
     transform="scale(0.2)" />
  <path
     style="fill:#50d313;stroke:#50d313;stroke-width:0.307125"
     d="m 183.04668,229.97739 c -0.50675,-0.0666 -1.95792,-0.4199 -3.22481,-0.78523 -2.70777,-0.78083 -2.80582,-0.85257 -29.63759,-21.68343 -9.45946,-7.34386 -17.34296,-13.46107 -17.51889,-13.5938 -0.19077,-0.14394 -4.09545,3.24667 -9.67445,8.40075 -14.75941,13.63527 -18.57869,17.00123 -20.15894,17.76622 -1.17929,0.57088 -1.99992,0.71695 -4.088603,0.72772 -4.585722,0.0236 -6.900098,-1.62799 -9.44907,-6.74328 -1.752189,-3.51631 -2.933102,-7.1458 -10.49242,-32.24816 -3.713381,-12.33108 -7.138286,-23.5949 -7.610906,-25.03071 l -0.859306,-2.61057 -2.91769,-1.02399 c -1.60473,-0.5632 -9.067875,-3.13978 -16.584767,-5.72573 -28.914233,-9.94704 -29.478257,-10.18026 -32.353373,-13.37808 -2.556361,-2.84329 -3.662303,-5.67745 -3.631337,-9.30591 0.02433,-2.85056 1.193822,-5.33928 3.67495,-7.82041 2.915398,-2.9154 -3.207712,-0.11505 55.190596,-25.240897 C 127.5639,68.511293 203.27792,36.111118 210.77722,33.026966 c 7.45473,-3.065826 9.52243,-3.528326 13.88494,-3.105765 3.68237,0.356679 7.54663,3.148656 9.18652,6.637363 0.70042,1.490079 1.23044,4.689277 1.24626,7.522478 0.006,1.002152 -5.33837,29.566587 -13.04306,69.717448 -15.03479,78.34965 -19.80728,102.6834 -20.16708,102.82705 -0.14079,0.0562 -0.16696,0.45689 -0.0582,0.8904 0.15001,0.59773 0.10195,0.72896 -0.19889,0.54303 -0.30368,-0.18769 -0.3473,-0.0483 -0.18604,0.59417 0.15343,0.61131 0.11098,0.77775 -0.15623,0.61261 -0.21843,-0.135 -0.28637,-0.0965 -0.16792,0.0952 0.47636,0.77076 -1.38498,3.75388 -3.679,5.89623 -4.19683,3.91938 -8.85536,5.44727 -14.39189,4.72022 z m 5.39641,-11.07383 c 1.92868,-0.9769 2.18554,-1.40978 3.1929,-5.38089 1.54015,-6.07145 19.1901,-97.22371 29.00487,-149.794169 4.23536,-22.685661 4.20322,-22.443931 3.0648,-23.053197 -1.78196,-0.953677 0.9358,-2.065294 -86.57421,35.410531 C 39.221082,118.01558 27.859346,122.95464 26.128064,124.34017 l -0.898964,0.71942 0.658752,0.92514 c 1.409906,1.98003 3.444299,2.7842 30.573426,12.08539 l 17.763489,6.09019 48.268453,-32.17552 c 60.21882,-40.141577 69.76694,-46.432379 71.25027,-46.943429 2.38777,-0.822654 4.74672,0.281422 5.90172,2.762229 0.41143,0.883701 0.74578,1.883142 0.743,2.22098 -0.0106,1.289942 -1.21184,3.0582 -5.67077,8.347641 -9.63336,11.427663 -34.02267,40.223049 -55.05843,65.005089 l -21.85596,25.74831 7.89823,6.01598 c 4.34403,3.30879 18.62092,14.33797 31.72643,24.50931 13.10551,10.17133 24.26119,18.71723 24.79039,18.99089 1.00702,0.52076 2.83817,1.02296 3.92155,1.07552 0.34977,0.017 1.38632,-0.34922 2.30344,-0.81375 z M 99.816373,191.12249 c 4.136277,-18.41897 5.101367,-22.43877 5.640007,-23.4917 0.53855,-1.05274 1.50983,-2.21405 26.27929,-31.42072 20.78101,-24.50372 29.93873,-35.27597 32.09119,-37.748955 1.19693,-1.37516 1.48286,-1.846103 0.94821,-1.561763 -1.27528,0.678228 -34.81853,22.872078 -55.99447,37.048668 -20.301442,13.59115 -26.600407,17.90806 -27.150274,18.60707 -0.219365,0.27886 1.928845,7.84379 7.382401,25.99716 5.510937,18.34438 7.75852,25.42349 7.927126,24.9677 0.129431,-0.34989 1.423863,-5.92874 2.87652,-12.39746 z m 17.724257,1.65097 6.04298,-5.62949 -0.98099,-0.85325 c -2.55033,-2.21824 -8.91052,-6.79918 -9.12367,-6.57135 -0.13176,0.14083 -1.22929,4.74777 -2.43896,10.23763 -1.20967,5.48987 -2.27963,10.25799 -2.37768,10.59583 -0.19923,0.68644 -0.36877,0.835 8.87832,-7.77937 z"
     id="path20936"
     transform="scale(0.2)" />
  <path
     style="fill:#50d313;fill-opacity:0.3;stroke:#50d313;stroke-width:0.307125"
     d="m 183.42026,218.97121 c -1.11898,-0.41074 -4.21464,-2.69184 -15.42272,-11.36453 -29.22004,-22.61015 -38.96326,-30.12515 -43.98687,-33.92732 -3.23618,-2.44932 -5.85774,-4.54042 -5.82569,-4.64688 0.032,-0.10646 9.24899,-11.02086 20.4821,-24.25424 30.38191,-35.79199 56.31521,-66.447466 58.56191,-69.225414 3.26676,-4.039205 3.69005,-5.294188 2.58979,-7.678133 -1.35485,-2.935579 -4.11419,-3.97593 -6.84726,-2.581621 -2.15166,1.097695 -11.90476,7.530475 -65.97521,43.514798 -28.800671,19.16709 -52.507661,34.90453 -52.682195,34.97211 -0.174533,0.0676 -6.324717,-1.94041 -13.667076,-4.46217 -26.809546,-9.20784 -30.44521,-10.52688 -32.777694,-11.89195 -1.416474,-0.82897 -2.399003,-2.04841 -2.074068,-2.57416 0.672632,-1.08835 13.778916,-6.81538 104.579413,-45.697941 90.08765,-38.577298 91.6408,-39.21864 93.0935,-38.441177 1.24799,0.667904 1.34901,0.02721 -6.82498,43.286189 -13.83231,73.204429 -24.56034,127.855679 -25.86213,131.748159 -0.61869,1.84994 -0.78921,2.06964 -2.20614,2.84233 -1.71987,0.9379 -3.31757,1.05628 -5.15468,0.38195 z"
     id="path858"
     transform="scale(0.2)" />
  <path
     style="fill:#50d313;fill-opacity:0.3;stroke:#50d313;stroke-width:0.307125"
     d="m 94.816565,196.94911 c -2.532172,-7.93949 -10.172624,-33.43466 -11.755188,-39.2255 -0.69814,-2.5546 -1.199829,-4.82588 -1.114864,-5.04729 0.08496,-0.22142 1.928992,-1.64483 4.097841,-3.16316 11.045305,-7.73236 77.813746,-52.096501 78.050066,-51.860184 0.0674,0.06744 -3.04243,3.829504 -6.91082,8.360134 -6.88671,8.06565 -34.23135,40.30203 -45.02348,53.0778 -2.99652,3.5473 -5.80359,6.95959 -6.23793,7.58287 -1.03952,1.49174 -1.83192,4.67514 -8.127204,32.65054 -0.380117,1.68919 -0.781147,3.17716 -0.891178,3.3066 -0.110032,0.12945 -1.049291,-2.42737 -2.087243,-5.68181 z"
     id="path860"
     transform="scale(0.2)" />
  <path
     style="fill:#50d313;fill-opacity:0.3;stroke:#50d313;stroke-width:0.307125"
     d="m 109.0042,199.6248 c 0.12654,-0.5031 1.05127,-4.56438 2.05495,-9.02507 1.00369,-4.46068 1.97438,-8.70404 2.15709,-9.42967 l 0.33222,-1.31933 0.81176,0.50969 c 0.80724,0.50686 6.90753,5.02865 8.29534,6.14885 l 0.72681,0.58666 -6.25507,5.84398 c -3.44028,3.21418 -6.72714,6.23899 -7.30412,6.72179 l -1.04905,0.87782 z"
     id="path862"
     transform="scale(0.2)" />
</svg>
