<?xml version="1.0" encoding="UTF-8" standalone="no"?>
<svg
   viewBox="0 0 50 50"
   width="250px"
   height="250px"
   version="1.1"
   id="svg4"
   sodipodi:docname="twitter-logo.svg"
   inkscape:version="1.2.2 (732a01da63, 2022-12-09)"
   xmlns:inkscape="http://www.inkscape.org/namespaces/inkscape"
   xmlns:sodipodi="http://sodipodi.sourceforge.net/DTD/sodipodi-0.dtd"
   xmlns="http://www.w3.org/2000/svg"
   xmlns:svg="http://www.w3.org/2000/svg">
  <defs
     id="defs8" />
  <sodipodi:namedview
     id="namedview6"
     pagecolor="#ffffff"
     bordercolor="#000000"
     borderopacity="0.25"
     inkscape:showpageshadow="2"
     inkscape:pageopacity="0.0"
     inkscape:pagecheckerboard="0"
     inkscape:deskcolor="#d1d1d1"
     showgrid="false"
     inkscape:zoom="3.256"
     inkscape:cx="125.15356"
     inkscape:cy="125"
     inkscape:window-width="2560"
     inkscape:window-height="1001"
     inkscape:window-x="-9"
     inkscape:window-y="-9"
     inkscape:window-maximized="1"
     inkscape:current-layer="svg4" />
  <path
     d="M 34.21875 5.46875 C 28.238281 5.46875 23.375 10.332031 23.375 16.3125 C 23.375 16.671875 23.464844 17.023438 23.5 17.375 C 16.105469 16.667969 9.566406 13.105469 5.125 7.65625 C 4.917969 7.394531 4.597656 7.253906 4.261719 7.277344 C 3.929688 7.300781 3.632813 7.492188 3.46875 7.78125 C 2.535156 9.386719 2 11.234375 2 13.21875 C 2 15.621094 2.859375 17.820313 4.1875 19.625 C 3.929688 19.511719 3.648438 19.449219 3.40625 19.3125 C 3.097656 19.148438 2.726563 19.15625 2.425781 19.335938 C 2.125 19.515625 1.941406 19.839844 1.9375 20.1875 L 1.9375 20.3125 C 1.9375 23.996094 3.84375 27.195313 6.65625 29.15625 C 6.625 29.152344 6.59375 29.164063 6.5625 29.15625 C 6.21875 29.097656 5.871094 29.21875 5.640625 29.480469 C 5.410156 29.742188 5.335938 30.105469 5.4375 30.4375 C 6.554688 33.910156 9.40625 36.5625 12.9375 37.53125 C 10.125 39.203125 6.863281 40.1875 3.34375 40.1875 C 2.582031 40.1875 1.851563 40.148438 1.125 40.0625 C 0.65625 40 0.207031 40.273438 0.0507813 40.71875 C -0.109375 41.164063 0.0664063 41.660156 0.46875 41.90625 C 4.980469 44.800781 10.335938 46.5 16.09375 46.5 C 25.425781 46.5 32.746094 42.601563 37.65625 37.03125 C 42.566406 31.460938 45.125 24.226563 45.125 17.46875 C 45.125 17.183594 45.101563 16.90625 45.09375 16.625 C 46.925781 15.222656 48.5625 13.578125 49.84375 11.65625 C 50.097656 11.285156 50.070313 10.789063 49.777344 10.445313 C 49.488281 10.101563 49 9.996094 48.59375 10.1875 C 48.078125 10.417969 47.476563 10.441406 46.9375 10.625 C 47.648438 9.675781 48.257813 8.652344 48.625 7.5 C 48.75 7.105469 48.613281 6.671875 48.289063 6.414063 C 47.964844 6.160156 47.511719 6.128906 47.15625 6.34375 C 45.449219 7.355469 43.558594 8.066406 41.5625 8.5 C 39.625 6.6875 37.074219 5.46875 34.21875 5.46875 Z M 34.21875 7.46875 C 36.769531 7.46875 39.074219 8.558594 40.6875 10.28125 C 40.929688 10.53125 41.285156 10.636719 41.625 10.5625 C 42.929688 10.304688 44.167969 9.925781 45.375 9.4375 C 44.679688 10.375 43.820313 11.175781 42.8125 11.78125 C 42.355469 12.003906 42.140625 12.53125 42.308594 13.011719 C 42.472656 13.488281 42.972656 13.765625 43.46875 13.65625 C 44.46875 13.535156 45.359375 13.128906 46.3125 12.875 C 45.457031 13.800781 44.519531 14.636719 43.5 15.375 C 43.222656 15.578125 43.070313 15.90625 43.09375 16.25 C 43.109375 16.65625 43.125 17.058594 43.125 17.46875 C 43.125 23.71875 40.726563 30.503906 36.15625 35.6875 C 31.585938 40.871094 24.875 44.5 16.09375 44.5 C 12.105469 44.5 8.339844 43.617188 4.9375 42.0625 C 9.15625 41.738281 13.046875 40.246094 16.1875 37.78125 C 16.515625 37.519531 16.644531 37.082031 16.511719 36.683594 C 16.378906 36.285156 16.011719 36.011719 15.59375 36 C 12.296875 35.941406 9.535156 34.023438 8.0625 31.3125 C 8.117188 31.3125 8.164063 31.3125 8.21875 31.3125 C 9.207031 31.3125 10.183594 31.1875 11.09375 30.9375 C 11.53125 30.808594 11.832031 30.402344 11.816406 29.945313 C 11.800781 29.488281 11.476563 29.097656 11.03125 29 C 7.472656 28.28125 4.804688 25.382813 4.1875 21.78125 C 5.195313 22.128906 6.226563 22.402344 7.34375 22.4375 C 7.800781 22.464844 8.214844 22.179688 8.355469 21.746094 C 8.496094 21.3125 8.324219 20.835938 7.9375 20.59375 C 5.5625 19.003906 4 16.296875 4 13.21875 C 4 12.078125 4.296875 11.03125 4.6875 10.03125 C 9.6875 15.519531 16.6875 19.164063 24.59375 19.5625 C 24.90625 19.578125 25.210938 19.449219 25.414063 19.210938 C 25.617188 18.96875 25.695313 18.648438 25.625 18.34375 C 25.472656 17.695313 25.375 17.007813 25.375 16.3125 C 25.375 11.414063 29.320313 7.46875 34.21875 7.46875 Z"
     id="path2" />
  <path
     style="fill:#6dd3b4;stroke:#6dd3b4;stroke-width:0.307125"
     d="M 71.560197,232.32412 C 48.812036,230.83869 25.966826,223.763 6.6031941,212.20543 c -5.2865384,-3.15537 -5.445802,-3.28365 -6.21677644,-5.00724 -0.87145013,-1.94821 -0.53716229,-3.80276 0.95430184,-5.29422 1.5710695,-1.57107 2.7659814,-1.83443 6.5757492,-1.44932 4.9726103,0.50267 17.6546223,0.13965 22.7674313,-0.65171 10.79325,-1.67057 22.171533,-5.6018 31.803096,-10.98808 l 1.989745,-1.11273 -2.997976,-1.0051 C 46.134122,181.5526 33.457396,169.37709 27.944999,154.48915 c -1.326237,-3.58192 -1.330265,-5.04065 -0.01867,-6.76024 1.047708,-1.37362 2.263812,-1.99795 3.891687,-1.99795 h 1.289555 l -2.110228,-1.59749 C 21.502416,136.94562 14.118826,125.88571 11.252611,114.55774 9.569645,107.90626 9.1887945,99.952964 10.4705,98.224942 c 1.810434,-2.44087 4.01996,-2.827086 7.558672,-1.321229 1.198203,0.509883 2.234388,0.871219 2.302635,0.802973 0.06825,-0.06825 -0.626904,-1.280107 -1.544777,-2.693025 -3.700338,-5.696078 -6.619895,-12.816437 -7.954699,-19.400319 -1.0089148,-4.976438 -1.0019849,-14.451115 0.01427,-19.511927 0.909608,-4.529719 2.465936,-9.236053 4.377702,-13.238161 2.422055,-5.070353 3.798657,-6.465537 6.381615,-6.467757 2.009423,-0.0017 3.187296,0.732664 5.323966,3.319439 1.066942,1.291699 3.246684,3.732512 4.843874,5.424028 21.510636,22.780996 49.83778,37.091859 81.500872,41.174218 2.16592,0.279254 3.98223,0.460129 4.03625,0.401944 0.054,-0.05818 -0.0168,-0.796821 -0.15743,-1.641416 -0.67313,-4.043252 -0.087,-11.232282 1.39366,-17.093136 2.87325,-11.373213 10.10245,-22.280341 19.50572,-29.429433 10.66109,-8.105389 24.39416,-12.242283 36.8382,-11.096991 11.48429,1.056962 21.53166,5.301278 30.57711,12.916709 l 2.45832,2.069672 3.37706,-0.871851 c 7.93782,-2.04929 15.95943,-5.16605 21.99547,-8.54623 1.79769,-1.006705 3.82939,-1.920059 4.51488,-2.029675 2.63552,-0.421436 5.58294,2.135348 5.58294,4.843007 0,2.373405 -2.90882,8.822767 -6.27046,13.902694 -1.11206,1.680486 -2.02193,3.076699 -2.02193,3.102695 0,0.152718 6.71202,-1.499069 7.60129,-1.870632 1.63012,-0.681107 3.791,-0.576132 4.99397,0.242606 1.74098,1.184897 2.30032,2.209194 2.30032,4.212462 0,1.63905 -0.12729,1.97423 -1.53563,4.043478 -4.42399,6.500129 -12.00828,14.689094 -18.92187,20.430485 l -3.87274,3.216112 -0.17684,7.889333 c -0.27834,12.417685 -1.90367,23.247785 -5.29539,35.284795 -9.65938,34.28062 -30.66056,63.68584 -58.95674,82.54947 -19.7893,13.19252 -41.17657,20.65272 -66.043844,23.03707 -6.166941,0.59131 -18.004373,0.81555 -23.636749,0.44777 z m 23.182638,-10.59151 c 36.580755,-3.4495 68.041815,-20.44465 90.660775,-48.97462 13.30984,-16.78809 23.08567,-37.94704 27.40722,-59.32057 1.96806,-9.73365 2.62974,-16.461572 2.6344,-26.786268 0.004,-8.26543 0.02,-8.318532 3.31396,-10.791201 4.4752,-3.359438 12.99924,-11.210074 12.17164,-11.210074 -0.17494,0 -1.55329,0.421828 -3.06302,0.937396 -4.46826,1.525893 -9.57101,2.748108 -11.47337,2.748108 -2.21897,0 -3.57007,-0.817116 -4.57459,-2.766606 -0.84045,-1.631078 -0.77421,-3.594902 0.16425,-4.869832 0.32773,-0.44523 2.10077,-1.846056 3.94009,-3.112948 3.23186,-2.22605 8.4313,-7.025513 9.95938,-9.193234 0.66618,-0.945028 0.6812,-1.02829 0.14485,-0.802604 -4.44446,1.870114 -15.02232,4.925202 -18.27724,5.278815 -2.24014,0.243369 -3.09148,-0.207172 -6.49119,-3.435227 -6.12439,-5.815167 -14.16327,-9.843881 -22.68707,-11.369701 -3.87073,-0.69289 -11.12174,-0.69382 -15.02869,-0.0019 -3.5146,0.622408 -9.26486,2.493125 -12.18739,3.964889 -5.70025,2.870599 -11.77657,7.955612 -15.6201,13.071801 -3.61174,4.807641 -6.68266,11.734615 -7.97857,17.997017 -0.79084,3.821649 -0.92743,10.413526 -0.29592,14.281327 0.91136,5.581883 0.92472,6.750829 0.0911,7.977948 -0.39888,0.587199 -1.20568,1.397331 -1.79288,1.800295 -1.02994,0.706803 -1.20572,0.725998 -4.97961,0.543765 C 99.901923,96.690974 76.316975,89.319994 57.227654,77.836935 45.999595,71.082767 38.137233,64.944877 28.64109,55.520342 c -2.828482,-2.807153 -5.196789,-5.045584 -5.262905,-4.97429 -0.429266,0.462877 -2.375914,7.434458 -2.814998,10.08143 -0.923531,5.567395 -0.306352,12.821501 1.607608,18.89527 2.686896,8.526609 8.73333,16.908645 16.207129,22.467578 2.793037,2.07744 3.595869,3.22895 3.595869,5.15758 0,3.04265 -2.216047,5.10639 -5.48324,5.10639 -2.453968,0 -7.736621,-0.92466 -11.544785,-2.02076 -2.030068,-0.58432 -3.734198,-1.01923 -3.786955,-0.96647 -0.161134,0.16113 0.769269,3.91924 1.613969,6.51917 2.656115,8.17537 8.4595,16.26473 15.44673,21.53125 3.593532,2.70858 9.501201,5.62727 13.542589,6.69074 1.767331,0.46506 3.83304,1.14659 4.590467,1.51449 3.620239,1.75848 3.653249,6.94877 0.05584,8.78074 -1.677865,0.85445 -7.293492,1.89271 -11.593937,2.14356 -2.088154,0.12181 -3.885249,0.31007 -3.993541,0.41837 -0.576419,0.57642 4.489342,7.24819 8.237994,10.84971 7.722021,7.41893 16.183219,11.22701 26.824767,12.07285 2.018099,0.16041 3.788676,0.47031 4.352322,0.76178 2.291987,1.18524 3.237613,4.54024 1.93363,6.86037 -1.323707,2.35521 -10.021864,8.13872 -18.594708,12.36384 -10.645688,5.24672 -20.625814,8.26761 -32.949749,9.97358 -1.906146,0.26387 -3.979242,0.48771 -4.60688,0.49745 l -1.14116,0.0177 1.689189,0.76824 c 5.473999,2.48958 13.672138,5.34668 20.097522,7.0041 9.437942,2.43451 17.19296,3.61207 28.274714,4.29336 3.382954,0.20798 14.980814,-0.1409 19.80426,-0.59575 z"
     id="path973"
     transform="scale(0.2)" />
  <path
     style="fill:#50d313;stroke:#50d313;stroke-width:0.307125"
     d="m 69.717445,232.46774 c -0.506757,-0.0682 -2.441646,-0.27451 -4.299755,-0.45843 -5.170737,-0.51182 -13.369545,-1.95663 -19.097549,-3.36542 -6.277988,-1.54405 -16.287951,-4.83882 -21.903679,-7.20957 -8.492688,-3.5853 -20.818649,-10.25175 -23.0602204,-12.47203 -0.77663543,-0.76926 -1.23670567,-1.58924 -1.49441832,-2.66351 -0.33026929,-1.37672 -0.30424398,-1.70604 0.23032647,-2.91452 0.3333114,-0.75351 1.12431755,-1.75935 1.76982605,-2.2505 l 1.1671584,-0.88806 8.0063168,0.10257 c 17.725801,0.2271 27.755203,-1.45644 41.151727,-6.90772 3.708065,-1.50887 11.234198,-5.25021 11.234198,-5.58466 0,-0.11707 -1.140203,-0.61548 -2.533784,-1.10756 -7.755737,-2.7386 -14.073839,-6.68611 -20.149318,-12.58916 -4.768332,-4.633 -7.933959,-8.87053 -10.602122,-14.19207 -2.782601,-5.54978 -3.748407,-8.74559 -3.228056,-10.68149 0.44295,-1.64795 2.314358,-3.43427 3.944754,-3.76541 l 1.230578,-0.24993 -2.172593,-1.68919 c -3.17831,-2.47113 -7.888152,-7.48561 -10.518666,-11.19903 -5.834254,-8.23604 -8.981562,-16.90834 -9.885861,-27.24016 -0.4017613,-4.59021 0.2982301,-7.106199 2.413,-8.673079 1.147079,-0.849895 3.763236,-0.808679 6.010671,0.09469 0.908786,0.365295 1.691052,0.624552 1.738369,0.576131 0.04732,-0.04842 -0.602673,-1.193689 -1.444422,-2.54504 -3.596072,-5.77317 -6.74765,-13.860218 -7.777217,-19.956588 -0.7087019,-4.196428 -0.7080011,-13.329899 0.0013,-17.519257 1.369008,-8.085297 5.581163,-18.06951 8.539456,-20.241364 0.641827,-0.471202 1.329913,-0.6366 2.648374,-0.6366 2.351275,0 2.968316,0.46325 7.77263,5.835381 18.339813,20.507374 41.403784,34.376189 68.200833,41.010482 4.451598,1.102107 13.579338,2.755006 17.730028,3.210645 l 1.703,0.186944 -0.29591,-2.540709 c -0.35663,-3.062049 0.0998,-9.102261 1.02601,-13.579444 1.81399,-8.768139 5.801,-16.828697 11.97596,-24.211875 8.07282,-9.652374 20.19685,-16.393258 33.33511,-18.534113 4.04086,-0.658451 11.02954,-0.664406 15.20196,-0.01295 10.44236,1.630399 19.46517,5.866668 27.97922,13.136433 l 1.71926,1.468001 4.26968,-1.198471 c 7.8615,-2.20667 14.49761,-4.782662 20.26119,-7.864949 5.54523,-2.965521 6.88327,-3.086689 9.36151,-0.847745 1.73885,1.570944 2.07102,2.919113 1.36336,5.533422 -0.67079,2.478081 -3.43574,8.146756 -5.77785,11.845684 -0.93587,1.478041 -1.53819,2.686466 -1.33849,2.685389 0.19971,-0.0011 1.95248,-0.446162 3.89505,-0.989078 4.53416,-1.267223 6.57296,-1.299061 8.11008,-0.126647 1.47183,1.122623 2.02581,2.287527 2.02135,4.250465 -0.004,1.864457 -0.55515,2.986186 -3.17849,6.471785 -4.57006,6.07219 -12.21447,14.019284 -18.20967,18.930682 l -2.77828,2.276035 -0.21259,6.937724 c -0.58152,18.977586 -3.59236,33.818196 -10.35327,51.031886 -3.67913,9.36727 -8.73509,19.11329 -14.32828,27.6196 -14.22823,21.63877 -32.89432,38.1968 -55.78838,49.4879 -14.58795,7.19462 -29.13135,11.36355 -47.635056,13.65478 -2.847844,0.35264 -7.294893,0.52153 -15.509828,0.58905 -6.33446,0.0521 -11.931819,0.0389 -12.438575,-0.0294 z m 16.864232,-10.57395 c 7.884155,-0.31836 12.524561,-0.79471 19.461693,-1.9978 35.04177,-6.07721 65.28841,-25.8975 85.29227,-55.89108 4.24952,-6.37166 6.57213,-10.40809 9.70454,-16.8653 5.3407,-11.00945 9.26271,-22.62089 11.62762,-34.42462 1.61114,-8.04149 2.18354,-13.605653 2.44861,-23.802214 0.13392,-5.152027 0.38605,-9.715436 0.56027,-10.140909 0.35719,-0.872282 1.61046,-2.050675 6.23701,-5.864388 1.76504,-1.454939 4.45302,-3.830139 5.97329,-5.278222 l 2.76413,-2.632875 -2.85715,0.906901 c -4.209,1.336001 -8.32496,2.363686 -10.41285,2.599902 -1.48733,0.168274 -2.10694,0.09099 -3.22075,-0.401695 -3.30936,-1.463889 -4.2393,-5.955931 -1.70005,-8.212055 0.57035,-0.506757 2.26568,-1.814177 3.7674,-2.905375 2.61402,-1.899436 9.35583,-8.118574 9.35583,-8.630506 0,-0.135035 -1.79418,0.356257 -3.98708,1.091757 -5.62014,1.885011 -12.44937,3.609442 -14.44433,3.647301 -1.97604,0.0375 -2.38969,-0.207576 -6.59916,-3.909796 -4.94126,-4.345821 -9.97178,-7.271296 -15.92635,-9.261891 -4.53476,-1.515956 -7.76934,-1.99095 -13.55782,-1.99095 -5.94769,0 -8.91459,0.458509 -14.02824,2.167941 -5.81456,1.943739 -9.7104,4.178046 -14.67316,8.415229 -7.20875,6.1548 -12.30354,14.942835 -14.3406,24.736241 -0.74528,3.582976 -0.75252,11.815936 -0.0144,16.379321 0.30796,1.903959 0.44963,3.797783 0.3313,4.42856 -0.27463,1.463894 -2.44782,3.652672 -3.89651,3.924447 -0.58722,0.110163 -3.12167,0.04397 -5.63212,-0.147107 C 92.036425,95.796474 65.311658,85.459825 43.010989,68.514975 c -4.402411,-3.345107 -8.244506,-6.736213 -14.53714,-12.83075 -2.582626,-2.501324 -4.806035,-4.547861 -4.940908,-4.547861 -0.316721,0 -2.120619,6.401363 -2.666464,9.462288 -0.513914,2.881867 -0.555266,7.260583 -0.103518,10.961545 1.440132,11.798356 7.312744,21.825549 17.653835,30.143043 3.236735,2.60336 3.991474,3.84042 3.734428,6.12094 -0.269656,2.39236 -2.14543,4.21936 -4.729926,4.60693 -1.783824,0.2675 -7.065153,-0.53785 -12.169545,-1.85574 -3.339148,-0.86212 -3.903253,-0.93854 -3.778465,-0.51184 0.08068,0.27587 0.370772,1.3874 0.644652,2.47007 1.915035,7.57031 6.042712,14.76389 11.819408,20.59846 4.853993,4.90263 10.677206,8.33944 17.984835,10.61452 4.350267,1.35436 5.804502,2.09723 6.567232,3.35474 1.933379,3.18756 0.347605,6.86199 -3.435411,7.96028 -2.265046,0.65759 -6.369745,1.33631 -9.445894,1.5619 -1.435811,0.10529 -3.060018,0.26068 -3.609352,0.3453 -0.980602,0.15106 -0.990857,0.1692 -0.563249,0.9961 1.296219,2.50661 6.454637,8.48954 9.732647,11.28829 6.527832,5.57343 13.39235,8.69933 21.620544,9.84538 7.77519,1.08295 7.595012,1.03944 8.642316,2.08674 1.992911,1.99291 2.073249,5.19335 0.182886,7.28576 -3.592275,3.97622 -17.23374,11.7807 -27.204763,15.56424 -7.254269,2.75266 -16.119165,4.97446 -23.543044,5.90057 -4.772378,0.59535 -4.813763,0.6333 -1.983726,1.81911 12.869645,5.39252 27.747513,8.90338 42.831392,10.10731 4.550885,0.36323 6.54762,0.36746 14.867918,0.0315 z"
     id="path20565"
     transform="scale(0.2)" />
  <path
     style="fill:#50d313;stroke:#50d313;stroke-width:0.307125;fill-opacity:0.30000001"
     d="m 71.099509,221.68326 c -7.864226,-0.6115 -19.090053,-2.67023 -27.487715,-5.04105 -7.009857,-1.97902 -17.115588,-5.69197 -16.277642,-5.98058 0.168919,-0.0582 2.603406,-0.45915 5.40997,-0.89105 13.39355,-2.06112 24.497202,-5.91428 36.614462,-12.70584 7.380059,-4.13642 12.086594,-7.61546 13.08082,-9.66926 1.114116,-2.30146 0.695292,-4.75347 -1.090153,-6.38233 -1.038173,-0.94713 -1.233388,-0.99958 -6.722847,-1.80627 -5.151803,-0.75708 -8.352528,-1.55511 -11.77934,-2.93691 -6.400151,-2.58075 -12.001551,-6.83328 -17.494634,-13.28177 -2.001233,-2.3493 -4.22517,-5.51355 -4.013852,-5.71096 0.06784,-0.0634 1.850918,-0.27657 3.962405,-0.47377 4.680628,-0.43713 9.521084,-1.38151 11.019085,-2.14982 2.733231,-1.40187 3.814195,-4.18263 2.68058,-6.89576 -0.655645,-1.56917 -2.114717,-2.45308 -6.635783,-4.01997 -4.991093,-1.72978 -8.942031,-3.55226 -11.83113,-5.45743 -9.093241,-5.99638 -16.074549,-16.20322 -18.694276,-27.33147 -0.251158,-1.06689 -0.286387,-1.0673 4.62799,0.0536 10.132474,2.31101 13.280028,2.0527 15.131664,-1.24184 0.83976,-1.49415 0.835745,-3.70525 -0.0092,-5.07241 -0.351904,-0.56939 -1.837623,-2.0559 -3.301597,-3.30334 -9.183968,-7.8256 -14.02968,-15.241199 -16.570119,-25.357958 -0.741836,-2.954205 -0.814088,-3.777325 -0.823429,-9.38086 l -0.01024,-6.142506 1.169968,-4.299755 c 0.643483,-2.364865 1.280261,-4.411348 1.415063,-4.54774 0.134801,-0.136393 2.096031,1.508968 4.358287,3.656356 11.760754,11.163593 18.037356,16.079864 28.683218,22.466694 18.227853,10.935535 38.260691,17.686898 59.017016,19.889613 5.48877,0.582482 8.79223,0.586714 9.90228,0.01269 1.13345,-0.586131 2.73376,-2.431002 2.98823,-3.444902 0.11145,-0.444063 0.01,-2.410967 -0.2259,-4.370903 -0.63409,-5.272635 -0.55321,-14.297936 0.15579,-17.384158 3.49472,-15.212345 14.44925,-27.455102 28.85538,-32.248693 5.35445,-1.781677 7.73945,-2.081014 15.24483,-1.913355 5.90067,0.131812 6.90521,0.232081 9.41576,0.939842 7.4599,2.103048 12.61128,4.947418 19.30264,10.658067 3.64708,3.112553 4.41459,3.492459 6.59527,3.264534 2.11056,-0.220598 7.73163,-1.653932 13.00006,-3.314928 2.17019,-0.684203 4.00943,-1.180376 4.0872,-1.102606 0.24562,0.245624 -5.73877,5.740257 -8.99556,8.25936 -1.71946,1.329993 -3.47609,2.833882 -3.90363,3.341977 -1.49218,1.773363 -1.34982,4.449156 0.34379,6.461904 1.03719,1.232632 2.41784,1.814831 4.30375,1.814831 1.45363,0 6.93515,-1.235918 10.81245,-2.437886 1.08924,-0.337665 2.02585,-0.568525 2.08135,-0.513023 0.15835,0.158353 -3.64025,3.63484 -8.35323,7.644896 -2.36944,2.016041 -4.62994,4.066182 -5.02334,4.555872 -0.69408,0.863971 -0.72825,1.192739 -1.1535,11.099727 -0.49728,11.58526 -0.95614,15.98147 -2.44405,23.41577 -8.2967,41.45439 -34.00988,76.57542 -69.39725,94.78806 -6.78657,3.49281 -11.34707,5.43293 -18.03129,7.67087 -14.59261,4.88573 -29.526901,7.12013 -46.618587,6.97483 -3.293919,-0.028 -6.610872,-0.0993 -7.371007,-0.15837 z"
     id="path860"
     transform="scale(0.2)" />
</svg>
