<svg viewBox="0 0 100 5" xmlns="http://www.w3.org/2000/svg" class="css-1cqzdjn">
<g x="200" y="0">
<path x="20" y="10" d="M33.8834 0C31.1026 0 28.4824 1.12593 26.5073 3.16992C24.5407 5.20381 23.4585 7.89593 23.4585 10.7512V19.6864C23.4585 20.4111 24.0419 20.9986 24.7614 20.9986C25.481 20.9986 26.0644 20.4111 26.0644 19.6864V10.7512C26.0644 8.58448 26.8842 6.54193 28.3749 5.00028C29.8556 3.46872 31.8122 2.62428 33.8834 2.62428C35.9546 2.62428 37.9111 3.46728 39.3918 5.00028C40.8811 6.54193 41.7024 8.58448 41.7024 10.7512V19.6864C41.7024 20.4111 42.2858 20.9986 43.0053 20.9986C43.7249 20.9986 44.3083 20.4111 44.3083 19.6864V10.7512C44.3083 7.89593 43.2261 5.20381 41.2595 3.16992C39.2843 1.12737 36.6641 0 33.8834 0Z" fill="rgb(249, 250, 251)"></path>
<path d="M33.8834 10.5C33.1638 10.5 32.5804 11.0875 32.5804 11.8121V19.6864C32.5804 20.4111 33.1638 20.9986 33.8834 20.9986C34.6029 20.9986 35.1863 20.4111 35.1863 19.6864V11.8121C35.1863 11.0875 34.6029 10.5 33.8834 10.5Z" fill="#FA5E06"></path>
</g>
</svg>