<svg width="36" height="36" viewBox="0 0 36 36" fill="none" xmlns="http://www.w3.org/2000/svg">
<path fill-rule="evenodd" clip-rule="evenodd" d="M33.9998 5.92553L30.0743 2L25.0567 7.01761C23.0257 5.6997 20.6031 4.93429 18.0017 4.93429C15.3899 4.93429 12.9583 5.70582 10.9224 7.03339L5.92553 2.03651L2 5.96204L7.02439 10.9864C5.75736 12.9905 5.024 15.3656 5.024 17.912C5.024 20.5096 5.78721 22.929 7.10164 24.9582L2 30.0598L5.92553 33.9854L11.0428 28.8681C13.0539 30.1481 15.4412 30.8896 18.0017 30.8896C20.5714 30.8896 22.9666 30.1428 24.9822 28.8543L30.0745 33.9465L34 30.021L28.9156 24.9366C30.2215 22.9119 30.9793 20.5004 30.9793 17.912C30.9793 15.3552 30.24 12.9711 28.9634 10.9619L33.9998 5.92553ZM25.0989 21.1199C25.5417 20.1417 25.7883 19.0556 25.7883 17.912C25.7883 13.6115 22.3021 10.1254 18.0017 10.1254C13.7012 10.1254 10.2151 13.6115 10.2151 17.912C10.2151 22.2124 13.7012 25.6986 18.0017 25.6986C19.1258 25.6986 20.1944 25.4603 21.1595 25.0316L16.0836 19.9556L20.0091 16.0301L25.0989 21.1199Z" fill="#8D8AFF"/>
<path d="M30.0743 2L30.6046 1.46967L30.0743 0.93934L29.5439 1.46967L30.0743 2ZM33.9998 5.92553L34.5301 6.45586L35.0605 5.92553L34.5301 5.3952L33.9998 5.92553ZM25.0567 7.01761L24.6484 7.64675L25.1577 7.97724L25.587 7.54794L25.0567 7.01761ZM10.9224 7.03339L10.3921 7.56372L10.8224 7.994L11.3321 7.66163L10.9224 7.03339ZM5.92553 2.03651L6.45586 1.50618L5.92553 0.975851L5.3952 1.50618L5.92553 2.03651ZM2 5.96204L1.46967 5.43171L0.93934 5.96204L1.46967 6.49237L2 5.96204ZM7.02439 10.9864L7.65832 11.3872L7.97885 10.8802L7.55472 10.4561L7.02439 10.9864ZM7.10164 24.9582L7.63197 25.4885L8.06092 25.0596L7.73111 24.5504L7.10164 24.9582ZM2 30.0598L1.46967 29.5295L0.93934 30.0598L1.46967 30.5902L2 30.0598ZM5.92553 33.9854L5.3952 34.5157L5.92553 35.046L6.45586 34.5157L5.92553 33.9854ZM11.0428 28.8681L11.4455 28.2354L10.9379 27.9123L10.5125 28.3378L11.0428 28.8681ZM24.9822 28.8543L25.5125 28.3239L25.0862 27.8976L24.5782 28.2224L24.9822 28.8543ZM30.0745 33.9465L29.5441 34.4769L30.0745 35.0072L30.6048 34.4769L30.0745 33.9465ZM34 30.021L34.5303 30.5513L35.0606 30.021L34.5303 29.4907L34 30.021ZM28.9156 24.9366L28.2853 24.5301L27.9572 25.0389L28.3853 25.467L28.9156 24.9366ZM28.9634 10.9619L28.4331 10.4316L28.008 10.8567L28.3304 11.3641L28.9634 10.9619ZM25.0989 21.1199L24.5685 21.6502L25.335 22.4167L25.7821 21.4292L25.0989 21.1199ZM21.1595 25.0316L21.464 25.717L22.4622 25.2736L21.6899 24.5013L21.1595 25.0316ZM16.0836 19.9556L15.5532 19.4253L15.0229 19.9556L15.5532 20.486L16.0836 19.9556ZM20.0091 16.0301L20.5394 15.4998L20.0091 14.9695L19.4788 15.4998L20.0091 16.0301ZM29.5439 2.53033L33.4695 6.45586L34.5301 5.3952L30.6046 1.46967L29.5439 2.53033ZM25.587 7.54794L30.6046 2.53033L29.5439 1.46967L24.5263 6.48728L25.587 7.54794ZM18.0017 5.68429C20.4538 5.68429 22.7353 6.40534 24.6484 7.64675L25.4649 6.38846C23.3161 4.99407 20.7523 4.18429 18.0017 4.18429V5.68429ZM11.3321 7.66163C13.2498 6.41109 15.5397 5.68429 18.0017 5.68429V4.18429C15.2401 4.18429 12.6668 5.00054 10.5128 6.40516L11.3321 7.66163ZM11.4527 6.50306L6.45586 1.50618L5.3952 2.56684L10.3921 7.56372L11.4527 6.50306ZM5.3952 1.50618L1.46967 5.43171L2.53033 6.49237L6.45586 2.56684L5.3952 1.50618ZM1.46967 6.49237L6.49406 11.5168L7.55472 10.4561L2.53033 5.43171L1.46967 6.49237ZM5.774 17.912C5.774 15.5116 6.46487 13.2749 7.65832 11.3872L6.39046 10.5856C5.04984 12.7061 4.274 15.2196 4.274 17.912H5.774ZM7.73111 24.5504C6.49298 22.6391 5.774 20.3606 5.774 17.912H4.274C4.274 20.6586 5.08145 23.219 6.47217 25.3659L7.73111 24.5504ZM2.53033 30.5902L7.63197 25.4885L6.57131 24.4279L1.46967 29.5295L2.53033 30.5902ZM6.45586 33.455L2.53033 29.5295L1.46967 30.5902L5.3952 34.5157L6.45586 33.455ZM10.5125 28.3378L5.3952 33.455L6.45586 34.5157L11.5731 29.3984L10.5125 28.3378ZM18.0017 30.1396C15.588 30.1396 13.3398 29.4411 11.4455 28.2354L10.6401 29.5008C12.7679 30.8551 15.2943 31.6396 18.0017 31.6396V30.1396ZM24.5782 28.2224C22.6797 29.436 20.424 30.1396 18.0017 30.1396V31.6396C20.7187 31.6396 23.2535 30.8495 25.3862 29.4862L24.5782 28.2224ZM30.6048 33.4162L25.5125 28.3239L24.4519 29.3846L29.5441 34.4769L30.6048 33.4162ZM33.4697 29.4907L29.5441 33.4162L30.6048 34.4769L34.5303 30.5513L33.4697 29.4907ZM28.3853 25.467L33.4697 30.5513L34.5303 29.4907L29.446 24.4063L28.3853 25.467ZM30.2293 17.912C30.2293 20.352 29.5154 22.6229 28.2853 24.5301L29.5459 25.3431C30.9276 23.2009 31.7293 20.6489 31.7293 17.912H30.2293ZM28.3304 11.3641C29.5328 13.2567 30.2293 15.5018 30.2293 17.912H31.7293C31.7293 15.2086 30.9471 12.6856 29.5964 10.5597L28.3304 11.3641ZM33.4695 5.3952L28.4331 10.4316L29.4937 11.4922L34.5301 6.45586L33.4695 5.3952ZM25.0383 17.912C25.0383 18.9468 24.8153 19.9276 24.4156 20.8106L25.7821 21.4292C26.2681 20.3557 26.5383 19.1644 26.5383 17.912H25.0383ZM18.0017 10.8754C21.8879 10.8754 25.0383 14.0257 25.0383 17.912H26.5383C26.5383 13.1973 22.7163 9.37536 18.0017 9.37536V10.8754ZM10.9651 17.912C10.9651 14.0257 14.1155 10.8754 18.0017 10.8754V9.37536C13.287 9.37536 9.46507 13.1973 9.46507 17.912H10.9651ZM18.0017 24.9486C14.1155 24.9486 10.9651 21.7982 10.9651 17.912H9.46507C9.46507 22.6266 13.287 26.4486 18.0017 26.4486V24.9486ZM20.8551 24.3462C19.9839 24.7332 19.0189 24.9486 18.0017 24.9486V26.4486C19.2327 26.4486 20.4048 26.1875 21.464 25.717L20.8551 24.3462ZM15.5532 20.486L20.6292 25.5619L21.6899 24.5013L16.6139 19.4253L15.5532 20.486ZM19.4788 15.4998L15.5532 19.4253L16.6139 20.486L20.5394 16.5604L19.4788 15.4998ZM25.6292 20.5895L20.5394 15.4998L19.4788 16.5604L24.5685 21.6502L25.6292 20.5895Z" fill="#5544E1"/>
</svg>
