<svg width="36" height="32" viewBox="0 0 36 32" fill="none" xmlns="http://www.w3.org/2000/svg">
<path d="M34.0286 8.24836H1.97144M4.10858 29.1714C2.92827 29.1714 1.97144 28.2347 1.97144 27.0791V4.22415C1.97535 2.9816 3.00325 1.97526 4.27243 1.97144H31.739C33.0019 1.97526 34.0247 2.97661 34.0286 4.21299V26.9187C34.0247 28.1613 32.9968 29.1676 31.7276 29.1714H4.10858Z" stroke="#8480F8" stroke-width="3"/>
<mask id="path-2-outside-1" maskUnits="userSpaceOnUse" x="0" y="0" width="36" height="32" fill="black">
<rect fill="white" width="36" height="32"/>
<path fill-rule="evenodd" clip-rule="evenodd" d="M3.26667 30.1429C2.01482 30.1429 1 29.1392 1 27.9011V3.41363C1.00415 2.08232 2.09435 1.0041 3.44044 1H32.5716C33.9111 1.0041 34.9959 2.07697 35 3.40167V27.7292C34.9959 29.0605 33.9057 30.1388 32.5596 30.1429H3.26667Z"/>
<path fill-rule="evenodd" clip-rule="evenodd" d="M35 10.5456H1H35Z"/>
<path fill-rule="evenodd" clip-rule="evenodd" d="M24.8 14.4505L29.3333 18.9341L24.8 23.4176"/>
<path fill-rule="evenodd" clip-rule="evenodd" d="M11.2 14.4505L6.66667 18.9341L11.2 23.4176"/>
<path fill-rule="evenodd" clip-rule="evenodd" d="M20.2667 14.4505L15.7333 23.4176L20.2667 14.4505Z"/>
</mask>
<path d="M1 27.9011H0H1ZM1 3.41363L0 3.41051V3.41363H1ZM3.44044 1V-4.64916e-06L3.4374 4.64916e-06L3.44044 1ZM32.5716 1L32.5747 0H32.5716V1ZM35 3.40167H36L36 3.39854L35 3.40167ZM35 27.7292L36 27.7323V27.7292H35ZM32.5596 30.1429V31.1429L32.5626 31.1429L32.5596 30.1429ZM29.3333 18.9341L30.0365 19.6451L30.7554 18.9341L30.0365 18.2231L29.3333 18.9341ZM6.66667 18.9341L5.96348 18.2231L5.24457 18.9341L5.96348 19.6451L6.66667 18.9341ZM3.26667 29.1429C2.55666 29.1429 2 28.5765 2 27.9011H0C0 29.7019 1.47298 31.1429 3.26667 31.1429V29.1429ZM2 27.9011V3.41363H0V27.9011H2ZM2 3.41674C2.0024 2.64561 2.63692 2.00245 3.44349 2L3.4374 4.64916e-06C1.55177 0.00575167 0.00589854 1.51903 4.82798e-06 3.41051L2 3.41674ZM3.44044 2H32.5716V0H3.44044V2ZM32.5686 2C33.3685 2.00245 33.9976 2.64026 34 3.4048L36 3.39854C35.9941 1.51368 34.4536 0.00575972 32.5747 4.70877e-06L32.5686 2ZM34 3.40167V27.7292H36V3.40167H34ZM34 27.7261C33.9976 28.4973 33.3631 29.1404 32.5565 29.1429L32.5626 31.1429C34.4482 31.1371 35.9941 29.6238 36 27.7323L34 27.7261ZM32.5596 29.1429H3.26667V31.1429H32.5596V29.1429ZM35 9.54555H1V11.5456H35V9.54555ZM24.0968 15.1616L28.6301 19.6451L30.0365 18.2231L25.5032 13.7395L24.0968 15.1616ZM28.6301 18.2231L24.0968 22.7066L25.5032 24.1286L30.0365 19.6451L28.6301 18.2231ZM10.4968 13.7395L5.96348 18.2231L7.36986 19.6451L11.9032 15.1616L10.4968 13.7395ZM5.96348 19.6451L10.4968 24.1286L11.9032 22.7066L7.36986 18.2231L5.96348 19.6451ZM19.3742 13.9994L14.8409 22.9664L16.6258 23.8688L21.1591 14.9017L19.3742 13.9994Z" fill="#5544E1" mask="url(#path-2-outside-1)"/>
<path d="M12.8146 14.4933L12.7092 14.3894L12.6039 14.4933L8.66613 18.379L8.55793 18.4858L8.66613 18.5926L12.6039 22.4783L12.7092 22.5823L12.8146 22.4783L13.3347 21.9651L13.4429 21.8583L13.3347 21.7515L10.0252 18.4858L13.3347 15.2201L13.4429 15.1133L13.3347 15.0066L12.8146 14.4933ZM23.6369 15.2201L26.9463 18.4858L23.6369 21.7515L23.5287 21.8583L23.6369 21.9651L24.157 22.4783L24.2623 22.5823L24.3677 22.4783L28.3054 18.5926L28.4136 18.4858L28.3054 18.379L24.3677 14.4933L24.2623 14.3894L24.157 14.4933L23.6369 15.0066L23.5287 15.1133L23.6369 15.2201ZM16.1842 21.8848L16.1157 22.0201L16.2516 22.0871L16.9095 22.4117L17.0426 22.4774L17.1097 22.345L20.7874 15.0868L20.8559 14.9516L20.7199 14.8845L20.062 14.5599L19.9289 14.4942L19.8619 14.6266L16.1842 21.8848Z" fill="#FEFFC6" stroke="#FDA135" stroke-width="0.3"/>
</svg>
