<svg width="30" height="38" viewBox="0 0 30 38" fill="none" xmlns="http://www.w3.org/2000/svg">
<path fill-rule="evenodd" clip-rule="evenodd" d="M24.2042 2.58206V1H22.0948L22.0948 1.00011L1 1.00011L1 1.52726V3.10959L1 34.7516L1 36.861V36.8611H28.9506V36.8609H29.4778V6.27343H27.8959V4.16411H26.3137V2.58206L24.2042 2.58206ZM27.3683 6.27359H25.7864V4.69153H24.2042V3.10948H22.0948L22.0948 3.10958H22.0947V7.85548L27.3683 7.85549V6.27359ZM27.3683 9.96496L22.0947 9.96496V9.96523H19.9852V3.10958L3.10948 3.10959V34.7516L27.3683 34.7516V9.96496Z" fill="#8D8AFF"/>
<path d="M24.2042 1H24.4679V0.736315H24.2042V1ZM24.2042 2.58206H23.9406V2.84574H24.2042V2.58206ZM22.0948 1V0.736315H21.8016L21.8325 1.02784L22.0948 1ZM22.0948 1.00011V1.26379H22.3879L22.357 0.972271L22.0948 1.00011ZM1 1.00011L1 0.736424H0.736315L0.736315 1.00011L1 1.00011ZM1 1.52726H1.26368V1.52726L1 1.52726ZM1 3.10959H1.26368H1ZM1 34.7516H0.736315H1ZM1 36.861H1.26368H1ZM1 36.8611H0.736315V37.1248H1V36.8611ZM28.9506 36.8611V37.1248H29.2143V36.8611H28.9506ZM28.9506 36.8609V36.5972H28.6869V36.8609H28.9506ZM29.4778 36.8609V37.1245H29.7415V36.8609H29.4778ZM29.4778 6.27343H29.7415V6.00975H29.4778V6.27343ZM27.8959 6.27343H27.6322V6.53711H27.8959V6.27343ZM27.8959 4.16411H28.1596V3.90043H27.8959V4.16411ZM26.3137 4.16411H26.05V4.4278H26.3137V4.16411ZM26.3137 2.58206H26.5774V2.31837H26.3137V2.58206ZM27.3683 6.27359H27.632V6.0099H27.3683V6.27359ZM25.7864 6.27359H25.5227V6.53727H25.7864V6.27359ZM25.7864 4.69153H26.0501V4.42785H25.7864V4.69153ZM24.2042 4.69153H23.9405V4.95522H24.2042V4.69153ZM24.2042 3.10948H24.4679V2.84579H24.2042V3.10948ZM22.0948 3.10948V2.84579H21.8013L21.8326 3.13757L22.0948 3.10948ZM22.0948 3.10958V3.37327H22.3882L22.357 3.08149L22.0948 3.10958ZM22.0947 3.10958V2.8459H21.831V3.10958H22.0947ZM22.0947 7.85548H21.831V8.11917H22.0947V7.85548ZM27.3683 7.85549V8.11917H27.632V7.85549H27.3683ZM27.3683 9.96496H27.632V9.70128H27.3683V9.96496ZM22.0947 9.96496V9.70128H21.831V9.96496H22.0947ZM22.0947 9.96523V10.2289H22.3584V9.96523H22.0947ZM19.9852 9.96523H19.7215V10.2289H19.9852V9.96523ZM19.9852 3.10958H20.2489V2.8459H19.9852V3.10958ZM3.10948 3.10959V2.8459H2.84579V3.10959H3.10948ZM3.10948 34.7516H2.84579V35.0153H3.10948V34.7516ZM27.3683 34.7516V35.0153H27.632V34.7516H27.3683ZM23.9406 1V2.58206H24.4679V1H23.9406ZM22.0948 1.26368H24.2042V0.736315H22.0948V1.26368ZM22.357 0.972271L22.357 0.972163L21.8325 1.02784L21.8326 1.02795L22.357 0.972271ZM1 1.26379L22.0948 1.26379V0.736423L1 0.736424L1 1.26379ZM1.26368 1.52726L1.26368 1.00011L0.736315 1.00011L0.736315 1.52726L1.26368 1.52726ZM1.26368 3.10959V1.52726H0.736315V3.10959H1.26368ZM1.26368 34.7516L1.26368 3.10959H0.736315L0.736315 34.7516H1.26368ZM1.26368 36.861L1.26368 34.7516H0.736315L0.736315 36.861H1.26368ZM1.26368 36.8611V36.861H0.736315V36.8611H1.26368ZM28.9506 36.5974H1V37.1248H28.9506V36.5974ZM28.6869 36.8609V36.8611H29.2143V36.8609H28.6869ZM29.4778 36.5972H28.9506V37.1245H29.4778V36.5972ZM29.2141 6.27343V36.8609H29.7415V6.27343H29.2141ZM27.8959 6.53711H29.4778V6.00975H27.8959V6.53711ZM27.6322 4.16411V6.27343H28.1596V4.16411H27.6322ZM26.3137 4.4278H27.8959V3.90043H26.3137V4.4278ZM26.05 2.58206V4.16411H26.5774V2.58206H26.05ZM24.2042 2.84574L26.3137 2.84574V2.31837L24.2042 2.31837V2.84574ZM27.3683 6.0099H25.7864V6.53727H27.3683V6.0099ZM26.0501 6.27359V4.69153H25.5227V6.27359H26.0501ZM25.7864 4.42785H24.2042V4.95522H25.7864V4.42785ZM24.4679 4.69153V3.10948H23.9405V4.69153H24.4679ZM24.2042 2.84579H22.0948V3.37316H24.2042V2.84579ZM21.8326 3.13757L21.8326 3.13768L22.357 3.08149L22.3569 3.08139L21.8326 3.13757ZM22.0948 2.8459H22.0947V3.37327H22.0948V2.8459ZM21.831 3.10958V7.85548H22.3584V3.10958H21.831ZM22.0947 8.11917L27.3683 8.11917V7.5918L22.0947 7.5918V8.11917ZM27.632 7.85549V6.27359H27.1047V7.85549H27.632ZM27.3683 9.70128L22.0947 9.70128V10.2286L27.3683 10.2286V9.70128ZM21.831 9.96496V9.96523H22.3584V9.96496H21.831ZM22.0947 9.70154H19.9852V10.2289H22.0947V9.70154ZM20.2489 9.96523V3.10958H19.7215V9.96523H20.2489ZM19.9852 2.8459L3.10948 2.8459V3.37327L19.9852 3.37327V2.8459ZM2.84579 3.10959V34.7516H3.37316V3.10959H2.84579ZM3.10948 35.0153L27.3683 35.0153V34.4879L3.10948 34.4879V35.0153ZM27.632 34.7516V9.96496H27.1047V34.7516H27.632Z" fill="#5544E1"/>
<path d="M6.00995 11.8108H17.6121V13.3929H6.00995V11.8108ZM6.0099 24.4678H17.612V26.0499H6.0099V24.4678ZM19.7214 24.4678H24.995V26.0499H19.7214V24.4678ZM6.0099 20.2486H10.7562V21.8307H6.0099V20.2486ZM12.8656 20.2487H24.9951V21.8308H12.8656V20.2487ZM6.0099 16.03H23.9405V17.6121H6.0099V16.03ZM6.0099 28.687H24.4678V30.2691H6.0099V28.687Z" fill="#FEFFC6" stroke="#FDA135" stroke-width="0.527369"/>
</svg>
