<svg width="97" height="89" viewBox="0 0 97 89" fill="none" xmlns="http://www.w3.org/2000/svg">
<g filter="url(#filter0_dd)">
<path fill-rule="evenodd" clip-rule="evenodd" d="M26.793 33.0683L21.3711 42.0615L20 41.243L26.9065 29.7891C26.9824 29.6637 27.105 29.5509 27.2354 29.4856L27.2362 29.4852L48.1434 19.0839C48.368 18.972 48.6319 18.972 48.8566 19.0839L69.7637 29.4852C69.8943 29.5503 70.017 29.6631 70.0931 29.7886L70.0936 29.7895L77 41.2431L75.6292 42.0615L70.2074 33.0693V69.2045C70.2074 69.6439 69.8495 70 69.408 70H27.5925C27.1509 70 26.793 69.6439 26.793 69.2045V33.0683ZM38.8454 67.2846L47.3693 58.8028L38.8454 50.322V67.2846ZM57.024 68.4094L48.4997 59.9283L39.9763 68.4094H57.024ZM58.1541 50.3217L49.6308 58.8028L58.1541 67.2849V50.3217ZM39.9767 49.1964L48.4997 57.6781L57.0236 49.1964H39.9767ZM59.7531 68.4094H68.608V30.6889L48.4997 20.6849L28.392 30.6889V68.4094H37.2464V48.4008C37.2464 47.9617 37.6046 47.6053 38.0459 47.6053H58.9536C59.3949 47.6053 59.7531 47.9617 59.7531 48.4008V68.4094Z" fill="#D9A8FF"/>
<path d="M47.2467 34.1515H49.7527V39.2455H47.2467V34.1515Z" fill="#D9A8FF"/>
<path d="M55.0871 34.1515H57.5931V39.2455H55.0871V34.1515Z" fill="#D9A8FF"/>
<path d="M39.4061 34.1515H41.9121V39.2455H39.4061V34.1515Z" fill="#D9A8FF"/>
<path d="M21.7136 42.268L26.393 34.5065V69.2045C26.393 69.8667 26.9319 70.4 27.5925 70.4H69.408C70.0685 70.4 70.6074 69.8667 70.6074 69.2045V34.5074L75.2867 42.268L75.4923 42.6091L75.8343 42.4049L77.2051 41.5865L77.55 41.3806L77.3425 41.0365L70.4362 29.583L70.4353 29.5815L70.4351 29.5812C70.3199 29.3911 70.1404 29.2261 69.9422 29.1273L69.9419 29.1271L49.0349 18.7259C49.0349 18.7259 49.0348 18.7258 49.0347 18.7258C48.6979 18.5581 48.3021 18.5581 47.9652 18.7258C47.9652 18.7258 47.9651 18.7259 47.965 18.7259L27.058 29.1271L27.0573 29.1275L27.0565 29.1278L27.0565 29.1279C26.8586 29.2269 26.6794 29.3919 26.5643 29.5821L26.564 29.5826L19.6575 41.0364L19.45 41.3805L19.795 41.5864L21.166 42.4049L21.508 42.6091L21.7136 42.268ZM47.2467 33.7515H46.8467V34.1515V39.2455V39.6455H47.2467H49.7527H50.1527V39.2455V34.1515V33.7515H49.7527H47.2467ZM55.0871 33.7515H54.6871V34.1515V39.2455V39.6455H55.0871H57.5931H57.9931V39.2455V34.1515V33.7515H57.5931H55.0871ZM39.4061 33.7515H39.0061V34.1515V39.2455V39.6455H39.4061H41.9121H42.3121V39.2455V34.1515V33.7515H41.9121H39.4061ZM39.2454 51.2843L46.8022 58.8028L39.2454 66.3223V51.2843ZM40.9454 68.0094L48.4997 60.4926L56.0548 68.0094H40.9454ZM57.7541 66.3225L50.1978 58.8028L57.7541 51.284V66.3225ZM56.0546 49.5964L48.4997 57.1138L40.9457 49.5964H56.0546ZM68.208 30.9367V68.0094H60.1531V48.4008C60.1531 47.7389 59.614 47.2053 58.9536 47.2053H38.0459C37.3855 47.2053 36.8464 47.7389 36.8464 48.4008V68.0094H28.792V30.9367L48.4997 21.1317L68.208 30.9367Z" stroke="#A440F2" stroke-width="0.8"/>
</g>
<defs>
<filter id="filter0_dd" x="0.743373" y="0.043422" width="95.5131" height="88.9131" filterUnits="userSpaceOnUse" color-interpolation-filters="sRGB">
<feFlood flood-opacity="0" result="BackgroundImageFix"/>
<feColorMatrix in="SourceAlpha" type="matrix" values="0 0 0 0 0 0 0 0 0 0 0 0 0 0 0 0 0 0 127 0"/>
<feMorphology radius="2.04347" operator="erode" in="SourceAlpha" result="effect1_dropShadow"/>
<feOffset/>
<feGaussianBlur stdDeviation="1.5"/>
<feColorMatrix type="matrix" values="0 0 0 0 0.657004 0 0 0 0 0.260521 0 0 0 0 0.964479 0 0 0 0.63 0"/>
<feBlend mode="normal" in2="BackgroundImageFix" result="effect1_dropShadow"/>
<feColorMatrix in="SourceAlpha" type="matrix" values="0 0 0 0 0 0 0 0 0 0 0 0 0 0 0 0 0 0 127 0"/>
<feMorphology radius="2.04347" operator="erode" in="SourceAlpha" result="effect2_dropShadow"/>
<feOffset/>
<feGaussianBlur stdDeviation="10.1"/>
<feColorMatrix type="matrix" values="0 0 0 0 0.643137 0 0 0 0 0.25098 0 0 0 0 0.94902 0 0 0 0.3 0"/>
<feBlend mode="normal" in2="effect1_dropShadow" result="effect2_dropShadow"/>
<feBlend mode="normal" in="SourceGraphic" in2="effect2_dropShadow" result="shape"/>
</filter>
</defs>
</svg>
