<svg width="100" height="92" viewBox="0 0 100 92" fill="none" xmlns="http://www.w3.org/2000/svg">
<g filter="url(#filter0_dd)">
<path d="M80.9818 20.4288C80.9716 20.0571 80.8195 19.7035 80.5566 19.4406C80.2937 19.1777 79.9401 19.0256 79.5684 19.0154C79.5684 19.0154 78.9955 19 78.0074 19C71.4819 19 55.7088 19.5931 50.2018 25.0891C48.5804 26.7063 47.2939 28.6276 46.4161 30.7428C45.5383 32.858 45.0865 35.1256 45.0865 37.4157C45.0865 39.7058 45.5383 41.9735 46.4161 44.0887C47.2939 46.2039 48.5804 48.1251 50.2018 49.7423C50.3181 49.8577 50.4377 49.9672 50.5563 50.0791C48.7865 53.9981 47.5399 58.1328 46.8486 62.3769C45.9044 59.8685 44.6693 57.4795 43.1686 55.2588C44.3982 53.0845 44.8804 50.5667 44.5411 48.0919C44.2019 45.6171 43.0599 43.3219 41.2904 41.5587C37.1419 37.4191 22.2915 35.6784 20.612 35.4936C20.3956 35.4696 20.1766 35.4947 19.9711 35.5668C19.7657 35.639 19.5791 35.7564 19.4252 35.9104C19.2712 36.0644 19.1539 36.251 19.0818 36.4565C19.0098 36.6619 18.9848 36.881 19.0089 37.0974C19.1943 38.7743 20.9382 53.597 25.0867 57.7377C27.2371 59.8833 30.1508 61.0883 33.1886 61.0883C36.2263 61.0883 39.1401 59.8833 41.2905 57.7377C41.2955 57.733 41.2993 57.7275 41.3044 57.7228C43.9777 62.0543 45.6669 66.9201 46.2526 71.9763C46.2969 72.3271 46.4676 72.6498 46.7327 72.8838C46.9978 73.1178 47.3391 73.2471 47.6928 73.2474C47.7543 73.2473 47.8158 73.2434 47.8769 73.2358C47.9103 73.2317 47.9406 73.22 47.9734 73.2137C48.0259 73.2045 48.0779 73.1925 48.1292 73.1778C48.1563 73.1692 48.1815 73.1595 48.2074 73.1497C48.2815 73.1233 48.3532 73.0907 48.4218 73.0522L48.4256 73.05C48.6587 72.9197 48.8511 72.7274 48.9817 72.4945C49.1122 72.2616 49.1758 71.9972 49.1654 71.7304C48.976 66.7993 49.6029 61.8708 51.0208 57.1442C51.5448 55.3773 52.173 53.6429 52.9021 51.9503C56.2626 54.1692 60.2855 55.1611 64.2923 54.7587C68.2991 54.3564 72.0445 52.5844 74.8967 49.7416C81.5147 43.1364 81.007 21.353 80.9818 20.4288ZM39.2368 55.681C37.6314 57.2828 35.4561 58.1823 33.1883 58.1822C30.9205 58.1822 28.7453 57.2826 27.14 55.6807C24.5826 53.1288 22.8324 43.7403 22.1268 38.611C27.2667 39.3149 36.6789 41.0624 39.2368 43.616C40.4011 44.7743 41.2046 46.2452 41.5503 47.8508C41.896 49.4563 41.769 51.1275 41.1846 52.6624C38.5702 49.5373 35.2789 47.0484 31.5599 45.3841C31.2071 45.2289 30.8071 45.2202 30.4479 45.3598C30.0887 45.4995 29.7998 45.7762 29.6445 46.1289C29.4893 46.4817 29.4806 46.8816 29.6203 47.2408C29.7599 47.6 30.0366 47.889 30.3893 48.0443C34.0033 49.6714 37.1619 52.1619 39.587 55.2967C39.4716 55.4253 39.3606 55.5578 39.237 55.681H39.2368ZM72.8429 47.6851C70.4151 50.1093 67.209 51.5979 63.7904 51.8883C60.3719 52.1787 56.9606 51.2521 54.1587 49.2722C56.9155 43.7421 60.9139 38.9245 65.8413 35.1959C65.9984 35.0839 66.1315 34.9417 66.233 34.7776C66.3345 34.6136 66.4024 34.4309 66.4325 34.2404C66.4627 34.0499 66.4546 33.8552 66.4088 33.6678C66.363 33.4804 66.2803 33.304 66.1655 33.1489C66.0508 32.9939 65.9063 32.8632 65.7406 32.7645C65.5748 32.6658 65.391 32.6011 65.2 32.5742C65.009 32.5473 64.8145 32.5587 64.6279 32.6078C64.4413 32.6568 64.2664 32.7425 64.1133 32.8599C59.0197 36.7054 54.8502 41.6409 51.9097 47.3054C49.3346 44.5599 47.9303 40.9192 47.9948 37.1556C48.0593 33.392 49.5876 29.8016 52.2553 27.146C56.1264 23.2825 68.0959 21.9061 78.0075 21.9061H78.0971C78.1267 28.7085 77.2712 43.2663 72.8429 47.6851Z" fill="#BFF5E1"/>
<path d="M50.4844 25.3722L50.4843 25.3723C48.9001 26.9524 47.6432 28.8295 46.7855 30.8961C45.9279 32.9627 45.4865 35.1782 45.4865 37.4157C45.4865 39.6532 45.9279 41.8687 46.7855 43.9353C47.643 46.0017 48.8998 47.8786 50.4837 49.4585C50.5637 49.5379 50.6434 49.6126 50.7281 49.6918C50.7615 49.723 50.7956 49.755 50.8308 49.7882L51.0382 49.9839L50.9208 50.2438C49.1655 54.1307 47.929 58.2317 47.2434 62.4412L47.0023 63.9209L46.4742 62.5178C45.541 60.0387 44.3203 57.6776 42.8371 55.4828L42.6984 55.2775L42.8204 55.0619C44.0069 52.9638 44.4722 50.5343 44.1448 48.1462C43.8175 45.7581 42.7155 43.5435 41.0081 41.8421L41.0079 41.8419C40.0332 40.8693 38.3937 40.0085 36.4054 39.2653C34.4279 38.5262 32.1503 37.9195 29.9395 37.4338C25.5187 36.4625 21.4024 35.983 20.5683 35.8912L20.568 35.8912C20.4112 35.8738 20.2525 35.8919 20.1037 35.9442C19.9548 35.9965 19.8196 36.0816 19.7081 36.1932C19.5965 36.3047 19.5115 36.44 19.4593 36.5888C19.4071 36.7377 19.389 36.8964 19.4064 37.0532L19.4064 37.0534C19.4986 37.8862 19.979 41.9949 20.9522 46.4075C21.4389 48.6141 22.0469 50.8874 22.7874 52.8611C23.5321 54.8455 24.3946 56.4817 25.3692 57.4545C27.4446 59.5253 30.2568 60.6883 33.1886 60.6883C36.118 60.6883 38.9278 59.5273 41.0027 57.4597L41.0062 57.4558C41.0096 57.4522 41.0139 57.4476 41.0191 57.4424C41.0226 57.4388 41.0266 57.4349 41.031 57.4308L41.388 57.0967L41.6448 57.5127C44.3485 61.8934 46.057 66.8145 46.6497 71.9281C46.6821 72.1816 46.8057 72.4147 46.9974 72.5839C47.1894 72.7534 47.4367 72.8471 47.6929 72.8474C47.7353 72.8473 47.7776 72.8447 47.8197 72.8398C47.8205 72.8396 47.8214 72.8393 47.8224 72.839L47.8496 72.8318C47.8619 72.8287 47.8785 72.8246 47.8977 72.8209L47.9043 72.8196L47.9043 72.8197C47.9411 72.8132 47.9775 72.8049 48.0135 72.7948C48.025 72.791 48.0373 72.7864 48.0614 72.7772L48.0656 72.7756L48.073 72.7728L48.0731 72.7729C48.1253 72.7543 48.176 72.7313 48.2244 72.7043L48.2257 72.7035L50.4844 25.3722ZM50.4844 25.3722C51.801 24.0582 53.7561 23.0156 56.0848 22.1964C58.4085 21.379 61.0741 20.7944 63.7833 20.3789C69.2017 19.5481 74.7534 19.4 78.0074 19.4C78.4994 19.4 78.8877 19.4038 79.1527 19.4077C79.2852 19.4096 79.3868 19.4115 79.4551 19.4129L79.5323 19.4147L79.5516 19.4151L79.5563 19.4153L79.5574 19.4153L79.5575 19.4153C79.8269 19.4226 80.0832 19.5329 80.2737 19.7235C80.4643 19.914 80.5746 20.1703 80.5819 20.4397C80.5943 20.8944 80.7271 26.5506 80.0328 32.9114C79.6856 36.0922 79.1328 39.4374 78.2594 42.3915C77.3833 45.355 76.1977 47.878 74.6141 49.4585C71.8272 52.2362 68.1675 53.9676 64.2524 54.3607C60.3372 54.7539 56.4062 53.7846 53.1225 51.6165L52.7238 51.3532L52.5347 51.792C51.7994 53.4991 51.1659 55.2482 50.6374 57.0301C49.207 61.7987 48.5746 66.7709 48.7657 71.7457L48.7657 71.746C48.7732 71.939 48.7272 72.1304 48.6327 72.299C48.5383 72.4675 48.399 72.6066 48.2304 72.7009L48.2304 72.7009M50.4844 25.3722L48.2304 72.7009M48.2304 72.7009L48.2263 72.7032L48.2304 72.7009ZM26.8574 55.9639L27.14 55.6807L26.8574 55.9639C28.5378 57.6405 30.8146 58.5822 33.1883 58.5822C35.5064 58.5823 37.732 57.6845 39.4 56.0811H39.4024L39.5195 55.9643C39.6194 55.8646 39.7158 55.7551 39.8013 55.6581C39.8305 55.6249 39.8584 55.5932 39.8848 55.5638L40.1074 55.3156L39.9034 55.0519C37.4381 51.8653 34.2273 49.3335 30.5536 47.6795L30.5504 47.6781C30.2948 47.5656 30.0943 47.3562 29.9931 47.0959C29.8918 46.8356 29.8982 46.5457 30.0107 46.29C30.1231 46.0344 30.3326 45.8339 30.5929 45.7326C30.8529 45.6316 31.1423 45.6377 31.3977 45.7498C35.0608 47.3892 38.3027 49.8409 40.8778 52.919L41.3156 53.4424L41.5584 52.8047C42.1703 51.1976 42.3033 49.4477 41.9414 47.7666C41.5795 46.0857 40.7382 44.5457 39.5194 43.3329C38.8213 42.636 37.6917 42.0238 36.3568 41.4848C35.0116 40.9417 33.4159 40.4567 31.7487 40.0323C28.4138 39.1832 24.7598 38.5679 22.181 38.2147L21.6586 38.1432L21.7305 38.6655C22.0845 41.2389 22.701 44.8844 23.5514 48.2114C23.9766 49.8746 24.4623 51.4665 25.0063 52.8085C25.5461 54.1404 26.1594 55.2673 26.8574 55.9639ZM53.8007 49.0937L53.6476 49.4008L53.9279 49.5989C56.8068 51.6332 60.3118 52.5852 63.8243 52.2869C67.3368 51.9885 70.6309 50.459 73.1255 47.9683C74.2976 46.7987 75.2057 44.9909 75.9154 42.8769C76.6279 40.7546 77.1534 38.2834 77.5372 35.7494C78.3049 30.6809 78.512 25.3191 78.4971 21.9043L78.4953 21.5061H78.0971H78.0075C73.0363 21.5061 67.5417 21.851 62.7971 22.6832C60.425 23.0993 58.2311 23.6387 56.3799 24.3221C54.5344 25.0033 52.9992 25.8385 51.9728 26.8629C49.2315 29.5918 47.6612 33.2813 47.5949 37.1488C47.5286 41.0164 48.9717 44.7577 51.618 47.579L52.0045 47.9911L52.2648 47.4897C55.1778 41.8781 59.3083 36.9888 64.3543 33.1792L64.3567 33.1774C64.4676 33.0923 64.5944 33.0302 64.7296 32.9946C64.8648 32.9591 65.0058 32.9508 65.1442 32.9703C65.2827 32.9898 65.4158 33.0367 65.536 33.1082C65.6561 33.1797 65.7608 33.2744 65.844 33.3868L66.1655 33.1489L65.844 33.3868C65.9271 33.4992 65.987 33.6271 66.0203 33.7629C66.0535 33.8987 66.0593 34.0397 66.0375 34.1778C66.0156 34.3159 65.9664 34.4483 65.8929 34.5672C65.8193 34.6861 65.7228 34.7891 65.609 34.8703L65.6089 34.8702L65.6 34.877C60.6234 38.6427 56.585 43.5084 53.8007 49.0937Z" stroke="#38D6B2" stroke-width="0.8"/>
</g>
<defs>
<filter id="filter0_dd" x="0.843471" y="0.843471" width="98.3131" height="90.5605" filterUnits="userSpaceOnUse" color-interpolation-filters="sRGB">
<feFlood flood-opacity="0" result="BackgroundImageFix"/>
<feColorMatrix in="SourceAlpha" type="matrix" values="0 0 0 0 0 0 0 0 0 0 0 0 0 0 0 0 0 0 127 0"/>
<feMorphology radius="2.04347" operator="erode" in="SourceAlpha" result="effect1_dropShadow"/>
<feOffset/>
<feGaussianBlur stdDeviation="1.5"/>
<feColorMatrix type="matrix" values="0 0 0 0 0.74902 0 0 0 0 0.960784 0 0 0 0 0.882353 0 0 0 0.7 0"/>
<feBlend mode="normal" in2="BackgroundImageFix" result="effect1_dropShadow"/>
<feColorMatrix in="SourceAlpha" type="matrix" values="0 0 0 0 0 0 0 0 0 0 0 0 0 0 0 0 0 0 127 0"/>
<feMorphology radius="2.04347" operator="erode" in="SourceAlpha" result="effect2_dropShadow"/>
<feOffset/>
<feGaussianBlur stdDeviation="10.1"/>
<feColorMatrix type="matrix" values="0 0 0 0 0.0888021 0 0 0 0 0.686198 0 0 0 0 0.471262 0 0 0 0.6 0"/>
<feBlend mode="normal" in2="effect1_dropShadow" result="effect2_dropShadow"/>
<feBlend mode="normal" in="SourceGraphic" in2="effect2_dropShadow" result="shape"/>
</filter>
</defs>
</svg>
