<svg width="100" height="94" viewBox="0 0 100 94" fill="none" xmlns="http://www.w3.org/2000/svg">
<g filter="url(#filter0_dd)">
<path fill-rule="evenodd" clip-rule="evenodd" d="M28.343 35.4683L22.9211 44.4615L21.55 43.643L28.4565 32.1891C28.5324 32.0637 28.655 31.9509 28.7854 31.8856L28.7862 31.8852L49.6934 21.4839C49.918 21.372 50.1819 21.372 50.4066 21.4839L71.3137 31.8852C71.4443 31.9503 71.567 32.0631 71.6431 32.1886L71.6436 32.1895L78.55 43.6431L77.1792 44.4615L71.7574 35.4693V71.6045C71.7574 72.0439 71.3995 72.4 70.958 72.4H29.1425C28.7009 72.4 28.343 72.0439 28.343 71.6045V35.4683ZM40.3954 69.6846L48.9193 61.2028L40.3954 52.722V69.6846ZM58.574 70.8094L50.0497 62.3283L41.5263 70.8094H58.574ZM59.7041 52.7217L51.1808 61.2028L59.7041 69.6849V52.7217ZM41.5267 51.5964L50.0497 60.0781L58.5736 51.5964H41.5267ZM61.3031 70.8094H70.158V33.0889L50.0497 23.0849L29.942 33.0889V70.8094H38.7964V50.8008C38.7964 50.3617 39.1546 50.0053 39.5959 50.0053H60.5036C60.9449 50.0053 61.3031 50.3617 61.3031 50.8008V70.8094Z" fill="#F5D9BF"/>
<path d="M48.7967 36.5515H51.3027V41.6455H48.7967V36.5515Z" fill="#F5D9BF"/>
<path d="M56.6371 36.5515H59.1431V41.6455H56.6371V36.5515Z" fill="#F5D9BF"/>
<path d="M40.9561 36.5515H43.4621V41.6455H40.9561V36.5515Z" fill="#F5D9BF"/>
<path d="M23.2636 44.668L27.943 36.9065V71.6045C27.943 72.2667 28.4819 72.8 29.1425 72.8H70.958C71.6185 72.8 72.1574 72.2667 72.1574 71.6045V36.9074L76.8367 44.668L77.0423 45.0091L77.3843 44.8049L78.7551 43.9865L79.1 43.7806L78.8925 43.4365L71.9862 31.983L71.9853 31.9815L71.9851 31.9812C71.8699 31.7911 71.6904 31.6261 71.4922 31.5273L71.4919 31.5271L50.5849 21.1259C50.5849 21.1259 50.5848 21.1258 50.5847 21.1258C50.2479 20.9581 49.8521 20.9581 49.5152 21.1258C49.5152 21.1258 49.5151 21.1259 49.515 21.1259L28.608 31.5271L28.6073 31.5275L28.6065 31.5278V31.5279C28.4086 31.6269 28.2294 31.7919 28.1143 31.9821L28.114 31.9826L21.2075 43.4364L21 43.7805L21.345 43.9864L22.716 44.8049L23.058 45.0091L23.2636 44.668ZM48.7967 36.1515H48.3967V36.5515V41.6455V42.0455H48.7967H51.3027H51.7027V41.6455V36.5515V36.1515H51.3027H48.7967ZM56.6371 36.1515H56.2371V36.5515V41.6455V42.0455H56.6371H59.1431H59.5431V41.6455V36.5515V36.1515H59.1431H56.6371ZM40.9561 36.1515H40.5561V36.5515V41.6455V42.0455H40.9561H43.4621H43.8621V41.6455V36.5515V36.1515H43.4621H40.9561ZM40.7954 53.6843L48.3522 61.2028L40.7954 68.7223V53.6843ZM42.4954 70.4094L50.0497 62.8926L57.6048 70.4094H42.4954ZM59.3041 68.7225L51.7478 61.2028L59.3041 53.684V68.7225ZM57.6046 51.9964L50.0497 59.5138L42.4957 51.9964H57.6046ZM69.758 33.3367V70.4094H61.7031V50.8008C61.7031 50.1389 61.164 49.6053 60.5036 49.6053H39.5959C38.9355 49.6053 38.3964 50.1389 38.3964 50.8008V70.4094H30.342V33.3367L50.0497 23.5317L69.758 33.3367Z" stroke="#EF915D" stroke-width="0.8"/>
</g>
<defs>
<filter id="filter0_dd" x="0.24995" y="0.400005" width="99.6001" height="93" filterUnits="userSpaceOnUse" color-interpolation-filters="sRGB">
<feFlood flood-opacity="0" result="BackgroundImageFix"/>
<feColorMatrix in="SourceAlpha" type="matrix" values="0 0 0 0 0 0 0 0 0 0 0 0 0 0 0 0 0 0 127 0"/>
<feOffset/>
<feGaussianBlur stdDeviation="1.5"/>
<feColorMatrix type="matrix" values="0 0 0 0 0.657004 0 0 0 0 0.260521 0 0 0 0 0.964479 0 0 0 0.63 0"/>
<feBlend mode="normal" in2="BackgroundImageFix" result="effect1_dropShadow"/>
<feColorMatrix in="SourceAlpha" type="matrix" values="0 0 0 0 0 0 0 0 0 0 0 0 0 0 0 0 0 0 127 0"/>
<feOffset/>
<feGaussianBlur stdDeviation="10.1"/>
<feColorMatrix type="matrix" values="0 0 0 0 0.643137 0 0 0 0 0.25098 0 0 0 0 0.94902 0 0 0 0.5 0"/>
<feBlend mode="normal" in2="effect1_dropShadow" result="effect2_dropShadow"/>
<feBlend mode="normal" in="SourceGraphic" in2="effect2_dropShadow" result="shape"/>
</filter>
</defs>
</svg>
