<svg width="104" height="96" viewBox="0 0 104 96" fill="none" xmlns="http://www.w3.org/2000/svg">
<g filter="url(#filter0_dd)">
<path d="M82.9818 22.4288C82.9716 22.0571 82.8195 21.7035 82.5566 21.4406C82.2937 21.1777 81.9401 21.0256 81.5684 21.0154C81.5684 21.0154 80.9955 21 80.0074 21C73.4819 21 57.7088 21.5931 52.2018 27.0891C50.5804 28.7063 49.2939 30.6276 48.4161 32.7428C47.5383 34.858 47.0865 37.1256 47.0865 39.4157C47.0865 41.7058 47.5383 43.9735 48.4161 46.0887C49.2939 48.2039 50.5804 50.1251 52.2018 51.7423C52.3181 51.8577 52.4377 51.9672 52.5563 52.0791C50.7865 55.9981 49.5399 60.1328 48.8486 64.3769C47.9044 61.8685 46.6693 59.4795 45.1686 57.2588C46.3982 55.0845 46.8804 52.5667 46.5411 50.0919C46.2019 47.6171 45.0599 45.3219 43.2904 43.5587C39.1419 39.4191 24.2915 37.6784 22.612 37.4936C22.3956 37.4696 22.1766 37.4947 21.9711 37.5668C21.7657 37.639 21.5791 37.7564 21.4252 37.9104C21.2712 38.0644 21.1539 38.251 21.0818 38.4565C21.0098 38.6619 20.9848 38.881 21.0089 39.0974C21.1943 40.7743 22.9382 55.597 27.0867 59.7377C29.2371 61.8833 32.1508 63.0883 35.1886 63.0883C38.2263 63.0883 41.1401 61.8833 43.2905 59.7377C43.2955 59.733 43.2993 59.7275 43.3044 59.7228C45.9777 64.0543 47.6669 68.9201 48.2526 73.9763C48.2969 74.3271 48.4676 74.6498 48.7327 74.8838C48.9978 75.1178 49.3391 75.2471 49.6928 75.2474C49.7543 75.2473 49.8158 75.2434 49.8769 75.2358C49.9103 75.2317 49.9406 75.22 49.9734 75.2137C50.0259 75.2045 50.0779 75.1925 50.1292 75.1778C50.1563 75.1692 50.1815 75.1595 50.2074 75.1497C50.2815 75.1233 50.3532 75.0907 50.4218 75.0522L50.4256 75.05C50.6587 74.9197 50.8511 74.7274 50.9817 74.4945C51.1122 74.2616 51.1758 73.9972 51.1654 73.7304C50.976 68.7993 51.6029 63.8708 53.0208 59.1442C53.5448 57.3773 54.173 55.6429 54.9021 53.9503C58.2626 56.1692 62.2855 57.1611 66.2923 56.7587C70.2991 56.3564 74.0445 54.5844 76.8967 51.7416C83.5147 45.1364 83.007 23.353 82.9818 22.4288ZM41.2368 57.681C39.6314 59.2828 37.4561 60.1823 35.1883 60.1822C32.9205 60.1822 30.7453 59.2826 29.14 57.6807C26.5826 55.1288 24.8324 45.7403 24.1268 40.611C29.2667 41.3149 38.6789 43.0624 41.2368 45.616C42.4011 46.7743 43.2046 48.2452 43.5503 49.8508C43.896 51.4563 43.769 53.1275 43.1846 54.6624C40.5702 51.5373 37.2789 49.0484 33.5599 47.3841C33.2071 47.2289 32.8071 47.2202 32.4479 47.3598C32.0887 47.4995 31.7998 47.7762 31.6445 48.1289C31.4893 48.4817 31.4806 48.8816 31.6203 49.2408C31.7599 49.6 32.0366 49.889 32.3893 50.0443C36.0033 51.6714 39.1619 54.1619 41.587 57.2967C41.4716 57.4253 41.3606 57.5578 41.237 57.681H41.2368ZM74.8429 49.6851C72.4151 52.1093 69.209 53.5979 65.7904 53.8883C62.3719 54.1787 58.9606 53.2521 56.1587 51.2722C58.9155 45.7421 62.9139 40.9245 67.8413 37.1959C67.9984 37.0839 68.1315 36.9417 68.233 36.7776C68.3345 36.6136 68.4024 36.4309 68.4325 36.2404C68.4627 36.0499 68.4546 35.8552 68.4088 35.6678C68.363 35.4804 68.2803 35.304 68.1655 35.1489C68.0508 34.9939 67.9063 34.8632 67.7406 34.7645C67.5748 34.6658 67.391 34.6011 67.2 34.5742C67.009 34.5473 66.8145 34.5587 66.6279 34.6078C66.4413 34.6568 66.2664 34.7425 66.1133 34.8599C61.0197 38.7054 56.8502 43.6409 53.9097 49.3054C51.3346 46.5599 49.9303 42.9192 49.9948 39.1556C50.0593 35.392 51.5876 31.8016 54.2553 29.146C58.1264 25.2825 70.0959 23.9061 80.0075 23.9061H80.0971C80.1267 30.7085 79.2712 45.2663 74.8429 49.6851Z" fill="#BFF5E1"/>
<path d="M28.8574 57.9639L29.14 57.6807M28.8574 57.9639C30.5378 59.6405 32.8146 60.5822 35.1883 60.5822C37.5064 60.5823 39.732 59.6845 41.4 58.0811H41.4024L41.5195 57.9643C41.6194 57.8646 41.7158 57.7551 41.8013 57.6581C41.8305 57.6249 41.8584 57.5932 41.8848 57.5638L42.1074 57.3156L41.9034 57.0519C39.4381 53.8653 36.2273 51.3335 32.5536 49.6795L32.5504 49.6781C32.2948 49.5656 32.0943 49.3562 31.9931 49.0959C31.8918 48.8356 31.8982 48.5457 32.0107 48.29C32.1231 48.0344 32.3326 47.8339 32.5929 47.7326C32.8529 47.6316 33.1423 47.6377 33.3977 47.7498C37.0608 49.3892 40.3027 51.8409 42.8778 54.919L43.3156 55.4424L43.5584 54.8047C44.1703 53.1976 44.3033 51.4477 43.9414 49.7666C43.5795 48.0857 42.7382 46.5457 41.5194 45.3329C40.8213 44.636 39.6917 44.0238 38.3568 43.4848C37.0116 42.9417 35.4159 42.4567 33.7487 42.0323C30.4138 41.1832 26.7598 40.5679 24.181 40.2147L23.6586 40.1432L23.7305 40.6655C24.0845 43.2389 24.701 46.8844 25.5514 50.2114C25.9766 51.8746 26.4623 53.4665 27.0063 54.8085C27.5461 56.1404 28.1594 57.2673 28.8574 57.9639ZM67.844 35.3868C67.7608 35.2744 67.6561 35.1797 67.536 35.1082C67.4158 35.0367 67.2827 34.9898 67.1442 34.9703C67.0058 34.9508 66.8648 34.9591 66.7296 34.9946C66.5944 35.0302 66.4676 35.0923 66.3567 35.1774L66.3543 35.1792C61.3083 38.9888 57.1778 43.8781 54.2648 49.4897L54.0045 49.9911L53.618 49.579C50.9717 46.7577 49.5286 43.0164 49.5949 39.1488C49.6612 35.2813 51.2315 31.5918 53.9728 28.8629C54.9992 27.8385 56.5344 27.0033 58.3799 26.3221C60.2311 25.6387 62.425 25.0993 64.7971 24.6832C69.5417 23.851 75.0363 23.5061 80.0075 23.5061H80.0971H80.4953L80.4971 23.9043C80.512 27.3191 80.3049 32.6809 79.5372 37.7494C79.1534 40.2834 78.6279 42.7546 77.9154 44.8769C77.2057 46.9909 76.2976 48.7987 75.1255 49.9683C72.6309 52.459 69.3368 53.9885 65.8243 54.2869C62.3118 54.5852 58.8068 53.6332 55.9279 51.5989L55.6476 51.4008L55.8007 51.0937C58.585 45.5084 62.6234 40.6427 67.6 36.877L67.609 36.8703C67.7228 36.7891 67.8193 36.6861 67.8929 36.5672C67.9664 36.4483 68.0156 36.3159 68.0375 36.1778C68.0593 36.0397 68.0535 35.8987 68.0203 35.7629C67.987 35.6271 67.9271 35.4992 67.844 35.3868ZM67.844 35.3868L68.1655 35.1489M48.7855 32.8961C47.9279 34.9627 47.4865 37.1782 47.4865 39.4157C47.4865 41.6532 47.9279 43.8687 48.7855 45.9353C49.643 48.0017 50.8998 49.8786 52.4837 51.4585C52.5637 51.5379 52.6434 51.6126 52.7281 51.6918C52.7615 51.723 52.7956 51.755 52.8308 51.7882L53.0382 51.9839L52.9208 52.2438C51.1655 56.1307 49.929 60.2317 49.2434 64.4412L49.0023 65.9209L48.4742 64.5178C47.541 62.0387 46.3203 59.6776 44.8371 57.4828L44.6984 57.2775L44.8204 57.0619C46.0069 54.9638 46.4722 52.5343 46.1448 50.1462C45.8175 47.7581 44.7155 45.5435 43.0081 43.8421C42.0334 42.8695 40.3937 42.0085 38.4054 41.2653C36.4279 40.5262 34.1503 39.9195 31.9395 39.4338C27.5187 38.4625 23.4024 37.983 22.5683 37.8912C22.4115 37.8738 22.2525 37.8919 22.1037 37.9442C21.9548 37.9965 21.8196 38.0816 21.7081 38.1932C21.5965 38.3047 21.5115 38.44 21.4593 38.5888C21.4071 38.7377 21.389 38.8964 21.4064 39.0532C21.4986 39.886 21.979 43.9949 22.9522 48.4075C23.4389 50.6141 24.0469 52.8874 24.7874 54.8611C25.5321 56.8455 26.3946 58.4817 27.3692 59.4545C29.4446 61.5253 32.2568 62.6883 35.1886 62.6883C38.118 62.6883 40.9278 61.5273 43.0027 59.4597L43.0062 59.4558C43.0096 59.4522 43.0139 59.4476 43.0191 59.4424C43.0226 59.4388 43.0266 59.4349 43.031 59.4308L43.388 59.0967L43.6448 59.5127C46.3485 63.8934 48.057 68.8145 48.6497 73.9281C48.6821 74.1816 48.8057 74.4147 48.9974 74.5839C49.1894 74.7534 49.4367 74.8471 49.6929 74.8474C49.7353 74.8473 49.7776 74.8447 49.8197 74.8398L49.8224 74.839L49.8496 74.8318C49.8619 74.8287 49.8785 74.8246 49.8977 74.8209L49.9043 74.8196C49.9411 74.8131 49.9775 74.8049 50.0135 74.7948C50.025 74.791 50.0373 74.7864 50.0614 74.7772L50.0656 74.7756L50.073 74.7728C50.1252 74.7542 50.176 74.7313 50.2244 74.7043L50.2257 74.7035L50.2304 74.7009C50.399 74.6066 50.5383 74.4675 50.6327 74.299C50.7272 74.1304 50.7732 73.9387 50.7657 73.7457C50.5746 68.7709 51.207 63.7987 52.6374 59.0301C53.1659 57.2482 53.7994 55.4991 54.5347 53.792L54.7238 53.3532L55.1225 53.6165C58.4062 55.7846 62.3372 56.7539 66.2524 56.3607C70.1675 55.9676 73.8272 54.2362 76.6141 51.4585C78.1977 49.878 79.3833 47.355 80.2594 44.3915C81.1328 41.4374 81.6856 38.0922 82.0328 34.9114C82.7271 28.5506 82.5943 22.8944 82.5819 22.4397C82.5746 22.1703 82.4643 21.914 82.2737 21.7235C82.0832 21.5329 81.8268 21.4226 81.5574 21.4153H81.5563L81.5516 21.4151L81.5323 21.4147L81.4551 21.4129C81.3868 21.4115 81.2852 21.4096 81.1527 21.4077C80.8877 21.4038 80.4994 21.4 80.0074 21.4C76.7534 21.4 71.2017 21.5481 65.7833 22.3789C63.0741 22.7944 60.4085 23.379 58.0848 24.1964C52.8898 26.1627 50.8687 28.083 48.7855 32.8961Z" stroke="#38D6B2" stroke-width="0.8"/>
</g>
<defs>
<filter id="filter0_dd" x="0.799984" y="0.799999" width="102.4" height="94.6474" filterUnits="userSpaceOnUse" color-interpolation-filters="sRGB">
<feFlood flood-opacity="0" result="BackgroundImageFix"/>
<feColorMatrix in="SourceAlpha" type="matrix" values="0 0 0 0 0 0 0 0 0 0 0 0 0 0 0 0 0 0 127 0"/>
<feOffset/>
<feGaussianBlur stdDeviation="1.5"/>
<feColorMatrix type="matrix" values="0 0 0 0 0.74902 0 0 0 0 0.960784 0 0 0 0 0.882353 0 0 0 0.7 0"/>
<feBlend mode="normal" in2="BackgroundImageFix" result="effect1_dropShadow"/>
<feColorMatrix in="SourceAlpha" type="matrix" values="0 0 0 0 0 0 0 0 0 0 0 0 0 0 0 0 0 0 127 0"/>
<feOffset/>
<feGaussianBlur stdDeviation="10.1"/>
<feColorMatrix type="matrix" values="0 0 0 0 0.0888021 0 0 0 0 0.686198 0 0 0 0 0.471262 0 0 0 0.6 0"/>
<feBlend mode="normal" in2="effect1_dropShadow" result="effect2_dropShadow"/>
<feBlend mode="normal" in="SourceGraphic" in2="effect2_dropShadow" result="shape"/>
</filter>
</defs>
</svg>
