<svg width="103" height="88" viewBox="0 0 103 88" fill="none" xmlns="http://www.w3.org/2000/svg">
<g clip-path="url(#clip0)">
<g filter="url(#filter0_dd)">
<path d="M73.9146 33.6358C67.9112 31.9811 59.9507 31.07 51.5001 31.07C47.9162 31.07 44.4213 31.2344 41.1256 31.5494V23.6226C41.1163 21.9617 40.291 20.5363 38.8611 19.712C37.2091 18.7597 35.0378 18.7629 33.4578 19.7202C32.9727 20.0142 32.5653 20.3881 32.2417 20.8232C32.0516 20.6697 31.8483 20.5275 31.6289 20.401C29.977 19.4488 27.8056 19.4519 26.2257 20.4092C24.8779 21.2257 24.1185 22.6523 24.141 24.3245L24.1289 35.3984C20.7559 36.9681 19 38.8583 19 40.9722V59.0978C19 62.0787 22.4875 64.6156 29.0854 66.434C35.0891 68.0887 43.0494 69 51.5001 69C59.9507 69 67.9111 68.0887 73.9146 66.434C80.5126 64.6156 84 62.0787 84 59.0978V40.9722C84 37.9913 80.5125 35.4543 73.9146 33.6358ZM33.9122 23.6062C33.9001 22.8403 34.1759 22.2972 34.7549 21.9463C35.5522 21.4632 36.7537 21.4716 37.6116 21.9661C38.2545 22.3367 38.5824 22.8989 38.5866 23.63V25.387L33.8935 25.9482V24.3117C33.8928 24.1836 33.8855 24.0575 33.8753 23.9324C33.9 23.8277 33.914 23.719 33.9122 23.6062ZM38.5865 27.9939V31.8266C36.957 32.0276 35.3878 32.2674 33.8934 32.5442V28.5551L38.5865 27.9939ZM26.68 24.2952C26.668 23.5292 26.9437 22.9862 27.5228 22.6355C28.3198 22.1524 29.5214 22.1605 30.3795 22.6553C31.0222 23.0258 31.3503 23.5881 31.3545 24.3192V33.0671C30.5713 33.2456 29.8138 33.4353 29.0856 33.636C28.2267 33.8726 27.422 34.1218 26.6693 34.3823L26.6803 24.3173C26.6802 24.3098 26.6802 24.3025 26.68 24.2952ZM81.4609 59.0978C81.4609 60.2852 79.3111 62.2645 73.2521 63.9346C67.4584 65.5313 59.7334 66.4108 51.5001 66.4108C43.2669 66.4108 35.5418 65.5314 29.748 63.9346C23.689 62.2645 21.5391 60.2852 21.5391 59.0978V54.1167C23.2359 55.36 25.7669 56.4566 29.0854 57.3712C35.0891 59.0259 43.0494 59.9372 51.5001 59.9372C59.9507 59.9372 67.9111 59.0259 73.9146 57.3712C77.2333 56.4567 79.7641 55.36 81.4609 54.1167V59.0978ZM81.4609 50.035C81.4609 51.2224 79.3111 53.2017 73.2521 54.8717C67.4584 56.4686 59.7334 57.3481 51.5001 57.3481C43.2669 57.3481 35.5418 56.4686 29.748 54.8718C23.689 53.2017 21.5391 51.2224 21.5391 50.035V45.054C23.2359 46.2972 25.7669 47.3938 29.0854 48.3084C35.0891 49.9631 43.0494 50.8744 51.5001 50.8744C59.9507 50.8744 67.9111 49.9631 73.9146 48.3084C77.2333 47.3939 79.7641 46.2972 81.4609 45.054V50.035ZM73.2521 45.8089C67.4584 47.4058 59.7334 48.2853 51.5001 48.2853C43.2669 48.2853 35.5418 47.4058 29.748 45.809C23.689 44.1389 21.5391 42.1596 21.5391 40.9722C21.5391 40.0855 22.7389 38.7571 25.8694 37.4457C25.883 37.4401 25.8966 37.4344 25.9101 37.4284C26.9635 36.9895 28.2337 36.5528 29.748 36.1355C30.2681 35.9922 30.8043 35.8548 31.3543 35.7232V39.6606C31.3543 40.3755 31.9228 40.9552 32.6239 40.9552C33.3249 40.9552 33.8934 40.3755 33.8934 39.6606V35.1768C35.3808 34.8902 36.9508 34.6423 38.5865 34.4344V38.9716C38.5865 39.6866 39.155 40.2662 39.856 40.2662C40.5571 40.2662 41.1256 39.6866 41.1256 38.9716V34.1488C44.4079 33.8269 47.9055 33.6593 51.5001 33.6593C59.7334 33.6593 67.4585 34.5387 73.2521 36.1355C79.3111 37.8054 81.4609 39.7846 81.4609 40.9722C81.4609 42.1596 79.3111 44.1389 73.2521 45.8089Z" fill="#A2D2FE"/>
<path d="M33.6652 20.0623C35.1154 19.1836 37.1306 19.1761 38.6613 20.0586C39.9667 20.8111 40.7168 22.1045 40.7256 23.6239V31.5494V31.9894L41.1636 31.9476C44.446 31.6338 47.9282 31.47 51.5001 31.47C59.9267 31.47 67.8494 32.379 73.8083 34.0214C77.0856 34.9247 79.5549 35.9976 81.1962 37.1916C82.8363 38.3846 83.6 39.6584 83.6 40.9722V59.0978C83.6 60.4115 82.8364 61.6853 81.1962 62.8783C79.555 64.0722 77.0857 65.1451 73.8083 66.0484C67.8492 67.6908 59.9267 68.6 51.5001 68.6C43.0735 68.6 35.1509 67.6908 29.1917 66.0484C25.9144 65.1451 23.4451 64.0722 21.8038 62.8783C20.1637 61.6853 19.4 60.4115 19.4 59.0978V40.9722C19.4 39.1099 20.9504 37.3188 24.2977 35.761L24.5286 35.6535L24.5289 35.3988L24.541 24.3249L24.5409 24.3191C24.5202 22.7781 25.2153 21.489 26.4329 20.7513C27.8831 19.8726 29.8985 19.8653 31.4291 20.7476C31.6287 20.8626 31.8148 20.9926 31.9905 21.1344L32.3143 21.3959L32.5627 21.0619M33.6652 20.0623C33.2244 20.3295 32.8555 20.6683 32.5627 21.0619M33.6652 20.0623L32.5627 21.0619M26.2801 24.3022C26.2733 23.87 26.3474 23.4745 26.5231 23.1285C26.7001 22.7798 26.969 22.5033 27.3154 22.2934M26.2801 24.3022L27.3154 22.2934M26.2801 24.3022L26.2802 24.3096L26.2803 24.3191L26.2693 34.3819L26.2686 34.9442L26.8001 34.7603C27.5441 34.5029 28.3406 34.2561 29.1918 34.0216M26.2801 24.3022L31.7545 24.3169M27.3154 22.2934C28.2464 21.7292 29.6046 21.7468 30.5793 22.3088M27.3154 22.2934L30.5793 22.3088M29.1918 34.0216L29.0856 33.636M29.1918 34.0216C29.9138 33.8226 30.6655 33.6344 31.4434 33.4571L31.7545 33.3862V33.0671V24.3192V24.3169M31.7545 24.3169C31.7494 23.4419 31.3437 22.7494 30.5793 22.3088M31.7545 24.3169L30.5793 22.3088M29.6417 64.3202C26.5894 63.4789 24.4938 62.5525 23.1515 61.6693C22.4804 61.2278 21.9856 60.7891 21.6546 60.3661C21.3259 59.9459 21.1391 59.5147 21.1391 59.0978V54.1167V53.3278L21.7755 53.7941C23.4165 54.9964 25.8949 56.0769 29.1917 56.9856C35.1509 58.628 43.0735 59.5372 51.5001 59.5372C59.9267 59.5372 67.8492 58.628 73.8083 56.9856C77.1053 56.0771 79.5835 54.9964 81.2245 53.7941L81.8609 53.3278V54.1167V59.0978C81.8609 59.5147 81.6741 59.9459 81.3454 60.3661C81.0145 60.7891 80.5196 61.2277 79.8485 61.6693C78.5063 62.5525 76.4107 63.4789 73.3584 64.3202C67.5199 65.9292 59.757 66.8108 51.5001 66.8108C43.2432 66.8108 35.4802 65.9293 29.6417 64.3202ZM29.6417 64.3202L29.748 63.9346M29.6417 55.2574C26.5894 54.4161 24.4938 53.4898 23.1515 52.6065C22.4804 52.165 21.9856 51.7263 21.6546 51.3033C21.3259 50.8831 21.1391 50.4519 21.1391 50.035V45.054V44.265L21.7755 44.7313C23.4165 45.9337 25.8949 47.0141 29.1917 47.9228C35.1509 49.5653 43.0735 50.4744 51.5001 50.4744C59.9267 50.4744 67.8492 49.5653 73.8083 47.9228M29.6417 55.2574L29.748 54.8718M29.6417 55.2574C35.4802 56.8665 43.2432 57.7481 51.5001 57.7481C59.757 57.7481 67.5199 56.8665 73.3584 55.2573C76.4107 54.416 78.5063 53.4897 79.8485 52.6065C80.5196 52.165 81.0145 51.7263 81.3454 51.3033C81.6741 50.8831 81.8609 50.4519 81.8609 50.035V45.054V44.265L81.2245 44.7313C79.5835 45.9337 77.1053 47.0143 73.8083 47.9228M73.8083 47.9228L73.9146 48.3084M29.6417 46.1946C26.5894 45.3533 24.4938 44.427 23.1515 43.5438C22.4804 43.1022 21.9856 42.6635 21.6546 42.2405C21.3259 41.8203 21.1391 41.3891 21.1391 40.9722C21.1391 40.3555 21.545 39.7009 22.2664 39.0676C23.0013 38.4225 24.126 37.7423 25.7149 37.0768L25.7177 37.0756C25.7296 37.0707 25.7382 37.0671 25.7453 37.0639L25.7562 37.0591C26.8277 36.6127 28.1141 36.1708 29.6417 35.7499C30.1666 35.6053 30.7071 35.4668 31.2612 35.3342L31.7543 35.2161V35.7232V39.6606C31.7543 40.162 32.1511 40.5552 32.6239 40.5552C33.0966 40.5552 33.4934 40.162 33.4934 39.6606V35.1768V34.8466L33.8177 34.7841C35.3143 34.4957 36.8928 34.2464 38.5361 34.0376L38.9865 33.9803V34.4344V38.9716C38.9865 39.4731 39.3832 39.8662 39.856 39.8662C40.3288 39.8662 40.7256 39.4731 40.7256 38.9716V34.1488V33.7861L41.0865 33.7507C44.3827 33.4275 47.8933 33.2593 51.5001 33.2593C59.757 33.2593 67.52 34.1408 73.3584 35.7499C76.4107 36.5911 78.5062 37.5173 79.8485 38.4006C80.5196 38.8421 81.0145 39.2808 81.3454 39.7038C81.6742 40.1241 81.8609 40.5553 81.8609 40.9722C81.8609 41.3891 81.6741 41.8203 81.3454 42.2405C81.0145 42.6635 80.5196 43.1022 79.8485 43.5437C78.5063 44.4269 76.4107 45.3532 73.3584 46.1945C67.5199 47.8038 59.757 48.6853 51.5001 48.6853C43.2432 48.6853 35.4802 47.8038 29.6417 46.1946ZM29.6417 46.1946L29.748 45.809M38.9866 23.63V23.6277C38.9816 22.7528 38.576 22.0603 37.8114 21.6196C36.8368 21.0578 35.479 21.0398 34.5476 21.6042C34.2011 21.8142 33.9323 22.0908 33.7552 22.4395C33.5795 22.7856 33.5054 23.1804 33.5122 23.6125C33.5134 23.6879 33.5042 23.7634 33.486 23.8404L33.4714 23.9021L33.4766 23.9652C33.4863 24.0835 33.4928 24.1986 33.4935 24.3129V25.9482V26.3989L33.941 26.3454L38.6341 25.7842L38.9866 25.742V25.387V23.63ZM38.9865 27.9939V27.5432L38.539 27.5967L33.8459 28.1579L33.4934 28.2001V28.5551V32.5442V33.0251L33.9663 32.9375C35.4521 32.6623 37.0133 32.4237 38.6355 32.2235L38.9865 32.1802V31.8266V27.9939Z" stroke="#0688FF" stroke-width="0.8"/>
</g>
</g>
<defs>
<filter id="filter0_dd" x="-1.2" y="-1.2" width="105.4" height="90.4" filterUnits="userSpaceOnUse" color-interpolation-filters="sRGB">
<feFlood flood-opacity="0" result="BackgroundImageFix"/>
<feColorMatrix in="SourceAlpha" type="matrix" values="0 0 0 0 0 0 0 0 0 0 0 0 0 0 0 0 0 0 127 0"/>
<feOffset/>
<feGaussianBlur stdDeviation="1.5"/>
<feColorMatrix type="matrix" values="0 0 0 0 0.635294 0 0 0 0 0.823529 0 0 0 0 0.996078 0 0 0 1 0"/>
<feBlend mode="normal" in2="BackgroundImageFix" result="effect1_dropShadow"/>
<feColorMatrix in="SourceAlpha" type="matrix" values="0 0 0 0 0 0 0 0 0 0 0 0 0 0 0 0 0 0 127 0"/>
<feOffset/>
<feGaussianBlur stdDeviation="10.1"/>
<feColorMatrix type="matrix" values="0 0 0 0 0.151389 0 0 0 0 0.882278 0 0 0 0 0.981944 0 0 0 0.8 0"/>
<feBlend mode="normal" in2="effect1_dropShadow" result="effect2_dropShadow"/>
<feBlend mode="normal" in="SourceGraphic" in2="effect2_dropShadow" result="shape"/>
</filter>
<clipPath id="clip0">
<rect width="103" height="88" fill="white"/>
</clipPath>
</defs>
</svg>
