<svg width="110" height="86" viewBox="0 0 110 86" fill="none" xmlns="http://www.w3.org/2000/svg">
<g filter="url(#filter0_dd)">
<mask id="mask0" mask-type="alpha" maskUnits="userSpaceOnUse" x="19" y="19" width="72" height="48">
<path d="M29.9946 41.6772H27.5873C27.0209 41.6772 26.5252 42.1879 26.5961 42.6986V45.179C26.5961 45.7626 27.0209 46.2004 27.5873 46.2004H29.9946C30.5611 46.2004 30.9859 45.7626 30.9859 45.179V42.6986C30.9859 42.1149 30.5611 41.6772 29.9946 41.6772Z" fill="white"/>
<path d="M44.1553 55.7575H41.7479C41.1815 55.7575 40.7567 56.2682 40.7567 56.7788V59.2593C40.7567 59.8429 41.1815 60.2806 41.7479 60.2806H44.1553C44.7217 60.2806 45.1465 59.8429 45.1465 59.2593V56.7788C45.1465 56.1952 44.7217 55.7575 44.1553 55.7575Z" fill="white"/>
<path d="M37.0749 55.7575H34.6675C34.1011 55.7575 33.6055 56.2682 33.6763 56.7788V59.2593C33.6763 59.8429 34.1011 60.2806 34.6675 60.2806H37.0749C37.6413 60.2806 38.0661 59.8429 38.0661 59.2593V56.7788C38.0661 56.1952 37.6413 55.7575 37.0749 55.7575Z" fill="white"/>
<path d="M29.9946 48.6812H27.5872C27.0208 48.6812 26.5252 49.1918 26.596 49.7025V52.183C26.596 52.7666 27.0208 53.2043 27.5872 53.2043H29.9946C30.561 53.2043 30.9858 52.7666 30.9858 52.183V49.7025C30.9858 49.1189 30.561 48.6812 29.9946 48.6812Z" fill="white"/>
<path d="M37.0749 48.6812H34.6675C34.1011 48.6812 33.6055 49.1918 33.6763 49.7025V52.183C33.6763 52.7666 34.1011 53.2043 34.6675 53.2043H37.0749C37.6413 53.2043 38.0661 52.7666 38.0661 52.183V49.7025C38.0661 49.1189 37.6413 48.6812 37.0749 48.6812Z" fill="white"/>
<path d="M37.0749 41.6772H34.6675C34.1011 41.6772 33.6055 42.1879 33.6763 42.6986V45.179C33.6763 45.7626 34.1011 46.2003 34.6675 46.2003H37.0749C37.6413 46.2003 38.0661 45.7626 38.0661 45.179V42.6986C38.0661 42.1149 37.6413 41.6772 37.0749 41.6772Z" fill="white"/>
<path d="M55.9089 53.2043H58.3163C58.8827 53.2043 59.3075 52.7666 59.3075 52.183V49.7025C59.3075 49.1189 58.8827 48.6812 58.3163 48.6812H55.9089C55.3425 48.6812 54.9177 49.1918 54.9177 49.7025V52.183C54.9177 52.7666 55.3425 53.2043 55.9089 53.2043Z" fill="white"/>
<path d="M29.9946 55.7575H27.5872C27.0208 55.7575 26.5252 56.2682 26.596 56.7788V59.2593C26.596 59.8429 27.0208 60.2806 27.5872 60.2806H29.9946C30.561 60.2806 30.9858 59.8429 30.9858 59.2593V56.7788C30.9858 56.1952 30.561 55.7575 29.9946 55.7575Z" fill="white"/>
<path d="M55.9089 46.2003H58.3163C58.8827 46.2003 59.3075 45.7626 59.3075 45.179V42.6986C59.3075 42.1149 58.8827 41.6772 58.3163 41.6772H55.9089C55.3425 41.6772 54.9177 42.1879 54.9177 42.6986V45.179C54.9177 45.7626 55.3425 46.2003 55.9089 46.2003Z" fill="white"/>
<path d="M48.8284 53.2043H51.2358C51.8022 53.2043 52.227 52.7666 52.227 52.183V49.7025C52.227 49.1189 51.8022 48.6812 51.2358 48.6812H48.8284C48.262 48.6812 47.8372 49.1918 47.8372 49.7025V52.183C47.8372 52.7666 48.262 53.2043 48.8284 53.2043Z" fill="white"/>
<path d="M48.8284 46.2003H51.2358C51.8022 46.2003 52.227 45.7626 52.227 45.179V42.6986C52.227 42.1149 51.8022 41.6772 51.2358 41.6772H48.8284C48.262 41.6772 47.8372 42.1879 47.8372 42.6986V45.179C47.8372 45.7626 48.262 46.2003 48.8284 46.2003Z" fill="white"/>
<path d="M65.3966 41.6772H62.9892C62.4228 41.6772 61.998 42.1879 61.998 42.6986V45.179C61.998 45.7626 62.4228 46.2003 62.9892 46.2003H65.3966C65.963 46.2003 66.3878 45.7626 66.3878 45.179V42.6986C66.3878 42.1149 65.963 41.6772 65.3966 41.6772Z" fill="white"/>
<path d="M72.4769 41.6772H70.0695C69.5031 41.6772 69.0783 42.1879 69.0783 42.6986V45.179C69.0783 45.7626 69.5031 46.2003 70.0695 46.2003H72.4769C73.0433 46.2003 73.4681 45.7626 73.4681 45.179V42.6986C73.4681 42.1149 73.0433 41.6772 72.4769 41.6772Z" fill="white"/>
<path d="M44.1553 48.6812H41.7479C41.1815 48.6812 40.7567 49.1918 40.7567 49.7025V52.183C40.7567 52.7666 41.1815 53.2043 41.7479 53.2043H44.1553C44.7217 53.2043 45.1465 52.7666 45.1465 52.183V49.7025C45.1465 49.1189 44.7217 48.6812 44.1553 48.6812Z" fill="white"/>
<path d="M44.1553 41.6772H41.7479C41.1815 41.6772 40.7567 42.1879 40.7567 42.6986V45.179C40.7567 45.7626 41.1815 46.2003 41.7479 46.2003H44.1553C44.7217 46.2003 45.1465 45.7626 45.1465 45.179V42.6986C45.1465 42.1149 44.7217 41.6772 44.1553 41.6772Z" fill="white"/>
<path d="M72.4769 48.6812H70.0695C69.5031 48.6812 69.0783 49.1918 69.0783 49.7025V52.183C69.0783 52.7666 69.5031 53.2043 70.0695 53.2043H72.4769C73.0433 53.2043 73.4681 52.7666 73.4681 52.183V49.7025C73.4681 49.1189 73.0433 48.6812 72.4769 48.6812Z" fill="white"/>
<path d="M64.2637 55.7575H48.8284C48.262 55.7575 47.8372 56.2682 47.8372 56.7788V59.2593C47.8372 59.8429 48.262 60.2806 48.8284 60.2806H64.2637C64.8301 60.2806 65.2549 59.8429 65.2549 59.2593V56.7788C65.2549 56.1952 64.8301 55.7575 64.2637 55.7575Z" fill="white"/>
<path d="M65.3966 48.6812H62.9892C62.4228 48.6812 61.998 49.1918 61.998 49.7025V52.183C61.998 52.7666 62.4228 53.2043 62.9892 53.2043H65.3966C65.963 53.2043 66.3878 52.7666 66.3878 52.183V49.7025C66.3878 49.1189 65.963 48.6812 65.3966 48.6812Z" fill="white"/>
<path d="M72.4769 55.7575H70.0695C69.5031 55.7575 69.0783 56.2682 69.0783 56.7788V59.2593C69.0783 59.8429 69.5031 60.2806 70.0695 60.2806H72.4769C73.0433 60.2806 73.4681 59.8429 73.4681 59.2593V56.7788C73.4681 56.1952 73.0433 55.7575 72.4769 55.7575Z" fill="white"/>
<path d="M89.4423 34.5447L89.3715 34.4717C88.3095 33.3774 86.8934 32.7209 85.3357 32.7209H56.8801C57.3049 29.7297 60.4202 28.8543 63.5356 27.9059C67.6422 26.6657 71.7489 25.4984 72.0321 20.6105C72.1029 19.7351 71.4656 19.0785 70.6868 19.0055C69.8372 18.9326 69.1999 19.5892 69.1291 20.3917C68.9875 23.1639 65.8721 24.0394 62.7568 24.9878C58.4377 26.228 54.0479 27.5411 53.9063 32.7209H24.7351C23.1774 32.7209 21.7613 33.3774 20.6993 34.4717C19.6372 35.566 19 37.0251 19 38.6301V61.0907C19 62.6957 19.6372 64.1548 20.6993 65.2491C21.7613 66.3434 23.1774 67 24.7351 67H85.2649C86.8226 67 88.2387 66.3434 89.3007 65.2491C90.3628 64.1548 91 62.6957 91 61.0907V38.6301C91 37.0251 90.4336 35.639 89.4423 34.5447ZM88.097 61.0178C88.097 61.8203 87.8138 62.5498 87.3182 63.0605C86.8226 63.6441 86.1145 63.9359 85.3357 63.9359H24.7351C23.9563 63.9359 23.2482 63.6441 22.7526 63.1334C22.257 62.6228 21.9738 61.8932 21.9738 61.0907V38.6301C21.9738 37.8276 22.257 37.0981 22.7526 36.5874C23.2482 36.0038 23.9563 35.712 24.7351 35.712H85.3357C86.1145 35.712 86.8226 36.0767 87.2474 36.5874L87.3182 36.6604C87.8138 37.171 88.097 37.9006 88.097 38.6301V61.0178Z" fill="white"/>
<path d="M75.1607 46.76C75.1607 43.5209 77.7091 40.8952 80.8527 40.8952C83.9963 40.8952 86.5446 43.5209 86.5446 46.76C86.5446 49.999 83.9963 52.6248 80.8527 52.6248C77.7091 52.6248 75.1607 49.999 75.1607 46.76Z" fill="white"/>
</mask>
<g mask="url(#mask0)">
<path d="M29.9946 41.6772H27.5873C27.0209 41.6772 26.5252 42.1879 26.5961 42.6986V45.179C26.5961 45.7626 27.0209 46.2004 27.5873 46.2004H29.9946C30.5611 46.2004 30.9859 45.7626 30.9859 45.179V42.6986C30.9859 42.1149 30.5611 41.6772 29.9946 41.6772Z" fill="#F5D9BF"/>
<path d="M44.1553 55.7575H41.7479C41.1815 55.7575 40.7567 56.2682 40.7567 56.7788V59.2593C40.7567 59.8429 41.1815 60.2806 41.7479 60.2806H44.1553C44.7217 60.2806 45.1465 59.8429 45.1465 59.2593V56.7788C45.1465 56.1952 44.7217 55.7575 44.1553 55.7575Z" fill="#F5D9BF"/>
<path d="M37.0749 55.7575H34.6675C34.1011 55.7575 33.6055 56.2682 33.6763 56.7788V59.2593C33.6763 59.8429 34.1011 60.2806 34.6675 60.2806H37.0749C37.6413 60.2806 38.0661 59.8429 38.0661 59.2593V56.7788C38.0661 56.1952 37.6413 55.7575 37.0749 55.7575Z" fill="#F5D9BF"/>
<path d="M29.9946 48.6812H27.5872C27.0208 48.6812 26.5252 49.1918 26.596 49.7025V52.183C26.596 52.7666 27.0208 53.2043 27.5872 53.2043H29.9946C30.561 53.2043 30.9858 52.7666 30.9858 52.183V49.7025C30.9858 49.1189 30.561 48.6812 29.9946 48.6812Z" fill="#F5D9BF"/>
<path d="M37.0749 48.6812H34.6675C34.1011 48.6812 33.6055 49.1918 33.6763 49.7025V52.183C33.6763 52.7666 34.1011 53.2043 34.6675 53.2043H37.0749C37.6413 53.2043 38.0661 52.7666 38.0661 52.183V49.7025C38.0661 49.1189 37.6413 48.6812 37.0749 48.6812Z" fill="#F5D9BF"/>
<path d="M37.0749 41.6772H34.6675C34.1011 41.6772 33.6055 42.1879 33.6763 42.6986V45.179C33.6763 45.7626 34.1011 46.2003 34.6675 46.2003H37.0749C37.6413 46.2003 38.0661 45.7626 38.0661 45.179V42.6986C38.0661 42.1149 37.6413 41.6772 37.0749 41.6772Z" fill="#F5D9BF"/>
<path d="M55.9089 53.2043H58.3163C58.8827 53.2043 59.3075 52.7666 59.3075 52.183V49.7025C59.3075 49.1189 58.8827 48.6812 58.3163 48.6812H55.9089C55.3425 48.6812 54.9177 49.1918 54.9177 49.7025V52.183C54.9177 52.7666 55.3425 53.2043 55.9089 53.2043Z" fill="#F5D9BF"/>
<path d="M29.9946 55.7575H27.5872C27.0208 55.7575 26.5252 56.2682 26.596 56.7788V59.2593C26.596 59.8429 27.0208 60.2806 27.5872 60.2806H29.9946C30.561 60.2806 30.9858 59.8429 30.9858 59.2593V56.7788C30.9858 56.1952 30.561 55.7575 29.9946 55.7575Z" fill="#F5D9BF"/>
<path d="M55.9089 46.2003H58.3163C58.8827 46.2003 59.3075 45.7626 59.3075 45.179V42.6986C59.3075 42.1149 58.8827 41.6772 58.3163 41.6772H55.9089C55.3425 41.6772 54.9177 42.1879 54.9177 42.6986V45.179C54.9177 45.7626 55.3425 46.2003 55.9089 46.2003Z" fill="#F5D9BF"/>
<path d="M48.8284 53.2043H51.2358C51.8022 53.2043 52.227 52.7666 52.227 52.183V49.7025C52.227 49.1189 51.8022 48.6812 51.2358 48.6812H48.8284C48.262 48.6812 47.8372 49.1918 47.8372 49.7025V52.183C47.8372 52.7666 48.262 53.2043 48.8284 53.2043Z" fill="#F5D9BF"/>
<path d="M48.8284 46.2003H51.2358C51.8022 46.2003 52.227 45.7626 52.227 45.179V42.6986C52.227 42.1149 51.8022 41.6772 51.2358 41.6772H48.8284C48.262 41.6772 47.8372 42.1879 47.8372 42.6986V45.179C47.8372 45.7626 48.262 46.2003 48.8284 46.2003Z" fill="#F5D9BF"/>
<path d="M65.3966 41.6772H62.9892C62.4228 41.6772 61.998 42.1879 61.998 42.6986V45.179C61.998 45.7626 62.4228 46.2003 62.9892 46.2003H65.3966C65.963 46.2003 66.3878 45.7626 66.3878 45.179V42.6986C66.3878 42.1149 65.963 41.6772 65.3966 41.6772Z" fill="#F5D9BF"/>
<path d="M72.4769 41.6772H70.0695C69.5031 41.6772 69.0783 42.1879 69.0783 42.6986V45.179C69.0783 45.7626 69.5031 46.2003 70.0695 46.2003H72.4769C73.0433 46.2003 73.4681 45.7626 73.4681 45.179V42.6986C73.4681 42.1149 73.0433 41.6772 72.4769 41.6772Z" fill="#F5D9BF"/>
<path d="M44.1553 48.6812H41.7479C41.1815 48.6812 40.7567 49.1918 40.7567 49.7025V52.183C40.7567 52.7666 41.1815 53.2043 41.7479 53.2043H44.1553C44.7217 53.2043 45.1465 52.7666 45.1465 52.183V49.7025C45.1465 49.1189 44.7217 48.6812 44.1553 48.6812Z" fill="#F5D9BF"/>
<path d="M44.1553 41.6772H41.7479C41.1815 41.6772 40.7567 42.1879 40.7567 42.6986V45.179C40.7567 45.7626 41.1815 46.2003 41.7479 46.2003H44.1553C44.7217 46.2003 45.1465 45.7626 45.1465 45.179V42.6986C45.1465 42.1149 44.7217 41.6772 44.1553 41.6772Z" fill="#F5D9BF"/>
<path d="M72.4769 48.6812H70.0695C69.5031 48.6812 69.0783 49.1918 69.0783 49.7025V52.183C69.0783 52.7666 69.5031 53.2043 70.0695 53.2043H72.4769C73.0433 53.2043 73.4681 52.7666 73.4681 52.183V49.7025C73.4681 49.1189 73.0433 48.6812 72.4769 48.6812Z" fill="#F5D9BF"/>
<path d="M64.2637 55.7575H48.8284C48.262 55.7575 47.8372 56.2682 47.8372 56.7788V59.2593C47.8372 59.8429 48.262 60.2806 48.8284 60.2806H64.2637C64.8301 60.2806 65.2549 59.8429 65.2549 59.2593V56.7788C65.2549 56.1952 64.8301 55.7575 64.2637 55.7575Z" fill="#F5D9BF"/>
<path d="M65.3966 48.6812H62.9892C62.4228 48.6812 61.998 49.1918 61.998 49.7025V52.183C61.998 52.7666 62.4228 53.2043 62.9892 53.2043H65.3966C65.963 53.2043 66.3878 52.7666 66.3878 52.183V49.7025C66.3878 49.1189 65.963 48.6812 65.3966 48.6812Z" fill="#F5D9BF"/>
<path d="M72.4769 55.7575H70.0695C69.5031 55.7575 69.0783 56.2682 69.0783 56.7788V59.2593C69.0783 59.8429 69.5031 60.2806 70.0695 60.2806H72.4769C73.0433 60.2806 73.4681 59.8429 73.4681 59.2593V56.7788C73.4681 56.1952 73.0433 55.7575 72.4769 55.7575Z" fill="#F5D9BF"/>
<path d="M89.4423 34.5447L89.3715 34.4717C88.3095 33.3774 86.8934 32.7209 85.3357 32.7209H56.8801C57.3049 29.7297 60.4202 28.8543 63.5356 27.9059C67.6422 26.6657 71.7489 25.4984 72.0321 20.6105C72.1029 19.7351 71.4656 19.0785 70.6868 19.0055C69.8372 18.9326 69.1999 19.5892 69.1291 20.3917C68.9875 23.1639 65.8721 24.0394 62.7568 24.9878C58.4377 26.228 54.0479 27.5411 53.9063 32.7209H24.7351C23.1774 32.7209 21.7613 33.3774 20.6993 34.4717C19.6372 35.566 19 37.0251 19 38.6301V61.0907C19 62.6957 19.6372 64.1548 20.6993 65.2491C21.7613 66.3434 23.1774 67 24.7351 67H85.2649C86.8226 67 88.2387 66.3434 89.3007 65.2491C90.3628 64.1548 91 62.6957 91 61.0907V38.6301C91 37.0251 90.4336 35.639 89.4423 34.5447ZM88.097 61.0178C88.097 61.8203 87.8138 62.5498 87.3182 63.0605C86.8226 63.6441 86.1145 63.9359 85.3357 63.9359H24.7351C23.9563 63.9359 23.2482 63.6441 22.7526 63.1334C22.257 62.6228 21.9738 61.8932 21.9738 61.0907V38.6301C21.9738 37.8276 22.257 37.0981 22.7526 36.5874C23.2482 36.0038 23.9563 35.712 24.7351 35.712H85.3357C86.1145 35.712 86.8226 36.0767 87.2474 36.5874L87.3182 36.6604C87.8138 37.171 88.097 37.9006 88.097 38.6301V61.0178Z" fill="#F5D9BF"/>
<path d="M75.1607 46.76C75.1607 43.5209 77.7091 40.8952 80.8527 40.8952C83.9963 40.8952 86.5446 43.5209 86.5446 46.76C86.5446 49.999 83.9963 52.6248 80.8527 52.6248C77.7091 52.6248 75.1607 49.999 75.1607 46.76Z" fill="#F5D9BF"/>
<path d="M29.9946 41.6772H27.5873C27.0209 41.6772 26.5252 42.1879 26.5961 42.6986V45.179C26.5961 45.7626 27.0209 46.2004 27.5873 46.2004H29.9946C30.5611 46.2004 30.9859 45.7626 30.9859 45.179V42.6986C30.9859 42.1149 30.5611 41.6772 29.9946 41.6772Z" stroke="#EF915D" stroke-width="1.6"/>
<path d="M44.1553 55.7575H41.7479C41.1815 55.7575 40.7567 56.2682 40.7567 56.7788V59.2593C40.7567 59.8429 41.1815 60.2806 41.7479 60.2806H44.1553C44.7217 60.2806 45.1465 59.8429 45.1465 59.2593V56.7788C45.1465 56.1952 44.7217 55.7575 44.1553 55.7575Z" stroke="#EF915D" stroke-width="1.6"/>
<path d="M37.0749 55.7575H34.6675C34.1011 55.7575 33.6055 56.2682 33.6763 56.7788V59.2593C33.6763 59.8429 34.1011 60.2806 34.6675 60.2806H37.0749C37.6413 60.2806 38.0661 59.8429 38.0661 59.2593V56.7788C38.0661 56.1952 37.6413 55.7575 37.0749 55.7575Z" stroke="#EF915D" stroke-width="1.6"/>
<path d="M29.9946 48.6812H27.5872C27.0208 48.6812 26.5252 49.1918 26.596 49.7025V52.183C26.596 52.7666 27.0208 53.2043 27.5872 53.2043H29.9946C30.561 53.2043 30.9858 52.7666 30.9858 52.183V49.7025C30.9858 49.1189 30.561 48.6812 29.9946 48.6812Z" stroke="#EF915D" stroke-width="1.6"/>
<path d="M37.0749 48.6812H34.6675C34.1011 48.6812 33.6055 49.1918 33.6763 49.7025V52.183C33.6763 52.7666 34.1011 53.2043 34.6675 53.2043H37.0749C37.6413 53.2043 38.0661 52.7666 38.0661 52.183V49.7025C38.0661 49.1189 37.6413 48.6812 37.0749 48.6812Z" stroke="#EF915D" stroke-width="1.6"/>
<path d="M37.0749 41.6772H34.6675C34.1011 41.6772 33.6055 42.1879 33.6763 42.6986V45.179C33.6763 45.7626 34.1011 46.2003 34.6675 46.2003H37.0749C37.6413 46.2003 38.0661 45.7626 38.0661 45.179V42.6986C38.0661 42.1149 37.6413 41.6772 37.0749 41.6772Z" stroke="#EF915D" stroke-width="1.6"/>
<path d="M55.9089 53.2043H58.3163C58.8827 53.2043 59.3075 52.7666 59.3075 52.183V49.7025C59.3075 49.1189 58.8827 48.6812 58.3163 48.6812H55.9089C55.3425 48.6812 54.9177 49.1918 54.9177 49.7025V52.183C54.9177 52.7666 55.3425 53.2043 55.9089 53.2043Z" stroke="#EF915D" stroke-width="1.6"/>
<path d="M29.9946 55.7575H27.5872C27.0208 55.7575 26.5252 56.2682 26.596 56.7788V59.2593C26.596 59.8429 27.0208 60.2806 27.5872 60.2806H29.9946C30.561 60.2806 30.9858 59.8429 30.9858 59.2593V56.7788C30.9858 56.1952 30.561 55.7575 29.9946 55.7575Z" stroke="#EF915D" stroke-width="1.6"/>
<path d="M55.9089 46.2003H58.3163C58.8827 46.2003 59.3075 45.7626 59.3075 45.179V42.6986C59.3075 42.1149 58.8827 41.6772 58.3163 41.6772H55.9089C55.3425 41.6772 54.9177 42.1879 54.9177 42.6986V45.179C54.9177 45.7626 55.3425 46.2003 55.9089 46.2003Z" stroke="#EF915D" stroke-width="1.6"/>
<path d="M48.8284 53.2043H51.2358C51.8022 53.2043 52.227 52.7666 52.227 52.183V49.7025C52.227 49.1189 51.8022 48.6812 51.2358 48.6812H48.8284C48.262 48.6812 47.8372 49.1918 47.8372 49.7025V52.183C47.8372 52.7666 48.262 53.2043 48.8284 53.2043Z" stroke="#EF915D" stroke-width="1.6"/>
<path d="M48.8284 46.2003H51.2358C51.8022 46.2003 52.227 45.7626 52.227 45.179V42.6986C52.227 42.1149 51.8022 41.6772 51.2358 41.6772H48.8284C48.262 41.6772 47.8372 42.1879 47.8372 42.6986V45.179C47.8372 45.7626 48.262 46.2003 48.8284 46.2003Z" stroke="#EF915D" stroke-width="1.6"/>
<path d="M65.3966 41.6772H62.9892C62.4228 41.6772 61.998 42.1879 61.998 42.6986V45.179C61.998 45.7626 62.4228 46.2003 62.9892 46.2003H65.3966C65.963 46.2003 66.3878 45.7626 66.3878 45.179V42.6986C66.3878 42.1149 65.963 41.6772 65.3966 41.6772Z" stroke="#EF915D" stroke-width="1.6"/>
<path d="M72.4769 41.6772H70.0695C69.5031 41.6772 69.0783 42.1879 69.0783 42.6986V45.179C69.0783 45.7626 69.5031 46.2003 70.0695 46.2003H72.4769C73.0433 46.2003 73.4681 45.7626 73.4681 45.179V42.6986C73.4681 42.1149 73.0433 41.6772 72.4769 41.6772Z" stroke="#EF915D" stroke-width="1.6"/>
<path d="M44.1553 48.6812H41.7479C41.1815 48.6812 40.7567 49.1918 40.7567 49.7025V52.183C40.7567 52.7666 41.1815 53.2043 41.7479 53.2043H44.1553C44.7217 53.2043 45.1465 52.7666 45.1465 52.183V49.7025C45.1465 49.1189 44.7217 48.6812 44.1553 48.6812Z" stroke="#EF915D" stroke-width="1.6"/>
<path d="M44.1553 41.6772H41.7479C41.1815 41.6772 40.7567 42.1879 40.7567 42.6986V45.179C40.7567 45.7626 41.1815 46.2003 41.7479 46.2003H44.1553C44.7217 46.2003 45.1465 45.7626 45.1465 45.179V42.6986C45.1465 42.1149 44.7217 41.6772 44.1553 41.6772Z" stroke="#EF915D" stroke-width="1.6"/>
<path d="M72.4769 48.6812H70.0695C69.5031 48.6812 69.0783 49.1918 69.0783 49.7025V52.183C69.0783 52.7666 69.5031 53.2043 70.0695 53.2043H72.4769C73.0433 53.2043 73.4681 52.7666 73.4681 52.183V49.7025C73.4681 49.1189 73.0433 48.6812 72.4769 48.6812Z" stroke="#EF915D" stroke-width="1.6"/>
<path d="M64.2637 55.7575H48.8284C48.262 55.7575 47.8372 56.2682 47.8372 56.7788V59.2593C47.8372 59.8429 48.262 60.2806 48.8284 60.2806H64.2637C64.8301 60.2806 65.2549 59.8429 65.2549 59.2593V56.7788C65.2549 56.1952 64.8301 55.7575 64.2637 55.7575Z" stroke="#EF915D" stroke-width="1.6"/>
<path d="M65.3966 48.6812H62.9892C62.4228 48.6812 61.998 49.1918 61.998 49.7025V52.183C61.998 52.7666 62.4228 53.2043 62.9892 53.2043H65.3966C65.963 53.2043 66.3878 52.7666 66.3878 52.183V49.7025C66.3878 49.1189 65.963 48.6812 65.3966 48.6812Z" stroke="#EF915D" stroke-width="1.6"/>
<path d="M72.4769 55.7575H70.0695C69.5031 55.7575 69.0783 56.2682 69.0783 56.7788V59.2593C69.0783 59.8429 69.5031 60.2806 70.0695 60.2806H72.4769C73.0433 60.2806 73.4681 59.8429 73.4681 59.2593V56.7788C73.4681 56.1952 73.0433 55.7575 72.4769 55.7575Z" stroke="#EF915D" stroke-width="1.6"/>
<path d="M89.4423 34.5447L89.3715 34.4717C88.3095 33.3774 86.8934 32.7209 85.3357 32.7209H56.8801C57.3049 29.7297 60.4202 28.8543 63.5356 27.9059C67.6422 26.6657 71.7489 25.4984 72.0321 20.6105C72.1029 19.7351 71.4656 19.0785 70.6868 19.0055C69.8372 18.9326 69.1999 19.5892 69.1291 20.3917C68.9875 23.1639 65.8721 24.0394 62.7568 24.9878C58.4377 26.228 54.0479 27.5411 53.9063 32.7209H24.7351C23.1774 32.7209 21.7613 33.3774 20.6993 34.4717C19.6372 35.566 19 37.0251 19 38.6301V61.0907C19 62.6957 19.6372 64.1548 20.6993 65.2491C21.7613 66.3434 23.1774 67 24.7351 67H85.2649C86.8226 67 88.2387 66.3434 89.3007 65.2491C90.3628 64.1548 91 62.6957 91 61.0907V38.6301C91 37.0251 90.4336 35.639 89.4423 34.5447ZM88.097 61.0178C88.097 61.8203 87.8138 62.5498 87.3182 63.0605C86.8226 63.6441 86.1145 63.9359 85.3357 63.9359H24.7351C23.9563 63.9359 23.2482 63.6441 22.7526 63.1334C22.257 62.6228 21.9738 61.8932 21.9738 61.0907V38.6301C21.9738 37.8276 22.257 37.0981 22.7526 36.5874C23.2482 36.0038 23.9563 35.712 24.7351 35.712H85.3357C86.1145 35.712 86.8226 36.0767 87.2474 36.5874L87.3182 36.6604C87.8138 37.171 88.097 37.9006 88.097 38.6301V61.0178Z" stroke="#EF915D" stroke-width="1.6"/>
<path d="M75.1607 46.76C75.1607 43.5209 77.7091 40.8952 80.8527 40.8952C83.9963 40.8952 86.5446 43.5209 86.5446 46.76C86.5446 49.999 83.9963 52.6248 80.8527 52.6248C77.7091 52.6248 75.1607 49.999 75.1607 46.76Z" stroke="#EF915D" stroke-width="1.6"/>
</g>
</g>
<defs>
<filter id="filter0_dd" x="-1.2" y="-1.20003" width="112.4" height="88.4" filterUnits="userSpaceOnUse" color-interpolation-filters="sRGB">
<feFlood flood-opacity="0" result="BackgroundImageFix"/>
<feColorMatrix in="SourceAlpha" type="matrix" values="0 0 0 0 0 0 0 0 0 0 0 0 0 0 0 0 0 0 127 0"/>
<feOffset/>
<feGaussianBlur stdDeviation="1.5"/>
<feColorMatrix type="matrix" values="0 0 0 0 0.989427 0 0 0 0 0.665654 0 0 0 0 0.285573 0 0 0 0.42 0"/>
<feBlend mode="normal" in2="BackgroundImageFix" result="effect1_dropShadow"/>
<feColorMatrix in="SourceAlpha" type="matrix" values="0 0 0 0 0 0 0 0 0 0 0 0 0 0 0 0 0 0 127 0"/>
<feOffset/>
<feGaussianBlur stdDeviation="10.1"/>
<feColorMatrix type="matrix" values="0 0 0 0 1 0 0 0 0 0.571 0 0 0 0 0.175 0 0 0 0.33 0"/>
<feBlend mode="normal" in2="effect1_dropShadow" result="effect2_dropShadow"/>
<feBlend mode="normal" in="SourceGraphic" in2="effect2_dropShadow" result="shape"/>
</filter>
</defs>
</svg>
