<svg width="48" height="48" viewBox="0 0 48 48" fill="none" xmlns="http://www.w3.org/2000/svg">
<g filter="url(#filter0_dd)">
<path fill-rule="evenodd" clip-rule="evenodd" d="M39.9998 11.9255L36.0743 8L31.0567 13.0176C29.0257 11.6997 26.6031 10.9343 24.0017 10.9343C21.3899 10.9343 18.9583 11.7058 16.9224 13.0334L11.9255 8.03651L8 11.962L13.0244 16.9864C11.7574 18.9905 11.024 21.3656 11.024 23.912C11.024 26.5096 11.7872 28.929 13.1016 30.9582L8 36.0598L11.9255 39.9854L17.0428 34.8681C19.0539 36.1481 21.4412 36.8896 24.0017 36.8896C26.5714 36.8896 28.9666 36.1428 30.9822 34.8543L36.0745 39.9465L40 36.021L34.9156 30.9366C36.2215 28.9119 36.9793 26.5004 36.9793 23.912C36.9793 21.3552 36.24 18.9711 34.9634 16.9619L39.9998 11.9255ZM31.0989 27.1199C31.5417 26.1417 31.7883 25.0556 31.7883 23.912C31.7883 19.6115 28.3021 16.1254 24.0017 16.1254C19.7012 16.1254 16.2151 19.6115 16.2151 23.912C16.2151 28.2124 19.7012 31.6986 24.0017 31.6986C25.1258 31.6986 26.1944 31.4603 27.1595 31.0316L22.0836 25.9556L26.0091 22.0301L31.0989 27.1199Z" fill="#8D8AFF"/>
<path d="M36.0743 8L36.6046 7.46967L36.0743 6.93934L35.5439 7.46967L36.0743 8ZM39.9998 11.9255L40.5301 12.4559L41.0605 11.9255L40.5301 11.3952L39.9998 11.9255ZM31.0567 13.0176L30.6484 13.6468L31.1577 13.9772L31.587 13.5479L31.0567 13.0176ZM16.9224 13.0334L16.3921 13.5637L16.8224 13.994L17.3321 13.6616L16.9224 13.0334ZM11.9255 8.03651L12.4559 7.50618L11.9255 6.97585L11.3952 7.50618L11.9255 8.03651ZM8 11.962L7.46967 11.4317L6.93934 11.962L7.46967 12.4924L8 11.962ZM13.0244 16.9864L13.6583 17.3872L13.9789 16.8802L13.5547 16.4561L13.0244 16.9864ZM13.1016 30.9582L13.632 31.4885L14.0609 31.0596L13.7311 30.5504L13.1016 30.9582ZM8 36.0598L7.46967 35.5295L6.93934 36.0598L7.46967 36.5902L8 36.0598ZM11.9255 39.9854L11.3952 40.5157L11.9255 41.046L12.4559 40.5157L11.9255 39.9854ZM17.0428 34.8681L17.4455 34.2354L16.9379 33.9123L16.5125 34.3378L17.0428 34.8681ZM30.9822 34.8543L31.5125 34.3239L31.0862 33.8976L30.5782 34.2224L30.9822 34.8543ZM36.0745 39.9465L35.5441 40.4769L36.0745 41.0072L36.6048 40.4769L36.0745 39.9465ZM40 36.021L40.5303 36.5513L41.0606 36.021L40.5303 35.4907L40 36.021ZM34.9156 30.9366L34.2853 30.5301L33.9572 31.0389L34.3853 31.467L34.9156 30.9366ZM34.9634 16.9619L34.4331 16.4316L34.008 16.8567L34.3304 17.3641L34.9634 16.9619ZM31.0989 27.1199L30.5685 27.6502L31.335 28.4167L31.7821 27.4292L31.0989 27.1199ZM27.1595 31.0316L27.464 31.717L28.4622 31.2736L27.6899 30.5013L27.1595 31.0316ZM22.0836 25.9556L21.5532 25.4253L21.0229 25.9556L21.5532 26.486L22.0836 25.9556ZM26.0091 22.0301L26.5394 21.4998L26.0091 20.9695L25.4788 21.4998L26.0091 22.0301ZM35.5439 8.53033L39.4695 12.4559L40.5301 11.3952L36.6046 7.46967L35.5439 8.53033ZM31.587 13.5479L36.6046 8.53033L35.5439 7.46967L30.5263 12.4873L31.587 13.5479ZM24.0017 11.6843C26.4538 11.6843 28.7353 12.4053 30.6484 13.6468L31.4649 12.3885C29.3161 10.9941 26.7523 10.1843 24.0017 10.1843V11.6843ZM17.3321 13.6616C19.2498 12.4111 21.5397 11.6843 24.0017 11.6843V10.1843C21.2401 10.1843 18.6668 11.0005 16.5128 12.4052L17.3321 13.6616ZM17.4527 12.5031L12.4559 7.50618L11.3952 8.56684L16.3921 13.5637L17.4527 12.5031ZM11.3952 7.50618L7.46967 11.4317L8.53033 12.4924L12.4559 8.56684L11.3952 7.50618ZM7.46967 12.4924L12.4941 17.5168L13.5547 16.4561L8.53033 11.4317L7.46967 12.4924ZM11.774 23.912C11.774 21.5116 12.4649 19.2749 13.6583 17.3872L12.3905 16.5856C11.0498 18.7061 10.274 21.2196 10.274 23.912H11.774ZM13.7311 30.5504C12.493 28.6391 11.774 26.3606 11.774 23.912H10.274C10.274 26.6586 11.0815 29.219 12.4722 31.3659L13.7311 30.5504ZM8.53033 36.5902L13.632 31.4885L12.5713 30.4279L7.46967 35.5295L8.53033 36.5902ZM12.4559 39.455L8.53033 35.5295L7.46967 36.5902L11.3952 40.5157L12.4559 39.455ZM16.5125 34.3378L11.3952 39.455L12.4559 40.5157L17.5731 35.3984L16.5125 34.3378ZM24.0017 36.1396C21.588 36.1396 19.3398 35.4411 17.4455 34.2354L16.6401 35.5008C18.7679 36.8551 21.2943 37.6396 24.0017 37.6396V36.1396ZM30.5782 34.2224C28.6797 35.436 26.424 36.1396 24.0017 36.1396V37.6396C26.7187 37.6396 29.2535 36.8495 31.3862 35.4862L30.5782 34.2224ZM36.6048 39.4162L31.5125 34.3239L30.4519 35.3846L35.5441 40.4769L36.6048 39.4162ZM39.4697 35.4907L35.5441 39.4162L36.6048 40.4769L40.5303 36.5513L39.4697 35.4907ZM34.3853 31.467L39.4697 36.5513L40.5303 35.4907L35.446 30.4063L34.3853 31.467ZM36.2293 23.912C36.2293 26.352 35.5154 28.6229 34.2853 30.5301L35.5459 31.3431C36.9276 29.2009 37.7293 26.6489 37.7293 23.912H36.2293ZM34.3304 17.3641C35.5328 19.2567 36.2293 21.5018 36.2293 23.912H37.7293C37.7293 21.2086 36.9471 18.6856 35.5964 16.5597L34.3304 17.3641ZM39.4695 11.3952L34.4331 16.4316L35.4937 17.4922L40.5301 12.4559L39.4695 11.3952ZM31.0383 23.912C31.0383 24.9468 30.8153 25.9276 30.4156 26.8106L31.7821 27.4292C32.2681 26.3557 32.5383 25.1644 32.5383 23.912H31.0383ZM24.0017 16.8754C27.8879 16.8754 31.0383 20.0257 31.0383 23.912H32.5383C32.5383 19.1973 28.7163 15.3754 24.0017 15.3754V16.8754ZM16.9651 23.912C16.9651 20.0257 20.1155 16.8754 24.0017 16.8754V15.3754C19.287 15.3754 15.4651 19.1973 15.4651 23.912H16.9651ZM24.0017 30.9486C20.1155 30.9486 16.9651 27.7982 16.9651 23.912H15.4651C15.4651 28.6266 19.287 32.4486 24.0017 32.4486V30.9486ZM26.8551 30.3462C25.9839 30.7332 25.0189 30.9486 24.0017 30.9486V32.4486C25.2327 32.4486 26.4048 32.1875 27.464 31.717L26.8551 30.3462ZM21.5532 26.486L26.6292 31.5619L27.6899 30.5013L22.6139 25.4253L21.5532 26.486ZM25.4788 21.4998L21.5532 25.4253L22.6139 26.486L26.5394 22.5604L25.4788 21.4998ZM31.6292 26.5895L26.5394 21.4998L25.4788 22.5604L30.5685 27.6502L31.6292 26.5895Z" fill="#5544E1"/>
</g>
<defs>
<filter id="filter0_dd" x="4.26266" y="4.26278" width="39.4747" height="39.46" filterUnits="userSpaceOnUse" color-interpolation-filters="sRGB">
<feFlood flood-opacity="0" result="BackgroundImageFix"/>
<feColorMatrix in="SourceAlpha" type="matrix" values="0 0 0 0 0 0 0 0 0 0 0 0 0 0 0 0 0 0 127 0"/>
<feMorphology radius="3.21201" operator="erode" in="SourceAlpha" result="effect1_dropShadow"/>
<feOffset/>
<feGaussianBlur stdDeviation="0.535334"/>
<feColorMatrix type="matrix" values="0 0 0 0 0.211765 0 0 0 0 0.14902 0 0 0 0 0.690196 0 0 0 1 0"/>
<feBlend mode="normal" in2="BackgroundImageFix" result="effect1_dropShadow"/>
<feColorMatrix in="SourceAlpha" type="matrix" values="0 0 0 0 0 0 0 0 0 0 0 0 0 0 0 0 0 0 127 0"/>
<feMorphology radius="3.21201" operator="erode" in="SourceAlpha" result="effect2_dropShadow"/>
<feOffset/>
<feGaussianBlur stdDeviation="2.94434"/>
<feColorMatrix type="matrix" values="0 0 0 0 0.392361 0 0 0 0 0.314583 0 0 0 0 0.985417 0 0 0 1 0"/>
<feBlend mode="normal" in2="effect1_dropShadow" result="effect2_dropShadow"/>
<feBlend mode="normal" in="SourceGraphic" in2="effect2_dropShadow" result="shape"/>
</filter>
</defs>
</svg>
