<svg width="48" height="48" viewBox="0 0 48 48" fill="none" xmlns="http://www.w3.org/2000/svg">
<g filter="url(#filter0_d)">
<path d="M40.0286 16.2484H7.97144M10.1086 37.1714C8.92827 37.1714 7.97144 36.2347 7.97144 35.0791V12.2242C7.97535 10.9816 9.00325 9.97526 10.2724 9.97144H37.739C39.0019 9.97526 40.0247 10.9766 40.0286 12.213V34.9187C40.0247 36.1613 38.9968 37.1676 37.7276 37.1714H10.1086Z" stroke="#8480F8" stroke-width="3"/>
</g>
<g filter="url(#filter1_dd)">
<mask id="path-2-outside-1" maskUnits="userSpaceOnUse" x="6" y="8" width="36" height="32" fill="black">
<rect fill="white" x="6" y="8" width="36" height="32"/>
<path fill-rule="evenodd" clip-rule="evenodd" d="M9.26667 38.1429C8.01482 38.1429 7 37.1392 7 35.9011V11.4136C7.00415 10.0823 8.09435 9.0041 9.44044 9H38.5716C39.9111 9.0041 40.9959 10.077 41 11.4017V35.7292C40.9959 37.0605 39.9057 38.1388 38.5596 38.1429H9.26667Z"/>
<path fill-rule="evenodd" clip-rule="evenodd" d="M41 18.5456H7H41Z"/>
<path fill-rule="evenodd" clip-rule="evenodd" d="M30.8 22.4505L35.3333 26.9341L30.8 31.4176"/>
<path fill-rule="evenodd" clip-rule="evenodd" d="M17.2 22.4505L12.6667 26.9341L17.2 31.4176"/>
<path fill-rule="evenodd" clip-rule="evenodd" d="M26.2667 22.4505L21.7333 31.4176L26.2667 22.4505Z"/>
</mask>
<path d="M7 35.9011H6H7ZM7 11.4136L6 11.4105V11.4136H7ZM9.44044 9V8L9.4374 8L9.44044 9ZM38.5716 9L38.5747 8H38.5716V9ZM41 11.4017H42L42 11.3985L41 11.4017ZM41 35.7292L42 35.7323V35.7292H41ZM38.5596 38.1429V39.1429L38.5626 39.1429L38.5596 38.1429ZM35.3333 26.9341L36.0365 27.6451L36.7554 26.9341L36.0365 26.2231L35.3333 26.9341ZM12.6667 26.9341L11.9635 26.2231L11.2446 26.9341L11.9635 27.6451L12.6667 26.9341ZM9.26667 37.1429C8.55666 37.1429 8 36.5765 8 35.9011H6C6 37.7019 7.47298 39.1429 9.26667 39.1429V37.1429ZM8 35.9011V11.4136H6V35.9011H8ZM8 11.4167C8.0024 10.6456 8.63692 10.0025 9.44349 10L9.4374 8C7.55177 8.00575 6.0059 9.51903 6 11.4105L8 11.4167ZM9.44044 10H38.5716V8H9.44044V10ZM38.5686 10C39.3685 10.0024 39.9976 10.6403 40 11.4048L42 11.3985C41.9941 9.51368 40.4536 8.00576 38.5747 8L38.5686 10ZM40 11.4017V35.7292H42V11.4017H40ZM40 35.7261C39.9976 36.4973 39.3631 37.1404 38.5565 37.1429L38.5626 39.1429C40.4482 39.1371 41.9941 37.6238 42 35.7323L40 35.7261ZM38.5596 37.1429H9.26667V39.1429H38.5596V37.1429ZM41 17.5456H7V19.5456H41V17.5456ZM30.0968 23.1616L34.6301 27.6451L36.0365 26.2231L31.5032 21.7395L30.0968 23.1616ZM34.6301 26.2231L30.0968 30.7066L31.5032 32.1286L36.0365 27.6451L34.6301 26.2231ZM16.4968 21.7395L11.9635 26.2231L13.3699 27.6451L17.9032 23.1616L16.4968 21.7395ZM11.9635 27.6451L16.4968 32.1286L17.9032 30.7066L13.3699 26.2231L11.9635 27.6451ZM25.3742 21.9994L20.8409 30.9664L22.6258 31.8688L27.1591 22.9017L25.3742 21.9994Z" fill="#5544E1" mask="url(#path-2-outside-1)"/>
</g>
<path d="M18.8146 22.4933L18.7092 22.3894L18.6039 22.4933L14.6661 26.379L14.5579 26.4858L14.6661 26.5926L18.6039 30.4783L18.7092 30.5823L18.8146 30.4783L19.3347 29.9651L19.4429 29.8583L19.3347 29.7515L16.0252 26.4858L19.3347 23.2201L19.4429 23.1133L19.3347 23.0066L18.8146 22.4933ZM29.6369 23.2201L32.9463 26.4858L29.6369 29.7515L29.5287 29.8583L29.6369 29.9651L30.157 30.4783L30.2623 30.5823L30.3677 30.4783L34.3054 26.5926L34.4136 26.4858L34.3054 26.379L30.3677 22.4933L30.2623 22.3894L30.157 22.4933L29.6369 23.0066L29.5287 23.1133L29.6369 23.2201ZM22.1842 29.8848L22.1157 30.0201L22.2516 30.0871L22.9095 30.4117L23.0426 30.4774L23.1097 30.345L26.7874 23.0868L26.8559 22.9516L26.7199 22.8845L26.062 22.5599L25.9289 22.4942L25.8619 22.6266L22.1842 29.8848Z" fill="#FEFFC6" stroke="#FDA135" stroke-width="0.3"/>
<defs>
<filter id="filter0_d" x="6.47144" y="8.47144" width="35.0572" height="30.2" filterUnits="userSpaceOnUse" color-interpolation-filters="sRGB">
<feFlood flood-opacity="0" result="BackgroundImageFix"/>
<feColorMatrix in="SourceAlpha" type="matrix" values="0 0 0 0 0 0 0 0 0 0 0 0 0 0 0 0 0 0 127 0"/>
<feMorphology radius="3.16422" operator="erode" in="SourceAlpha" result="effect1_dropShadow"/>
<feOffset/>
<feGaussianBlur stdDeviation="0.527369"/>
<feColorMatrix type="matrix" values="0 0 0 0 0.211765 0 0 0 0 0.14902 0 0 0 0 0.690196 0 0 0 1 0"/>
<feBlend mode="normal" in2="BackgroundImageFix" result="effect1_dropShadow"/>
<feBlend mode="normal" in="SourceGraphic" in2="effect1_dropShadow" result="shape"/>
</filter>
<filter id="filter1_dd" x="3.36315" y="5.36315" width="41.2737" height="36.4166" filterUnits="userSpaceOnUse" color-interpolation-filters="sRGB">
<feFlood flood-opacity="0" result="BackgroundImageFix"/>
<feColorMatrix in="SourceAlpha" type="matrix" values="0 0 0 0 0 0 0 0 0 0 0 0 0 0 0 0 0 0 127 0"/>
<feMorphology radius="3.16422" operator="erode" in="SourceAlpha" result="effect1_dropShadow"/>
<feOffset/>
<feGaussianBlur stdDeviation="0.527369"/>
<feColorMatrix type="matrix" values="0 0 0 0 0.211765 0 0 0 0 0.14902 0 0 0 0 0.690196 0 0 0 1 0"/>
<feBlend mode="normal" in2="BackgroundImageFix" result="effect1_dropShadow"/>
<feColorMatrix in="SourceAlpha" type="matrix" values="0 0 0 0 0 0 0 0 0 0 0 0 0 0 0 0 0 0 127 0"/>
<feMorphology radius="3.16422" operator="erode" in="SourceAlpha" result="effect2_dropShadow"/>
<feOffset/>
<feGaussianBlur stdDeviation="2.90053"/>
<feColorMatrix type="matrix" values="0 0 0 0 0.392361 0 0 0 0 0.314583 0 0 0 0 0.985417 0 0 0 1 0"/>
<feBlend mode="normal" in2="effect1_dropShadow" result="effect2_dropShadow"/>
<feBlend mode="normal" in="SourceGraphic" in2="effect2_dropShadow" result="shape"/>
</filter>
</defs>
</svg>
