<svg width="48" height="48" viewBox="0 0 48 48" fill="none" xmlns="http://www.w3.org/2000/svg">
<g clip-path="url(#clip0)">
<g filter="url(#filter0_dd)">
<path fill-rule="evenodd" clip-rule="evenodd" d="M33.2042 7.58206V6H31.0948L31.0948 6.00011L10 6.00011L10 6.52726V8.10959L10 39.7516L10 41.861V41.8611H37.9506V41.8609H38.4778V11.2734H36.8959V9.16411H35.3137V7.58206L33.2042 7.58206ZM36.3683 11.2736H34.7864V9.69153H33.2042V8.10948H31.0948L31.0948 8.10958H31.0947V12.8555L36.3683 12.8555V11.2736ZM36.3683 14.965L31.0947 14.965V14.9652H28.9852V8.10958L12.1095 8.10959V39.7516L36.3683 39.7516V14.965Z" fill="#8D8AFF"/>
<path d="M33.2042 6H33.4679V5.73632H33.2042V6ZM33.2042 7.58206H32.9406V7.84574H33.2042V7.58206ZM31.0948 6V5.73632H30.8016L30.8325 6.02784L31.0948 6ZM31.0948 6.00011V6.26379H31.3879L31.357 5.97227L31.0948 6.00011ZM10 6.00011L10 5.73642H9.73632L9.73632 6.00011L10 6.00011ZM10 6.52726H10.2637V6.52726L10 6.52726ZM10 8.10959H10.2637H10ZM10 39.7516H9.73632H10ZM10 41.861H10.2637H10ZM10 41.8611H9.73632V42.1248H10V41.8611ZM37.9506 41.8611V42.1248H38.2143V41.8611H37.9506ZM37.9506 41.8609V41.5972H37.6869V41.8609H37.9506ZM38.4778 41.8609V42.1245H38.7415V41.8609H38.4778ZM38.4778 11.2734H38.7415V11.0097H38.4778V11.2734ZM36.8959 11.2734H36.6322V11.5371H36.8959V11.2734ZM36.8959 9.16411H37.1596V8.90043H36.8959V9.16411ZM35.3137 9.16411H35.05V9.4278H35.3137V9.16411ZM35.3137 7.58206H35.5774V7.31837H35.3137V7.58206ZM36.3683 11.2736H36.632V11.0099H36.3683V11.2736ZM34.7864 11.2736H34.5227V11.5373H34.7864V11.2736ZM34.7864 9.69153H35.0501V9.42785H34.7864V9.69153ZM33.2042 9.69153H32.9405V9.95522H33.2042V9.69153ZM33.2042 8.10948H33.4679V7.84579H33.2042V8.10948ZM31.0948 8.10948V7.84579H30.8013L30.8326 8.13757L31.0948 8.10948ZM31.0948 8.10958V8.37327H31.3882L31.357 8.08149L31.0948 8.10958ZM31.0947 8.10958V7.8459H30.831V8.10958H31.0947ZM31.0947 12.8555H30.831V13.1192H31.0947V12.8555ZM36.3683 12.8555V13.1192H36.632V12.8555H36.3683ZM36.3683 14.965H36.632V14.7013H36.3683V14.965ZM31.0947 14.965V14.7013H30.831V14.965H31.0947ZM31.0947 14.9652V15.2289H31.3584V14.9652H31.0947ZM28.9852 14.9652H28.7215V15.2289H28.9852V14.9652ZM28.9852 8.10958H29.2489V7.8459H28.9852V8.10958ZM12.1095 8.10959V7.8459H11.8458V8.10959H12.1095ZM12.1095 39.7516H11.8458V40.0153H12.1095V39.7516ZM36.3683 39.7516V40.0153H36.632V39.7516H36.3683ZM32.9406 6V7.58206H33.4679V6H32.9406ZM31.0948 6.26368H33.2042V5.73632H31.0948V6.26368ZM31.357 5.97227L31.357 5.97216L30.8325 6.02784L30.8326 6.02795L31.357 5.97227ZM10 6.26379L31.0948 6.26379V5.73642L10 5.73642L10 6.26379ZM10.2637 6.52726L10.2637 6.00011L9.73632 6.00011L9.73632 6.52726L10.2637 6.52726ZM10.2637 8.10959V6.52726H9.73632V8.10959H10.2637ZM10.2637 39.7516L10.2637 8.10959H9.73632L9.73632 39.7516H10.2637ZM10.2637 41.861L10.2637 39.7516H9.73632L9.73632 41.861H10.2637ZM10.2637 41.8611V41.861H9.73632V41.8611H10.2637ZM37.9506 41.5974H10V42.1248H37.9506V41.5974ZM37.6869 41.8609V41.8611H38.2143V41.8609H37.6869ZM38.4778 41.5972H37.9506V42.1245H38.4778V41.5972ZM38.2141 11.2734V41.8609H38.7415V11.2734H38.2141ZM36.8959 11.5371H38.4778V11.0097H36.8959V11.5371ZM36.6322 9.16411V11.2734H37.1596V9.16411H36.6322ZM35.3137 9.4278H36.8959V8.90043H35.3137V9.4278ZM35.05 7.58206V9.16411H35.5774V7.58206H35.05ZM33.2042 7.84574L35.3137 7.84574V7.31837L33.2042 7.31837V7.84574ZM36.3683 11.0099H34.7864V11.5373H36.3683V11.0099ZM35.0501 11.2736V9.69153H34.5227V11.2736H35.0501ZM34.7864 9.42785H33.2042V9.95522H34.7864V9.42785ZM33.4679 9.69153V8.10948H32.9405V9.69153H33.4679ZM33.2042 7.84579H31.0948V8.37316H33.2042V7.84579ZM30.8326 8.13757L30.8326 8.13768L31.357 8.08149L31.3569 8.08139L30.8326 8.13757ZM31.0948 7.8459H31.0947V8.37327H31.0948V7.8459ZM30.831 8.10958V12.8555H31.3584V8.10958H30.831ZM31.0947 13.1192L36.3683 13.1192V12.5918L31.0947 12.5918V13.1192ZM36.632 12.8555V11.2736H36.1047V12.8555H36.632ZM36.3683 14.7013L31.0947 14.7013V15.2286L36.3683 15.2286V14.7013ZM30.831 14.965V14.9652H31.3584V14.965H30.831ZM31.0947 14.7015H28.9852V15.2289H31.0947V14.7015ZM29.2489 14.9652V8.10958H28.7215V14.9652H29.2489ZM28.9852 7.8459L12.1095 7.8459V8.37327L28.9852 8.37327V7.8459ZM11.8458 8.10959V39.7516H12.3732V8.10959H11.8458ZM12.1095 40.0153L36.3683 40.0153V39.4879L12.1095 39.4879V40.0153ZM36.632 39.7516V14.965H36.1047V39.7516H36.632Z" fill="#5544E1"/>
</g>
<g filter="url(#filter1_dd)">
<path d="M15.01 16.8108H26.6121V18.3929H15.01V16.8108ZM15.0099 29.4678H26.612V31.0499H15.0099V29.4678ZM28.7214 29.4678H33.995V31.0499H28.7214V29.4678ZM15.0099 25.2486H19.7562V26.8307H15.0099V25.2486ZM21.8656 25.2487H33.9951V26.8308H21.8656V25.2487ZM15.0099 21.03H32.9405V22.6121H15.0099V21.03ZM15.0099 33.687H33.4678V35.2691H15.0099V33.687Z" fill="#FEFFC6" stroke="#FDA135" stroke-width="0.527369"/>
</g>
</g>
<defs>
<filter id="filter0_dd" x="7.09948" y="3.09948" width="34.2789" height="41.6621" filterUnits="userSpaceOnUse" color-interpolation-filters="sRGB">
<feFlood flood-opacity="0" result="BackgroundImageFix"/>
<feColorMatrix in="SourceAlpha" type="matrix" values="0 0 0 0 0 0 0 0 0 0 0 0 0 0 0 0 0 0 127 0"/>
<feMorphology radius="3.16422" operator="erode" in="SourceAlpha" result="effect1_dropShadow"/>
<feOffset/>
<feGaussianBlur stdDeviation="0.527369"/>
<feColorMatrix type="matrix" values="0 0 0 0 0.211765 0 0 0 0 0.14902 0 0 0 0 0.690196 0 0 0 1 0"/>
<feBlend mode="normal" in2="BackgroundImageFix" result="effect1_dropShadow"/>
<feColorMatrix in="SourceAlpha" type="matrix" values="0 0 0 0 0 0 0 0 0 0 0 0 0 0 0 0 0 0 127 0"/>
<feMorphology radius="3.16422" operator="erode" in="SourceAlpha" result="effect2_dropShadow"/>
<feOffset/>
<feGaussianBlur stdDeviation="2.90053"/>
<feColorMatrix type="matrix" values="0 0 0 0 0.392361 0 0 0 0 0.314583 0 0 0 0 0.985417 0 0 0 1 0"/>
<feBlend mode="normal" in2="effect1_dropShadow" result="effect2_dropShadow"/>
<feBlend mode="normal" in="SourceGraphic" in2="effect2_dropShadow" result="shape"/>
</filter>
<filter id="filter1_dd" x="-2.65697" y="-0.856067" width="54.3189" height="53.792" filterUnits="userSpaceOnUse" color-interpolation-filters="sRGB">
<feFlood flood-opacity="0" result="BackgroundImageFix"/>
<feColorMatrix in="SourceAlpha" type="matrix" values="0 0 0 0 0 0 0 0 0 0 0 0 0 0 0 0 0 0 127 0"/>
<feMorphology radius="3.16422" operator="erode" in="SourceAlpha" result="effect1_dropShadow"/>
<feOffset/>
<feGaussianBlur stdDeviation="0.527369"/>
<feColorMatrix type="matrix" values="0 0 0 0 0.964375 0 0 0 0 0.58315 0 0 0 0 0.135625 0 0 0 1 0"/>
<feBlend mode="normal" in2="BackgroundImageFix" result="effect1_dropShadow"/>
<feColorMatrix in="SourceAlpha" type="matrix" values="0 0 0 0 0 0 0 0 0 0 0 0 0 0 0 0 0 0 127 0"/>
<feMorphology radius="3.16422" operator="erode" in="SourceAlpha" result="effect2_dropShadow"/>
<feOffset/>
<feGaussianBlur stdDeviation="10.2837"/>
<feColorMatrix type="matrix" values="0 0 0 0 0.992157 0 0 0 0 0.631373 0 0 0 0 0.207843 0 0 0 1 0"/>
<feBlend mode="normal" in2="effect1_dropShadow" result="effect2_dropShadow"/>
<feBlend mode="normal" in="SourceGraphic" in2="effect2_dropShadow" result="shape"/>
</filter>
<clipPath id="clip0">
<rect width="48" height="48" fill="white"/>
</clipPath>
</defs>
</svg>
