<svg width="108" height="108" viewBox="0 0 108 108" fill="none" xmlns="http://www.w3.org/2000/svg">
<g filter="url(#filter0_d)">
<rect x="33" y="27" width="42" height="42" rx="2" fill="#1D1D3C"/>
<rect x="33.5" y="27.5" width="41" height="41" rx="1.5" stroke="#A440F2"/>
</g>
<mask id="path-3-inside-1" fill="white">
<path d="M51.283 38.9861L50.6484 39.0625C50.6484 39.0625 47.8014 39.3736 45.7222 41.0433H45.6979L45.6719 41.0677C45.2055 41.4967 45.0024 42.024 44.6814 42.7951C44.3031 43.7228 43.9811 44.6724 43.717 45.6388C43.1141 47.8188 42.625 50.4594 42.625 52.875V53.0781L42.7266 53.2812C43.4789 54.6015 44.8147 55.4425 46.0529 56.0234C47.2904 56.6043 48.3604 56.9123 49.0998 56.9375L49.5824 56.9626L49.8359 56.5312L50.7248 54.9566C51.6673 55.1695 52.7528 55.3125 54 55.3125C55.2472 55.3125 56.3327 55.1695 57.2752 54.9566L58.1641 56.5312L58.4184 56.9626L58.9002 56.9375C59.6396 56.9123 60.7096 56.6043 61.9471 56.0234C63.1853 55.4425 64.5211 54.6015 65.2734 53.2812L65.375 53.0781V52.875C65.375 50.4594 64.8859 47.8188 64.283 45.6388C64.0189 44.6724 63.6969 43.7228 63.3186 42.7951C62.9976 42.0232 62.7945 41.4967 62.3281 41.0685L62.3029 41.0425H62.2769C60.1994 39.3736 57.3516 39.0625 57.3516 39.0625L56.717 38.9861L56.4879 39.5703C56.4879 39.5703 56.2531 40.1634 56.1076 40.8402C55.4091 40.7438 54.7051 40.6928 54 40.6875C53.5653 40.6875 52.8138 40.7159 51.8924 40.8402C51.7461 40.1634 51.5113 39.5703 51.5113 39.5703L51.283 38.9861ZM50.1658 40.8402C50.2008 40.954 50.2357 41.0523 50.2674 41.1449C49.2168 41.4049 48.0964 41.8014 47.0686 42.4392L47.9314 43.8107C50.0391 42.5026 53.0664 42.3125 54 42.3125C54.9327 42.3125 57.9609 42.5026 60.0686 43.8107L60.9314 42.4392C59.9036 41.8014 58.7832 41.4049 57.7326 41.1441C57.7643 41.0523 57.7992 40.954 57.8342 40.8394C58.5922 40.9921 60.0401 41.3415 61.2361 42.2873C61.2296 42.2905 61.5408 42.7601 61.8203 43.4296C62.1063 44.1186 62.4232 45.036 62.7092 46.0703C63.2584 48.0536 63.6899 50.4691 63.7248 52.5955C63.2129 53.3763 62.2647 54.0807 61.2613 54.5511C60.632 54.8485 59.9663 55.0616 59.2812 55.1849L58.875 54.5C59.1163 54.4106 59.3544 54.3131 59.5607 54.2205C60.8112 53.6712 61.4904 53.0781 61.4904 53.0781L60.4236 51.8593C60.4236 51.8593 59.967 52.2786 58.9002 52.7482C57.835 53.2178 56.2059 53.6875 54 53.6875C51.7941 53.6875 50.1658 53.2178 49.0998 52.7482C48.033 52.2786 47.5764 51.8593 47.5764 51.8593L46.5096 53.0781C46.5096 53.0781 47.1888 53.6712 48.4392 54.2205C48.6456 54.3131 48.8837 54.4114 49.125 54.5L48.7188 55.1857C48.0334 55.062 47.3673 54.8483 46.7379 54.5503C45.7352 54.0807 44.7863 53.3763 44.276 52.5955C44.3101 50.4691 44.7416 48.0536 45.2916 46.0703C45.5347 45.1731 45.8312 44.2913 46.1797 43.4296C46.4592 42.7601 46.7704 42.2905 46.7639 42.2873C47.9599 41.3415 49.4078 40.9921 50.1658 40.8402ZM51.1562 46.375C50.5282 46.375 49.9724 46.7333 49.6328 47.1875C49.2932 47.6416 49.125 48.1998 49.125 48.8125C49.125 49.4251 49.2932 49.9833 49.6328 50.4375C49.9724 50.8916 50.5282 51.25 51.1562 51.25C51.7843 51.25 52.3401 50.8916 52.6797 50.4375C53.0193 49.9833 53.1875 49.4251 53.1875 48.8125C53.1875 48.1998 53.0193 47.6416 52.6797 47.1875C52.3401 46.7333 51.7843 46.375 51.1562 46.375ZM56.8438 46.375C56.2157 46.375 55.6599 46.7333 55.3203 47.1875C54.9807 47.6416 54.8125 48.1998 54.8125 48.8125C54.8125 49.4251 54.9807 49.9833 55.3203 50.4375C55.6599 50.8916 56.2157 51.25 56.8438 51.25C57.4718 51.25 58.0276 50.8916 58.3672 50.4375C58.7068 49.9833 58.875 49.4251 58.875 48.8125C58.875 48.1998 58.7068 47.6416 58.3672 47.1875C58.0276 46.7333 57.4718 46.375 56.8438 46.375ZM51.1562 48C51.2009 48 51.2578 48.0162 51.3594 48.1527C51.4609 48.2884 51.5625 48.5265 51.5625 48.8125C51.5625 49.0985 51.4609 49.3365 51.3594 49.473C51.2578 49.6087 51.2009 49.625 51.1562 49.625C51.1116 49.625 51.0547 49.6087 50.9531 49.4722C50.8188 49.2786 50.7478 49.0481 50.75 48.8125C50.75 48.5265 50.8516 48.2884 50.9531 48.1519C51.0547 48.0162 51.1116 48 51.1562 48ZM56.8438 48C56.8884 48 56.9453 48.0162 57.0469 48.1527C57.1484 48.2884 57.25 48.5265 57.25 48.8125C57.25 49.0985 57.1484 49.3365 57.0469 49.473C56.9453 49.6087 56.8884 49.625 56.8438 49.625C56.7991 49.625 56.7422 49.6087 56.6406 49.4722C56.5063 49.2786 56.4353 49.0481 56.4375 48.8125C56.4375 48.5265 56.5391 48.2884 56.6406 48.1519C56.7422 48.0162 56.7991 48 56.8438 48Z"/>
</mask>
<path d="M51.283 38.9861L50.6484 39.0625C50.6484 39.0625 47.8014 39.3736 45.7222 41.0433H45.6979L45.6719 41.0677C45.2055 41.4967 45.0024 42.024 44.6814 42.7951C44.3031 43.7228 43.9811 44.6724 43.717 45.6388C43.1141 47.8188 42.625 50.4594 42.625 52.875V53.0781L42.7266 53.2812C43.4789 54.6015 44.8147 55.4425 46.0529 56.0234C47.2904 56.6043 48.3604 56.9123 49.0998 56.9375L49.5824 56.9626L49.8359 56.5312L50.7248 54.9566C51.6673 55.1695 52.7528 55.3125 54 55.3125C55.2472 55.3125 56.3327 55.1695 57.2752 54.9566L58.1641 56.5312L58.4184 56.9626L58.9002 56.9375C59.6396 56.9123 60.7096 56.6043 61.9471 56.0234C63.1853 55.4425 64.5211 54.6015 65.2734 53.2812L65.375 53.0781V52.875C65.375 50.4594 64.8859 47.8188 64.283 45.6388C64.0189 44.6724 63.6969 43.7228 63.3186 42.7951C62.9976 42.0232 62.7945 41.4967 62.3281 41.0685L62.3029 41.0425H62.2769C60.1994 39.3736 57.3516 39.0625 57.3516 39.0625L56.717 38.9861L56.4879 39.5703C56.4879 39.5703 56.2531 40.1634 56.1076 40.8402C55.4091 40.7438 54.7051 40.6928 54 40.6875C53.5653 40.6875 52.8138 40.7159 51.8924 40.8402C51.7461 40.1634 51.5113 39.5703 51.5113 39.5703L51.283 38.9861ZM50.1658 40.8402C50.2008 40.954 50.2357 41.0523 50.2674 41.1449C49.2168 41.4049 48.0964 41.8014 47.0686 42.4392L47.9314 43.8107C50.0391 42.5026 53.0664 42.3125 54 42.3125C54.9327 42.3125 57.9609 42.5026 60.0686 43.8107L60.9314 42.4392C59.9036 41.8014 58.7832 41.4049 57.7326 41.1441C57.7643 41.0523 57.7992 40.954 57.8342 40.8394C58.5922 40.9921 60.0401 41.3415 61.2361 42.2873C61.2296 42.2905 61.5408 42.7601 61.8203 43.4296C62.1063 44.1186 62.4232 45.036 62.7092 46.0703C63.2584 48.0536 63.6899 50.4691 63.7248 52.5955C63.2129 53.3763 62.2647 54.0807 61.2613 54.5511C60.632 54.8485 59.9663 55.0616 59.2812 55.1849L58.875 54.5C59.1163 54.4106 59.3544 54.3131 59.5607 54.2205C60.8112 53.6712 61.4904 53.0781 61.4904 53.0781L60.4236 51.8593C60.4236 51.8593 59.967 52.2786 58.9002 52.7482C57.835 53.2178 56.2059 53.6875 54 53.6875C51.7941 53.6875 50.1658 53.2178 49.0998 52.7482C48.033 52.2786 47.5764 51.8593 47.5764 51.8593L46.5096 53.0781C46.5096 53.0781 47.1888 53.6712 48.4392 54.2205C48.6456 54.3131 48.8837 54.4114 49.125 54.5L48.7188 55.1857C48.0334 55.062 47.3673 54.8483 46.7379 54.5503C45.7352 54.0807 44.7863 53.3763 44.276 52.5955C44.3101 50.4691 44.7416 48.0536 45.2916 46.0703C45.5347 45.1731 45.8312 44.2913 46.1797 43.4296C46.4592 42.7601 46.7704 42.2905 46.7639 42.2873C47.9599 41.3415 49.4078 40.9921 50.1658 40.8402ZM51.1562 46.375C50.5282 46.375 49.9724 46.7333 49.6328 47.1875C49.2932 47.6416 49.125 48.1998 49.125 48.8125C49.125 49.4251 49.2932 49.9833 49.6328 50.4375C49.9724 50.8916 50.5282 51.25 51.1562 51.25C51.7843 51.25 52.3401 50.8916 52.6797 50.4375C53.0193 49.9833 53.1875 49.4251 53.1875 48.8125C53.1875 48.1998 53.0193 47.6416 52.6797 47.1875C52.3401 46.7333 51.7843 46.375 51.1562 46.375ZM56.8438 46.375C56.2157 46.375 55.6599 46.7333 55.3203 47.1875C54.9807 47.6416 54.8125 48.1998 54.8125 48.8125C54.8125 49.4251 54.9807 49.9833 55.3203 50.4375C55.6599 50.8916 56.2157 51.25 56.8438 51.25C57.4718 51.25 58.0276 50.8916 58.3672 50.4375C58.7068 49.9833 58.875 49.4251 58.875 48.8125C58.875 48.1998 58.7068 47.6416 58.3672 47.1875C58.0276 46.7333 57.4718 46.375 56.8438 46.375ZM51.1562 48C51.2009 48 51.2578 48.0162 51.3594 48.1527C51.4609 48.2884 51.5625 48.5265 51.5625 48.8125C51.5625 49.0985 51.4609 49.3365 51.3594 49.473C51.2578 49.6087 51.2009 49.625 51.1562 49.625C51.1116 49.625 51.0547 49.6087 50.9531 49.4722C50.8188 49.2786 50.7478 49.0481 50.75 48.8125C50.75 48.5265 50.8516 48.2884 50.9531 48.1519C51.0547 48.0162 51.1116 48 51.1562 48ZM56.8438 48C56.8884 48 56.9453 48.0162 57.0469 48.1527C57.1484 48.2884 57.25 48.5265 57.25 48.8125C57.25 49.0985 57.1484 49.3365 57.0469 49.473C56.9453 49.6087 56.8884 49.625 56.8438 49.625C56.7991 49.625 56.7422 49.6087 56.6406 49.4722C56.5063 49.2786 56.4353 49.0481 56.4375 48.8125C56.4375 48.5265 56.5391 48.2884 56.6406 48.1519C56.7422 48.0162 56.7991 48 56.8438 48Z" fill="#F6F6F7" stroke="#212138" stroke-width="0.6" mask="url(#path-3-inside-1)"/>
<defs>
<filter id="filter0_d" x="0" y="0" width="108" height="108" filterUnits="userSpaceOnUse" color-interpolation-filters="sRGB">
<feFlood flood-opacity="0" result="BackgroundImageFix"/>
<feColorMatrix in="SourceAlpha" type="matrix" values="0 0 0 0 0 0 0 0 0 0 0 0 0 0 0 0 0 0 127 0"/>
<feMorphology radius="6" operator="erode" in="SourceAlpha" result="effect1_dropShadow"/>
<feOffset dy="6"/>
<feGaussianBlur stdDeviation="19.5"/>
<feColorMatrix type="matrix" values="0 0 0 0 0.945098 0 0 0 0 0.141176 0 0 0 0 1 0 0 0 0.43 0"/>
<feBlend mode="normal" in2="BackgroundImageFix" result="effect1_dropShadow"/>
<feBlend mode="normal" in="SourceGraphic" in2="effect1_dropShadow" result="shape"/>
</filter>
</defs>
</svg>
