<?xml version="1.0" encoding="utf-8"?>
<svg width="108" height="108" viewBox="0 0 108 108" fill="none" xmlns="http://www.w3.org/2000/svg">
  <g filter="url(#filter0_d)">
    <rect x="33" y="27" width="42" height="42" rx="2" fill="#1D1D3C"/>
    <rect x="33.5" y="27.5" width="41" height="41" rx="1.5" stroke="#A440F2"/>
  </g>
  <defs>
    <filter id="filter0_d" x="0" y="0" width="108" height="108" filterUnits="userSpaceOnUse" color-interpolation-filters="sRGB">
      <feFlood flood-opacity="0" result="BackgroundImageFix"/>
      <feColorMatrix in="SourceAlpha" type="matrix" values="0 0 0 0 0 0 0 0 0 0 0 0 0 0 0 0 0 0 127 0"/>
      <feMorphology radius="6" operator="erode" in="SourceAlpha" result="effect1_dropShadow"/>
      <feOffset dy="6"/>
      <feGaussianBlur stdDeviation="19.5"/>
      <feColorMatrix type="matrix" values="0 0 0 0 0.945098 0 0 0 0 0.141176 0 0 0 0 1 0 0 0 0.43 0"/>
      <feBlend mode="normal" in2="BackgroundImageFix" result="effect1_dropShadow"/>
      <feBlend mode="normal" in="SourceGraphic" in2="effect1_dropShadow" result="shape"/>
    </filter>
  </defs>
  <g data-name="Layer 2" transform="matrix(0.023955, 0, 0, 0.023955, 41, 40.5)" style="">
    <path d="M 612.213 308.212 C 612.213 478.428 475.163 616.414 306.112 616.414 C 137.061 616.414 0 478.397 0 308.212 C 0 138.028 137.05 0 306.112 0 C 475.173 0 612.213 137.997 612.213 308.212 M 948.016 308.212 C 948.016 468.434 879.491 598.371 794.961 598.371 C 710.43 598.371 641.905 468.434 641.905 308.212 C 641.905 147.991 710.419 18.054 794.95 18.054 C 879.481 18.054 948.006 147.949 948.006 308.212 M 1085.368 308.212 C 1085.368 451.732 1061.272 568.148 1031.538 568.148 C 1001.805 568.148 977.719 451.763 977.719 308.212 C 977.719 164.662 1001.815 48.276 1031.538 48.276 C 1061.261 48.276 1085.368 164.652 1085.368 308.212" data-name="Layer 1" style="fill: rgb(29, 29, 60); stroke: rgb(246, 246, 247); stroke-width: 27.1342px;"/>
  </g>
</svg>