<svg width="108" height="108" viewBox="0 0 108 108" fill="none" xmlns="http://www.w3.org/2000/svg">
<g filter="url(#filter0_d)">
<rect x="33" y="27" width="42" height="42" rx="2" fill="#1D1D3C"/>
<rect x="33.5" y="27.5" width="41" height="41" rx="1.5" stroke="#A440F2"/>
</g>
<path fill-rule="evenodd" clip-rule="evenodd" d="M54.0002 58.4975C59.5585 58.4975 64.0644 55.4128 64.0644 51.6075C64.0644 47.8023 59.5585 44.7175 54.0002 44.7175C48.4419 44.7175 43.936 47.8023 43.936 51.6075C43.936 55.4128 48.4419 58.4975 54.0002 58.4975Z" stroke="#F6F6F7" stroke-linecap="round" stroke-linejoin="round"/>
<path d="M57.7483 54.6625C56.5992 55.2876 55.3079 55.6049 54 55.5834C52.6828 55.602 51.3835 55.2772 50.23 54.6409" stroke="#F6F6F7" stroke-linecap="round" stroke-linejoin="round"/>
<path d="M59.0483 50.0259C59.0483 50.4746 58.6846 50.8384 58.2358 50.8384C57.7871 50.8384 57.4233 50.4746 57.4233 50.0259C57.4233 49.5771 57.7871 49.2134 58.2358 49.2134C58.6846 49.2134 59.0483 49.5771 59.0483 50.0259" stroke="#F6F6F7" stroke-linecap="round" stroke-linejoin="round"/>
<path d="M50.5767 50.0259C50.5767 50.4746 50.2129 50.8384 49.7642 50.8384C49.3154 50.8384 48.9517 50.4746 48.9517 50.0259C48.9517 49.5771 49.3154 49.2134 49.7642 49.2134C50.2129 49.2134 50.5767 49.5771 50.5767 50.0259" stroke="#F6F6F7" stroke-linecap="round" stroke-linejoin="round"/>
<path d="M61.1499 46.7542C61.6909 45.6102 62.9643 45.0072 64.1921 45.3137C65.4199 45.6202 66.2606 46.7508 66.2005 48.0149C66.1404 49.2789 65.1962 50.3248 63.9449 50.5134" stroke="#F6F6F7" stroke-linecap="round" stroke-linejoin="round"/>
<path fill-rule="evenodd" clip-rule="evenodd" d="M62.1573 42.1608C63.4437 42.1608 64.4865 41.118 64.4865 39.8316C64.4865 38.5452 63.4437 37.5024 62.1573 37.5024C60.8709 37.5024 59.8281 38.5452 59.8281 39.8316C59.8281 41.118 60.8709 42.1608 62.1573 42.1608Z" stroke="#F6F6F7" stroke-linecap="round" stroke-linejoin="round"/>
<path d="M46.85 46.7649C46.309 45.6209 45.0356 45.018 43.8078 45.3244C42.58 45.6309 41.7393 46.7616 41.7994 48.0256C41.8595 49.2897 42.8037 50.3355 44.055 50.5241" stroke="#F6F6F7" stroke-linecap="round" stroke-linejoin="round"/>
<path d="M54 44.7499C54 44.7499 54 37.5241 59.8283 39.4308" stroke="#F6F6F7" stroke-linecap="round" stroke-linejoin="round"/>
<defs>
<filter id="filter0_d" x="0" y="0" width="108" height="108" filterUnits="userSpaceOnUse" color-interpolation-filters="sRGB">
<feFlood flood-opacity="0" result="BackgroundImageFix"/>
<feColorMatrix in="SourceAlpha" type="matrix" values="0 0 0 0 0 0 0 0 0 0 0 0 0 0 0 0 0 0 127 0"/>
<feMorphology radius="6" operator="erode" in="SourceAlpha" result="effect1_dropShadow"/>
<feOffset dy="6"/>
<feGaussianBlur stdDeviation="19.5"/>
<feColorMatrix type="matrix" values="0 0 0 0 0.945098 0 0 0 0 0.141176 0 0 0 0 1 0 0 0 0.43 0"/>
<feBlend mode="normal" in2="BackgroundImageFix" result="effect1_dropShadow"/>
<feBlend mode="normal" in="SourceGraphic" in2="effect1_dropShadow" result="shape"/>
</filter>
</defs>
</svg>
