<?xml version="1.0" encoding="utf-8"?>
<svg width="108" height="108" viewBox="0 0 108 108" fill="none" xmlns="http://www.w3.org/2000/svg" xmlns:bx="https://boxy-svg.com">
  <g filter="url(#filter0_d)">
    <rect x="33" y="27" width="42" height="42" rx="2" fill="#1D1D3C"/>
    <rect x="33.5" y="27.5" width="41" height="41" rx="1.5" stroke="#A440F2"/>
  </g>
  <defs>
    <filter id="filter0_d" x="0" y="0" width="108" height="108" filterUnits="userSpaceOnUse" color-interpolation-filters="sRGB">
      <feFlood flood-opacity="0" result="BackgroundImageFix"/>
      <feColorMatrix in="SourceAlpha" type="matrix" values="0 0 0 0 0 0 0 0 0 0 0 0 0 0 0 0 0 0 127 0"/>
      <feMorphology radius="6" operator="erode" in="SourceAlpha" result="effect1_dropShadow"/>
      <feOffset dy="6"/>
      <feGaussianBlur stdDeviation="19.5"/>
      <feColorMatrix type="matrix" values="0 0 0 0 0.945098 0 0 0 0 0.141176 0 0 0 0 1 0 0 0 0.43 0"/>
      <feBlend mode="normal" in2="BackgroundImageFix" result="effect1_dropShadow"/>
      <feBlend mode="normal" in="SourceGraphic" in2="effect1_dropShadow" result="shape"/>
    </filter>
  </defs>
  <g id="svgg" transform="matrix(0.074417, -0.009727, 0.009728, 0.074429, 36.684219, 32.978237)" bx:origin="0.92314 0.500334">
    <g/>
    <path d="M 291.177 131.456 C 291.185 131.456 291.192 131.456 291.2 131.456 C 291.249 131.456 291.31 131.454 291.381 131.45 C 292.536 130.733 293.988 130.007 295.138 129.762 C 295.595 129.665 296.135 129.653 296.726 129.706 C 298.278 128.576 300.186 126.756 300.929 125.166 C 301.085 124.834 301.211 124.455 301.31 124.042 C 298.445 123.645 294.494 124.185 292.893 125.173 C 292.237 125.578 291.628 126.12 291.08 126.716 C 290.991 128.961 290.987 130.738 291.177 131.456 C 290.243 131.449 288.819 131.046 288.322 130.921 C 288.249 131.086 288.201 131.21 288.18 131.281 C 288.1 131.552 288.159 131.374 288.149 131.415 C 288.191 131.411 288.212 131.491 288.211 131.569 L 287.572 131.567 C 287.573 131.211 287.575 130.848 287.58 130.485 C 287.495 130.429 287.404 130.368 287.309 130.302 L 287.596 129.636 C 287.625 128.513 287.689 127.45 287.836 126.682 C 287.947 126.102 288.469 124.369 289.061 123.311 C 289.408 122.689 290.336 121.576 291.414 120.572 C 291.683 116.087 291.944 111.653 291.649 110.252 C 290.804 110.371 289.716 110.587 288.923 110.904 C 287.523 111.462 284.125 114.179 283.071 116.434 C 281.829 119.09 282.456 124.752 283.523 126.585 C 284.44 128.161 286.203 129.542 287.309 130.302 L 287.05 130.903 C 286.16 130.469 282.838 128.445 281.461 126.078 C 280.378 124.215 279.747 118.528 280.999 115.849 C 282.064 113.571 285.486 110.836 286.925 110.262 C 288.278 109.722 290.451 109.456 291.2 109.456 C 292.844 109.456 295.653 110.22 296.95 110.697 C 297.84 111.131 301.162 113.155 302.539 115.522 C 302.942 116.215 303.283 117.439 303.487 118.84 C 303.822 118.963 304.118 119.099 304.361 119.245 C 307.122 120.908 309.097 125.003 309.312 125.743 C 309.489 126.351 309.656 127.186 309.751 127.695 C 310.049 129.826 310.038 133.442 309.726 135.571 C 309.628 136.079 309.458 136.904 309.281 137.506 C 309.186 137.827 308.758 138.784 308.079 139.896 C 308.352 140.79 308.504 141.48 308.477 141.824 C 308.422 142.528 308.205 143.719 308.039 144.453 C 307.945 144.787 307.807 145.231 307.651 145.688 C 307.572 146.399 307.385 147.404 307.239 148.053 C 307.098 148.554 306.86 149.3 306.608 149.969 C 306.623 150.708 306.593 151.316 306.535 151.713 C 306.381 152.407 306.084 153.516 305.808 154.272 C 305.799 154.696 305.773 155.051 305.735 155.313 C 305.571 156.05 305.246 157.256 304.957 158.01 C 304.842 158.863 304.694 159.631 304.56 160.17 C 304.48 160.41 304.358 160.739 304.206 161.115 C 304.224 161.879 304.194 162.506 304.135 162.913 C 303.981 163.607 303.684 164.716 303.408 165.472 C 303.399 165.896 303.373 166.251 303.335 166.513 C 303.163 167.285 302.815 168.573 302.515 169.315 C 302.271 169.921 301.443 171.494 300.695 172.402 C 299.987 173.263 297.459 175.293 295.561 175.911 C 294.194 176.357 290.981 176.52 289.372 176.103 C 287.853 175.71 285.443 174.086 284.365 173.246 C 282.651 168.908 284.46 171.816 284.46 171.816 C 284.292 171.374 284.343 170.901 284.569 170.404 C 284.661 170.511 284.757 170.614 284.857 170.713 C 286.559 172.415 292.029 174.242 294.708 173.719 C 296.686 173.332 299.614 171.48 300.483 170.578 C 301.328 169.699 302.308 168.051 302.543 167.511 C 302.635 167.299 302.737 166.989 302.815 166.745 C 302.449 167.428 301.957 168.242 301.495 168.802 C 300.787 169.663 298.259 171.693 296.361 172.311 C 294.994 172.757 291.781 172.92 290.172 172.503 C 288.653 172.11 286.243 170.486 285.165 169.646 C 285.149 169.606 285.133 169.566 285.117 169.527 C 284.883 169.826 284.697 170.119 284.569 170.404 C 282.151 167.624 281.823 162.395 281.765 162.187 C 281.78 162.152 281.833 161.963 281.899 161.739 L 283.15 162.013 C 282.951 161.213 282.82 160.471 282.732 159.884 C 282.433 160.404 282.198 160.873 282.115 161.08 C 282.044 161.254 281.965 161.514 281.899 161.739 L 281.456 161.642 C 281.657 160.805 282.04 159.492 282.364 158.746 C 282.43 158.595 282.529 158.396 282.653 158.167 C 282.652 158.154 282.651 158.141 282.65 158.128 L 282.256 158.042 C 282.457 157.205 282.84 155.892 283.164 155.146 C 283.222 155.013 283.306 154.842 283.41 154.647 C 283.447 154.236 283.483 153.946 283.482 153.87 C 283.539 153.741 283.78 153.145 284.118 152.474 L 284.377 152.573 C 284.351 152.409 284.328 152.254 284.307 152.111 C 284.241 152.233 284.178 152.354 284.118 152.474 L 283.582 152.268 C 283.713 151.963 283.92 151.526 284.174 151.041 C 284.17 151.014 284.167 150.996 284.165 150.987 C 284.18 150.952 284.233 150.763 284.299 150.539 L 284.429 150.567 C 284.672 150.127 284.944 149.671 285.225 149.258 C 285.189 149.054 285.159 148.862 285.132 148.684 C 284.833 149.203 284.598 149.673 284.515 149.88 C 284.444 150.054 284.365 150.314 284.299 150.539 L 283.856 150.442 C 284.057 149.605 284.44 148.292 284.764 147.546 C 284.833 147.387 284.939 147.176 285.072 146.933 L 284.656 146.842 C 284.857 146.005 285.24 144.692 285.564 143.946 C 285.613 143.833 285.681 143.693 285.764 143.533 C 285.805 143.242 285.886 142.822 285.904 142.688 C 285.922 142.643 285.949 142.563 285.983 142.463 L 286.329 142.55 C 286.518 142.244 286.728 141.925 286.945 141.62 C 286.84 141.316 286.752 141.047 286.686 140.82 C 286.583 140.991 286.503 141.134 286.455 141.231 C 286.292 141.565 286.098 142.13 285.983 142.463 L 285.558 142.357 C 285.772 141.593 286.219 140.242 286.591 139.483 C 286.612 139.442 286.635 139.396 286.661 139.347 C 286.681 139.234 286.697 139.14 286.704 139.088 C 286.722 139.043 286.749 138.963 286.783 138.863 L 286.919 138.897 C 287.2 138.431 287.595 137.838 288.017 137.289 C 287.945 137.043 287.887 136.824 287.847 136.652 C 287.566 137.074 287.349 137.439 287.255 137.631 C 287.092 137.965 286.898 138.53 286.783 138.863 L 286.358 138.757 C 286.572 137.993 287.019 136.642 287.391 135.883 C 287.46 135.743 287.565 135.553 287.697 135.333 C 287.669 134.425 287.756 133.602 287.756 133.602 C 287.743 133.474 288.122 133.326 288.786 133.163 C 288.843 133.27 288.905 133.38 288.97 133.494 C 289.098 133.333 289.228 133.178 289.358 133.034 C 289.149 133.078 288.958 133.121 288.786 133.163 C 288.444 132.53 288.234 132.048 288.184 131.875 C 288.103 131.598 288.153 131.765 288.14 131.716 C 288.187 131.728 288.21 131.649 288.211 131.569 L 291.178 131.578 C 291.188 131.572 291.198 131.566 291.208 131.559 C 291.197 131.528 291.187 131.493 291.177 131.456 Z M 295.508 170.119 C 297.486 169.732 300.414 167.88 301.283 166.978 C 301.509 166.743 301.744 166.454 301.972 166.145 L 300.921 165.914 C 300.16 166.573 299.272 167.234 298.5 167.607 C 297.3 168.187 294.225 168.824 292.54 168.647 C 291.309 168.517 289.394 167.764 287.929 166.957 C 287.498 167.282 287.093 167.603 286.72 167.92 C 289.018 169.334 293.252 170.56 295.508 170.119 Z M 303.744 162.758 L 303.49 162.703 C 303.43 162.823 303.367 162.943 303.304 163.061 C 303.331 163.332 303.352 163.596 303.368 163.851 C 303.535 163.443 303.724 162.774 303.744 162.758 Z M 286.837 159.047 C 286.302 158.392 285.875 157.617 285.533 156.81 C 284.739 157.402 284.079 157.993 283.753 158.37 Z M 283.4 156.517 C 283.376 156.561 283.352 156.605 283.329 156.647 C 283.332 156.769 283.337 156.89 283.344 157.011 C 283.463 156.827 283.588 156.642 283.715 156.462 C 283.599 156.479 283.494 156.497 283.4 156.517 Z M 291.239 166.259 C 293.321 166.838 297.221 166.266 299.04 165.501 L 296.679 164.983 C 295.12 165.202 292.988 165.218 291.772 164.903 C 291.579 164.853 291.371 164.783 291.154 164.698 C 290.684 165.012 290.219 165.326 289.766 165.639 C 290.28 165.915 290.781 166.132 291.239 166.259 Z M 292.572 161.303 C 292.379 161.253 292.171 161.183 291.954 161.098 C 291.688 161.276 291.423 161.454 291.161 161.632 C 292.242 162.014 293.395 162.316 294.464 162.479 C 294.928 162.16 295.381 161.843 295.815 161.528 C 294.621 161.577 293.39 161.515 292.572 161.303 Z M 287.565 158.446 C 287.549 158.406 287.533 158.366 287.517 158.327 C 287.315 158.586 287.148 158.84 287.024 159.088 L 289.119 159.548 C 288.5 159.142 287.948 158.745 287.565 158.446 Z M 305.215 155.545 C 305.194 155.585 305.172 155.625 305.15 155.666 C 305.149 155.695 305.148 155.724 305.148 155.753 C 305.171 155.681 305.194 155.61 305.215 155.545 Z M 285.55 150.813 C 285.522 150.7 285.495 150.588 285.469 150.477 C 285.379 150.571 285.297 150.66 285.223 150.742 Z M 295.658 156.911 C 294.856 156.748 294.004 156.503 293.163 156.214 C 291.991 156.212 290.829 156.212 289.732 156.218 C 289.52 156.387 289.315 156.554 289.12 156.72 C 290.683 157.682 293.141 158.556 295.264 158.879 C 295.939 158.415 296.59 157.955 297.194 157.501 Z M 303.683 155.778 C 303.854 155.6 304.031 155.391 304.206 155.165 C 304.177 155.075 304.147 154.983 304.116 154.889 L 303.204 154.689 C 303.17 154.713 303.135 154.739 303.1 154.764 C 303.242 155.158 303.369 155.563 303.48 155.973 C 303.556 155.904 303.624 155.839 303.683 155.778 Z M 306.144 151.558 L 305.882 151.501 C 305.825 151.596 305.764 151.696 305.698 151.799 C 305.727 152.092 305.751 152.377 305.768 152.651 C 305.935 152.244 306.124 151.574 306.144 151.558 Z M 286.944 147.344 C 286.849 147.105 286.758 146.872 286.671 146.647 C 286.456 146.845 286.279 147.024 286.153 147.17 Z M 286.038 144.903 C 285.689 145.492 285.408 146.049 285.315 146.28 C 285.256 146.424 285.192 146.627 285.134 146.821 C 285.401 146.342 285.761 145.761 286.145 145.22 C 286.107 145.11 286.071 145.004 286.038 144.903 Z M 300.431 154.373 C 300.484 154.286 300.533 154.198 300.576 154.112 L 297.813 153.505 C 297.774 153.502 297.734 153.499 297.694 153.496 C 298.5 153.847 299.221 154.235 299.778 154.631 C 299.992 154.555 300.211 154.468 300.431 154.373 Z M 291.705 151.73 C 291.563 151.833 291.422 151.937 291.284 152.04 C 291.679 152.024 292.109 152.043 292.56 152.089 C 292.269 151.972 291.983 151.851 291.705 151.73 Z M 306.9 147.701 L 306.813 147.679 C 306.724 147.834 306.618 148.01 306.498 148.199 C 306.515 148.369 306.53 148.537 306.543 148.701 C 306.702 148.287 306.852 147.826 306.9 147.701 Z M 297.736 147.629 C 296.69 147.187 295.628 146.85 294.847 146.768 C 294.493 146.731 294.077 146.73 293.629 146.757 C 292.851 147.288 292.112 147.815 291.446 148.332 L 291.964 148.446 C 293.048 148.383 294.412 148.587 295.774 148.951 C 296.438 148.509 297.098 148.067 297.736 147.629 Z M 298.749 149.935 L 298.416 149.862 C 298.508 149.901 298.598 149.941 298.687 149.981 C 298.708 149.966 298.729 149.951 298.749 149.935 Z M 300.018 145.978 L 298.389 145.57 C 298.791 145.774 299.204 146.017 299.614 146.286 C 299.752 146.183 299.886 146.08 300.018 145.978 Z M 307.7 144.101 L 307.435 144.035 C 307.482 144.205 307.522 144.365 307.556 144.513 C 307.623 144.321 307.675 144.166 307.7 144.101 Z M 293.172 144.039 C 293.095 144.095 293.018 144.15 292.943 144.206 L 293.857 144.435 C 293.634 144.324 293.404 144.19 293.172 144.039 Z M 288.774 139.362 C 288.647 139.087 288.527 138.791 288.417 138.496 C 288.234 138.684 288.045 138.903 287.861 139.133 Z M 302.375 137.676 C 299.791 136.429 295.966 135.076 293.882 135.52 C 293.071 135.692 292.106 136.109 291.206 136.59 C 291.589 136.998 292.001 137.378 292.438 137.704 C 292.876 137.535 293.301 137.403 293.69 137.327 C 295.525 136.969 298.641 137.697 300.995 138.74 C 301.487 138.381 301.951 138.026 302.375 137.676 Z M 304.738 134.966 C 304.729 134.94 304.72 134.914 304.71 134.888 C 302.881 133.809 299.209 132.213 296.501 131.891 C 295.406 132.047 294.34 132.2 293.351 132.35 C 291.926 132.936 290.397 133.896 289.609 134.539 C 289.778 134.797 289.961 135.06 290.155 135.323 C 291.36 134.526 293.041 133.638 294.338 133.362 C 296.773 132.844 301.531 134.737 304.011 136.107 C 304.339 135.715 304.587 135.334 304.738 134.966 Z M 308.262 134.05 C 308.649 133.356 309.006 132.366 309.228 131.636 C 309.227 131.635 309.227 131.633 309.226 131.632 L 303.015 131.613 C 303.885 132.007 304.659 132.407 305.246 132.756 C 305.734 133.799 306.226 134.929 306.673 136.03 C 307.41 135.261 308.002 134.514 308.261 134.05 Z M 308.634 129.965 C 308.514 129.682 308.386 129.411 308.254 129.174 C 307.652 128.092 305.276 125.517 303.387 124.607 C 303.287 125.027 303.159 125.413 303.001 125.751 C 302.29 127.271 300.529 128.995 299.009 130.144 C 299.968 130.405 300.958 130.753 301.89 131.131 C 304.831 130.706 307.41 130.301 308.634 129.965 Z M 300.477 115.015 C 299.169 112.766 296.136 110.914 295.75 110.697 L 291.554 120.443 C 292.308 119.755 293.126 119.132 293.866 118.773 C 295.586 117.937 298.845 117.875 301.414 118.314 C 301.213 116.918 300.876 115.7 300.477 115.015 Z M 291.406 109.801 C 291.404 109.8 291.402 109.8 291.4 109.8 C 291.4 109.8 291.402 109.8 291.406 109.801 Z M 260.055 120.163 C 260.014 120.201 259.974 120.24 259.935 120.278 C 259.464 120.741 258.296 122.218 257.782 123.274 C 256.865 125.157 256.647 131.107 258.272 133.782 C 259.653 136.054 263.647 138.421 265.178 138.774 C 266.011 138.966 267.413 139.063 267.933 139.047 C 268.402 139.033 268.797 138.99 269.073 138.959 L 264.8 129.016 C 267.051 133.281 269.303 137.546 269.913 138.483 C 269.976 138.434 270.037 138.385 270.095 138.337 C 270.844 137.71 273.641 134.064 273.938 131.027 C 274.089 129.475 273.42 126.041 272.537 124.499 C 271.723 123.08 269.482 120.991 268.336 120.356 C 266.926 119.573 264.414 119.108 263.526 118.995 C 262.406 119.183 261.556 119.243 261.312 119.163 C 261.135 119.288 260.941 119.43 260.745 119.581 L 260.457 118.91 C 262.047 118.243 265.305 117.117 267.267 117.057 C 267.828 117.04 269.263 117.139 270.12 117.336 C 271.675 117.695 275.684 120.071 277.072 122.355 C 278.705 125.041 278.486 131.007 277.56 132.908 C 277.037 133.982 275.853 135.48 275.357 135.967 C 274.508 136.802 273.103 137.708 272.597 137.984 C 271.965 138.329 270.913 138.818 270.053 139.175 C 268.436 139.847 264.824 140.683 262.54 140.967 C 261.6 140.842 259.086 140.383 257.662 139.593 C 256.51 138.953 254.264 136.86 253.447 135.435 C 252.561 133.888 251.89 130.448 252.042 128.889 C 252.341 125.825 255.171 122.139 255.981 121.461 C 256.631 120.917 257.671 120.27 258.104 120.034 C 258.691 119.714 259.531 119.36 259.531 119.36 C 259.565 119.343 259.753 119.636 260.055 120.163 Z M 270.068 138.672 C 270.068 138.672 270.069 138.672 270.069 138.672 C 270.069 138.672 270.069 138.672 270.068 138.672 Z M 260.745 119.581 L 264.8 129.016 C 262.878 125.375 260.956 121.734 260.055 120.163 C 260.268 119.964 260.508 119.765 260.745 119.581 Z M 309.389 129.604 C 309.389 129.602 309.388 129.6 309.388 129.598 C 309.388 129.598 309.388 129.6 309.389 129.604 Z M 304.888 133.971 C 304.873 133.863 304.846 133.756 304.807 133.651 C 304.807 133.651 304.839 133.775 304.888 133.971 Z M 220.751 135.331 C 220.359 135.684 219.967 136.077 219.653 136.471 C 219.456 136.719 219.176 137.156 218.882 137.681 C 220.337 138.096 221.916 138.718 222.966 139.589 C 225.045 141.313 227.214 146.925 226.857 149.561 C 226.692 150.78 226.032 152.373 225.4 153.572 C 226.537 153.952 227.515 154.179 228.003 154.25 C 228.968 154.077 229.791 153.974 230.181 153.975 L 226 144 C 228.436 148.135 230.872 152.27 231.611 153.161 C 232.498 152.382 233.772 151.093 234.449 149.803 C 235.088 148.586 235.894 145.014 235.563 142.962 C 235.179 140.588 232.41 136.612 230.697 135.502 C 228.906 134.342 225.641 133.832 224.668 133.749 C 223.418 134.028 222.414 134.133 222.423 134.024 C 222.345 134.071 222.177 134.185 221.955 134.349 L 221.747 133.855 C 223.091 133.306 226.304 132.543 228.397 132.254 C 229.781 132.449 234.613 133.756 236.639 136.128 C 238.385 138.173 239.507 143.56 238.992 145.78 C 238.647 147.265 237.439 149.452 236.87 150.167 C 235.893 151.395 234.151 152.647 233.63 152.956 C 233.01 153.323 232.035 153.798 231.418 154.069 C 230.265 154.577 227.105 155.404 224.932 155.747 C 224.703 155.729 224.367 155.691 223.963 155.63 C 222.795 156.81 221.147 157.877 220.551 158.181 C 219.658 158.636 217.838 159.287 216.601 159.636 C 216.297 159.709 215.718 159.84 215.288 159.909 C 214.869 159.977 213.488 160.102 212.509 160.02 C 211.346 159.922 207.502 158.677 205.679 156.875 C 204.167 155.381 202.374 151.063 202.411 148.86 C 202.44 147.153 203.395 144.351 203.986 143.368 C 205.498 140.855 204.774 142.944 204.774 142.944 C 205.075 142.662 205.61 142.712 206.314 143.003 C 205.752 144.133 205.203 145.526 205.056 146.614 C 204.703 149.225 206.863 154.815 208.921 156.522 C 210.921 158.181 214.875 158.918 215.955 159.028 C 217.365 158.735 218.774 158.481 218.964 158.502 L 214.2 148.614 C 214.417 148.789 214.635 148.963 214.852 149.137 C 214.344 148.182 213.969 147.242 213.844 146.47 C 213.51 144.404 214.32 140.815 214.969 139.58 C 215.177 139.184 215.44 138.787 215.734 138.401 C 215.146 138.228 214.658 138.123 214.357 138.098 C 213.421 138.019 212.11 138.138 211.79 138.189 C 211.614 138.217 211.429 138.257 211.383 138.266 C 211.266 138.34 210.677 138.52 210.554 138.583 C 210.436 138.643 210.09 138.859 209.652 139.174 L 209.425 138.704 C 210.586 138.175 213.613 137.369 215.645 137.032 C 215.909 137.055 216.303 137.108 216.778 137.193 C 217.723 136.211 218.69 135.443 219.085 135.197 C 219.771 134.769 220.18 134.666 220.18 134.666 C 220.237 134.634 220.439 134.878 220.751 135.331 Z M 217.562 140.803 C 217.05 143.007 218.171 148.379 219.907 150.413 C 220.786 151.443 222.201 152.271 223.622 152.892 C 224.032 151.703 224.39 150.266 224.408 149.232 C 224.445 147.034 222.654 142.72 221.145 141.229 C 220.371 140.464 219.231 139.8 218.089 139.282 C 217.86 139.813 217.669 140.342 217.562 140.803 Z M 231.819 153.335 C 231.819 153.334 231.82 153.334 231.82 153.334 C 231.82 153.334 231.82 153.334 231.819 153.335 Z M 221.955 134.349 L 226 144 C 223.875 140.392 221.749 136.785 220.751 135.331 C 221.191 134.935 221.63 134.589 221.955 134.349 Z M 207.383 141.212 C 208.013 140.433 208.951 139.677 209.652 139.174 L 214.2 148.614 C 211.182 146.191 208.164 143.768 206.314 143.003 C 206.708 142.212 207.109 141.55 207.383 141.212 Z M 256.397 153.974 L 253.198 143.45 C 256.738 142.727 263.061 143.706 266.92 145.468 C 268.424 147.14 271.084 150.975 271.335 153.343 C 271.522 155.119 270.926 158.094 270.405 159.308 C 269.786 160.747 268.413 162.678 267.467 163.751 C 265.998 165.416 263.497 167.774 260.282 170.63 C 256.537 173.954 250.104 179.748 246.625 182.932 C 244.511 184.866 240.686 188.325 238.135 190.608 C 235.614 192.864 232.053 196.065 230.22 197.723 C 228.372 199.395 226.63 200.968 226.373 201.199 C 226.134 201.413 224.237 203.116 222.152 204.986 C 220.088 206.84 218.101 208.639 217.718 209.002 C 216.799 209.867 211.145 214.968 209.683 216.25 C 208.792 217.031 202.79 222.464 201.466 223.689 C 200.797 224.307 198.799 226.097 197.05 227.648 C 195.355 229.15 192.943 231.322 191.668 232.495 C 190.339 233.717 188.98 234.959 188.671 235.234 C 187.259 236.484 185.519 238.042 183.752 239.632 C 189.882 244.146 198.66 250.634 202.566 253.538 L 213.967 262.02 L 201.638 273.918 C 199.998 275.5 194.341 280.986 189.064 286.111 C 178.212 296.646 175.927 298.387 173.069 299.99 C 172.564 300.224 171.948 300.519 171.686 300.655 C 169.349 301.419 165.234 302.2 163.094 302.2 C 160.227 302.2 154.735 301.237 151.594 298.44 C 148.831 295.979 147.047 291.478 146.202 288.524 C 145.977 287.698 145.771 287.042 145.733 286.944 C 145.451 286.208 144.782 284.115 144.259 282.384 C 143.773 280.778 143.136 278.732 142.835 277.812 C 142.476 276.711 141.984 275.073 141.755 274.226 C 141.618 273.705 141.148 272.129 140.691 270.648 C 140.199 269.059 139.611 267.09 139.397 266.309 C 139.254 265.791 138.131 262.083 136.885 258.035 C 133.527 247.118 132.986 245.325 132.581 243.819 C 132.459 243.344 132.137 242.291 131.851 241.421 C 131.491 240.319 130.928 238.471 130.619 237.364 C 130.38 236.51 130.156 235.782 130.104 235.642 C 130.029 235.441 129.924 235.145 129.804 234.801 C 128.111 234.877 126.397 234.615 125.793 234.489 C 124.752 234.242 124.426 234.077 124.426 234.077 C 124.39 234.068 124.408 233.864 124.47 233.503 C 125.241 233.834 125.851 234.096 125.945 234.109 C 126.178 234.141 127.588 234.213 128.573 234.061 C 128.725 234.037 128.937 233.979 129.194 233.889 C 129.151 233.843 129.11 233.796 129.07 233.751 C 128.803 233.444 128.435 232.87 128.056 232.151 C 126.955 232.686 125.965 233.037 125.424 233.121 C 125.14 233.165 124.836 233.193 124.524 233.206 C 124.504 233.314 124.486 233.413 124.47 233.503 C 124.257 233.411 124.032 233.315 123.803 233.217 C 122.521 233.199 121.238 233.013 120.671 232.903 C 119.407 232.592 118.871 232.292 118.871 232.292 C 118.823 232.278 118.816 232.135 118.842 231.882 C 119.222 232.047 119.505 232.184 119.471 232.199 C 119.51 232.192 120.815 232.371 122.09 232.289 C 121.693 231.956 121.161 231.482 120.708 230.989 C 120.525 231.035 120.33 231.077 120.128 231.114 L 119.647 231.672 C 119.536 231.561 119.397 231.417 119.241 231.248 C 119.137 231.261 119.033 231.273 118.93 231.284 C 118.888 231.523 118.859 231.724 118.842 231.882 C 118.595 231.775 118.307 231.655 118.039 231.55 C 117.981 231.51 117.897 231.451 117.793 231.374 C 117.595 231.385 117.423 231.391 117.287 231.394 C 115.314 231.155 115.922 230.982 115.922 230.982 C 115.856 230.972 115.799 230.924 115.75 230.842 L 115.639 231.032 C 115.513 230.949 115.33 230.822 115.111 230.66 C 114.66 230.631 114.342 230.588 114.234 230.579 C 114.308 230.534 112.778 230.095 111.507 229.184 C 111.253 229.001 110.846 228.648 110.411 228.224 L 111.433 226.718 C 110.885 225.611 110.256 223.949 110.107 222.812 C 109.847 220.823 110.909 216.547 112.16 214.848 C 113.116 213.549 114.902 212.372 116.509 211.565 C 116.515 210.66 116.478 209.943 116.38 209.496 C 115.911 209.553 115.369 209.639 114.918 209.765 C 113.454 210.176 108.395 213.771 107.389 217.274 C 106.665 219.796 107.708 224.732 108.789 226.361 C 109.175 226.943 109.819 227.648 110.411 228.224 L 109.827 229.086 C 109.353 228.743 107.905 227.595 107.095 226.55 C 106.098 225.265 104.307 220.057 105.133 216.939 C 105.669 214.918 108.114 211.658 109.556 210.669 C 110.572 209.972 112.526 209.195 113.345 209.007 C 115.417 208.531 118.195 208.942 119.001 209.109 C 119.875 209.319 121.55 209.823 122.985 210.524 C 123.469 210.582 123.873 210.648 124.129 210.697 C 125.209 210.963 127.141 211.664 128.515 212.27 C 128.699 212.285 128.858 212.302 128.982 212.32 C 130.096 212.475 133.017 213.567 134.973 214.514 C 135.235 214.703 135.794 215.139 136.378 215.666 C 136.545 215.653 136.71 215.642 136.873 215.634 C 137.381 215.284 138.081 214.927 138.858 214.605 C 140.596 213.432 143.619 211.8 146.174 211.8 C 143.416 211.8 143.318 211.721 146.61 209.638 C 149.051 208.094 151.624 206.501 153.256 205.542 C 153.567 205.201 153.865 204.925 154.135 204.732 C 155.254 203.934 157.602 203.082 159.435 202.747 C 159.453 202.721 159.47 202.694 159.488 202.668 C 157.765 202.84 156.944 203.226 158.047 202.482 C 158.728 202.022 159.757 201.393 160.936 200.776 C 161.119 200.574 161.277 200.42 161.399 200.321 C 162.063 199.784 163.345 198.994 164.135 198.561 C 164.342 198.478 165.558 197.708 166.959 196.787 C 168.622 195.695 170.952 194.313 171.941 193.817 C 171.977 193.869 180.297 188.565 180.306 188.481 C 181.263 187.763 184.437 185.902 187.164 185.484 C 187.174 185.466 187.183 185.447 187.193 185.429 C 185.094 185.549 184.266 185.945 185.862 184.872 C 186.588 184.383 187.609 183.749 188.761 183.119 C 188.77 183.11 188.779 183.101 188.787 183.093 C 190.243 181.654 194.46 179.8 196.805 179.8 C 194.338 179.8 192.753 180.598 193.945 179.817 C 195.476 178.829 199.011 176.6 201.786 174.871 C 204.49 173.188 208.389 170.707 210.475 169.343 C 211.267 168.827 212.355 168.165 213.564 167.514 C 215.094 166.056 219.245 164.2 221.593 164.2 C 219.051 164.2 217.862 164.78 219.612 163.648 C 227.981 158.266 233.09 155.147 234.816 154.275 C 234.53 154.38 235.228 153.83 236.755 152.804 C 237.465 152.331 238.464 151.713 239.594 151.097 C 239.649 151.039 239.704 150.984 239.757 150.933 C 241.223 149.544 245.348 147.8 247.622 147.8 C 245.126 147.8 243.26 148.775 244.156 148.149 C 247.189 146.128 250.229 144.866 250.229 144.866 C 250.464 144.724 253.43 149.349 256.397 153.974 Z M 127.18 230.233 C 126.741 229.106 126.403 227.899 126.362 226.878 C 126.194 227.062 126.021 227.243 125.846 227.42 C 125.478 228.951 125.146 230.352 124.895 231.469 C 125.617 231.14 126.416 230.719 127.18 230.233 Z M 133.094 216.364 C 133.646 216.15 134.228 215.992 134.812 215.878 C 134.494 215.514 134.209 215.208 134.019 215.016 L 132.997 216.2 C 133.029 216.251 133.061 216.306 133.094 216.364 Z M 122.003 228.809 C 122.109 228.736 122.221 228.651 122.338 228.554 L 124.808 225.691 C 125.545 224.612 126.162 223.469 126.399 222.573 C 127.019 220.234 126.153 216.703 125.276 214.584 L 121.2 221.541 C 121.798 219.116 122.396 216.692 122.842 214.76 C 122.827 214.77 122.812 214.78 122.797 214.791 C 121.369 215.77 118.932 219.019 118.401 221.027 C 118.025 222.443 118.195 224.297 118.582 226.009 L 121.2 221.541 C 120.549 224.179 119.899 226.816 119.444 228.819 C 119.604 229.221 119.765 229.579 119.92 229.877 C 120.67 229.565 121.469 229.176 122.003 228.809 Z M 123.442 211.959 C 123.18 211.714 122.924 211.49 122.708 211.309 C 122.485 211.325 122.26 211.349 122.04 211.383 C 121.968 211.394 121.887 211.411 121.798 211.432 L 118.556 216.212 C 119.951 214.854 121.784 213.74 123.223 213.054 C 123.311 212.64 123.385 212.272 123.442 211.959 Z M 116 219.982 C 116.158 217.972 116.316 215.963 116.413 214.221 C 115.826 214.687 115.307 215.188 114.923 215.71 C 113.679 217.399 112.62 221.663 112.878 223.639 C 112.908 223.866 112.957 224.114 113.021 224.375 L 116 219.982 C 115.711 223.665 115.421 227.349 115.506 229.38 C 115.731 229.619 115.969 229.85 116.204 230.067 L 115.84 230.688 C 116.159 230.692 116.51 230.684 116.878 230.656 C 116.663 230.477 116.434 230.278 116.204 230.067 L 117.113 228.516 C 117.05 228.407 116.992 228.3 116.94 228.197 C 116.019 226.351 115.777 221.636 116.659 219.01 Z M 127.121 214.198 C 127.551 214.846 127.973 216.003 128.284 217.323 C 128.605 215.965 128.872 214.797 129.045 213.963 C 128.674 213.593 128.286 213.248 127.934 212.954 C 127.471 212.985 126.99 213.045 126.531 213.151 C 126.471 213.165 126.405 213.182 126.333 213.202 C 126.638 213.544 126.915 213.888 127.121 214.198 Z M 126.761 212.05 L 126.667 212.211 C 126.772 212.209 126.878 212.208 126.983 212.208 C 126.89 212.14 126.814 212.087 126.761 212.05 Z M 187.318 185.422 C 187.31 185.437 187.302 185.451 187.294 185.465 C 187.603 185.423 187.906 185.4 188.198 185.4 C 187.886 185.4 187.592 185.409 187.318 185.422 Z M 159.537 202.663 C 159.521 202.688 159.504 202.713 159.488 202.738 C 159.982 202.65 160.437 202.6 160.818 202.6 C 160.354 202.6 159.924 202.626 159.537 202.663 Z M 152.021 207.134 C 150.892 208.761 149.426 211.45 149.398 213.767 C 149.421 211.834 150.669 209.135 152.021 207.134 Z M 142.663 213.493 C 143.051 213.433 143.411 213.4 143.725 213.4 C 143.382 213.4 143.025 213.434 142.663 213.493 Z M 174.864 233.007 L 173.776 232.071 L 174.815 232.966 C 174.827 232.976 174.843 232.99 174.864 233.007 Z M 175.798 217.201 C 175.672 217.276 175.549 217.349 175.429 217.419 C 175.184 217.7 174.947 217.935 174.725 218.111 C 173.56 219.038 170.963 220.07 168.958 220.45 C 168.94 220.478 168.921 220.505 168.903 220.533 C 170.632 220.362 171.458 219.972 170.353 220.718 C 169.662 221.185 168.613 221.825 167.413 222.451 C 167.286 222.584 167.175 222.689 167.082 222.765 C 166.412 223.311 165.102 224.141 164.296 224.532 C 164.292 224.534 161.669 226.143 158.373 228.23 C 156.616 229.341 154.241 230.775 151.94 231.911 C 151.951 231.947 151.962 231.983 151.972 232.02 C 152.385 231.79 152.62 231.635 152.609 231.646 C 152.448 231.796 152.245 231.962 152.007 232.139 C 152.243 232.945 152.538 233.906 152.758 234.574 C 153.034 235.42 153.388 236.577 153.642 237.453 L 160.708 230.861 C 163.306 228.439 170.046 222.343 174.083 218.766 C 174.222 218.644 174.917 218.009 175.798 217.201 Z M 156.189 245.96 C 156.655 247.478 157.221 249.319 157.913 251.565 C 159.171 255.657 160.394 259.689 160.613 260.491 C 160.761 261.03 161.249 262.661 161.709 264.152 C 162.204 265.751 162.797 267.759 163.015 268.566 C 163.137 269.041 163.464 270.109 163.751 270.988 C 164.096 272.048 164.805 274.322 165.317 276.016 C 165.546 276.774 165.764 277.476 165.934 278.015 C 167.354 276.585 169.736 274.216 173.736 270.329 C 175.865 268.262 178.058 266.133 180.027 264.223 C 176.377 261.526 172.507 258.671 169.502 256.46 C 165.422 253.458 161.323 250.364 160.467 249.642 L 159.424 248.745 Z M 180.047 264.204 C 182.917 261.421 185.307 259.104 186.321 258.126 L 180.033 264.194 Z M 161.798 281.002 C 161.744 281.024 161.715 281.038 161.724 281.039 C 161.748 281.027 161.773 281.015 161.798 281.002 Z M 143.154 217.193 C 144.217 218.065 145.392 219.263 146.478 220.542 C 146.172 219.993 145.884 219.56 145.667 219.31 C 144.946 218.482 143.727 217.554 143.42 217.356 C 143.319 217.292 143.22 217.232 143.154 217.193 Z M 168.765 220.546 C 168.781 220.523 168.797 220.499 168.813 220.476 C 168.361 220.556 167.943 220.6 167.582 220.6 C 168.007 220.6 168.404 220.578 168.765 220.546 Z M 177.882 213.429 C 178.511 212.109 179 210.631 179 209.268 C 179 210.449 178.54 211.967 177.882 213.429 Z M 262.561 163.084 C 262.562 163.084 262.564 163.083 262.565 163.082 C 262.565 163.082 262.563 163.083 262.561 163.084 Z M 134.739 218.069 C 134.563 218.328 134.386 218.612 134.211 218.914 C 134.212 218.917 134.213 218.92 134.214 218.922 C 134.385 218.627 134.561 218.341 134.739 218.069 Z M 163.941 223.975 C 164.867 223.679 165.773 223.31 166.431 222.942 C 165.623 223.329 164.775 223.689 163.941 223.975 Z M 168.087 156.275 C 167.977 156.401 167.875 156.523 167.787 156.639 C 166.798 157.929 165.091 163.123 165.923 166.174 C 166.798 169.387 171.624 173.322 173.587 173.861 C 174.528 174.119 176.103 174.223 176.656 174.242 C 177.672 174.015 178.627 173.852 178.926 173.861 L 174.2 164.029 C 177.111 167.87 180.022 171.711 180.958 172.396 C 181.754 171.539 182.97 170.003 183.509 168.664 C 184.261 166.795 184.205 161.363 182.738 158.917 C 181.442 156.755 177.666 154.355 176.127 153.949 C 174.171 153.433 171.549 153.777 170.986 153.873 C 170.694 154.039 170.138 154.369 169.714 154.696 L 169.434 154.115 C 170.85 153.468 174.1 152.574 176.144 152.248 C 176.783 152.265 178.422 152.375 179.408 152.645 C 181.415 153.196 186.266 157.15 187.148 160.388 C 187.987 163.464 186.269 168.689 185.252 170.016 C 184.693 170.746 183.64 171.735 183.211 172.069 C 182.375 172.72 181.021 173.452 180.401 173.738 C 179.43 174.187 177.598 174.839 176.298 175.206 C 175.53 175.364 172.576 175.765 170.516 175.221 C 168.96 174.811 165.173 172.404 163.871 170.231 C 162.398 167.776 162.342 162.332 163.1 160.448 C 163.813 158.678 165.694 156.563 166.329 156.036 C 167.193 155.319 167.173 155.566 167.173 155.566 C 167.282 155.491 167.606 155.758 168.087 156.275 Z M 169.696 154.71 C 169.702 154.705 169.708 154.7 169.714 154.696 L 174.2 164.029 C 171.787 160.846 169.375 157.662 168.087 156.275 C 168.636 155.648 169.389 154.949 169.696 154.71 Z M 123.115 174.924 C 123.018 175.095 122.928 175.266 122.848 175.437 C 122.389 176.418 121.68 179.436 121.89 181.295 C 122.19 183.956 125.619 188.759 127.923 189.901 C 130.228 191.043 134.125 191 135.07 190.792 C 135.511 190.696 135.924 190.562 136.155 190.487 L 131.4 180.614 C 134.978 183.454 138.556 186.294 140.204 186.407 C 140.788 185.261 141.595 182.712 141.606 181.125 C 141.622 178.94 139.818 174.683 138.323 173.213 C 136.521 171.439 132.727 170.202 131.59 170.103 C 130.652 170.021 129.338 170.136 129.015 170.187 C 128.78 170.224 128.676 170.254 128.615 170.263 C 128.387 170.376 127.692 170.766 126.884 171.236 L 126.627 170.704 C 127.516 170.28 129.126 169.573 130.359 169.303 C 131.395 169.076 135.354 169.03 137.691 170.188 C 140.011 171.338 143.45 176.154 143.751 178.832 C 143.963 180.708 143.249 183.747 142.778 184.754 C 142.059 186.292 140.519 187.968 140.084 188.398 C 138.309 189.618 135.221 191.213 133.768 191.647 C 133.458 191.72 132.892 191.847 132.458 191.916 C 132.037 191.983 130.652 192.105 129.671 192.019 C 128.512 191.917 124.705 190.676 122.895 188.896 C 121.397 187.422 119.591 183.161 119.607 180.971 C 119.619 179.259 120.553 176.433 121.143 175.437 C 122.653 172.886 121.934 175.011 121.934 175.011 C 122.182 174.777 122.587 174.764 123.115 174.924 Z M 125.076 172.312 C 125.647 171.962 126.295 171.578 126.884 171.236 L 131.4 180.614 C 128.161 178.043 124.922 175.472 123.115 174.924 C 123.831 173.663 124.921 172.478 125.076 172.312 Z M 83.303 188.031 C 83.459 187.959 83.632 187.879 83.825 187.788 L 83.652 187.453 C 84.884 186.823 86.323 186.157 87.223 185.82 C 87.93 185.556 90.217 184.928 91.936 184.978 C 93.171 185.013 96.828 185.997 98.629 187.468 C 99.943 188.542 101.939 191.643 102.367 193.405 C 102.734 194.919 102.604 197.755 102.289 198.911 C 101.707 201.047 99.631 203.594 98.988 204.272 C 98.399 204.7 97.596 205.222 96.761 205.733 C 97.18 206.646 97.772 208.349 97.902 209.5 C 98.131 211.517 96.237 216.008 94.946 218.33 C 91.519 220.026 86.583 221.862 85.117 221.621 C 84.369 221.498 83.257 221.161 82.846 221.004 C 82.323 220.804 81.581 220.448 81.225 220.26 C 80.655 219.959 79.854 219.482 79.301 219.128 C 78.201 218.426 77.681 217.882 77.681 217.882 C 77.649 217.86 77.79 217.592 78.064 217.136 C 78.426 217.625 78.789 218.062 78.962 218.241 C 79.129 218.416 79.365 218.63 79.549 218.793 C 79.655 218.838 79.764 218.883 79.86 218.919 C 80.205 219.049 81.445 219.411 82.314 219.516 C 83.201 219.624 85.925 219.488 87.536 218.872 C 88.829 218.378 91.492 216.465 92.52 215.042 C 93.582 213.572 94.372 210.174 94.6 208.61 L 91.577 208.61 C 90.552 210.179 88.89 212.639 86.178 213.718 C 84.867 214.239 81.959 214.495 79.913 214.223 C 79.107 215.463 78.452 216.489 78.064 217.136 C 77.797 216.774 77.531 216.383 77.343 216.045 C 77.01 215.445 76.409 213.868 76.145 212.602 C 74.987 211.818 73.917 210.902 73.433 210.287 C 72.424 209.005 71.513 206.674 71.33 205.878 C 71.148 205.083 71.055 203.955 71.033 203.55 C 72.057 199.752 72.84 201.05 72.84 201.05 C 73.036 200.401 73.909 200.09 75.201 199.99 C 75.244 200.445 75.304 200.905 75.384 201.354 C 75.529 201.207 75.683 201.06 75.845 200.912 C 75.739 200.587 75.649 200.271 75.579 199.967 C 75.449 199.973 75.323 199.981 75.201 199.99 C 75.045 198.308 75.129 196.695 75.322 195.978 C 75.437 195.552 75.618 195.076 75.816 194.623 C 76.135 194.365 76.471 194.121 76.821 193.902 C 76.854 193.843 76.886 193.784 76.919 193.726 L 76.473 193.281 C 76.284 193.625 76.04 194.109 75.816 194.623 C 73.688 196.345 72.293 198.725 72.192 198.845 C 73.121 197.167 74.953 194.616 76.304 193.111 L 76.05 192.858 C 76.611 192.304 77.854 191.264 79.392 190.27 C 79.748 189.873 80.025 189.607 80.157 189.512 C 80.507 189.261 81.052 188.91 81.397 188.702 C 81.982 188.35 83.022 187.805 83.022 187.805 C 83.035 187.797 83.133 187.878 83.303 188.031 Z M 85.927 209.8 C 86.964 209.8 87.954 209.609 88.813 209.36 C 88.729 209.38 88.647 209.397 88.57 209.412 C 88.033 209.518 86.368 209.678 85.26 209.561 C 84.828 209.516 84.097 209.341 83.289 209.081 C 83.228 209.174 83.167 209.267 83.106 209.359 C 84.183 209.628 85.304 209.8 85.927 209.8 Z M 80.051 207.599 C 79.38 207.125 78.646 206.265 77.963 205.234 C 77.87 205.439 77.777 205.648 77.684 205.86 C 78.724 206.994 80.009 208.101 80.961 208.61 L 81.996 208.61 C 81.268 208.313 80.57 207.966 80.051 207.599 Z M 97.373 198.131 C 97.092 195.469 94.664 190.988 92.756 189.638 C 91.344 188.64 88.597 187.791 87.567 187.682 C 86.573 187.578 85.123 187.699 84.495 187.796 C 84.396 187.868 84.279 187.947 84.146 188.034 C 84.142 188.037 84.139 188.041 84.135 188.045 C 84.746 187.889 85.349 187.8 85.927 187.8 C 86.995 187.8 89.503 188.299 90.781 188.926 C 92.356 189.698 94.983 192.296 95.774 193.869 C 96.325 194.967 96.612 196.52 96.721 197.98 C 96.946 198.046 97.164 198.097 97.373 198.131 Z M 83.896 187.924 C 83.703 187.973 83.51 188.026 83.35 188.073 C 83.4 188.118 83.455 188.169 83.515 188.225 C 83.67 188.175 83.825 188.128 83.979 188.086 Z M 81.063 193.127 C 80.81 194.055 80.677 196.098 80.833 197.636 L 81.129 197.931 C 82.611 197.647 84.285 197.594 84.957 197.676 C 85.873 197.787 87.184 198.169 87.618 198.333 C 88.102 198.515 88.807 198.844 89.154 199.023 C 89.344 199.121 89.57 199.244 89.812 199.38 L 86.86 193.664 C 86.349 193.38 85.853 193.149 85.415 193.011 C 84.372 192.68 82.726 192.604 81.195 192.706 C 81.145 192.848 81.101 192.988 81.063 193.127 Z M 84.707 204.503 C 85.027 204.765 85.407 205.011 85.821 205.239 C 86.182 204.689 86.53 204.159 86.858 203.655 L 84.181 200.981 C 83.609 201.188 83.017 201.416 82.423 201.656 C 83.158 202.837 84.026 203.946 84.707 204.503 Z M 288.803 209.185 C 288.863 209.095 288.918 209.005 288.968 208.916 L 285.189 207.97 C 286.01 208.386 286.876 208.967 287.671 209.593 C 288.032 209.492 288.415 209.351 288.803 209.185 Z M 284.562 206.419 C 282.546 205.707 280.443 205.23 279.082 205.52 C 278.6 205.622 278.063 205.811 277.518 206.049 L 282.246 207.233 C 282.581 207.245 282.903 207.272 283.203 207.315 C 283.659 207.016 284.114 206.717 284.562 206.419 Z M 287.987 203.989 C 286.732 203.628 285.389 203.248 284.046 202.867 L 288.923 203.208 C 289.657 202.553 290.231 201.92 290.568 201.316 L 284.629 199.829 C 285.143 199.492 285.657 199.155 286.162 198.819 C 284.146 198.107 282.043 197.63 280.682 197.92 C 280.2 198.022 279.663 198.211 279.118 198.449 L 284.629 199.829 C 283.478 200.583 282.327 201.338 281.275 202.08 C 282.179 202.338 283.112 202.602 284.046 202.867 L 280.523 202.621 C 280.186 202.869 279.863 203.114 279.558 203.358 C 281.327 202.993 284.301 203.883 286.746 204.92 C 287.182 204.607 287.598 204.296 287.987 203.989 Z M 294.544 203.601 C 294.562 203.821 294.576 204.043 294.585 204.26 C 294.641 204.164 294.688 204.08 294.722 204.013 C 294.739 203.88 294.754 203.748 294.769 203.616 L 294.894 203.625 C 295.071 203.184 295.248 202.639 295.3 202.501 L 294.879 202.396 C 294.852 202.793 294.815 203.202 294.769 203.616 L 294.544 203.601 C 294.51 203.202 294.459 202.811 294.387 202.476 C 294.373 202.41 294.355 202.338 294.334 202.259 L 292.588 201.822 C 292.823 202.396 293.047 202.964 293.253 203.51 Z M 289.999 196.057 C 288.258 194.94 286.028 193.959 284.606 193.834 C 280.874 193.504 276.129 196.738 275.399 197.518 L 276.756 197.857 C 277.969 197.028 279.768 196.054 281.138 195.762 C 282.904 195.387 285.892 196.279 288.346 197.32 C 288.94 196.893 289.497 196.472 289.999 196.057 Z M 275.391 202.262 L 274.175 202.177 C 274.076 202.315 273.982 202.452 273.893 202.583 C 273.778 203.464 273.693 204.337 273.656 205.082 L 275.156 205.457 C 275.525 205.205 275.947 204.94 276.396 204.684 C 276.04 203.854 275.697 203.029 275.392 202.262 Z M 285.953 211.925 C 285.627 211.926 285.278 211.901 284.914 211.854 C 285.121 211.973 285.329 212.101 285.537 212.236 C 285.678 212.132 285.817 212.028 285.953 211.925 Z M 279.145 210.059 C 278.709 210.375 278.294 210.688 277.909 210.998 C 277.95 211.028 277.991 211.059 278.032 211.089 C 279.012 210.922 280.064 210.821 281.029 210.824 C 280.378 210.585 279.741 210.324 279.145 210.059 Z M 292.26 209.741 L 291.514 209.554 C 291.398 209.637 291.274 209.723 291.145 209.81 C 291.229 210.019 291.312 210.227 291.392 210.433 C 291.723 210.197 292.016 209.964 292.26 209.741 Z M 294.343 206.408 C 294.327 206.49 294.31 206.573 294.293 206.654 C 294.328 206.791 294.359 206.92 294.385 207.04 C 294.439 206.778 294.502 206.439 294.544 206.134 C 294.546 206.139 294.546 206.145 294.545 206.15 C 294.545 206.15 294.542 206.435 294.392 207.073 C 294.459 207.397 294.49 207.653 294.477 207.824 C 294.422 208.528 294.205 209.719 294.039 210.453 C 293.823 211.219 293.381 212.558 293.008 213.317 C 292.927 213.484 292.793 213.721 292.625 213.996 C 292.804 214.647 292.898 215.148 292.877 215.424 C 292.822 216.128 292.605 217.319 292.439 218.053 C 292.3 218.549 292.064 219.289 291.813 219.954 C 291.694 220.987 291.518 221.936 291.36 222.57 C 291.283 222.802 291.167 223.116 291.022 223.476 C 290.903 224.539 290.722 225.52 290.56 226.17 C 290.483 226.399 290.369 226.71 290.226 227.066 C 290.245 227.911 290.204 228.57 290.135 228.913 C 289.987 229.653 289.648 230.857 289.356 231.611 C 289.242 232.464 289.094 233.231 288.96 233.77 C 288.786 234.289 288.421 235.228 287.966 236.151 C 288.032 237.792 287.749 239.819 287.518 240.919 C 287.299 241.776 286.577 244.066 285.584 245.492 C 284.674 246.798 280.058 250.188 276.676 250.238 C 274.341 250.272 270.164 248.425 268.803 247.093 C 267.889 246.199 266.737 244.379 266.399 243.607 C 265.803 242.242 265.514 240.145 265.454 239.46 C 265.476 237.971 265.662 237.945 265.662 237.945 C 265.665 237.864 265.808 237.796 266.066 237.738 C 266.079 238.056 266.107 238.389 266.16 238.715 C 266.403 240.205 269.557 245.814 273.081 247.148 C 275.57 248.09 280.658 247.407 282.382 246.425 C 283.411 245.84 284.875 244.514 285.347 243.949 C 286.081 243.069 286.797 241.595 286.916 241.363 L 284.279 240.349 C 283.812 240.692 283.337 240.996 282.9 241.207 C 281.7 241.787 278.625 242.424 276.94 242.247 C 275.15 242.058 271.914 240.552 270.717 239.475 C 270.131 238.948 269.607 238.254 269.15 237.492 C 267.727 237.538 266.625 237.614 266.066 237.738 C 266.028 236.764 266.136 235.931 266.113 235.875 C 266.193 235.736 266.492 234.745 267.042 233.721 L 267.562 233.921 C 267.48 233.669 267.408 233.426 267.345 233.199 C 267.237 233.371 267.136 233.547 267.042 233.721 L 266.382 233.468 C 266.525 233.129 266.774 232.593 267.082 232.011 C 267.064 231.893 267.053 231.789 267.049 231.702 C 266.969 230.169 267.264 230.384 267.264 230.384 C 267.269 230.284 267.432 230.201 267.726 230.133 C 267.73 230.366 267.74 230.6 267.76 230.829 C 267.939 230.545 268.124 230.275 268.309 230.035 C 268.08 230.064 267.884 230.097 267.726 230.133 C 267.706 228.862 267.884 227.639 267.882 227.47 C 267.939 227.341 268.18 226.745 268.518 226.074 L 268.735 226.157 C 268.714 226.019 268.695 225.887 268.679 225.764 C 268.623 225.868 268.57 225.972 268.518 226.074 L 267.982 225.868 C 268.112 225.566 268.317 225.133 268.567 224.653 C 268.565 224.611 268.564 224.589 268.565 224.587 C 268.571 224.557 268.608 224.419 268.66 224.244 C 268.656 224.201 268.652 224.161 268.65 224.123 L 268.257 224.037 C 268.43 223.313 268.766 222.131 269.042 221.446 C 269.116 221.262 269.245 220.984 269.408 220.663 C 269.42 220.539 269.431 220.425 269.441 220.325 C 269.393 218.986 269.664 219.184 269.664 219.184 C 269.667 219.12 269.734 219.064 269.858 219.014 C 269.936 218.846 270.023 218.663 270.118 218.474 L 270.127 218.477 C 270.127 218.47 270.127 218.463 270.127 218.456 C 270.124 218.462 270.121 218.468 270.118 218.474 L 269.582 218.268 C 269.721 217.946 269.944 217.475 270.218 216.956 C 270.253 216.593 270.283 216.34 270.282 216.27 C 270.339 216.141 270.58 215.545 270.918 214.874 L 271.274 215.01 C 271.211 214.826 271.157 214.656 271.111 214.504 C 271.044 214.628 270.979 214.752 270.918 214.874 L 270.382 214.668 C 270.514 214.361 270.723 213.919 270.98 213.429 C 271.023 213.15 271.088 212.807 271.104 212.688 C 271.122 212.643 271.149 212.563 271.183 212.463 L 271.474 212.536 C 271.841 211.908 272.252 211.288 272.652 210.834 C 272.879 210.576 273.289 210.189 273.762 209.789 C 273.621 209.434 273.488 209.092 273.365 208.769 C 272.618 209.62 271.856 210.822 271.656 211.231 C 271.492 211.565 271.298 212.13 271.183 212.463 L 270.758 212.357 C 270.973 211.593 271.419 210.242 271.792 209.483 C 271.977 209.105 272.427 208.366 272.953 207.642 C 272.684 206.867 272.528 206.312 272.544 206.112 C 272.559 205.916 272.632 205.518 272.675 205.267 C 272.669 205.119 272.665 204.973 272.662 204.833 L 272.358 204.757 C 272.439 204.469 272.553 204.097 272.683 203.705 C 272.687 203.661 272.69 203.62 272.694 203.584 C 272.758 202.986 272.939 202.148 273.011 201.873 C 273.047 201.736 273.089 201.588 273.13 201.449 C 273.146 201.292 273.165 201.13 273.185 200.984 C 273.236 200.631 273.446 199.59 273.68 198.901 C 273.781 198.606 274.01 198.086 274.3 197.518 C 274.302 197.507 274.303 197.497 274.304 197.488 C 274.322 197.443 274.349 197.363 274.383 197.263 L 274.427 197.274 C 274.742 196.682 275.11 196.067 275.458 195.624 C 276.777 193.947 282.005 191.191 285.079 191.462 C 287.274 191.655 289.664 193.208 291.421 194.725 C 291.844 194.257 292.16 193.802 292.338 193.366 C 292.329 193.34 292.32 193.314 292.31 193.288 C 290.019 191.937 284.839 189.775 282.282 190.32 C 280.403 190.72 277.692 192.432 276.898 193.215 C 276.059 194.042 275.086 195.561 274.856 196.031 C 274.692 196.365 274.498 196.93 274.383 197.263 L 273.958 197.157 C 274.173 196.393 274.619 195.042 274.992 194.283 C 275.301 193.651 276.35 192.013 277.258 191.118 C 278.086 190.301 280.829 188.569 282.738 188.162 C 285.324 187.612 290.532 189.781 292.846 191.156 C 294.487 194.662 296.161 199.147 296.077 200.224 C 296.022 200.928 295.805 202.119 295.639 202.853 C 295.423 203.619 294.981 204.958 294.608 205.717 C 294.6 205.734 294.592 205.751 294.582 205.769 C 294.578 205.83 294.574 205.884 294.569 205.93 C 294.562 205.995 294.553 206.064 294.544 206.134 C 294.538 206.116 294.516 206.094 294.479 206.069 C 294.444 206.165 294.398 206.28 294.343 206.408 C 294.363 206.306 294.382 206.203 294.401 206.1 C 294.348 206.192 294.289 206.291 294.225 206.396 C 294.241 206.455 294.257 206.513 294.272 206.57 C 294.297 206.514 294.32 206.46 294.343 206.408 Z M 275.639 239.859 C 277.308 240.323 280.144 240.048 282.141 239.527 L 279.983 238.697 C 278.626 238.793 277.12 238.749 276.172 238.503 C 275.495 238.328 274.642 237.909 273.809 237.424 C 273.031 237.427 272.273 237.433 271.553 237.442 C 272.846 238.513 274.398 239.514 275.639 239.859 Z M 286.757 236.58 C 286.848 236.476 286.94 236.363 287.031 236.243 C 286.968 235.991 286.897 235.735 286.817 235.488 C 286.19 236.055 285.292 236.751 284.358 237.33 C 285.015 237.307 285.598 237.278 286.083 237.239 C 286.37 236.982 286.608 236.749 286.757 236.58 Z M 288.516 233.763 L 288.282 233.673 C 288.093 233.98 287.894 234.28 287.696 234.545 C 287.759 234.719 287.807 234.875 287.839 235.01 C 288.176 234.435 288.432 233.928 288.516 233.763 Z M 271.26 234.216 C 271.09 233.768 271.145 233.288 271.378 232.783 C 271.47 232.887 271.565 232.988 271.663 233.086 C 272.717 234.14 275.673 235.783 277.379 236.106 C 279.1 236.432 282.382 235.983 283.684 235.433 C 284.451 235.109 285.317 234.526 286.087 233.918 C 285.917 233.633 285.719 233.323 285.507 233.012 C 285.163 233.246 284.822 233.452 284.5 233.607 C 283.3 234.187 280.225 234.824 278.54 234.647 C 276.75 234.458 273.514 232.952 272.317 231.875 C 272.249 231.814 272.182 231.751 272.115 231.685 C 271.793 232.062 271.542 232.428 271.378 232.783 C 270.846 232.178 270.413 231.472 270.062 230.732 C 269.24 231.291 268.542 231.854 268.065 232.317 C 268.267 232.949 268.582 233.775 268.91 234.439 L 271.009 235.246 C 269.567 231.494 271.26 234.216 271.26 234.216 Z M 289.743 228.763 L 289.553 228.721 C 289.556 228.94 289.553 229.163 289.546 229.389 C 289.639 229.105 289.727 228.787 289.743 228.763 Z M 270.664 224.566 C 270.529 224.261 270.405 223.956 270.291 223.658 C 270.029 223.909 269.802 224.142 269.627 224.338 Z M 269.873 222.44 C 269.694 222.463 269.535 222.489 269.4 222.517 C 269.376 222.561 269.352 222.605 269.329 222.647 C 269.334 222.852 269.345 223.058 269.362 223.26 C 269.533 222.988 269.71 222.726 269.888 222.487 C 269.883 222.471 269.878 222.455 269.873 222.44 Z M 277.239 232.259 C 278.908 232.723 281.744 232.448 283.741 231.927 L 281.31 230.992 C 280.581 231.076 279.887 231.104 279.34 231.047 C 278.346 230.942 276.906 230.431 275.618 229.813 C 275.113 229.814 274.616 229.815 274.132 229.818 C 273.96 229.955 273.793 230.091 273.632 230.226 C 274.816 231.145 276.148 231.956 277.239 232.259 Z M 288.357 228.98 C 288.433 228.893 288.51 228.8 288.586 228.702 C 288.564 228.634 288.541 228.564 288.518 228.494 L 287.717 228.317 C 287.108 228.845 286.417 229.373 285.77 229.754 C 286.499 229.729 287.143 229.696 287.672 229.649 C 287.964 229.388 288.206 229.151 288.357 228.98 Z M 271.598 223.773 C 271.805 224.115 272.151 224.537 272.59 224.99 L 277.722 226.119 C 277.851 226.119 277.98 226.121 278.107 226.125 C 276.333 225.495 274.63 224.684 273.554 224.044 C 273.227 223.191 273.03 222.621 272.925 222.258 C 272.568 222.267 272.227 222.278 271.906 222.292 C 271.647 222.484 271.391 222.688 271.147 222.893 C 271.294 223.22 271.448 223.525 271.598 223.773 Z M 278.039 228.659 C 278.471 228.779 278.981 228.85 279.535 228.88 C 278.659 228.58 277.79 228.36 277.037 228.277 C 277.385 228.44 277.722 228.571 278.039 228.659 Z M 285.835 227.904 L 282.203 227.105 C 282.099 227.097 281.993 227.087 281.886 227.075 C 282.517 227.458 283.127 227.956 283.701 228.521 C 284.532 228.351 285.28 228.136 285.835 227.904 Z M 273.651 222.807 C 273.583 222.624 273.552 222.436 273.555 222.244 C 273.474 222.246 273.394 222.247 273.315 222.249 C 273.493 222.527 273.651 222.807 273.651 222.807 Z M 279.849 222.215 C 281.306 222.217 282.764 222.22 284.118 222.211 C 282.633 221.349 280.55 220.505 279.247 220.368 C 278.336 220.272 277.013 220.416 275.806 220.66 L 279.849 222.215 C 278.052 222.212 276.255 222.209 274.65 222.227 C 276.374 223.158 279.115 224.313 281.424 224.768 C 282.042 224.342 282.638 223.919 283.194 223.501 Z M 286.182 220.742 L 284.097 219.941 C 284.684 220.331 285.263 220.771 285.794 221.219 C 285.936 221.058 286.066 220.899 286.182 220.742 Z M 276.281 218.62 C 276.23 218.661 276.179 218.702 276.129 218.744 C 276.378 218.697 276.633 218.654 276.891 218.616 C 276.686 218.617 276.482 218.619 276.281 218.62 Z M 273.08 219.612 C 272.977 219.37 272.875 219.129 272.775 218.89 C 272.588 219.021 272.406 219.154 272.231 219.286 Z M 292.1 217.701 L 291.954 217.665 C 291.954 217.82 291.952 217.978 291.948 218.137 C 292.019 217.934 292.074 217.769 292.1 217.701 Z M 289.144 218.513 C 289.038 218.299 288.927 218.086 288.811 217.877 C 288.528 218.047 288.231 218.217 287.928 218.378 C 287.969 218.437 288.01 218.497 288.051 218.558 C 288.44 218.546 288.806 218.531 289.144 218.513 Z M 291.214 218.287 C 291.145 218.023 291.059 217.729 290.958 217.415 L 290.239 217.235 C 290.401 217.62 290.552 218.019 290.678 218.383 C 290.889 218.355 291.069 218.323 291.214 218.287 Z M 274.296 211.099 C 273.575 211.635 272.88 212.259 272.381 212.763 L 273.412 213.021 C 273.854 212.67 274.318 212.337 274.718 212.103 C 274.574 211.766 274.433 211.43 274.296 211.099 Z M 287.647 216.586 L 284.883 215.894 C 285.535 216.26 286.144 216.652 286.62 217.016 C 286.955 216.895 287.301 216.749 287.647 216.586 Z M 293.144 211.569 C 293.358 211.134 293.632 210.278 293.7 210.101 L 293.346 210.013 C 293.315 210.087 293.285 210.16 293.254 210.23 C 293.133 210.418 292.937 210.721 292.77 210.959 C 292.638 211.149 292.264 211.649 291.982 211.973 C 291.98 211.977 291.977 211.98 291.974 211.983 C 292.091 212.31 292.199 212.624 292.297 212.922 C 292.699 212.35 293.024 211.815 293.144 211.569 Z M 278.683 214.341 C 278.012 213.989 277.36 213.597 276.784 213.197 C 276.324 213.307 275.897 213.429 275.537 213.554 Z M 292.488 192.371 C 292.473 192.263 292.446 192.156 292.407 192.051 C 292.407 192.051 292.439 192.175 292.488 192.371 Z M 273.547 199.587 C 273.547 199.586 273.547 199.585 273.547 199.585 C 273.547 199.585 273.547 199.586 273.547 199.587 Z M 274.324 199.975 C 274.394 200 274.467 200.026 274.545 200.054 C 274.548 200.05 274.55 200.046 274.553 200.042 C 274.499 199.886 274.449 199.738 274.404 199.601 C 274.377 199.722 274.351 199.847 274.324 199.975 Z M 89.179 200.013 C 89.005 199.972 88.836 199.937 88.684 199.913 C 88.014 199.802 86.546 200.164 84.824 200.754 C 86.078 200.908 87.316 201.053 88.471 201.157 C 88.761 200.698 89.002 200.311 89.179 200.013 Z M 79.796 219.005 C 79.809 219.016 79.819 219.024 79.825 219.029 C 79.808 219.016 79.812 219.016 79.796 219.005 Z M 89.52 199.339 C 89.52 199.339 89.519 199.338 89.519 199.338 C 89.519 199.338 89.519 199.339 89.52 199.339 Z M 291.634 218.051 C 291.634 218.05 291.634 218.048 291.634 218.046 C 291.634 218.046 291.634 218.048 291.634 218.051 Z M 116.112 208.991 C 116.101 208.987 116.09 208.984 116.078 208.982 C 116.078 208.982 116.09 208.985 116.112 208.991 Z M 123.533 210.792 C 123.532 210.791 123.531 210.791 123.529 210.79 C 123.529 210.79 123.531 210.791 123.533 210.792 Z M 280.904 212.775 C 281.635 213.085 282.374 213.301 283.094 213.372 C 282.292 213.069 281.517 212.848 280.904 212.775 Z M 129.241 212.611 C 129.241 212.611 129.24 212.611 129.24 212.611 C 129.24 212.611 129.24 212.611 129.241 212.611 Z M 289.234 229.251 C 289.234 229.25 289.234 229.248 289.234 229.246 C 289.234 229.246 289.234 229.248 289.234 229.251 Z M 287.635 236.898 C 287.635 236.894 287.636 236.889 287.636 236.885 C 287.636 236.885 287.636 236.89 287.635 236.898 Z M 271.515 278.252 L 268.229 277.429 C 269.81 276.393 271.391 275.356 272.717 274.353 L 269.029 273.429 C 269.543 273.092 270.057 272.755 270.562 272.419 C 269.372 271.999 268.151 271.66 267.071 271.513 C 266.558 271.868 266.063 272.221 265.596 272.569 L 269.029 273.429 C 267.448 274.465 265.867 275.502 264.541 276.505 L 268.229 277.429 C 268.217 277.437 268.205 277.445 268.193 277.453 C 269.19 277.745 270.207 278.122 271.146 278.52 C 271.271 278.43 271.394 278.341 271.515 278.252 Z M 273.482 270.379 L 269.85 269.65 C 270.3 269.353 270.749 269.056 271.193 268.76 C 269.229 268.081 267.205 267.638 265.882 267.92 C 265.358 268.031 264.769 268.245 264.175 268.512 L 269.85 269.65 C 269.773 269.701 269.696 269.752 269.619 269.803 C 270.671 270.101 271.752 270.498 272.746 270.92 C 272.999 270.739 273.245 270.558 273.482 270.379 Z M 275.034 266.009 C 272.453 264.781 268.728 263.484 266.682 263.92 C 264.803 264.32 262.092 266.032 261.298 266.815 C 261.028 267.081 260.744 267.419 260.476 267.77 L 261.723 268.02 C 262.929 267.16 264.877 266.073 266.338 265.762 C 268.066 265.395 270.964 266.241 273.388 267.253 C 273.976 266.833 274.53 266.417 275.034 266.009 Z M 280.635 271.813 L 280.015 271.689 C 280.145 272.103 280.252 272.478 280.33 272.801 C 280.461 272.436 280.607 271.875 280.635 271.813 Z M 277.509 263.286 C 276.431 262.231 273.512 260.614 271.821 260.294 C 270.1 259.968 266.818 260.417 265.516 260.967 C 263.835 261.678 261.677 263.629 261.106 264.376 C 260.538 265.119 259.897 266.374 259.755 266.724 C 259.659 266.962 259.525 267.4 259.476 267.569 L 259.065 267.487 C 259.237 266.715 259.585 265.427 259.885 264.685 C 260.129 264.079 260.957 262.506 261.705 261.598 C 262.413 260.737 264.941 258.707 266.839 258.089 C 268.206 257.643 271.419 257.48 273.028 257.897 C 274.547 258.29 276.959 259.916 278.037 260.755 C 279.698 264.266 281.385 268.701 281.319 269.75 C 281.275 270.45 281.106 271.623 280.943 272.363 C 280.836 272.852 280.643 273.545 280.444 274.155 C 280.361 274.861 280.181 275.824 280.039 276.453 C 279.95 276.77 279.822 277.186 279.675 277.619 C 279.681 277.697 279.681 277.765 279.677 277.824 C 279.622 278.528 279.405 279.719 279.239 280.453 C 279.145 280.787 279.008 281.232 278.851 281.689 C 278.772 282.4 278.585 283.405 278.439 284.053 C 278.225 284.817 277.781 286.158 277.408 286.917 C 277.327 287.084 277.193 287.321 277.025 287.596 C 277.204 288.247 277.298 288.748 277.277 289.024 C 277.222 289.728 277.005 290.919 276.839 291.653 C 276.625 292.417 276.181 293.758 275.808 294.517 C 275.499 295.149 274.45 296.787 273.542 297.682 C 272.714 298.499 269.971 300.231 268.062 300.638 C 265.476 301.188 260.268 299.019 257.954 297.644 C 256.265 293.238 258.051 296.407 258.051 296.407 C 257.875 295.931 257.947 295.424 258.211 294.892 C 258.304 295.101 258.397 295.308 258.49 295.512 C 260.781 296.863 265.961 299.025 268.518 298.48 C 270.397 298.08 273.108 296.368 273.902 295.585 C 274.742 294.758 275.714 293.239 275.945 292.769 C 276.158 292.334 276.433 291.478 276.5 291.301 L 274.314 290.754 C 273.111 291.617 271.137 292.724 269.662 293.038 C 267.772 293.44 264.482 292.39 261.945 291.259 C 260.184 292.536 258.769 293.769 258.211 294.892 C 256.751 291.614 255.298 287.903 255.344 287.312 C 255.364 287.056 255.482 286.454 255.504 286.288 C 255.522 286.243 255.549 286.163 255.583 286.063 L 259.726 287.101 C 259.003 285.469 258.289 283.748 257.765 282.369 C 257.018 283.22 256.256 284.422 256.056 284.831 C 255.892 285.165 255.698 285.73 255.583 286.063 L 255.159 285.957 C 255.373 285.193 255.819 283.842 256.192 283.083 C 256.377 282.705 256.827 281.966 257.353 281.242 C 257.084 280.467 256.928 279.912 256.944 279.712 C 256.964 279.456 257.082 278.854 257.104 278.688 C 257.122 278.643 257.149 278.563 257.183 278.463 L 258.582 278.813 C 258.274 278.005 258.03 277.312 257.886 276.82 C 257.783 276.991 257.703 277.134 257.656 277.231 C 257.492 277.565 257.298 278.13 257.183 278.463 L 256.759 278.357 C 256.973 277.593 257.419 276.242 257.792 275.483 C 257.812 275.442 257.835 275.396 257.861 275.347 C 257.881 275.234 257.897 275.14 257.904 275.088 C 257.922 275.043 257.949 274.963 257.983 274.863 L 258.119 274.897 C 258.34 274.53 258.632 274.083 258.953 273.642 C 258.883 273.442 258.821 273.256 258.768 273.087 C 258.624 273.318 258.515 273.509 258.456 273.631 C 258.292 273.965 258.098 274.53 257.983 274.863 L 257.558 274.757 C 257.767 274.012 258.197 272.71 258.563 271.941 C 258.604 271.65 258.686 271.223 258.704 271.088 C 258.722 271.043 258.749 270.963 258.783 270.863 L 259.134 270.951 C 259.338 270.631 259.578 270.278 259.833 269.933 C 259.719 269.625 259.622 269.351 259.547 269.12 C 259.414 269.336 259.312 269.515 259.256 269.631 C 259.092 269.965 258.898 270.53 258.783 270.863 L 258.358 270.757 C 258.573 269.993 259.019 268.642 259.392 267.883 C 259.403 267.859 259.416 267.833 259.43 267.806 C 259.443 267.719 259.453 267.653 259.457 267.637 C 259.458 267.63 259.465 267.606 259.476 267.569 L 259.551 267.584 C 259.976 266.832 260.87 265.495 261.658 264.718 C 262.486 263.901 265.229 262.169 267.138 261.762 C 269.539 261.251 274.201 263.085 276.708 264.45 C 277.061 264.05 277.335 263.661 277.509 263.286 Z M 270.118 290.88 C 270.707 290.755 271.378 290.5 272.047 290.186 L 269.403 289.524 C 268.301 289.502 266.961 289.199 265.62 288.766 C 265.104 289.104 264.59 289.442 264.086 289.779 C 266.261 290.599 268.632 291.197 270.118 290.88 Z M 277.544 285.169 C 277.758 284.734 278.032 283.878 278.1 283.701 L 278.013 283.679 C 277.676 284.266 277.085 285.162 276.482 285.888 C 276.558 286.106 276.63 286.318 276.697 286.522 C 277.099 285.95 277.424 285.415 277.544 285.169 Z M 260.365 286.451 C 260.176 286.685 260.016 286.916 259.89 287.142 L 263.903 288.147 C 262.512 287.594 261.236 286.967 260.365 286.451 Z M 276.302 284.385 C 276.567 284.125 276.844 283.796 277.107 283.453 L 275.914 283.154 C 275.798 283.237 275.674 283.323 275.545 283.41 C 275.712 283.825 275.873 284.235 276.024 284.634 C 276.133 284.544 276.226 284.46 276.302 284.385 Z M 263.545 283.659 C 262.971 284.075 262.435 284.486 261.952 284.89 C 263.637 285.745 266.016 286.71 268.079 287.139 C 268.884 286.595 269.654 286.056 270.353 285.525 C 268.429 285.532 265.712 284.625 263.545 283.659 Z M 278.9 280.101 L 278.635 280.035 C 278.682 280.205 278.722 280.365 278.756 280.513 C 278.823 280.321 278.875 280.166 278.9 280.101 Z M 259.552 275.256 C 259.488 275.09 259.425 274.927 259.365 274.769 C 259.263 274.885 259.161 275.007 259.061 275.133 Z M 271.718 283.28 C 272.177 283.183 272.685 283.007 273.203 282.785 C 273.263 282.695 273.318 282.605 273.368 282.516 L 270.964 281.914 C 269.789 282.046 268.577 282.07 267.733 281.911 C 267.394 281.847 267.006 281.731 266.593 281.578 C 266.288 281.778 265.985 281.979 265.686 282.179 C 267.861 282.999 270.232 283.597 271.718 283.28 Z M 279.7 276.101 L 279.613 276.08 C 279.554 276.189 279.493 276.301 279.43 276.414 C 279.454 276.504 279.478 276.592 279.499 276.676 C 279.593 276.412 279.668 276.183 279.7 276.101 Z M 260.346 271.254 C 260.319 271.188 260.292 271.121 260.266 271.056 C 260.223 271.103 260.18 271.152 260.136 271.202 Z M 215.4 276.565 L 208.668 284.401 C 209.217 285.073 209.756 285.631 210 285.838 C 210.374 286.156 210.532 286.258 209.637 285.68 L 208.306 284.822 L 208.232 284.908 L 207.032 283.877 L 207.671 283.021 C 207.935 283.452 208.262 283.897 208.59 284.306 L 215.651 274.848 C 215.803 273.794 215.944 272.761 216.057 271.789 L 220.162 266.29 L 221.564 267.194 C 222.464 267.775 223.522 268.459 224.24 269.068 C 224.772 269.52 226.269 271.138 226.957 272.46 C 227.11 272.755 227.265 273.167 227.407 273.655 C 229.265 273.819 231.561 274.789 232.156 275.122 C 232.791 275.478 233.767 276.153 234.406 276.631 C 234.919 277.031 236.186 278.296 237.405 279.956 C 238.085 280.148 238.693 280.365 238.968 280.485 C 239.514 280.725 240.275 281.142 240.627 281.354 C 241.178 281.686 241.957 282.205 242.532 282.61 C 243.331 283.173 244.808 284.529 246.118 285.874 C 246.83 286.164 247.604 286.56 247.927 286.749 C 248.481 287.074 249.273 287.614 249.754 287.97 C 250.663 288.643 252.722 290.739 254.011 292.306 C 254.499 293.301 255.864 296.765 255.634 299.195 C 255.407 301.595 252.484 306.354 250.216 307.676 C 248.494 308.681 245.172 309.234 243.955 309.157 C 242.071 309.038 239.656 308.021 239.044 307.678 C 238.409 307.322 237.433 306.647 236.794 306.169 C 235.679 305.3 235.326 304.869 235.326 304.869 C 235.293 304.842 235.417 304.633 235.665 304.278 C 236.336 305.039 236.813 305.673 236.743 305.693 C 236.768 305.708 236.793 305.724 236.814 305.736 C 236.993 305.841 237.91 306.304 238.591 306.533 C 239.311 306.776 241.877 307.229 243.583 306.985 C 245.104 306.768 248.677 305.114 250.13 303.521 C 251.612 301.898 252.708 297.886 253 296.125 L 248.863 296.125 C 248.388 297.832 246.38 300.889 244.982 301.975 C 242.572 303.848 238.16 304.098 235.92 303.922 C 235.824 304.053 235.739 304.172 235.665 304.278 C 235.549 304.147 235.427 304.011 235.301 303.874 C 235.297 303.867 235.294 303.861 235.291 303.853 C 235.055 303.819 234.868 303.78 234.739 303.737 C 233.862 303.45 232.687 302.853 232.246 302.594 C 231.659 302.25 230.751 301.648 230.023 301.125 C 228.649 300.138 227.981 299.476 227.981 299.476 C 227.947 299.45 228.176 299.088 228.595 298.484 C 228.697 298.695 228.786 298.872 228.853 298.999 C 229.593 299.773 230.091 300.417 230.166 300.647 C 230.602 300.831 232.051 301.312 233.098 301.44 C 233.39 301.476 233.841 301.481 234.38 301.452 C 233.962 300.093 233.606 298.451 233.731 297.124 C 233.75 296.923 233.788 296.706 233.844 296.475 C 232.642 297.064 231.457 297.49 230.73 297.594 C 230.259 297.661 229.724 297.676 229.178 297.657 C 228.957 297.967 228.761 298.244 228.595 298.484 C 228.472 298.227 228.331 297.921 228.19 297.59 C 227.063 297.479 226.032 297.266 225.588 297.116 C 224.779 296.844 223.676 296.286 223.273 296.051 C 222.719 295.726 221.927 295.186 221.446 294.83 C 220.537 294.157 220 293.55 220 293.55 C 219.969 293.527 220.104 293.302 220.366 292.92 C 220.888 293.747 221.267 294.225 221.149 294.16 C 221.201 294.196 221.221 294.213 221.397 294.312 C 221.795 294.535 224.054 295.485 225.856 295.599 C 226.227 295.622 226.8 295.586 227.466 295.494 C 227.455 295.446 227.445 295.398 227.436 295.351 C 227.243 294.35 227.242 291.9 227.584 290.543 L 232.721 290.543 C 233.071 289.803 233.461 289.15 233.883 288.688 C 234.654 287.843 236.016 286.983 237.356 286.325 C 237.412 286.094 237.45 285.877 237.469 285.676 C 237.554 284.775 237.416 283.726 237.187 282.72 C 235.183 282.923 232.956 283.458 231.482 284.604 C 230.072 285.7 228.035 288.813 227.594 290.5 C 227.591 290.514 227.587 290.529 227.584 290.543 L 223.4 290.543 C 223.463 290.006 223.593 289.191 223.78 288.326 C 222.252 290.335 220.97 292.043 220.366 292.92 C 219.841 292.089 219.172 290.905 218.717 289.562 L 222.544 287.189 C 221.174 287.951 219.557 288.303 218.408 288.464 C 218.491 288.839 218.597 289.206 218.717 289.562 L 217.195 290.505 C 217.006 290.125 216.683 289.367 216.373 288.438 C 213.905 287.673 215.346 287.565 215.346 287.565 C 213.845 287.111 214.623 281.838 215.4 276.565 Z M 239.357 300.35 C 240.646 299.701 242.969 297.583 243.872 296.125 L 242 296.125 C 243.086 294.754 244.173 293.383 245.144 292.147 C 245.265 291.518 245.352 290.95 245.4 290.543 L 239.282 290.543 C 238.751 291.943 238.046 293.313 237.317 294.112 C 236.676 294.814 235.628 295.527 234.522 296.125 L 242 296.125 C 240.718 297.743 239.436 299.361 238.343 300.758 C 238.71 300.638 239.054 300.503 239.357 300.35 Z M 235.893 278.913 L 234.82 279.578 C 235.215 279.566 235.547 279.576 235.781 279.605 C 235.923 279.622 236.072 279.646 236.226 279.674 C 236.094 279.347 235.977 279.085 235.893 278.913 Z M 232.826 276.344 C 232.752 276.316 232.679 276.29 232.609 276.267 C 231.924 276.036 229.566 275.614 227.87 275.784 C 228.107 277.314 228.177 278.986 227.895 280.152 C 227.679 281.045 227.146 282.075 226.478 283.071 C 227.484 282.055 228.668 281.1 229.463 280.7 C 229.535 280.664 229.609 280.629 229.685 280.595 C 231.138 278.682 232.32 277.1 232.826 276.344 Z M 222.854 286.997 L 224.424 286.023 C 224.525 285.749 224.633 285.495 224.746 285.272 C 224.068 286.014 223.396 286.628 222.854 286.997 Z M 207.441 282.615 C 206.72 281.229 205.978 277.182 206.513 274.974 C 207.122 272.458 210.262 268.852 211.814 267.983 C 213.334 267.132 215.139 266.801 216.176 266.675 C 216.413 267.794 216.306 269.642 216.057 271.789 L 207.671 283.021 C 207.587 282.883 207.51 282.747 207.441 282.615 Z M 215.454 265.565 C 215.511 265.582 215.565 265.606 215.615 265.637 C 216.377 265.98 219.493 267.4 217.022 266.598 C 216.999 266.6 216.678 266.614 216.176 266.675 C 216.068 266.163 215.887 265.803 215.615 265.637 C 215.615 265.637 215.615 265.637 215.615 265.637 C 215.514 265.592 215.454 265.565 215.454 265.565 Z M 233.089 275.868 C 233.089 275.868 233.089 275.868 233.088 275.868 C 233.088 275.868 233.089 275.868 233.089 275.868 Z M 240.179 282.64 C 239.844 282.621 239.468 282.612 239.063 282.616 C 239.225 282.935 239.375 283.259 239.509 283.586 C 239.765 283.229 239.99 282.911 240.179 282.64 Z M 240.82 281.611 C 240.82 281.611 240.819 281.61 240.819 281.61 C 240.819 281.61 240.819 281.61 240.82 281.611 Z M 248.384 287.901 C 248.168 287.825 247.937 287.748 247.696 287.675 C 247.793 287.867 247.911 288.111 248.038 288.386 C 248.173 288.201 248.289 288.039 248.384 287.901 Z M 248.676 287.382 C 248.675 287.382 248.675 287.382 248.674 287.381 C 248.674 287.381 248.675 287.382 248.676 287.382 Z" style=""/>
    <path d="M 924.626 1167.54 L 491.21 1167.54 L 707.918 792.134 Z" style="" transform="matrix(0.125852, 0.992049, -0.992055, 0.125805, 867.465759, -210.545563)"/>
    <path d="M 924.626 1167.54 L 491.21 1167.54 L 707.918 792.134 Z" style="" transform="matrix(0.125852, 0.992049, -0.992055, 0.125805, 867.465759, -210.545563)"/>
  </g>
  <g id="telegram" transform="matrix(0.700004, 0, 0, 0.700004, 41.299992, 35.115067)">
    <g>
      <path d="M12.408,28.188c-0.865,0-0.717-0.327-1.016-1.148l-2.54-8.362L28.408,7.076L12.408,28.188z" style="fill: rgb(29, 29, 60); stroke: rgb(246, 246, 247); stroke-miterlimit: 2; paint-order: fill; stroke-width: 1.02272px;"/>
      <path d="M12.408,28.188c0.667,0,0.962-0.305,1.333-0.667l3.556-3.458l-4.436-2.674L12.408,28.188z" style="fill: rgb(29, 29, 60); stroke: rgb(246, 246, 247); stroke-miterlimit: 2; paint-order: fill; stroke-width: 1.02272px;"/>
      <path d="M12.861,21.391l10.747,7.94c1.228,0.676,2.111,0.326,2.417-1.139L30.4,7.577    c0.448-1.796-0.684-2.61-1.858-2.078L2.854,15.405c-1.754,0.703-1.742,1.682-0.32,2.117l6.592,2.058l15.261-9.628    c0.721-0.437,1.382-0.202,0.84,0.28L12.861,21.391z" style="fill: rgb(29, 29, 60); stroke: rgb(246, 246, 247); stroke-miterlimit: 2; paint-order: fill; stroke-width: 1.02272px;"/>
      <path d="M24.687,30.163c-0.402,0-0.843-0.132-1.32-0.395l-10.803-7.976c-0.121-0.089-0.195-0.228-0.203-0.378    c-0.007-0.15,0.053-0.295,0.165-0.396L25.322,9.503c0.205-0.185,0.521-0.169,0.706,0.037c0.185,0.205,0.168,0.521-0.037,0.706    l-12.34,11.106l10.254,7.576c0.271,0.145,0.729,0.329,1.055,0.178c0.332-0.152,0.496-0.637,0.576-1.017l4.375-20.617    c0.17-0.681,0.088-1.229-0.215-1.481c-0.231-0.192-0.575-0.206-0.947-0.038L3.033,15.871C2.244,16.188,1.996,16.514,2,16.622    c0.003,0.071,0.173,0.267,0.68,0.422l6.375,1.99l6.999-4.416c0.234-0.146,0.542-0.077,0.689,0.156    c0.147,0.233,0.078,0.542-0.156,0.689l-7.194,4.539C9.269,20.08,9.116,20.1,8.977,20.057l-6.592-2.058    c-1.17-0.358-1.37-0.99-1.384-1.335c-0.02-0.473,0.253-1.157,1.667-1.723l25.695-9.908c0.697-0.318,1.445-0.25,1.974,0.191    c0.613,0.511,0.813,1.413,0.549,2.474l-4.371,20.598c-0.184,0.878-0.566,1.457-1.137,1.719    C25.163,30.114,24.933,30.163,24.687,30.163z" style="fill: rgb(29, 29, 60); stroke: rgb(246, 246, 247); stroke-miterlimit: 2; paint-order: fill; stroke-width: 1.02272px; visibility: hidden;"/>
    </g>
    <path d="M24.687,30.163c-0.402,0-0.843-0.132-1.32-0.395l-6.72-4.959c-0.222-0.164-0.27-0.478-0.105-0.699   c0.164-0.222,0.478-0.27,0.699-0.105l6.664,4.923c0.271,0.145,0.729,0.329,1.055,0.178c0.332-0.152,0.496-0.637,0.576-1.017   l4.375-20.617c0.17-0.681,0.088-1.229-0.215-1.481c-0.231-0.192-0.575-0.206-0.947-0.038L3.033,15.871   C2.244,16.188,1.996,16.514,2,16.622c0.003,0.071,0.173,0.267,0.68,0.422l6.594,2.058c0.158,0.049,0.281,0.174,0.33,0.332   l2.267,7.461c0.061,0.167,0.108,0.333,0.149,0.477c0.032,0.114,0.072,0.256,0.099,0.298c-0.004-0.005,0.076,0.019,0.289,0.02   c0.447,0,0.617-0.167,0.957-0.498l1.66-1.614c0.198-0.194,0.514-0.188,0.707,0.01c0.192,0.198,0.188,0.515-0.01,0.707L14.09,27.88   c-0.402,0.393-0.828,0.809-1.682,0.809c-0.98,0-1.178-0.434-1.351-1.046c-0.035-0.124-0.075-0.267-0.135-0.432l-2.198-7.233   l-6.339-1.979c-1.17-0.358-1.37-0.99-1.384-1.335c-0.02-0.473,0.253-1.157,1.667-1.723l25.695-9.908   c0.697-0.318,1.445-0.25,1.974,0.191c0.613,0.511,0.813,1.413,0.549,2.474l-4.371,20.598c-0.184,0.878-0.566,1.457-1.137,1.719   C25.163,30.114,24.933,30.163,24.687,30.163z" style="fill: rgb(29, 29, 60); stroke: rgb(246, 246, 247); stroke-miterlimit: 2; paint-order: fill; stroke-width: 1.02272px; visibility: hidden;"/>
    <g>
      <g>
        <g>
          <g style="visibility: hidden;">
            <g>
              <g>
                <path d="M18.5,14c0,0.275-0.225,0.5-0.5,0.5l0,0c-0.275,0-0.5-0.225-0.5-0.5l0,0c0-0.275,0.225-0.5,0.5-0.5         l0,0C18.275,13.5,18.5,13.725,18.5,14L18.5,14z" style="fill: rgb(29, 29, 60); stroke: rgb(246, 246, 247); stroke-miterlimit: 2; paint-order: fill; stroke-width: 1.02272px;"/>
              </g>
            </g>
          </g>
        </g>
      </g>
    </g>
  </g>
</svg>