
<svg width="55px" height="46px" viewBox="0 0 55 46" version="1.1" xmlns="http://www.w3.org/2000/svg" xmlns:xlink="http://www.w3.org/1999/xlink">
    <g id="Website" stroke="none" stroke-width="1" fill="none" fill-rule="evenodd">
        <g id="Home" transform="translate(-1620.000000, -984.000000)" fill="#FFFFFF" fill-rule="nonzero">
            <g id="twitter" transform="translate(1620.000000, 984.000000)">
                <path d="M53.7529596,5.19808822 C52.8883306,5.58141285 51.9996362,5.90457442 51.0920335,6.16757293 C52.1738052,4.94514848 52.9892658,3.51092139 53.4865232,1.95615886 C53.5979126,1.60539105 53.4811183,1.22227479 53.1929925,0.993300627 C52.9048666,0.764326464 52.5052719,0.7370673 52.1887201,0.92479215 C50.269452,2.06418881 48.1803496,2.88938426 46.0005199,3.36913125 C43.7885199,1.21308289 40.8230425,0.00444578541 37.7341157,-2.64109884e-16 C34.3375104,0.00368626699 31.1066078,1.46824282 28.8651554,4.02026787 C26.6237029,6.57229291 25.5883054,9.96516923 26.0229467,13.3338526 C17.9054498,12.6112501 10.4235309,8.64188478 5.27356742,2.32573193 C5.08952626,2.10014762 4.80649908,1.97924284 4.51627308,2.00222764 C4.22604709,2.02521244 3.96557914,2.18915998 3.81934035,2.44090121 C2.77124747,4.24397301 2.21965532,6.29257439 2.22072195,8.37813558 C2.22072195,11.2229888 3.23489922,13.9217316 5.02947729,16.0308766 C4.48353442,15.8420357 3.95498648,15.6062308 3.44976728,15.3261093 C3.17794586,15.1746863 2.84665578,15.1767695 2.5767601,15.3315988 C2.30686441,15.4864282 2.13783452,15.7713604 2.13133684,16.0824449 L2.13133684,16.2388689 C2.13133684,20.4846618 4.41753305,24.3093134 7.91042831,26.3943931 C7.60952882,26.3642868 7.31013148,26.3206963 7.01313927,26.2637533 C6.70590364,26.205265 6.39057297,26.3129052 6.18322911,26.5470486 C5.97588524,26.781192 5.90717781,27.1072275 6.00239989,27.4051324 C7.27870645,31.390393 10.5696049,34.402036 14.6521287,35.3208719 C11.3055243,37.4174169 7.43320272,38.5224322 3.48414617,38.5077951 C2.64873914,38.5077951 1.80645632,38.4579457 0.983081899,38.3616848 C0.575218434,38.318159 0.190550704,38.55943 0.0521788197,38.9455651 C-0.0861930651,39.3317002 0.0576822261,39.7623751 0.400359708,39.9878063 C5.53780865,43.286707 11.5153287,45.0391502 17.6207459,45.0363497 C29.6430438,45.0363497 37.165145,39.3672673 41.3559318,34.6109479 C46.5832421,28.6805893 49.5810813,20.8318886 49.5810813,13.0760109 C49.5810813,12.7511304 49.5759245,12.422812 49.5656108,12.0979315 C51.6292535,10.5435029 53.415696,8.65187299 54.8496462,6.50276711 C55.0697479,6.17461271 55.0462377,5.74043616 54.7919885,5.43796733 C54.5377394,5.1354985 54.114071,5.0376868 53.7529596,5.19808822 L53.7529596,5.19808822 Z" id="Path"></path>
            </g>
        </g>
    </g>
</svg>