<svg xmlns="http://www.w3.org/2000/svg" width="151" height="115" stroke="#000" stroke-linecap="round" stroke-linejoin="round" fill="#fff" fill-rule="evenodd"><path d="M0 8.4606v8.4618l3.2547-.0368c3.2356-.0535 3.2356-.0535 4.2514.4554 1.2237.6187 2.6549 1.965 3.2562 3.0567l.433.8005v36.4852 36.483l-.4149.6555c-.5833.8901-2.0686 2.2195-3.0849 2.7462-.7727.3825-1.0914.4186-4.2514.4738L0 98.1155v8.4433V115h22.4853 22.4838v-8.4595-8.4618h-5.6465-5.6435V60.5032l.3758-37.5754c.2826 0 .433.2185.6404.9453.1684.529 5.9261 20.944 12.8131 45.3633L60.2459 114.31l.2075.69h10.1775 10.1805l1.8612-6.5137 3.3133-11.5898 4.044-14.1038 4.2333-14.8291 6.5851-23.0177 5.6069-19.6169c1.3377-4.6392 1.2624-6.8242 1.2624 35.1742v37.4835l-5.589.0552-5.6074.0368v8.4618V115h26.9066 26.9056v-8.4412-8.4433l-3.5198-.0736c-3.198-.0552-3.611-.0913-4.2884-.4554-1.1867-.6187-2.3142-1.656-2.9158-2.6749l-.565-.9269V57.665 21.362l.469-.9275c.5472-1.0557 2.1077-2.566 3.2171-3.1119.6224-.3082 1.2809-.3818 4.1792-.4905l3.4237-.1466v-8.333V0h-28.1113-28.1092l-.2075.5831c-.1112.3266-1.6927 5.9133-3.4997 12.427L85.589 30.205l-3.0277 10.7365-3.0852 11.0091-2.8229 10.135c-.8275 2.9671-1.356 4.5127-1.5063 4.5127s-.3758-.4186-.5262-.9637c-.3397-1.1476-1.4307-5.059-4.3466-15.5942L59.1725 10.0453 56.3703 0H28.1859 0v8.4606z" stroke="none" fill-rule="nonzero"/></svg>