<svg width="17" height="18" viewBox="0 0 17 18" fill="none" xmlns="http://www.w3.org/2000/svg">
<path d="M6.83945 7.53948C5.91457 7.53948 5.16003 8.29403 5.16003 9.21891C5.16003 10.145 5.91337 10.8983 6.83945 10.8983C7.54241 10.8983 7.97162 10.5121 8.30151 10.0361C8.20314 9.87772 8.12061 9.72129 8.03904 9.57135C7.74466 10.0577 7.41477 10.4185 6.83945 10.4185C6.17776 10.4185 5.63986 9.8806 5.63986 9.21891C5.63986 8.55362 6.17416 8.01932 6.83945 8.01932C7.2274 8.01932 7.47403 8.15799 7.70171 8.39431C7.9294 8.63039 8.12157 8.97155 8.31638 9.33143C8.51144 9.69131 8.70913 10.0699 8.99871 10.3734C9.28829 10.6771 9.68751 10.8983 10.1983 10.8983C11.1232 10.8983 11.8777 10.1438 11.8777 9.21891C11.8777 8.29283 11.1244 7.53948 10.1983 7.53948C9.49918 7.53948 9.06709 7.91352 8.73624 8.3792C8.83461 8.53466 8.92458 8.68749 9.00615 8.83648C9.29861 8.36408 9.62489 8.01932 10.1983 8.01932C10.86 8.01932 11.3979 8.55721 11.3979 9.21891C11.3979 9.8842 10.8636 10.4185 10.1983 10.4185C9.81683 10.4185 9.57691 10.2798 9.35115 10.0435C9.12515 9.80742 8.93225 9.46626 8.73624 9.10639C8.54047 8.74651 8.33894 8.36792 8.04648 8.06418C7.75402 7.76069 7.35479 7.53948 6.83945 7.53948Z" fill="#A9A7BE"/>
<path fill-rule="evenodd" clip-rule="evenodd" d="M15.0419 7.01577H16.7604L16.6354 6.62451C15.5382 3.18842 12.319 0.699951 8.51882 0.699951C3.81401 0.699951 0 4.51396 0 9.21877C0 13.9236 3.81401 17.7376 8.51882 17.7376C12.1308 17.7376 15.218 15.4894 16.457 12.3163L16.6168 11.9071H14.8567L14.7765 12.0822C13.6901 14.4524 11.2968 16.0988 8.51882 16.0988C4.71909 16.0988 1.63879 13.0185 1.63879 9.21877C1.63879 5.41904 4.71909 2.33875 8.51882 2.33875C11.475 2.33875 13.9957 4.20313 14.9692 6.82037L15.0419 7.01577Z" fill="#A9A7BE"/>
</svg>
