<svg width="30" height="31" viewBox="0 0 30 31" fill="none" xmlns="http://www.w3.org/2000/svg">
<path fill-rule="evenodd" clip-rule="evenodd" d="M15 30.074C23.2843 30.074 30 23.3582 30 15.074C30 6.7897 23.2843 0.0739746 15 0.0739746C6.71573 0.0739746 0 6.7897 0 15.074C0 23.3582 6.71573 30.074 15 30.074ZM6.8922 9.93313C7.46346 9.38302 8.23826 9.07397 9.04615 9.07397H20.9538C21.7617 9.07397 22.5365 9.38302 23.1078 9.93313C23.6791 10.4832 24 11.2293 24 12.0073V18.1406C24 18.9186 23.6791 19.6647 23.1078 20.2148C22.5365 20.7649 21.7617 21.074 20.9538 21.074H9.04615C8.23826 21.074 7.46346 20.7649 6.8922 20.2148C6.32093 19.6647 6 18.9186 6 18.1406V12.0073C6 11.2293 6.32093 10.4832 6.8922 9.93313ZM13.1252 17.858L18.5252 15.1913V15.194C18.5479 15.1828 18.5669 15.1658 18.5802 15.1448C18.5935 15.1239 18.6006 15.0998 18.6006 15.0753C18.6006 15.0508 18.5935 15.0267 18.5802 15.0058C18.5669 14.9848 18.5479 14.9678 18.5252 14.9566L13.1252 12.29C13.1042 12.2795 13.0807 12.2744 13.0571 12.2751C13.0334 12.2758 13.0103 12.2824 12.9901 12.2942C12.9698 12.3059 12.953 12.3225 12.9412 12.3423C12.9295 12.3621 12.9233 12.3845 12.9231 12.4073V17.7406C12.9233 17.7634 12.9295 17.7858 12.9412 17.8056C12.953 17.8254 12.9698 17.842 12.9901 17.8538C13.0103 17.8656 13.0334 17.8721 13.0571 17.8729C13.0807 17.8736 13.1042 17.8685 13.1252 17.858Z" fill="white"/>
</svg>