<svg xmlns="http://www.w3.org/2000/svg" width="108" height="108" viewBox="0 0 108 108" stroke="#000" stroke-linecap="round" stroke-linejoin="round" fill="#fff" fill-rule="evenodd">
<rect x="33" y="27.0002" width="40" height="40" rx="2" fill="#1d1d3c" stroke="#a440f2"/>
<svg
    x="33"
    y="27.0002">
<path stroke-width="0.3"  d="M24.7283 10.5436c-.7688.1375-1.5203.4526-2.1342.888-.1894.1376-1.4286 1.3407-2.7596 2.6757-2.4728 2.4808-2.6334 2.6641-2.9834 3.4548-.4016.9167-.5106 2.2631-.2582 3.2085.2754 1.0255.9581 2.1026 1.6696 2.624l.2065.149.7631-.762.763-.762-.2926-.212c-1.0958-.8079-1.4171-2.4407-.7229-3.6726.1492-.2635.7286-.8766 2.5646-2.6985l2.7997-2.5496c.4189-.1891.4475-.1948 1.1819-.1948h.7516l.4877.2406c1.0154.5042 1.5949 1.4381 1.5949 2.5668 0 .9797-.2295 1.4094-1.331 2.5267l-.8549.8651.1434.4526c.1722.5271.3213 1.3522.3213 1.7475 0 .1547.0172.2807.0459.2807.0804 0 2.8055-2.773 2.9777-3.0365.2811-.4183.5221-.9339.6884-1.4725.1377-.4526.1492-.5958.1492-1.3636s-.0115-.911-.1492-1.3636c-.5278-1.7245-1.7556-2.9506-3.4653-3.4548-.5565-.1604-1.6408-.2349-2.1572-.1375zm-2.9604 7.7003l-.7573.762.2812.2177c.4876.3724.895 1.0084 1.0441 1.6272.0976.4125.0459 1.2089-.1032 1.5985-.0631.1661-.1951.424-.2926.5729-.0918.149-1.2278 1.3178-2.5129 2.5954l-2.7711 2.521c-.4189.189-.4475.1948-1.1819.1948h-.7516l-.4877-.2407c-1.0154-.5042-1.5949-1.438-1.5949-2.5667 0-.9798.2295-1.4095 1.331-2.5267l.8549-.8651-.1434-.4527c-.1836-.5729-.3213-1.3177-.3213-1.7188 0-.1719-.0172-.3094-.0459-.3094-.0804 0-2.8055 2.7731-2.9777 3.0366-.2811.4183-.5221.9339-.6884 1.4725-.1377.4526-.1492.5958-.1492 1.3636s.0115.9109.1492 1.3636c.5278 1.7245 1.7441 2.9391 3.4653 3.4548.4475.1375.6024.1547 1.3654.1547.7746.0057.9123-.0115 1.3655-.149.6024-.1833 1.0901-.424 1.5605-.7563.1894-.1375 1.4286-1.3406 2.7596-2.6756 2.4728-2.4808 2.6334-2.6642 2.9834-3.4548.4016-.9167.5106-2.2631.2582-3.2085-.2754-1.0255-.9581-2.1027-1.6696-2.624l-.2065-.149-.7631.762z" 
 fill="#f6f6f7" stroke="#f6f6f7" fill-rule="nonzero"/>
 </svg>
</svg>