<svg width="108" height="108" viewBox="0 0 108 108" fill="none" xmlns="http://www.w3.org/2000/svg">
<g filter="url(#filter0_d)">
<rect x="33" y="27.0002" width="42" height="42" rx="2" fill="#1D1D3C"/>
<rect x="33.5" y="27.5002" width="41" height="41" rx="1.5" stroke="#A440F2"/>
</g>
<mask id="path-3-inside-1" fill="white">
<path d="M51.283 38.9863L50.6484 39.0627C50.6484 39.0627 47.8014 39.3739 45.7222 41.0436H45.6979L45.6719 41.068C45.2055 41.497 45.0024 42.0243 44.6814 42.7953C44.3031 43.723 43.9811 44.6726 43.717 45.6391C43.1141 47.819 42.625 50.4596 42.625 52.8752V53.0783L42.7266 53.2815C43.4789 54.6018 44.8147 55.4427 46.0529 56.0236C47.2904 56.6046 48.3604 56.9125 49.0998 56.9377L49.5824 56.9629L49.8359 56.5315L50.7248 54.9568C51.6673 55.1697 52.7528 55.3127 54 55.3127C55.2472 55.3127 56.3327 55.1697 57.2752 54.9568L58.1641 56.5315L58.4184 56.9629L58.9002 56.9377C59.6396 56.9125 60.7096 56.6046 61.9471 56.0236C63.1853 55.4427 64.5211 54.6018 65.2734 53.2815L65.375 53.0783V52.8752C65.375 50.4596 64.8859 47.819 64.283 45.6391C64.0189 44.6726 63.6969 43.723 63.3186 42.7953C62.9976 42.0235 62.7945 41.497 62.3281 41.0688L62.3029 41.0428H62.2769C60.1994 39.3739 57.3516 39.0627 57.3516 39.0627L56.717 38.9863L56.4879 39.5705C56.4879 39.5705 56.2531 40.1636 56.1076 40.8405C55.4091 40.7441 54.7051 40.6931 54 40.6877C53.5653 40.6877 52.8138 40.7161 51.8924 40.8405C51.7461 40.1636 51.5113 39.5705 51.5113 39.5705L51.283 38.9863ZM50.1658 40.8405C50.2008 40.9542 50.2357 41.0525 50.2674 41.1451C49.2168 41.4051 48.0964 41.8016 47.0686 42.4395L47.9314 43.811C50.0391 42.5028 53.0664 42.3127 54 42.3127C54.9327 42.3127 57.9609 42.5028 60.0686 43.811L60.9314 42.4395C59.9036 41.8016 58.7832 41.4051 57.7326 41.1443C57.7643 41.0525 57.7992 40.9542 57.8342 40.8396C58.5922 40.9924 60.0401 41.3418 61.2361 42.2875C61.2296 42.2908 61.5408 42.7604 61.8203 43.4299C62.1063 44.1189 62.4232 45.0362 62.7092 46.0705C63.2584 48.0538 63.6899 50.4694 63.7248 52.5957C63.2129 53.3765 62.2647 54.081 61.2613 54.5514C60.632 54.8488 59.9663 55.0618 59.2812 55.1851L58.875 54.5002C59.1163 54.4108 59.3544 54.3133 59.5607 54.2207C60.8112 53.6715 61.4904 53.0783 61.4904 53.0783L60.4236 51.8596C60.4236 51.8596 59.967 52.2788 58.9002 52.7485C57.835 53.2181 56.2059 53.6877 54 53.6877C51.7941 53.6877 50.1658 53.2181 49.0998 52.7485C48.033 52.2788 47.5764 51.8596 47.5764 51.8596L46.5096 53.0783C46.5096 53.0783 47.1888 53.6715 48.4392 54.2207C48.6456 54.3133 48.8837 54.4116 49.125 54.5002L48.7188 55.186C48.0334 55.0622 47.3673 54.8486 46.7379 54.5506C45.7352 54.081 44.7863 53.3765 44.276 52.5957C44.3101 50.4694 44.7416 48.0538 45.2916 46.0705C45.5347 45.1734 45.8312 44.2916 46.1797 43.4299C46.4592 42.7604 46.7704 42.2908 46.7639 42.2875C47.9599 41.3418 49.4078 40.9924 50.1658 40.8405ZM51.1562 46.3752C50.5282 46.3752 49.9724 46.7335 49.6328 47.1877C49.2932 47.6419 49.125 48.2001 49.125 48.8127C49.125 49.4253 49.2932 49.9835 49.6328 50.4377C49.9724 50.8919 50.5282 51.2502 51.1562 51.2502C51.7843 51.2502 52.3401 50.8919 52.6797 50.4377C53.0193 49.9835 53.1875 49.4253 53.1875 48.8127C53.1875 48.2001 53.0193 47.6419 52.6797 47.1877C52.3401 46.7335 51.7843 46.3752 51.1562 46.3752ZM56.8438 46.3752C56.2157 46.3752 55.6599 46.7335 55.3203 47.1877C54.9807 47.6419 54.8125 48.2001 54.8125 48.8127C54.8125 49.4253 54.9807 49.9835 55.3203 50.4377C55.6599 50.8919 56.2157 51.2502 56.8438 51.2502C57.4718 51.2502 58.0276 50.8919 58.3672 50.4377C58.7068 49.9835 58.875 49.4253 58.875 48.8127C58.875 48.2001 58.7068 47.6419 58.3672 47.1877C58.0276 46.7335 57.4718 46.3752 56.8438 46.3752ZM51.1562 48.0002C51.2009 48.0002 51.2578 48.0165 51.3594 48.153C51.4609 48.2886 51.5625 48.5267 51.5625 48.8127C51.5625 49.0987 51.4609 49.3368 51.3594 49.4733C51.2578 49.609 51.2009 49.6252 51.1562 49.6252C51.1116 49.6252 51.0547 49.609 50.9531 49.4725C50.8188 49.2789 50.7478 49.0483 50.75 48.8127C50.75 48.5267 50.8516 48.2886 50.9531 48.1521C51.0547 48.0165 51.1116 48.0002 51.1562 48.0002ZM56.8438 48.0002C56.8884 48.0002 56.9453 48.0165 57.0469 48.153C57.1484 48.2886 57.25 48.5267 57.25 48.8127C57.25 49.0987 57.1484 49.3368 57.0469 49.4733C56.9453 49.609 56.8884 49.6252 56.8438 49.6252C56.7991 49.6252 56.7422 49.609 56.6406 49.4725C56.5063 49.2789 56.4353 49.0483 56.4375 48.8127C56.4375 48.5267 56.5391 48.2886 56.6406 48.1521C56.7422 48.0165 56.7991 48.0002 56.8438 48.0002Z"/>
</mask>
<path d="M51.283 38.9863L50.6484 39.0627C50.6484 39.0627 47.8014 39.3739 45.7222 41.0436H45.6979L45.6719 41.068C45.2055 41.497 45.0024 42.0243 44.6814 42.7953C44.3031 43.723 43.9811 44.6726 43.717 45.6391C43.1141 47.819 42.625 50.4596 42.625 52.8752V53.0783L42.7266 53.2815C43.4789 54.6018 44.8147 55.4427 46.0529 56.0236C47.2904 56.6046 48.3604 56.9125 49.0998 56.9377L49.5824 56.9629L49.8359 56.5315L50.7248 54.9568C51.6673 55.1697 52.7528 55.3127 54 55.3127C55.2472 55.3127 56.3327 55.1697 57.2752 54.9568L58.1641 56.5315L58.4184 56.9629L58.9002 56.9377C59.6396 56.9125 60.7096 56.6046 61.9471 56.0236C63.1853 55.4427 64.5211 54.6018 65.2734 53.2815L65.375 53.0783V52.8752C65.375 50.4596 64.8859 47.819 64.283 45.6391C64.0189 44.6726 63.6969 43.723 63.3186 42.7953C62.9976 42.0235 62.7945 41.497 62.3281 41.0688L62.3029 41.0428H62.2769C60.1994 39.3739 57.3516 39.0627 57.3516 39.0627L56.717 38.9863L56.4879 39.5705C56.4879 39.5705 56.2531 40.1636 56.1076 40.8405C55.4091 40.7441 54.7051 40.6931 54 40.6877C53.5653 40.6877 52.8138 40.7161 51.8924 40.8405C51.7461 40.1636 51.5113 39.5705 51.5113 39.5705L51.283 38.9863ZM50.1658 40.8405C50.2008 40.9542 50.2357 41.0525 50.2674 41.1451C49.2168 41.4051 48.0964 41.8016 47.0686 42.4395L47.9314 43.811C50.0391 42.5028 53.0664 42.3127 54 42.3127C54.9327 42.3127 57.9609 42.5028 60.0686 43.811L60.9314 42.4395C59.9036 41.8016 58.7832 41.4051 57.7326 41.1443C57.7643 41.0525 57.7992 40.9542 57.8342 40.8396C58.5922 40.9924 60.0401 41.3418 61.2361 42.2875C61.2296 42.2908 61.5408 42.7604 61.8203 43.4299C62.1063 44.1189 62.4232 45.0362 62.7092 46.0705C63.2584 48.0538 63.6899 50.4694 63.7248 52.5957C63.2129 53.3765 62.2647 54.081 61.2613 54.5514C60.632 54.8488 59.9663 55.0618 59.2812 55.1851L58.875 54.5002C59.1163 54.4108 59.3544 54.3133 59.5607 54.2207C60.8112 53.6715 61.4904 53.0783 61.4904 53.0783L60.4236 51.8596C60.4236 51.8596 59.967 52.2788 58.9002 52.7485C57.835 53.2181 56.2059 53.6877 54 53.6877C51.7941 53.6877 50.1658 53.2181 49.0998 52.7485C48.033 52.2788 47.5764 51.8596 47.5764 51.8596L46.5096 53.0783C46.5096 53.0783 47.1888 53.6715 48.4392 54.2207C48.6456 54.3133 48.8837 54.4116 49.125 54.5002L48.7188 55.186C48.0334 55.0622 47.3673 54.8486 46.7379 54.5506C45.7352 54.081 44.7863 53.3765 44.276 52.5957C44.3101 50.4694 44.7416 48.0538 45.2916 46.0705C45.5347 45.1734 45.8312 44.2916 46.1797 43.4299C46.4592 42.7604 46.7704 42.2908 46.7639 42.2875C47.9599 41.3418 49.4078 40.9924 50.1658 40.8405ZM51.1562 46.3752C50.5282 46.3752 49.9724 46.7335 49.6328 47.1877C49.2932 47.6419 49.125 48.2001 49.125 48.8127C49.125 49.4253 49.2932 49.9835 49.6328 50.4377C49.9724 50.8919 50.5282 51.2502 51.1562 51.2502C51.7843 51.2502 52.3401 50.8919 52.6797 50.4377C53.0193 49.9835 53.1875 49.4253 53.1875 48.8127C53.1875 48.2001 53.0193 47.6419 52.6797 47.1877C52.3401 46.7335 51.7843 46.3752 51.1562 46.3752ZM56.8438 46.3752C56.2157 46.3752 55.6599 46.7335 55.3203 47.1877C54.9807 47.6419 54.8125 48.2001 54.8125 48.8127C54.8125 49.4253 54.9807 49.9835 55.3203 50.4377C55.6599 50.8919 56.2157 51.2502 56.8438 51.2502C57.4718 51.2502 58.0276 50.8919 58.3672 50.4377C58.7068 49.9835 58.875 49.4253 58.875 48.8127C58.875 48.2001 58.7068 47.6419 58.3672 47.1877C58.0276 46.7335 57.4718 46.3752 56.8438 46.3752ZM51.1562 48.0002C51.2009 48.0002 51.2578 48.0165 51.3594 48.153C51.4609 48.2886 51.5625 48.5267 51.5625 48.8127C51.5625 49.0987 51.4609 49.3368 51.3594 49.4733C51.2578 49.609 51.2009 49.6252 51.1562 49.6252C51.1116 49.6252 51.0547 49.609 50.9531 49.4725C50.8188 49.2789 50.7478 49.0483 50.75 48.8127C50.75 48.5267 50.8516 48.2886 50.9531 48.1521C51.0547 48.0165 51.1116 48.0002 51.1562 48.0002ZM56.8438 48.0002C56.8884 48.0002 56.9453 48.0165 57.0469 48.153C57.1484 48.2886 57.25 48.5267 57.25 48.8127C57.25 49.0987 57.1484 49.3368 57.0469 49.4733C56.9453 49.609 56.8884 49.6252 56.8438 49.6252C56.7991 49.6252 56.7422 49.609 56.6406 49.4725C56.5063 49.2789 56.4353 49.0483 56.4375 48.8127C56.4375 48.5267 56.5391 48.2886 56.6406 48.1521C56.7422 48.0165 56.7991 48.0002 56.8438 48.0002Z" fill="#F6F6F7" stroke="#212138" stroke-width="0.6" mask="url(#path-3-inside-1)"/>
<defs>
<filter id="filter0_d" x="0" y="0.000244141" width="108" height="108" filterUnits="userSpaceOnUse" color-interpolation-filters="sRGB">
<feFlood flood-opacity="0" result="BackgroundImageFix"/>
<feColorMatrix in="SourceAlpha" type="matrix" values="0 0 0 0 0 0 0 0 0 0 0 0 0 0 0 0 0 0 127 0" result="hardAlpha"/>
<feMorphology radius="6" operator="erode" in="SourceAlpha" result="effect1_dropShadow"/>
<feOffset dy="6"/>
<feGaussianBlur stdDeviation="19.5"/>
<feColorMatrix type="matrix" values="0 0 0 0 0.945098 0 0 0 0 0.141176 0 0 0 0 1 0 0 0 0.43 0"/>
<feBlend mode="normal" in2="BackgroundImageFix" result="effect1_dropShadow"/>
<feBlend mode="normal" in="SourceGraphic" in2="effect1_dropShadow" result="shape"/>
</filter>
</defs>
</svg>
