<svg width="41" height="36" viewBox="0 0 41 36" fill="none" xmlns="http://www.w3.org/2000/svg">
<g clip-path="url(#clip0)">
<g filter="url(#filter0_dd)">
<path d="M1.53665 9.438C3.64115 7.1565 6.82565 6 11.0002 6H12.5002V10.2285L11.2942 10.47C9.23915 10.881 7.80965 11.6895 7.04465 12.876C6.64549 13.5152 6.41911 14.2471 6.38766 15H11.0002C11.398 15 11.7795 15.158 12.0608 15.4393C12.3421 15.7206 12.5002 16.1022 12.5002 16.5V27C12.5002 28.6545 11.1547 30 9.50015 30H0.500154C0.10233 30 -0.279201 29.842 -0.560506 29.5607C-0.84181 29.2794 -0.999846 28.8978 -0.999846 28.5V21L-0.995346 16.6215C-1.00885 16.455 -1.29385 12.51 1.53665 9.438ZM26.0002 30H17.0002C16.6023 30 16.2208 29.842 15.9395 29.5607C15.6582 29.2794 15.5002 28.8978 15.5002 28.5V21L15.5047 16.6215C15.4912 16.455 15.2062 12.51 18.0367 9.438C20.1412 7.1565 23.3257 6 27.5002 6H29.0002V10.2285L27.7942 10.47C25.7392 10.881 24.3097 11.6895 23.5447 12.876C23.1455 13.5152 22.9191 14.2471 22.8877 15H27.5002C27.898 15 28.2795 15.158 28.5608 15.4393C28.8421 15.7206 29.0002 16.1022 29.0002 16.5V27C29.0002 28.6545 27.6547 30 26.0002 30Z" fill="#D9A8FF"/>
<path d="M1.24264 9.16679L1.24249 9.16696C-1.64539 12.3012 -1.42059 16.2912 -1.39536 16.6366L-1.39985 20.9996V21V28.5C-1.39985 29.0039 -1.19967 29.4872 -0.843349 29.8435C-0.487029 30.1998 -0.00375569 30.4 0.500154 30.4H9.50015C11.3756 30.4 12.9002 28.8754 12.9002 27V16.5C12.9002 15.9961 12.7 15.5128 12.3437 15.1565C11.9873 14.8002 11.5041 14.6 11.0002 14.6H6.82689C6.90641 14.0655 7.09493 13.5514 7.38238 13.0904C8.06578 12.0323 9.37373 11.262 11.3726 10.8622L11.3727 10.8622L12.5787 10.6207L12.9002 10.5563V10.2285V6V5.6H12.5002H11.0002C6.75421 5.6 3.44641 6.77767 1.24264 9.16679ZM15.1002 20.9996V21V28.5C15.1002 29.0039 15.3003 29.4872 15.6567 29.8435C16.013 30.1998 16.4962 30.4 17.0002 30.4H26.0002C27.8756 30.4 29.4002 28.8754 29.4002 27V16.5C29.4002 15.9961 29.2 15.5128 28.8437 15.1565C28.4873 14.8002 28.0041 14.6 27.5002 14.6H23.3269C23.4064 14.0655 23.5949 13.5514 23.8824 13.0904C24.5658 12.0323 25.8737 11.262 27.8726 10.8622L27.8727 10.8622L29.0787 10.6207L29.4002 10.5563V10.2285V6V5.6H29.0002H27.5002C23.2542 5.6 19.9464 6.77767 17.7426 9.16679L17.7425 9.16696C14.8546 12.3012 15.0794 16.2912 15.1046 16.6366L15.1002 20.9996Z" stroke="#A440F2" stroke-width="0.8"/>
</g>
</g>
<defs>
<filter id="filter0_dd" x="-19.9659" y="-12.9565" width="67.9225" height="61.9131" filterUnits="userSpaceOnUse" color-interpolation-filters="sRGB">
<feFlood flood-opacity="0" result="BackgroundImageFix"/>
<feColorMatrix in="SourceAlpha" type="matrix" values="0 0 0 0 0 0 0 0 0 0 0 0 0 0 0 0 0 0 127 0" result="hardAlpha"/>
<feMorphology radius="2.04347" operator="erode" in="SourceAlpha" result="effect1_dropShadow"/>
<feOffset/>
<feGaussianBlur stdDeviation="1.5"/>
<feColorMatrix type="matrix" values="0 0 0 0 0.657004 0 0 0 0 0.260521 0 0 0 0 0.964479 0 0 0 0.63 0"/>
<feBlend mode="normal" in2="BackgroundImageFix" result="effect1_dropShadow"/>
<feColorMatrix in="SourceAlpha" type="matrix" values="0 0 0 0 0 0 0 0 0 0 0 0 0 0 0 0 0 0 127 0" result="hardAlpha"/>
<feMorphology radius="2.04347" operator="erode" in="SourceAlpha" result="effect2_dropShadow"/>
<feOffset/>
<feGaussianBlur stdDeviation="10.1"/>
<feColorMatrix type="matrix" values="0 0 0 0 0.643137 0 0 0 0 0.25098 0 0 0 0 0.94902 0 0 0 0.3 0"/>
<feBlend mode="normal" in2="effect1_dropShadow" result="effect2_dropShadow"/>
<feBlend mode="normal" in="SourceGraphic" in2="effect2_dropShadow" result="shape"/>
</filter>
<clipPath id="clip0">
<rect width="39.6634" height="36" fill="white" transform="translate(0.884766)"/>
</clipPath>
</defs>
</svg>
