<svg width="108" height="108" viewBox="0 0 108 108" fill="none" xmlns="http://www.w3.org/2000/svg">
<g filter="url(#filter0_d)">
<rect x="33" y="27.0002" width="42" height="42" rx="2" fill="#1D1D3C"/>
<rect x="33.5" y="27.5002" width="41" height="41" rx="1.5" stroke="#A440F2"/>
</g>
<path fill-rule="evenodd" clip-rule="evenodd" d="M66.1119 42.2694L63.8369 41.2944L65.0286 38.6944L62.2552 39.6152C61.3719 38.7918 60.2128 38.3281 59.0052 38.3152C56.3153 38.3211 54.1362 40.5003 54.1302 43.1902V44.2735C50.2952 45.0644 46.9477 42.9735 43.8386 39.3985C43.2969 42.2874 43.8386 44.4541 45.4636 45.8985L41.8994 45.3569C42.1836 47.725 44.1226 49.5499 46.5036 49.6902L43.5244 50.7735C44.6077 52.9402 46.5794 53.276 49.2119 53.4819C47.0602 54.9494 44.5033 55.707 41.8994 55.6485C55.7227 61.791 63.8369 52.7669 63.8369 44.8152V43.916L66.1119 42.2694Z" stroke="white" stroke-linecap="round" stroke-linejoin="round"/>
<defs>
<filter id="filter0_d" x="0" y="0.000244141" width="108" height="108" filterUnits="userSpaceOnUse" color-interpolation-filters="sRGB">
<feFlood flood-opacity="0" result="BackgroundImageFix"/>
<feColorMatrix in="SourceAlpha" type="matrix" values="0 0 0 0 0 0 0 0 0 0 0 0 0 0 0 0 0 0 127 0" result="hardAlpha"/>
<feMorphology radius="6" operator="erode" in="SourceAlpha" result="effect1_dropShadow"/>
<feOffset dy="6"/>
<feGaussianBlur stdDeviation="19.5"/>
<feColorMatrix type="matrix" values="0 0 0 0 0.945098 0 0 0 0 0.141176 0 0 0 0 1 0 0 0 0.43 0"/>
<feBlend mode="normal" in2="BackgroundImageFix" result="effect1_dropShadow"/>
<feBlend mode="normal" in="SourceGraphic" in2="effect1_dropShadow" result="shape"/>
</filter>
</defs>
</svg>
