<?xml version="1.0" encoding="UTF-8"?>
<!DOCTYPE svg PUBLIC "-//W3C//DTD SVG 1.1//EN" "http://www.w3.org/Graphics/SVG/1.1/DTD/svg11.dtd">
<svg xmlns="http://www.w3.org/2000/svg" version="1.1" width="2847px" height="2837px" style="shape-rendering:geometricPrecision; text-rendering:geometricPrecision; image-rendering:optimizeQuality; fill-rule:evenodd; clip-rule:evenodd" xmlns:xlink="http://www.w3.org/1999/xlink">
<g><path style="opacity:0.997" fill="#FFFFFF" d="M 1386.5,48.5 C 1736.99,42.7004 2046.32,150.867 2314.5,373C 2559.55,583.786 2714.05,848.619 2778,1167.5C 2829.86,1453.93 2796.53,1729.93 2678,1995.5C 2552.56,2263.27 2362.06,2471.44 2106.5,2620C 1836.69,2770.36 1548.35,2826.03 1241.5,2787C 920.281,2740.15 648.114,2600.32 425,2367.5C 217.155,2144.07 95.155,1879.73 59,1574.5C 26.366,1250.25 97.0327,950.918 271,676.5C 433.791,429.067 652.957,250.567 928.5,141C 1076.05,84.3236 1228.72,53.4903 1386.5,48.5 Z M 1376.5,153.5 C 1688.88,144.912 1967.88,235.745 2213.5,426C 2431.92,600.833 2578.75,823.667 2654,1094.5C 2721.38,1354.47 2709.72,1610.8 2619,1863.5C 2528.37,2103.76 2379.87,2299.93 2173.5,2452C 2017.39,2565.03 1844.06,2639.19 1653.5,2674.5C 1652.81,2673.97 1652.31,2673.31 1652,2672.5C 1641.1,2585.59 1647.43,2499.92 1671,2415.5C 1691.02,2343.76 1718.69,2275.09 1754,2209.5C 1798.66,2127.22 1849.99,2049.56 1908,1976.5C 1998.9,1863.25 2098.06,1757.08 2205.5,1658C 2247.42,1616.42 2288.92,1574.59 2330,1532.5C 2366.27,1492.2 2396.27,1447.53 2420,1398.5C 2472.87,1276.8 2447.7,1174.64 2344.5,1092C 2301.6,1059.53 2254.93,1033.2 2204.5,1013C 2148.64,990.934 2091.64,972.268 2033.5,957C 1950.5,929.223 1868.5,898.89 1787.5,866C 1781.98,848.782 1773.48,833.282 1762,819.5C 1740.86,794.019 1716.36,772.519 1688.5,755C 1651.79,737.825 1613.13,729.158 1572.5,729C 1524.7,728.311 1477.53,733.478 1431,744.5C 1381.45,732.754 1331.28,724.921 1280.5,721C 1216.68,715.926 1153.68,720.926 1091.5,736C 1006.78,758.681 925.45,790.015 847.5,830C 783.769,863.474 726.936,906.307 677,958.5C 615.195,1028.78 574.528,1110.11 555,1202.5C 546.764,1240.82 540.764,1279.48 537,1318.5C 529.326,1417.25 520.659,1515.92 511,1614.5C 501.84,1708.12 486.84,1800.79 466,1892.5C 445.552,1979.35 417.052,2063.35 380.5,2144.5C 257.496,1966.72 184.663,1769.72 162,1553.5C 133.312,1240.56 207.312,954.897 384,696.5C 555.237,456.04 782.404,292.206 1065.5,205C 1167.23,175.268 1270.89,158.101 1376.5,153.5 Z M 1228.5,865.5 C 1313.05,862.212 1382.55,892.545 1437,956.5C 1489.44,1025.13 1503.78,1101.13 1480,1184.5C 1452.41,1264.43 1398.57,1317.93 1318.5,1345C 1221.15,1370.79 1136.98,1348.29 1066,1277.5C 1004.13,1206.01 986.466,1124.67 1013,1033.5C 1046.19,943.644 1109.69,888.811 1203.5,869C 1211.97,867.765 1220.31,866.599 1228.5,865.5 Z M 2118.5,1303.5 C 2149.72,1302.24 2169.56,1316.57 2178,1346.5C 2181.23,1370.49 2172.73,1388.99 2152.5,1402C 2125.28,1414.57 2102.12,1409.4 2083,1386.5C 2066.8,1357.52 2071.63,1332.68 2097.5,1312C 2104.15,1308.07 2111.15,1305.23 2118.5,1303.5 Z M 2367.5,1471.5 C 2369.08,1472 2369.58,1473 2369,1474.5C 2319.15,1517.99 2264.65,1554.82 2205.5,1585C 2082.48,1649.34 1952.48,1693.34 1815.5,1717C 1757.25,1726.13 1698.92,1726.8 1640.5,1719C 1576.98,1710.39 1519.98,1686.72 1469.5,1648C 1460.15,1639.99 1451.49,1631.32 1443.5,1622C 1443.63,1620.94 1444.13,1620.11 1445,1619.5C 1484.98,1645.39 1528.48,1662.89 1575.5,1672C 1629.05,1681.96 1683.05,1685.63 1737.5,1683C 1825.47,1680.81 1911.8,1667.81 1996.5,1644C 2090.58,1617.75 2180.91,1582.09 2267.5,1537C 2302.36,1517.27 2335.69,1495.44 2367.5,1471.5 Z"/></g>
<g><path style="opacity:0.994" fill="#FFFFFF" d="M 1232.5,939.5 C 1310.96,937.626 1368.13,971.293 1404,1040.5C 1427.73,1097.38 1424.06,1152.38 1393,1205.5C 1348.9,1268.95 1288.4,1294.78 1211.5,1283C 1144.25,1267.09 1100.09,1226.25 1079,1160.5C 1061.73,1087.37 1081.23,1026.2 1137.5,977C 1165.58,955.363 1197.25,942.863 1232.5,939.5 Z"/></g>
</svg>
