
<svg width="55px" height="42px" viewBox="0 0 55 42" version="1.1" xmlns="http://www.w3.org/2000/svg" xmlns:xlink="http://www.w3.org/1999/xlink">
    <g id="Website" stroke="none" stroke-width="1" fill="none" fill-rule="evenodd">
        <g id="Home" transform="translate(-1711.000000, -982.000000)" fill="#FFFFFF" fill-rule="nonzero">
            <g id="discord" transform="translate(1711.000000, 982.000000)">
                <path d="M46.5605458,3.47565227 C42.9947241,1.83870692 39.2315667,0.671378216 35.3653262,0.0029031856 C35.2930823,-0.010581282 35.2203312,0.0237647202 35.1848331,0.088114517 C34.6721856,1.01868708 34.2068052,1.97452672 33.7904658,2.9519899 C29.5639838,2.3191021 25.3576426,2.3191021 21.2179212,2.9519899 C20.8422167,2.05029909 20.2875684,0.947974316 19.8018638,0.088114517 C19.7650543,0.0251791524 19.6933559,-0.00866988043 19.6213707,0.0029031856 C15.7550585,0.670043992 11.9919873,1.83742674 8.4269257,3.47565227 C8.39641317,3.48870084 8.37070066,3.51089479 8.35333409,3.53917344 C1.22269495,14.1905899 -0.730968485,24.5817244 0.227271669,34.842718 C0.232692583,34.8938433 0.258705428,34.9405545 0.299313977,34.9720843 C5.00375412,38.4270165 9.56023641,40.5239899 14.0330567,41.9144839 C14.1043079,41.9356107 14.1811887,41.9102926 14.2259441,41.8509627 C15.2864858,40.4072768 16.2262177,38.8786255 17.0355941,37.2805367 C17.0578496,37.2362214 17.0601747,37.184524 17.0419871,37.1383898 C17.0237996,37.0922555 16.9868215,37.0560526 16.9403124,37.0388464 C15.4582728,36.4715787 14.0235218,35.7877472 12.6495345,34.9937745 C12.5988351,34.9638693 12.5663657,34.9106722 12.5629456,34.8519095 C12.5595256,34.7931469 12.5856044,34.7365422 12.6324922,34.7009573 C12.9206615,34.4848304 13.2088307,34.2601824 13.4846055,34.0332104 C13.5347566,33.9922427 13.6037931,33.983238 13.6627747,34.0099709 C22.6634152,38.1187064 32.4077183,38.1187064 41.302232,34.0099709 C41.3613733,33.9814198 41.4316804,33.989567 41.4827251,34.0308864 C41.7585,34.2578584 42.0466692,34.4848304 42.3371624,34.7009573 C42.3841999,34.7362985 42.4105512,34.7927417 42.4074426,34.8514943 C42.404334,34.9102469 42.3721737,34.9635942 42.3216694,34.9937745 C40.9512187,35.7943081 39.515598,36.4776532 38.0301169,37.0365225 C37.9835738,37.0543672 37.946791,37.0911268 37.9289169,37.1376586 C37.9110428,37.1841903 37.913757,37.2361218 37.9363844,37.2805367 C38.7592202,38.8698232 39.6975125,40.3966194 40.7437105,41.8486388 C40.7873442,41.9095232 40.8649995,41.9357201 40.9365979,41.9137092 C45.4303337,40.5239899 49.9875906,38.4262418 54.6920308,34.9720843 C54.7329566,34.9419612 54.7589249,34.89567 54.7632984,34.845042 C55.9097782,22.9813007 52.8421702,12.6761521 46.6318135,3.53994809 C46.6163689,3.51032873 46.5908043,3.48723814 46.5597712,3.47487762 L46.5605458,3.47565227 Z M18.3788346,28.5951781 C15.6698889,28.5951781 13.4365773,26.1077819 13.4365773,23.0517937 C13.4365773,19.9965801 15.6265086,17.5084093 18.3788346,17.5084093 C21.1544,17.5084093 23.3660214,20.0182703 23.3226411,23.0517937 C23.3226411,26.1077819 21.1327099,28.5951781 18.3796092,28.5951781 L18.3788346,28.5951781 Z M36.6551159,28.5951781 C33.9453955,28.5951781 31.7128586,26.1077819 31.7128586,23.0517937 C31.7128586,19.9965801 33.9020152,17.5084093 36.6551159,17.5084093 C39.4299067,17.5084093 41.641528,20.0182703 41.5973731,23.0517937 C41.5973731,26.1077819 39.4299067,28.5951781 36.6551159,28.5951781 Z" id="Shape"></path>
            </g>
        </g>
    </g>
</svg>