
<svg width="50px" height="51px" viewBox="0 0 50 51" version="1.1" xmlns="http://www.w3.org/2000/svg" xmlns:xlink="http://www.w3.org/1999/xlink">
    <g id="Website" stroke="none" stroke-width="1" fill="none" fill-rule="evenodd">
        <g id="Home" transform="translate(-1802.000000, -978.000000)" fill="#FFFFFF" fill-rule="nonzero">
            <g id="telegram" transform="translate(1802.000000, 978.000000)">
                <path d="M25.0076862,50.0048977 C13.1092388,50.013091 2.85529534,41.6305151 0.497636769,29.967987 C-1.32939961,20.9406547 1.9536819,11.6397578 9.04280967,5.75970199 C16.1319374,-0.120353805 25.879422,-1.62762081 34.4134685,1.83660196 C43.778385,5.64691618 49.928589,14.7202869 49.9993826,24.8304376 C50.0701762,34.9405882 44.0476368,44.0991953 34.7369974,48.0402801 C31.6594299,49.3444769 28.3501879,50.0137678 25.0076862,50.0080602 L25.0076862,50.0048977 Z M23.837043,32.8484882 L30.5858246,37.7967612 C30.8252661,37.9747952 31.1158078,38.0707288 31.4141836,38.0702776 C32.0805423,38.0693653 32.6556825,37.6030003 32.794261,36.9512098 L37.2533333,15.6029912 C37.3975282,14.9179113 36.9904554,14.2371876 36.3186942,14.0400496 L36.2546136,14.0400496 C35.9801096,13.9691468 35.6902338,13.9866487 35.4262546,14.0900637 L9.29856065,24.2538726 C8.91567821,24.4008551 8.66969809,24.7762308 8.68777428,25.1859576 C8.70585046,25.5956844 8.98393195,25.9479398 9.37827067,26.0606331 L16.0098317,28.0330653 L18.5105382,35.902476 C18.6160501,36.2429545 18.8762284,36.5135632 19.2122989,36.6323697 L19.2935719,36.6573768 L19.5936567,36.6573768 C19.755629,36.6594736 19.9159601,36.6247352 20.0625391,36.5557856 C20.1904992,36.4981503 20.3061753,36.4164341 20.4032604,36.3150926 L23.837043,32.8125406 L23.837043,32.8484882 Z" id="Shape"></path>
            </g>
        </g>
    </g>
</svg>