<?xml version="1.0" encoding="UTF-8"?>
<!DOCTYPE svg PUBLIC "-//W3C//DTD SVG 1.1//EN" "http://www.w3.org/Graphics/SVG/1.1/DTD/svg11.dtd">
<svg xmlns="http://www.w3.org/2000/svg" version="1.1" width="840px" height="834px" style="shape-rendering:geometricPrecision; text-rendering:geometricPrecision; image-rendering:optimizeQuality; fill-rule:evenodd; clip-rule:evenodd" xmlns:xlink="http://www.w3.org/1999/xlink">
<g><path style="opacity:0.991" fill="#a340f2" d="M 395.5,-0.5 C 411.5,-0.5 427.5,-0.5 443.5,-0.5C 571.23,5.09871 693.23,34.5987 809.5,88C 824.244,97.9723 833.077,111.806 836,129.5C 837.654,298.231 795.32,454.898 709,599.5C 652.406,690.937 580.906,768.937 494.5,833.5C 493.167,833.5 491.833,833.5 490.5,833.5C 490.5,719.167 490.5,604.833 490.5,490.5C 539.816,495.494 585.816,510.494 628.5,535.5C 645.656,516.842 662.656,498.008 679.5,479C 650.782,458.977 619.449,444.31 585.5,435C 546.927,423.894 507.594,417.394 467.5,415.5C 461.135,340.147 454.468,264.814 447.5,189.5C 447.667,187.833 447.833,186.167 448,184.5C 471.22,165.285 475.886,142.285 462,115.5C 441.01,89.4363 416.51,85.6029 388.5,104C 367.896,124.612 365.063,147.445 380,172.5C 384.972,177.13 389.472,181.963 393.5,187C 386.289,263.151 379.289,339.318 372.5,415.5C 314.508,417.864 258.841,430.364 205.5,453C 190.015,460.237 175.348,468.737 161.5,478.5C 178.171,497.669 195.004,516.669 212,535.5C 254.471,510.399 300.304,495.399 349.5,490.5C 349.5,604.833 349.5,719.167 349.5,833.5C 348.5,833.5 347.5,833.5 346.5,833.5C 169.594,699.178 60.0937,522.178 18,302.5C 6.89108,244.64 2.22442,186.307 4,127.5C 8.57582,106.835 20.4091,92.0013 39.5,83C 153.099,33.0987 271.766,5.26536 395.5,-0.5 Z"/></g>
</svg>
