<svg width="36" height="36" viewBox="0 0 36 36" fill="none" xmlns="http://www.w3.org/2000/svg">
<path d="M31.968 27.2444C33.7964 24.4817 34.7645 21.239 34.7498 17.9261C34.7302 13.4839 32.9469 9.23147 29.792 6.10415C26.6371 2.97683 22.3692 1.2308 17.927 1.25016C14.6142 1.2646 11.38 2.26109 8.63351 4.11363C5.88702 5.96617 3.75155 8.59154 2.49716 11.6578C1.24276 14.724 0.925788 18.0933 1.58632 21.3396C2.24684 24.586 3.8552 27.5636 6.20801 29.8958C8.56081 32.2281 11.5524 33.8103 14.8044 34.4423C18.0564 35.0744 21.4228 34.7279 24.4779 33.4466C27.533 32.1654 30.1396 30.007 31.968 27.2444Z" stroke="#E440F2" stroke-width="1.5"/>
<path d="M18.2723 4.1638C19.2129 3.99683 20.1757 3.99683 21.1163 4.1638C22.0661 4.31419 22.9842 4.62178 23.8329 5.07394C24.6769 5.53771 25.4062 6.16728 26.132 6.75742C26.8578 7.34757 27.5801 7.95162 28.2676 8.61249C28.9695 9.26306 29.582 10.0038 30.0891 10.8154C30.6112 11.6205 31.0392 12.483 31.3644 13.3858C31.9824 15.2015 32.1969 17.1574 31.8885 19.0229H31.7969C31.4873 17.1736 31.0676 15.4113 30.4056 13.7348C30.0949 12.8906 29.7293 12.0676 29.3111 11.271C28.8748 10.4744 28.3941 9.70294 27.8711 8.96032C27.3393 8.20957 26.6875 7.55149 25.9418 7.01249C25.1905 6.47684 24.3268 6.13017 23.4908 5.8009C22.6549 5.47162 21.8259 5.13075 20.954 4.88032C20.0821 4.62988 19.1963 4.44206 18.2711 4.26003L18.2723 4.1638Z" fill="#E440F2"/>
<path d="M25.5058 12.7127C24.4322 12.4019 23.3192 11.9614 22.1922 11.5161C22.1273 11.2332 21.8769 10.8808 21.3702 10.4506C20.634 9.81179 19.2508 9.82802 18.0554 10.1109C16.736 9.80019 15.4328 9.69005 14.1818 9.99498C3.9499 12.8135 9.75164 19.69 5.99512 26.6025C6.52961 27.7364 12.2908 34.3521 20.627 32.577C20.627 32.577 17.776 25.726 24.2096 22.4379C29.4282 19.7608 33.1986 14.8077 25.5058 12.7127Z" fill="#E440F2"/>
<path d="M26.7697 17.2125C26.7704 17.3352 26.7347 17.4553 26.6671 17.5577C26.5996 17.6601 26.5031 17.7401 26.39 17.7877C26.277 17.8353 26.1523 17.8483 26.0319 17.825C25.9114 17.8018 25.8006 17.7433 25.7133 17.6571C25.6261 17.5708 25.5664 17.4606 25.5418 17.3404C25.5172 17.2202 25.5288 17.0954 25.5751 16.9818C25.6214 16.8682 25.7003 16.7709 25.802 16.7022C25.9036 16.6334 26.0233 16.5964 26.146 16.5957C26.3104 16.5951 26.4684 16.6597 26.5853 16.7753C26.7022 16.8909 26.7685 17.0481 26.7697 17.2125Z" fill="white"/>
<path d="M18.0557 10.1054C18.8012 10.1588 21.4968 11.033 22.1925 11.5107C21.6128 9.82949 19.6615 9.60572 18.0557 10.1054Z" fill="#111131"/>
<path d="M18.7649 14.3571C18.7651 14.9231 18.5975 15.4765 18.2832 15.9472C17.9689 16.4179 17.5221 16.7848 16.9993 17.0016C16.4764 17.2183 15.9011 17.2752 15.3459 17.1649C14.7908 17.0546 14.2808 16.7822 13.8805 16.382C13.4802 15.9819 13.2076 15.472 13.0971 14.9169C12.9866 14.3618 13.0432 13.7864 13.2597 13.2635C13.4762 12.7406 13.843 12.2936 14.3136 11.9791C14.7842 11.6647 15.3375 11.4968 15.9034 11.4968C16.2792 11.4967 16.6512 11.5705 16.9984 11.7142C17.3455 11.8579 17.661 12.0686 17.9267 12.3342C18.1924 12.5998 18.4032 12.9152 18.5471 13.2623C18.6909 13.6094 18.7649 13.9814 18.7649 14.3571Z" fill="white"/>
<path d="M17.9164 14.3831C17.9164 14.7812 17.7983 15.1703 17.5772 15.5013C17.356 15.8323 17.0417 16.0903 16.6739 16.2427C16.3061 16.395 15.9014 16.4349 15.511 16.3572C15.1205 16.2795 14.7619 16.0878 14.4804 15.8063C14.1989 15.5249 14.0072 15.1662 13.9295 14.7758C13.8519 14.3853 13.8917 13.9806 14.0441 13.6129C14.1964 13.2451 14.4544 12.9307 14.7854 12.7096C15.1164 12.4884 15.5055 12.3704 15.9036 12.3704C16.4374 12.3704 16.9494 12.5824 17.3269 12.9599C17.7043 13.3373 17.9164 13.8493 17.9164 14.3831Z" fill="#111131"/>
<path d="M29.0874 18.4726C26.7685 20.1062 24.132 21.3456 20.3917 21.3456C18.641 21.3456 18.2862 19.4905 17.1291 20.3972C16.532 20.8679 14.4265 21.9207 12.7558 21.8407C11.0851 21.7607 8.37665 20.781 7.62187 17.2146C7.32274 20.781 7.1697 23.4082 5.83057 26.4192C8.49723 30.6894 14.8555 33.9833 20.6271 32.5642C20.0068 28.2337 23.7911 23.9926 25.9233 21.8221C26.7349 21.0001 28.2769 19.6587 29.0874 18.4703V18.4726Z" fill="#E440F2"/>
<path d="M28.9969 18.5796C28.2769 19.2359 27.4201 19.7217 26.5482 20.1507C25.6657 20.5697 24.7457 20.9047 23.8004 21.1512C22.8543 21.3959 21.8676 21.5802 20.8682 21.4898C19.8688 21.3994 18.8473 21.0596 18.1853 20.3107L18.2166 20.2747C19.0282 20.8011 19.965 20.9866 20.8972 21.0133C21.842 21.042 22.7871 20.9642 23.7146 20.7814C24.6514 20.5853 25.5679 20.3019 26.452 19.935C27.3366 19.5698 28.212 19.1466 28.9656 18.5437L28.9969 18.5796Z" fill="#58595B"/>
</svg>
