<?xml version="1.0" encoding="UTF-8" standalone="no"?>
<svg
   width="26"
   height="31"
   viewBox="0 0 26 31"
   fill="none"
   version="1.1"
   id="svg9503"
   sodipodi:docname="dfp-logo.svg"
   inkscape:version="1.2.2 (732a01da63, 2022-12-09)"
   xmlns:inkscape="http://www.inkscape.org/namespaces/inkscape"
   xmlns:sodipodi="http://sodipodi.sourceforge.net/DTD/sodipodi-0.dtd"
   xmlns="http://www.w3.org/2000/svg"
   xmlns:svg="http://www.w3.org/2000/svg">
  <sodipodi:namedview
     id="namedview9505"
     pagecolor="#ffffff"
     bordercolor="#000000"
     borderopacity="0.25"
     inkscape:showpageshadow="2"
     inkscape:pageopacity="0.0"
     inkscape:pagecheckerboard="0"
     inkscape:deskcolor="#d1d1d1"
     showgrid="false"
     inkscape:zoom="26.258065"
     inkscape:cx="13.005528"
     inkscape:cy="12.453317"
     inkscape:window-width="2560"
     inkscape:window-height="1001"
     inkscape:window-x="-9"
     inkscape:window-y="-9"
     inkscape:window-maximized="1"
     inkscape:current-layer="svg9503" />
  <g
     clip-path="url(#clip0)"
     id="g9496">
    <path
       fill-rule="evenodd"
       clip-rule="evenodd"
       d="M21.9605 7.84077C24.7057 10.6225 25.9684 13.7381 25.9684 17.7438C25.9684 25.5327 20.3867 30.9478 12.3894 30.9478H4.55684L0 26.3302V-0.00377515H7.97903C12.2613 -0.00377515 15.8665 1.55401 18.3189 4.16885L21.9605 7.84077ZM4.31892 4.1503H4.26402V5.07756L8.16202 8.99056V8.04475L4.31892 4.1503ZM8.82084 7.91494L5.10584 4.1503H4.57514L8.29013 7.91494H8.82084ZM10.1202 7.91494L6.40517 4.1503H5.36206L9.07706 7.91494H10.1202ZM8.03392 4.1503H6.66139L10.3764 7.91494H11.7489L8.03392 4.1503ZM13.0849 7.93349L9.44305 4.24303C9.05874 4.1874 8.69275 4.16885 8.29013 4.1503L12.0051 7.91494H12.3894C12.6273 7.91494 12.8653 7.91494 13.0849 7.93349ZM14.2561 8.0633L10.7058 4.46556C10.3947 4.39139 10.0653 4.33576 9.73585 4.28013L13.3594 7.95204C13.6705 7.97057 13.9816 8.02622 14.2561 8.0633ZM15.3175 8.32294L11.8587 4.81793C11.6025 4.7252 11.328 4.63247 11.0535 4.55829L14.5855 8.13748C14.8417 8.19313 15.0796 8.24876 15.3175 8.32294ZM15.7201 8.45274C15.958 8.56402 16.2142 8.6753 16.4338 8.78656L13.0666 5.37427C12.8286 5.24447 12.5725 5.11464 12.3162 5.00338L15.7201 8.45274ZM4.26402 12.4028L4.92283 13.0705L4.77644 13.2188L4.26402 12.6996V22.4172H8.16202V9.25018L4.26402 5.37427V6.28298L7.96073 10.0105L7.81432 10.1404L4.26402 6.56116V7.48841L7.3385 10.6225L7.21039 10.7709L4.26402 7.76659V8.71238L6.73457 11.2345L6.60648 11.3829L4.26402 8.99056V9.93635L6.13067 11.8465L6.00257 11.9949L4.26402 10.2145V11.1789L5.52676 12.4585L5.38035 12.6068L4.26402 11.457V12.4028ZM16.1411 8.23021C15.5188 7.24732 14.6953 6.41279 13.7071 5.76373L16.1411 8.23021ZM21.5945 8.21166L20.1122 6.67242C21.1005 8.54547 21.7411 10.8636 21.7411 13.2745C21.7411 13.5341 21.7411 13.7937 21.7227 14.0348L25.456 17.8365V17.7438C25.456 13.8679 24.2116 10.9378 21.5945 8.21166ZM8.67444 22.3986C13.9999 22.1019 17.4404 18.5597 17.4404 13.2745C17.4404 11.9021 17.2025 10.6411 16.7633 9.52836C15.6469 8.74948 14.3659 8.43421 12.3894 8.43421H8.67444V22.3986ZM20.9541 18.0406L24.8337 21.9721C25.1997 20.7667 25.4194 19.4684 25.456 18.0961L21.7044 14.2944C21.6129 15.6297 21.3566 16.8722 20.9541 18.0406ZM24.7606 22.1576L20.8809 18.226C20.5331 19.1531 20.0939 20.0249 19.5631 20.8038L23.5162 24.8095C24.0286 23.9934 24.4495 23.1033 24.7606 22.1576ZM21.9057 26.8124C22.4729 26.2559 22.9671 25.6255 23.4064 24.9578L19.4718 20.9706C19.0143 21.6197 18.5019 22.2317 17.9162 22.7694L21.9057 26.8124ZM16.1776 24.1603L20.1855 28.2217C20.7527 27.8323 21.2835 27.4058 21.7775 26.9421L17.7881 22.8994C17.2941 23.363 16.7632 23.7895 16.1776 24.1603ZM14.4208 25.1433L18.4286 29.2046C18.9776 28.9451 19.5083 28.6483 20.0207 28.3331L16.0129 24.2717C15.5188 24.6054 14.9881 24.8835 14.4208 25.1433ZM12.7005 25.7923L16.6901 29.8352C17.2208 29.6868 17.7514 29.4828 18.2456 29.2787L14.2378 25.2174C13.7437 25.44 13.2313 25.6439 12.7005 25.7923ZM11.0352 26.2004L15.0064 30.2246C15.5188 30.1319 16.0129 30.0205 16.4887 29.8907L12.5175 25.8665C12.0417 25.9963 11.5476 26.1075 11.0352 26.2004ZM10.7973 26.2375C10.3581 26.3302 9.90056 26.3859 9.44305 26.4228L13.3777 30.3915C13.8535 30.3729 14.311 30.3172 14.7685 30.2617L10.7973 26.2375ZM11.8587 30.4286H12.3894C12.6456 30.4286 12.8836 30.4286 13.1215 30.4101L9.20515 26.4414C8.80254 26.4599 8.39994 26.4785 7.97903 26.4785H7.96073L11.8587 30.4286ZM0.878425 26.4785L4.77644 30.4286H5.03264L1.15294 26.4785H0.878425ZM1.40915 26.4785L5.30714 30.4286H5.63655L1.73854 26.4785H1.40915ZM1.99476 26.4785L5.89277 30.4286H6.31368L2.41567 26.4785H1.99476ZM2.67189 26.4785L6.56988 30.4286H7.1006L3.20259 26.4785H2.67189ZM3.45881 26.4785L7.3568 30.4286H7.99731L4.09932 26.4785H3.45881ZM4.35552 26.4785L8.25353 30.4286H9.02213L5.12414 26.4785H4.35552ZM5.39865 26.4785L9.29665 30.4286H10.23L6.33196 26.4785H5.39865ZM6.58818 26.4785L10.4862 30.4286H11.6025L7.68621 26.4785H6.58818ZM46.1172 22.4543L50.6742 27.0719V30.9478H33.069L28.5122 26.3302V-0.00377515H45.5866L50.1434 4.61394V8.26731H37.1684L37.1499 10.9192H43.5004L48.0571 15.5369V19.2645H37.1499V22.4543H46.1172ZM49.631 4.83647L45.733 0.886387V3.9834L49.631 7.74804V4.83647ZM37.022 7.74804L33.1422 3.9834H32.8677L36.7475 7.74804H37.022ZM37.754 7.74804L33.8559 3.9834H33.4168L37.2965 7.74804H37.754ZM38.6689 7.74804L34.771 3.9834H34.1304L38.0284 7.74804H38.6689ZM39.767 7.74804L35.8873 3.9834H35.0455L38.9434 7.74804H39.767ZM41.2311 7.74804L37.3147 3.9834H36.1618L40.0415 7.74804H41.2311ZM42.695 7.74804L38.7788 3.9834H37.6075L41.5056 7.74804H42.695ZM44.214 7.74804L40.316 3.9834H39.0716L42.9696 7.74804H44.214ZM45.6781 7.74804L41.8166 3.9834H40.5906L44.4885 7.74804H45.6781ZM46.959 7.74804L43.0793 3.9834H42.0729L45.9709 7.74804H46.959ZM48.0571 7.74804L44.1774 3.9834H43.3356L47.252 7.74804H48.0571ZM48.7892 7.74804L44.9277 3.9834H44.4337L48.3499 7.74804H48.7892ZM49.3382 7.74804L45.4767 3.9834H45.1839L49.0819 7.74804H49.3382ZM32.7396 9.39855L33.6364 10.2702L33.4899 10.4L32.7396 9.67672V10.9192H36.6375V7.8964L32.7396 4.13177V4.91065L36.1251 8.19313L35.9605 8.30439L32.7396 5.18884V6.0419L35.503 8.71238L35.3382 8.8422L32.7396 6.30153V7.15459L34.8809 9.23164L34.7161 9.36145L32.7396 7.43278V8.28584L34.2585 9.75089L34.1122 9.88072L32.7396 8.54547V9.39855ZM43.6467 11.8094V14.9806H43.6283L47.5447 18.7452V15.7595L43.6467 11.8094ZM36.7657 18.7452H37.0951L33.1971 14.9806H32.8677L36.7657 18.7452ZM33.4716 14.9806L37.3696 18.7452H38.0101L34.1304 14.9806H33.4716ZM34.4049 14.9806L38.2847 18.7452H39.2912L35.3749 14.9806H34.4049ZM35.6676 14.9806L39.5658 18.7452H40.9382L37.0584 14.9806H35.6676ZM42.695 18.7452L38.8337 14.9806H37.333L41.2127 18.7452H42.695ZM44.4519 18.7452L40.5539 14.9806H39.0898L42.988 18.7452H44.4519ZM45.7146 18.7452L41.8532 14.9806H40.8284L44.7264 18.7452H45.7146ZM46.6297 18.7452L42.7499 14.9806H42.1095L46.0075 18.7452H46.6297ZM43.0062 14.9806L46.9226 18.7452H47.252L43.3722 14.9806H43.0062ZM32.7396 21.564L33.2155 22.0276L33.069 22.176L32.7396 21.8609V22.4543H36.6375V18.875L32.7396 15.1104V15.9264L36.1251 19.2274L35.9972 19.3572L32.7396 16.2046V17.0761L35.5579 19.8023L35.4115 19.9321L32.7396 17.3357V18.1889L34.9722 20.3586L34.8258 20.4885L32.7396 18.4671V19.3201L34.3867 20.915L34.2403 21.0448L32.7396 19.5982V20.4514L33.801 21.4713L33.6546 21.6011L32.7396 20.711V21.564ZM46.2636 23.3444V26.4785L50.1616 30.4286V27.2946L46.2636 23.3444ZM31.1657 26.4785H29.3906L33.2886 30.4286H35.0637L31.1657 26.4785ZM33.0141 26.4785H31.422L35.32 30.4286H36.9305L33.0141 26.4785ZM33.2704 26.4785L37.1866 30.4286H38.6141L34.6978 26.4785H33.2704ZM34.954 26.4785L38.8703 30.4286H40.133L36.2351 26.4785H34.954ZM37.6075 26.4785H36.4912L40.3891 30.4286H41.5239L37.6075 26.4785ZM42.7683 30.4286L38.8703 26.4785H37.8638L41.7801 30.4286H42.7683ZM39.1265 26.4785L43.0244 30.4286H43.9029L40.0049 26.4785H39.1265ZM40.2612 26.4785L44.1591 30.4286H44.9461L41.0297 26.4785H40.2612ZM41.286 26.4785L45.2022 30.4286H45.8794L41.963 26.4785H41.286ZM42.2193 26.4785L46.1357 30.4286H46.7212L42.8049 26.4785H42.2193ZM43.0611 26.4785L46.9774 30.4286H47.4898L43.5735 26.4785H43.0611ZM43.8298 26.4785L47.746 30.4286H48.1853L44.2689 26.4785H43.8298ZM44.5252 26.4785L48.4414 30.4286H48.8074L44.9094 26.4785H44.5252ZM45.1657 26.4785L49.0637 30.4286H49.3931L45.4767 26.4785H45.1657ZM45.733 26.4785L49.6492 30.4286H49.9055L45.9891 26.4785H45.733ZM75.1052 8.41566H61.6178V11.8094H68.2792L72.836 16.4271V20.2102H61.6178V30.9478H57.5551L52.9983 26.3302V-0.00377515H70.5485L75.1052 4.61394V8.41566ZM70.6948 0.886387V4.13177L74.5746 7.8964H74.5928V4.83647L70.6948 0.886387ZM61.2151 7.8964H61.5081L57.6101 4.13177H57.3538L61.2151 7.8964ZM62.2217 7.8964L58.3055 4.13177H57.9028L61.7642 7.8964H62.2217ZM63.155 7.8964L59.2388 4.13177H58.5983L62.478 7.8964H63.155ZM64.3446 7.8964L60.4466 4.13177H59.5316L63.4113 7.8964H64.3446ZM65.9917 7.8964L62.0936 4.13177H60.7394L64.6007 7.8964H65.9917ZM67.5656 7.8964L63.6674 4.13177H62.3681L66.2661 7.8964H67.5656ZM69.2858 7.8964L65.3876 4.13177H63.9419L67.8399 7.8964H69.2858ZM70.9145 7.8964L67.0348 4.13177H65.6439L69.5603 7.8964H70.9145ZM72.1223 7.8964L68.2243 4.13177H67.3093L71.189 7.8964H72.1223ZM73.0556 7.8964L69.1576 4.13177H68.4989L72.3968 7.8964H73.0556ZM73.751 7.8964L69.8713 4.13177H69.4322L73.3301 7.8964H73.751ZM70.1458 4.13177L74.0256 7.8964H74.3001L70.4203 4.13177H70.1458ZM57.2074 11.8094H61.1054V8.04475L57.2074 4.26158V4.8921L60.6845 8.28584L60.5564 8.41566L57.2074 5.17029V6.02335L60.1172 8.86073L59.9709 9.00909L57.2074 6.30153V7.15459L59.5498 9.43563L59.4034 9.58399L57.2074 7.43278V8.28584L58.9825 10.0105L58.8544 10.1404L57.2074 8.54547V9.41708L58.4152 10.5854L58.2871 10.7152L57.2074 9.67672V10.5298L57.848 11.1603L57.7198 11.2901L57.2074 10.7894V11.8094ZM68.4256 12.6996V15.9264L72.3236 19.691V16.6496L68.4256 12.6996ZM57.3172 15.9264L61.1969 19.691H61.5629L57.665 15.9264H57.3172ZM57.9395 15.9264L61.819 19.691H62.4414L58.5616 15.9264H57.9395ZM58.8361 15.9264L62.6975 19.691H63.8504L59.9342 15.9264H58.8361ZM60.2087 15.9264L64.1067 19.691H65.5342L61.6544 15.9264H60.2087ZM61.929 15.9264L65.7903 19.691H67.4374L63.5759 15.9264H61.929ZM63.8322 15.9264L67.7119 19.691H69.1576L65.2597 15.9264H63.8322ZM65.5158 15.9264L69.4322 19.691H70.5302L66.6687 15.9264H65.5158ZM66.925 15.9264L70.8046 19.691H71.4269L67.5472 15.9264H66.925ZM67.8034 15.9264L71.7014 19.691H72.049L68.1693 15.9264H67.8034ZM57.2074 26.4785L61.1054 30.4286V19.7837L61.0688 19.8208L57.2074 16.0933V16.7053L60.7027 20.1176L60.5748 20.2473L57.2074 16.9835V17.8365L60.1355 20.6924L59.9891 20.8408L57.2074 18.1146V18.9678L59.5682 21.2673L59.4218 21.4156L57.2074 19.246V20.099L59.0009 21.8423L58.8728 21.9721L57.2074 20.3586V21.2303L58.4335 22.4172L58.3055 22.547L57.2074 21.4899V22.3615L57.8662 22.992L57.7381 23.1218L57.2074 22.6027V26.4785ZM53.8767 26.4785L57.7747 30.4286H58.525L54.6452 26.4785H53.8767ZM55.5603 26.4785H54.9015L58.7995 30.4286H59.4583L55.5603 26.4785ZM55.8166 26.4785L59.7328 30.4286H60.2087L56.329 26.4785H55.8166ZM56.5851 26.4785L60.4833 30.4286H60.8309L56.9511 26.4785H56.5851ZM81.2176 -0.00377515L85.7745 4.61394V30.9478H81.6386L77.0817 26.3302V-0.00377515H81.2176ZM81.3641 1.18311L85.2621 5.13319V4.83647L81.3641 0.886387V1.18311ZM81.3641 1.98054L85.2621 5.93062V5.41137L81.3641 1.46128V1.98054ZM81.3641 3.0747L85.2621 7.02478V6.19025L81.3641 2.24017V3.0747ZM81.3641 4.61394L85.2621 8.56402V7.30295L81.3641 3.35287V4.61394ZM81.3641 6.70952L85.2621 10.6596V8.82365L81.3641 4.87356V6.70952ZM81.3641 9.60254L85.2621 13.5526V10.9192L81.3641 6.96916V9.60254ZM81.3641 26.4785L85.2621 30.4286V13.8123L81.3641 9.86217V26.4785ZM78.8019 26.4785H77.9602L81.8581 30.4286H82.6817L78.8019 26.4785ZM83.615 30.4286L79.717 26.4785H79.0582L82.9562 30.4286H83.615ZM79.9733 26.4785L83.8895 30.4286H84.3653L80.4857 26.4785H79.9733ZM80.7418 26.4785L84.6398 30.4286H84.9876L81.1078 26.4785H80.7418ZM121.003 6.2459C122.778 8.02622 123.62 10.0476 123.62 12.5512C123.62 17.7438 119.704 21.527 114.268 21.527H109.62V30.9478H105.502L100.946 26.3302V-0.00377515H110.169C113.39 -0.00377515 115.97 1.16456 117.361 2.57399L121.003 6.2459ZM105.21 10.5669L105.594 10.9563L105.448 11.1047L105.21 10.8636V13.4414H108.925V7.72949L105.21 3.96486V4.7623L108.412 8.08185L108.284 8.21166L105.21 5.05901V5.94917L107.845 8.65675L107.717 8.78656L105.21 6.22735V7.09896L107.296 9.23164L107.15 9.36145L105.21 7.37715V8.24876L106.729 9.80654L106.582 9.93635L105.21 8.52692V9.39855L106.161 10.3814L106.015 10.5112L105.21 9.69526V10.5669ZM109.382 7.54403L105.868 3.96486H105.466L109.016 7.56258L109.181 7.54403H109.382ZM110.206 7.54403L106.674 3.96486H106.125L109.657 7.54403H110.206ZM111.249 7.54403L107.717 3.96486H106.93L110.462 7.54403H111.249ZM112.457 7.54403L108.925 3.96486H107.973L111.505 7.54403H112.457ZM110.242 3.96486H109.181L112.713 7.54403H113.774L110.242 3.96486ZM114.817 7.54403L111.395 4.07612C111.121 4.02049 110.81 4.00194 110.517 3.9834L114.03 7.54403H114.817ZM115.202 7.11751L112.493 4.37285C112.255 4.28013 111.981 4.20595 111.725 4.1503L115.11 7.58113C115.183 7.58113 115.257 7.58113 115.33 7.59968C115.293 7.43278 115.257 7.28442 115.202 7.11751ZM115.037 6.69097C114.634 5.76372 113.921 5.04046 112.969 4.57684L115.037 6.69097ZM120.637 6.61679L119.026 4.96628C119.466 5.96772 119.759 7.21024 119.759 8.45274C119.759 8.6753 119.759 8.89783 119.74 9.10182L123.107 12.1988C123.034 9.99198 122.211 8.24876 120.637 6.61679ZM110.059 13.4414C113.225 13.4414 115.44 11.457 115.44 8.6382C115.44 8.47129 115.44 8.30439 115.421 8.13748C115.11 8.08185 114.781 8.0633 114.47 8.0633H109.437V13.4414H110.059ZM122.595 15.5926C122.924 14.6653 123.107 13.6453 123.107 12.5512V12.4585L119.722 9.32437C119.63 10.3814 119.374 11.3643 118.972 12.2545L122.595 15.5926ZM118.88 12.4214C118.551 13.1075 118.148 13.7195 117.654 14.2759L121.424 17.7438C121.863 17.1504 122.247 16.4827 122.522 15.778L118.88 12.4214ZM119.978 19.1717C120.472 18.7823 120.911 18.3558 121.314 17.8736L117.526 14.4057C117.105 14.8693 116.647 15.2588 116.135 15.6297L119.978 19.1717ZM114.579 16.5013L118.477 20.099C118.972 19.858 119.411 19.5984 119.832 19.2831L115.97 15.7409C115.531 16.0191 115.074 16.2787 114.579 16.5013ZM113.042 17.039L116.977 20.6555C117.434 20.5255 117.892 20.3586 118.313 20.1732L114.396 16.5755C113.957 16.7609 113.5 16.9093 113.042 17.039ZM111.56 17.3173L115.513 20.9336C115.952 20.8779 116.373 20.8038 116.775 20.711L112.841 17.0761C112.42 17.1874 111.999 17.2616 111.56 17.3173ZM114.067 21.0077H114.268C114.598 21.0077 114.927 20.9891 115.238 20.9706L111.304 17.3543C110.938 17.3914 110.553 17.41 110.169 17.4286L114.067 21.0077ZM108.888 17.4286L112.786 21.0077H113.774L109.895 17.4286H108.888ZM109.108 30.4286V21.0077H109.126L105.228 17.4286H105.21V18.3744L108.595 21.4899L108.449 21.6197L105.21 18.634V19.6168L107.955 22.139L107.808 22.2688L105.21 19.8765V20.8408L107.314 22.788L107.186 22.9179L105.21 21.1005V22.0833L106.674 23.4371L106.546 23.5669L105.21 22.3429V23.2887L106.051 24.0677L105.923 24.216L105.21 23.5669V26.4785L109.108 30.4286ZM105.502 17.4286L109.382 21.0077H109.785L105.887 17.4286H105.502ZM106.143 17.4286L110.041 21.0077H110.535L106.637 17.4286H106.143ZM106.93 17.4286L110.81 21.0077H111.432L107.552 17.4286H106.93ZM107.79 17.4286L111.706 21.0077H112.511L108.632 17.4286H107.79ZM101.824 26.4785L105.722 30.4286H106.527L102.647 26.4785H101.824ZM103.563 26.4785H102.904L106.802 30.4286H107.461L103.563 26.4785ZM103.819 26.4785L107.735 30.4286H108.211L104.331 26.4785H103.819ZM104.587 26.4785L108.486 30.4286H108.833L104.953 26.4785H104.587ZM147.831 -0.02232L152.205 4.40994V19.0605C152.205 26.4785 147.85 31.3373 141.243 31.3373C137.748 31.3373 135.241 30.3358 132.971 28.0363L129.22 24.2717C127.152 22.2131 126.036 19.1162 126.036 15.1475V-0.02232H130.153L134.71 4.59539V19.4684C134.71 20.6183 134.838 21.7309 135.131 22.7325C135.735 22.8808 136.394 22.9735 137.089 22.9735C141.225 22.9735 143.714 20.0063 143.714 14.9991V-0.02232H147.831ZM134.198 4.81793L130.3 0.867839V1.16456L134.198 5.11464V4.81793ZM147.978 1.18311L151.693 4.94775V4.63247L147.978 0.886387V1.18311ZM134.198 5.91209V5.39282L130.3 1.44274V1.96199L134.198 5.91209ZM147.978 1.98054L151.693 5.74518V5.22592L147.978 1.46128V1.98054ZM134.198 7.00624V6.17171L130.3 2.22162V3.05615L134.198 7.00624ZM147.978 3.0747L151.693 6.83933V6.00482L147.978 2.24017V3.0747ZM134.198 8.54547V7.28442L130.3 3.33432V4.59539L134.198 8.54547ZM147.978 4.61394L151.693 8.37856V7.11751L147.978 3.35287V4.61394ZM134.198 10.6411V8.80511L130.3 4.85502V6.69097L134.198 10.6411ZM147.978 6.70952L151.693 10.4741V8.6382L147.978 4.87356V6.70952ZM134.198 13.5341V10.9007L130.3 6.95061V9.58399L134.198 13.5341ZM151.693 10.7338L147.978 6.96916V9.60254L151.693 13.3672V10.7338ZM130.3 9.84362V14.9991C130.3 18.8564 131.874 21.5456 134.564 22.547C134.326 21.5826 134.198 20.5441 134.198 19.4684V13.7937L130.3 9.84362ZM151.071 23.5483C151.473 22.1946 151.693 20.6924 151.693 19.0605V13.6268L147.978 9.86217V15.1475C147.978 16.8722 147.777 18.4299 147.374 19.8023L151.071 23.5483ZM147.301 19.9878C147.026 20.8965 146.66 21.7309 146.203 22.4543L149.881 26.1818C150.339 25.44 150.723 24.624 150.998 23.7338L147.301 19.9878ZM148.472 27.9992C148.966 27.4984 149.405 26.9607 149.79 26.3487L146.111 22.6211C145.727 23.2331 145.288 23.771 144.794 24.2717L148.472 27.9992ZM143.256 25.4586L146.971 29.2232C147.466 28.9079 147.923 28.5369 148.344 28.129L144.647 24.3829C144.226 24.7909 143.769 25.1433 143.256 25.4586ZM141.737 26.2375L145.471 30.0205C145.928 29.8166 146.386 29.594 146.807 29.3159L143.092 25.5512C142.671 25.8108 142.213 26.0334 141.737 26.2375ZM131.343 25.7367L133.337 27.6654C133.722 28.0363 134.106 28.37 134.49 28.6667L131.818 25.9592L131.343 25.7367ZM132.788 26.3302C132.605 26.2559 132.423 26.2004 132.24 26.1261L135.314 29.2418C135.588 29.4087 135.845 29.5754 136.119 29.7054L132.788 26.3302ZM140.237 26.701L143.988 30.5027C144.428 30.3915 144.849 30.2617 145.269 30.0948L141.536 26.3116C141.115 26.4599 140.676 26.5897 140.237 26.701ZM133.154 26.4414L136.613 29.9464C136.851 30.0391 137.089 30.1505 137.345 30.2246L133.795 26.6269C133.575 26.5712 133.374 26.5156 133.154 26.4414ZM134.161 26.7195L137.748 30.3544C138.004 30.4286 138.26 30.5027 138.535 30.5584L134.893 26.8679C134.637 26.8124 134.399 26.7752 134.161 26.7195ZM138.809 26.9421L142.561 30.7439C142.982 30.7068 143.384 30.6325 143.769 30.5399L140.017 26.7381C139.633 26.8309 139.23 26.905 138.809 26.9421ZM135.186 26.905L138.846 30.6141C139.139 30.6696 139.432 30.7068 139.724 30.7439L136.046 27.0162C135.753 26.9977 135.479 26.9607 135.186 26.905ZM137.528 27.0534L141.243 30.818C141.609 30.818 141.975 30.7994 142.323 30.7625L138.59 26.9793C138.242 27.0162 137.876 27.0348 137.528 27.0534ZM136.321 27.0348L139.999 30.7625C140.328 30.7994 140.639 30.818 140.987 30.818L137.272 27.0534H137.016C136.778 27.0534 136.558 27.0534 136.321 27.0348ZM172.518 22.3615L177.075 26.9793V30.9478H160.404L155.847 26.3302V-0.00377515H159.965L164.522 4.61394V22.3615H172.518ZM164.009 4.83647L160.111 0.886387V1.16456L164.009 5.11464V4.83647ZM164.009 5.91209V5.39282L160.111 1.44274V1.96199L164.009 5.91209ZM164.009 7.00624V6.17171L160.111 2.22162V3.05615L164.009 7.00624ZM164.009 8.54547V7.28442L160.111 3.33432V4.59539L164.009 8.54547ZM164.009 10.6411V8.80511L160.111 4.85502V6.69097L164.009 10.6411ZM164.009 13.5341V10.9007L160.111 6.95061V9.58399L164.009 13.5341ZM160.111 22.3615H164.009V13.7937L160.111 9.84362V22.3615ZM176.564 30.4286V27.2017L172.665 23.2516V26.4785L176.564 30.4286ZM156.726 26.4785L160.624 30.4286H162.326L158.409 26.4785H156.726ZM158.666 26.4785L162.582 30.4286H164.119L160.203 26.4785H158.666ZM160.459 26.4785L164.375 30.4286H165.748L161.831 26.4785H160.459ZM162.088 26.4785L166.004 30.4286H167.212L163.314 26.4785H162.088ZM163.57 26.4785L167.486 30.4286H168.566L164.668 26.4785H163.57ZM164.924 26.4785L168.822 30.4286H169.792L165.876 26.4785H164.924ZM166.132 26.4785L170.048 30.4286H170.908L166.992 26.4785H166.132ZM167.248 26.4785L171.164 30.4286H171.916L167.999 26.4785H167.248ZM168.255 26.4785L172.171 30.4286H172.831L168.932 26.4785H168.255ZM169.187 26.4785L173.086 30.4286H173.672L169.756 26.4785H169.187ZM170.011 26.4785L173.928 30.4286H174.423L170.525 26.4785H170.011ZM170.781 26.4785L174.678 30.4286H175.117L171.202 26.4785H170.781ZM171.475 26.4785L175.373 30.4286H175.74L171.841 26.4785H171.475ZM172.098 26.4785L175.996 30.4286H176.307L172.409 26.4785H172.098ZM196.731 18.2816C198.14 19.7096 198.743 21.2858 198.743 23.4557C198.743 28.1104 195.12 31.3373 189.868 31.3373C186.062 31.4114 183.224 30.2803 181.45 28.9079L176.947 24.3458V19.9692L177.388 19.7837C179.363 21.6568 182.108 22.7139 184.963 22.7139C187.342 22.7139 189.263 21.8423 190.014 20.5255C187.159 19.1162 183.81 18.3373 181.926 15.9078L179.162 12.3472C177.845 10.6411 177.204 9.39855 177.204 7.3586C177.204 2.79652 180.791 -0.337586 186.025 -0.337586C188.679 -0.39322 191.368 0.330037 193.308 1.60964L197.828 6.19025V10.3443L197.426 10.5483C195.358 9.00909 192.998 8.13748 190.801 8.13748C188.275 8.13748 186.391 9.15747 185.897 10.7523C188.459 11.6796 191.203 12.6068 192.942 14.4057L196.731 18.2816ZM193.418 2.46271V5.87499H193.399L197.316 9.84362V6.41279L193.418 2.46271ZM186.812 3.68668C186.665 3.66813 186.52 3.66813 186.391 3.66813C186.116 3.66813 185.841 3.68668 185.567 3.70523L189.52 7.71094C189.886 7.65531 190.288 7.61823 190.691 7.61823L186.812 3.68668ZM191.991 7.69241L188.203 3.85359C187.836 3.77941 187.452 3.72378 187.068 3.68668L190.948 7.61823C191.296 7.61823 191.644 7.65531 191.991 7.69241ZM189.3 7.74804L185.329 3.72378C184.853 3.79796 184.414 3.89067 183.994 4.02049L188.002 8.08185C188.404 7.93349 188.843 7.82222 189.3 7.74804ZM193.217 7.93349L189.557 4.22448C189.228 4.11322 188.88 4.00194 188.532 3.92777L192.302 7.74804C192.594 7.78514 192.906 7.85931 193.217 7.93349ZM187.818 8.15603L183.81 4.09467C183.28 4.28013 182.841 4.53976 182.474 4.85502L186.52 8.95346C186.884 8.6382 187.323 8.37856 187.818 8.15603ZM194.389 8.30439L190.929 4.79938C190.619 4.65102 190.288 4.50266 189.959 4.37285L193.565 8.02622C193.838 8.1004 194.114 8.19313 194.389 8.30439ZM185.402 10.5669C185.586 9.99198 185.915 9.49128 186.373 9.06474L182.328 4.96628C181.816 5.44845 181.487 6.0419 181.394 6.69097L185.11 10.4556L185.402 10.5669ZM195.486 8.76801L192.412 5.65246C192.101 5.44845 191.789 5.24447 191.46 5.07756L194.809 8.47129C195.029 8.56402 195.267 8.65675 195.486 8.76801ZM193.07 6.06045L196.016 9.04619C196.2 9.13892 196.401 9.25018 196.602 9.38L193.236 5.96772L193.07 6.06045ZM181.377 7.08041C181.377 8.6382 182.785 9.50981 184.689 10.2887L181.377 6.93206V7.08041ZM182.731 16.0377C183.389 16.7609 184.305 17.3357 185.348 17.8551L181.139 13.5897C180.919 13.4599 180.7 13.3301 180.497 13.2003C181.158 14.1275 181.889 15.1104 182.731 16.0377ZM182.969 14.4799C182.53 14.2944 182.089 14.0904 181.688 13.8864L185.841 18.0961C186.244 18.2816 186.665 18.4671 187.104 18.6525L182.969 14.4799ZM183.389 14.6468L187.544 18.838C187.874 18.9864 188.203 19.1162 188.532 19.2645L184.342 15.0177C184.029 14.9064 183.719 14.7766 183.389 14.6468ZM184.743 15.1661L188.99 19.4684C189.263 19.5798 189.538 19.7096 189.814 19.8394L185.476 15.4257C185.238 15.3515 184.982 15.2588 184.743 15.1661ZM190.252 20.0063C190.271 19.9135 190.307 19.8208 190.325 19.7282L186.464 15.7966C186.282 15.7224 186.079 15.6482 185.897 15.5926L190.252 20.0063ZM186.903 15.9635L190.362 19.4684C190.381 19.3943 190.381 19.3015 190.381 19.2274V19.2088L187.379 16.1675L186.903 15.9635ZM190.362 18.9307L190.306 18.6525L188.257 16.5755C188.129 16.5013 187.983 16.4457 187.836 16.3715L190.362 18.9307ZM196.364 18.6525L194.296 16.5569C194.553 17.2616 194.699 18.0591 194.699 18.9864C194.699 19.4499 194.662 19.8951 194.59 20.3402L198.213 24.012C198.231 23.8265 198.231 23.6412 198.231 23.4557C198.231 21.3972 197.683 19.9878 196.364 18.6525ZM190.161 18.226C189.905 17.7253 189.447 17.2988 188.861 16.9278L190.161 18.226ZM198.194 24.2532L194.553 20.5626C194.37 21.4156 194.058 22.2131 193.619 22.9179L197.463 26.8124C197.846 26.0334 198.103 25.1804 198.194 24.2532ZM196.163 28.5369C196.639 28.0733 197.041 27.5541 197.354 26.9793L193.509 23.0847C193.161 23.6412 192.741 24.1234 192.246 24.5684L196.163 28.5369ZM190.729 25.6069L194.699 29.6497C195.192 29.353 195.633 29.0377 196.035 28.6667L192.101 24.6797C191.679 25.0321 191.222 25.3472 190.729 25.6069ZM178.851 25.5327L181.779 28.5C182.054 28.7039 182.328 28.9079 182.64 29.0934L179.327 25.7553L178.851 25.5327ZM189.191 26.2745L193.18 30.3172C193.656 30.1505 194.114 29.965 194.534 29.7238L190.563 25.6996C190.143 25.9222 189.685 26.1261 189.191 26.2745ZM179.785 25.9406L183.224 29.4271C183.427 29.5199 183.628 29.6311 183.847 29.7238L180.296 26.1261L179.785 25.9406ZM180.681 26.2375L184.286 29.9093C184.505 29.9836 184.744 30.0762 184.982 30.1505L181.284 26.4042L180.681 26.2375ZM187.708 26.6454L191.679 30.6696C192.137 30.5956 192.576 30.5027 192.979 30.3729L189.008 26.3487C188.586 26.4599 188.166 26.5712 187.708 26.6454ZM181.632 26.4971L185.348 30.2617C185.605 30.3358 185.859 30.4101 186.135 30.4658L182.346 26.6269C182.108 26.5897 181.87 26.5342 181.632 26.4971ZM182.657 26.6826L186.445 30.5213C186.739 30.577 187.013 30.6325 187.306 30.6696L183.481 26.7752C183.189 26.7567 182.932 26.7195 182.657 26.6826ZM191.441 30.7068L187.489 26.6826C187.104 26.7567 186.702 26.7938 186.298 26.8309L190.234 30.818C190.654 30.7994 191.058 30.7625 191.441 30.7068ZM183.774 26.8124L187.636 30.7068C187.965 30.7439 188.275 30.7809 188.605 30.7994L184.706 26.8493C184.396 26.8493 184.085 26.8309 183.774 26.8124ZM188.861 30.7994C189.191 30.818 189.538 30.818 189.868 30.818H189.959L186.044 26.8309C185.841 26.8493 185.659 26.8493 185.458 26.8493H184.963L188.861 30.7994ZM219.313 22.4543L223.87 27.0719V30.9478H206.264L201.708 26.3302V-0.00377515H218.783L223.34 4.61394V8.26731H210.364L210.347 10.9192H216.697L221.253 15.5369V19.2645H210.347V22.4543H219.313ZM222.827 4.83647L218.928 0.886387V3.9834L222.827 7.74804V4.83647ZM210.218 7.74804L206.339 3.9834H206.064L209.943 7.74804H210.218ZM210.949 7.74804L207.051 3.9834H206.612L210.492 7.74804H210.949ZM211.865 7.74804L207.966 3.9834H207.326L211.225 7.74804H211.865ZM212.964 7.74804L209.084 3.9834H208.241L212.14 7.74804H212.964ZM214.427 7.74804L210.511 3.9834H209.357L213.237 7.74804H214.427ZM215.891 7.74804L211.974 3.9834H210.804L214.701 7.74804H215.891ZM217.411 7.74804L213.512 3.9834H212.268L216.166 7.74804H217.411ZM218.874 7.74804L215.013 3.9834H213.786L217.684 7.74804H218.874ZM220.156 7.74804L216.276 3.9834H215.268L219.167 7.74804H220.156ZM221.253 7.74804L217.374 3.9834H216.531L220.448 7.74804H221.253ZM221.986 7.74804L218.123 3.9834H217.63L221.545 7.74804H221.986ZM222.535 7.74804L218.674 3.9834H218.38L222.278 7.74804H222.535ZM205.935 9.39855L206.832 10.2702L206.686 10.4L205.935 9.67672V10.9192H209.834V7.8964L205.935 4.13177V4.91065L209.322 8.19313L209.156 8.30439L205.935 5.18884V6.0419L208.699 8.71238L208.534 8.8422L205.935 6.30153V7.15459L208.076 9.23164L207.912 9.36145L205.935 7.43278V8.28584L207.455 9.75089L207.308 9.88072L205.935 8.54547V9.39855ZM216.843 11.8094V14.9806H216.825L220.74 18.7452V15.7595L216.843 11.8094ZM209.962 18.7452H210.291L206.393 14.9806H206.064L209.962 18.7452ZM206.668 14.9806L210.566 18.7452H211.206L207.326 14.9806H206.668ZM207.602 14.9806L211.481 18.7452H212.488L208.571 14.9806H207.602ZM208.864 14.9806L212.761 18.7452H214.134L210.254 14.9806H208.864ZM215.891 18.7452L212.03 14.9806H210.529L214.409 18.7452H215.891ZM217.649 18.7452L213.75 14.9806H212.287L216.183 18.7452H217.649ZM218.91 18.7452L215.049 14.9806H214.024L217.922 18.7452H218.91ZM219.825 18.7452L215.945 14.9806H215.305L219.204 18.7452H219.825ZM216.202 14.9806L220.119 18.7452H220.448L216.568 14.9806H216.202ZM205.935 21.564L206.411 22.0276L206.264 22.176L205.935 21.8609V22.4543H209.834V18.875L205.935 15.1104V15.9264L209.322 19.2274L209.194 19.3572L205.935 16.2046V17.0761L208.755 19.8023L208.608 19.9321L205.935 17.3357V18.1889L208.169 20.3586L208.022 20.4885L205.935 18.4671V19.3201L207.583 20.915L207.436 21.0448L205.935 19.5982V20.4514L206.997 21.4713L206.85 21.6011L205.935 20.711V21.564ZM219.46 23.3444V26.4785L223.357 30.4286V27.2946L219.46 23.3444ZM204.362 26.4785H202.587L206.484 30.4286H208.26L204.362 26.4785ZM206.21 26.4785H204.618L208.517 30.4286H210.127L206.21 26.4785ZM206.467 26.4785L210.382 30.4286H211.811L207.894 26.4785H206.467ZM208.15 26.4785L212.065 30.4286H213.328L209.432 26.4785H208.15ZM210.804 26.4785H209.687L213.585 30.4286H214.719L210.804 26.4785ZM215.964 30.4286L212.065 26.4785H211.059L214.976 30.4286H215.964ZM212.322 26.4785L216.22 30.4286H217.098L213.202 26.4785H212.322ZM213.457 26.4785L217.355 30.4286H218.142L214.227 26.4785H213.457ZM214.481 26.4785L218.398 30.4286H219.075L215.158 26.4785H214.481ZM215.415 26.4785L219.332 30.4286H219.918L216.001 26.4785H215.415ZM216.258 26.4785L220.173 30.4286H220.686L216.769 26.4785H216.258ZM217.026 26.4785L220.943 30.4286H221.382L217.465 26.4785H217.026ZM217.721 26.4785L221.638 30.4286H222.003L218.106 26.4785H217.721ZM218.361 26.4785L222.259 30.4286H222.589L218.674 26.4785H218.361ZM218.928 26.4785L222.845 30.4286H223.102L219.185 26.4785H218.928Z"
       fill="#E440F2"
       id="path9494" />
  </g>
  <defs
     id="defs9501">
    <clipPath
       id="clip0">
      <rect
         width="26"
         height="31"
         fill="white"
         id="rect9498" />
    </clipPath>
  </defs>
  <path
     style="fill:#50d313;stroke:#50d313;stroke-width:0.0380835"
     d="m 2.273419,28.670253 -2.2905016,-2.316445 -9.7958e-4,-13.188362 -9.7959e-4,-13.18836288 4.67475427,0.01498182 c 5.0236407,0.01609994 4.8916957,0.01133717 6.1409705,0.22166877 0.952357,0.16034165 2.238323,0.52856437 3.103808,0.88874239 0.551907,0.2296799 1.493699,0.7199054 1.983426,1.0324211 1.076676,0.6870716 1.498474,1.0535971 3.292653,2.861182 2.694474,2.714606 3.45142,3.5012348 3.859341,4.0106776 1.810331,2.2608772 2.716042,4.6319312 2.916755,7.6357492 0.232305,3.476633 -0.654009,6.734794 -2.504507,9.206758 -1.974259,2.637289 -4.880338,4.331719 -8.414508,4.906195 -1.183445,0.192368 -1.27246,0.195536 -6.0109045,0.21393 l -4.458826,0.01731 z m 1.8952881,0.911135 C 3.7188362,29.125814 2.8476266,28.243228 2.2326858,27.620086 1.3615481,26.737331 1.0936613,26.487101 1.0197535,26.487101 c -0.077298,0 0.2629138,0.363074 1.8378028,1.961302 1.5599921,1.583111 1.9516001,1.961302 2.0308794,1.961302 0.083508,0 -0.024285,-0.124056 -0.7197286,-0.828317 z M 3.6495743,28.448408 C 1.8278111,26.602664 1.7059229,26.48711 1.5807525,26.487106 c -0.1303337,-5e-6 -0.1138785,0.01932 0.8187829,0.961604 3.1468684,3.179335 2.921321,2.960995 3.0587374,2.960995 0.120686,0 0.029189,-0.09922 -1.8086985,-1.961297 z m 2.3840102,1.742317 C 5.9213169,30.070286 5.0535857,29.186705 4.1052931,28.227211 l -1.7241685,-1.744534 -0.1623068,0.01173 -0.1623067,0.01173 1.9232186,1.950783 1.9232187,1.950783 0.1673794,9.98e-4 0.1673791,9.98e-4 -0.2041224,-0.218981 z M 6.3596492,29.714681 C 5.9828926,29.332417 5.10915,28.449831 4.4179985,27.753378 L 3.16136,26.487101 H 2.9388545 2.716349 l 1.9337165,1.961302 1.9337164,1.961302 H 6.8142216 7.0446609 Z M 6.0107629,28.448535 4.0749386,26.487364 3.7897089,26.48725 3.5044791,26.487136 4.1894908,27.18216 c 0.3767566,0.382264 1.2504993,1.26485 1.9416507,1.961303 L 7.3877802,30.40974 H 7.6671835 7.9465872 L 6.0107629,28.44857 Z m 2.9134794,1.928179 C 8.9172604,30.358569 8.0525196,29.475285 7.0025965,28.41386 l -1.9089518,-1.929863 -0.337977,0.01107 -0.3379773,0.01107 1.9232187,1.950664 1.9232187,1.950665 0.3364044,0.0011 c 0.1850228,6.13e-4 0.3306923,-0.01373 0.3237101,-0.03188 z m 0.8049611,-0.41449 C 9.4900148,29.716109 8.6181341,28.83299 7.7916904,27.999739 l -1.5026244,-1.515004 -0.4136787,0.0107 -0.4136782,0.0107 1.9280991,1.951781 1.9280987,1.951781 H 9.740999 10.164091 Z M 10.384898,29.238636 C 9.7554007,28.594549 8.8829323,27.71144 8.4460799,27.276173 l -0.7942779,-0.791395 -0.4990806,0.01068 -0.4990806,0.01068 1.9234651,1.951781 1.9234651,1.951781 h 0.514434 0.514433 z m 0.748101,-0.811757 C 9.1843479,26.450357 9.1777088,26.44412 9.0448403,26.465157 c -0.073311,0.01161 -0.3367129,0.02129 -0.5853383,0.02152 l -0.4520459,4.2e-4 1.9325317,1.961302 1.9325312,1.961302 h 0.607673 0.607673 z m 3.262929,1.854611 0.313935,-0.04316 -1.966111,-1.990168 -1.966111,-1.990168 -0.32371,0.05848 c -0.17804,0.03216 -0.44853,0.06914 -0.6010883,0.08216 -0.1525581,0.01303 -0.2867652,0.03887 -0.2982386,0.05744 -0.011474,0.01856 0.8502629,0.908514 1.9149709,1.977665 l 1.93583,1.943911 0.338294,-0.0265 c 0.186062,-0.01458 0.479564,-0.04592 0.652229,-0.06966 z m 1.103254,-0.176285 c 0.35519,-0.07308 0.783182,-0.17475 0.88953,-0.211303 0.03049,-0.01048 -0.737429,-0.816834 -1.91636,-2.012283 l -1.967235,-1.994798 -0.159193,0.04785 c -0.08756,0.02632 -0.381981,0.09405 -0.654278,0.150506 -0.272297,0.05646 -0.5183,0.110157 -0.546674,0.119328 -0.06813,0.02202 3.828094,3.976696 3.917918,3.976696 0.03681,0 0.233144,-0.0342 0.436292,-0.076 z m 1.549504,-0.404314 c 0.37088,-0.117161 1.063661,-0.383639 1.103158,-0.42433 0.01516,-0.01562 -0.859208,-0.927389 -1.94305,-2.026149 l -1.970622,-1.997746 -0.49255,0.194341 c -0.270903,0.106887 -0.586808,0.223935 -0.70201,0.260105 -0.115203,0.03617 -0.22342,0.07848 -0.240484,0.09401 -0.02897,0.02637 3.846006,3.994273 3.904058,3.997683 0.01463,8.61e-4 0.168303,-0.0432 0.3415,-0.09792 z m 2.384001,-1.053017 0.543253,-0.307098 -0.295366,-0.30798 c -0.162451,-0.169389 -1.053147,-1.074915 -1.979325,-2.01228 l -1.683959,-1.704299 -0.450132,0.257125 c -0.247572,0.141419 -0.591154,0.325321 -0.763514,0.408671 -0.172361,0.08335 -0.30852,0.166136 -0.302576,0.183967 0.0059,0.01783 0.892932,0.92758 1.971086,2.021664 l 1.960278,1.989243 0.228502,-0.110957 c 0.125675,-0.06103 0.472964,-0.249152 0.771753,-0.418056 z m 1.570384,-1.081728 c 0.240879,-0.195061 0.505675,-0.413427 0.588437,-0.485257 l 0.150476,-0.130601 -1.528325,-1.554997 C 19.37308,24.540043 18.481861,23.638287 18.233173,23.391389 l -0.452161,-0.448906 -0.283626,0.251643 c -0.291787,0.258885 -0.859728,0.698121 -1.111433,0.859564 -0.07827,0.0502 -0.137554,0.106208 -0.131751,0.124461 0.0058,0.01825 0.892444,0.92806 1.970313,2.021793 l 1.95976,1.988605 0.190418,-0.133873 c 0.10473,-0.07363 0.3875,-0.293468 0.628378,-0.48853 z m 1.259516,-1.164733 c 0.338553,-0.382562 0.689739,-0.82568 0.949462,-1.198006 l 0.164903,-0.236396 -1.934134,-1.962928 c -1.063773,-1.079611 -1.94805,-1.962928 -1.965059,-1.962928 -0.01701,0 -0.06975,0.0557 -0.117193,0.123771 -0.213747,0.306677 -0.692722,0.878131 -1.03024,1.229155 l -0.368692,0.383445 1.961882,1.98808 c 1.079036,1.093444 1.976607,1.98808 1.994603,1.98808 0.018,0 0.173007,-0.158523 0.344468,-0.352273 z m 1.578922,-2.202107 c 0.274048,-0.493587 0.525674,-1.04206 0.747273,-1.628846 l 0.148761,-0.393913 -1.673879,-1.700681 c -2.058957,-2.091925 -2.160877,-2.192307 -2.184979,-2.152004 -0.01066,0.01782 -0.08293,0.186642 -0.1606,0.375155 -0.198073,0.480736 -0.623081,1.308544 -0.889825,1.733156 l -0.225405,0.358805 0.683212,0.705863 c 0.375766,0.388224 1.252071,1.279971 1.947344,1.98166 1.085802,1.095824 1.271133,1.26774 1.313761,1.218673 0.0273,-0.03142 0.159748,-0.255459 0.294337,-0.497868 z M 8.1308354,15.828931 V 9.2456997 L 6.2171376,7.3458499 4.3034398,5.4459996 4.2925494,5.8633777 4.2816587,6.2807554 6.1376325,8.137019 c 1.839032,1.8393191 1.855329,1.8569754 1.7853932,1.934254 -0.038819,0.04289 -0.081166,0.07799 -0.094105,0.07799 -0.012939,0 -0.8156968,-0.7926137 -1.7839072,-1.7613637 L 4.2846315,6.6265356 4.2845172,7.0480762 4.284403,7.4696168 5.8246513,9.0431284 c 1.5387467,1.5719776 1.5401855,1.5735986 1.4757371,1.6623366 -0.035481,0.04885 -0.073992,0.08936 -0.085579,0.09002 -0.011587,6.6e-4 -0.2255719,-0.208737 -0.475521,-0.465325 C 6.4893389,10.073572 5.8347377,9.4070147 5.2846187,8.8489218 L 4.284398,7.8342069 v 0.435689 0.435689 L 5.3208408,9.760655 c 0.5700431,0.580288 1.1262513,1.149327 1.2360179,1.264529 l 0.1995757,0.20946 -0.072207,0.09509 -0.072207,0.09509 L 5.4502018,10.244356 4.2883839,9.0638821 4.2863921,9.497975 4.2844003,9.9320675 5.217447,10.87745 c 0.5131757,0.519961 0.9330467,0.960338 0.9330467,0.978617 0,0.01828 -0.034415,0.06438 -0.076477,0.102445 -0.075216,0.06807 -0.090571,0.05482 -0.9311033,-0.803373 l -0.8546285,-0.872584 -0.00194,0.438642 -0.00194,0.43864 0.4025899,0.399197 c 0.2214241,0.219558 0.5069197,0.515959 0.634434,0.658668 l 0.231845,0.259471 -0.084994,0.08328 -0.084996,0.08328 L 4.8338384,12.080357 4.284398,11.516979 v 0.430926 0.430927 l 0.3237101,0.322028 c 0.1780405,0.177115 0.3237101,0.341173 0.3237101,0.364571 0,0.0234 -0.034873,0.0741 -0.077495,0.112675 -0.076265,0.06902 -0.081403,0.06626 -0.32371,-0.173894 L 4.284398,12.760186 v 4.825988 4.825988 h 1.9232187 1.9232187 z m 1.2355141,6.487546 c 1.8362355,-0.214796 3.4451895,-0.828231 4.7506445,-1.811247 0.455029,-0.342641 1.227255,-1.128755 1.587248,-1.615795 0.511549,-0.692084 0.915333,-1.482162 1.206725,-2.361179 0.679094,-2.048566 0.676059,-4.480333 -0.0082,-6.5400644 C 16.742294,9.5049953 16.724238,9.4865846 16.09271,9.1621909 15.463169,8.8388175 14.777245,8.6429683 13.868724,8.5271845 13.51482,8.4820818 12.850054,8.4631504 11.053747,8.4470186 L 8.7020885,8.4258994 v 6.9740896 6.97409 h 0.085921 c 0.047257,0 0.3075097,-0.02592 0.5783396,-0.0576 z M 24.976165,21.362928 c 0.245901,-0.980693 0.386921,-1.882845 0.43126,-2.75891 l 0.02491,-0.492244 -1.843319,-1.872151 c -1.773647,-1.801391 -1.844268,-1.868023 -1.868431,-1.76289 -0.01381,0.06009 -0.0544,0.366326 -0.09019,0.680515 -0.08198,0.719688 -0.23313,1.462685 -0.459895,2.260729 l -0.177066,0.623136 0.623557,0.633621 c 1.268752,1.289229 3.210322,3.239124 3.217541,3.231338 0.0041,-0.0044 0.06783,-0.248836 0.141626,-0.543144 z m 0.432327,-4.349107 C 25.299829,13.769462 24.151584,11.027436 21.859086,8.5377854 21.643344,8.3034898 21.19161,7.8290233 20.855232,7.4834152 l -0.611596,-0.6283783 0.175219,0.3808353 c 0.892358,1.9395246 1.36868,4.1528328 1.342118,6.2363678 l -0.0072,0.561921 1.818325,1.846863 c 1.000078,1.015775 1.827763,1.846863 1.839299,1.846863 0.01154,0 0.01021,-0.32133 -0.0029,-0.714066 z M 6.2184023,6.109205 4.3034398,4.1675082 4.2926401,4.6148904 4.2818407,5.0622726 6.196817,6.977659 8.1117936,8.893045 8.1225793,8.4719736 8.1333653,8.0509018 Z M 16.108402,8.5021499 C 16.029702,8.4131296 15.303645,7.6743253 14.494941,6.8603625 13.099494,5.4558408 13.009064,5.3726249 12.720255,5.2272566 l -0.304316,-0.1531732 1.650194,1.6711891 c 1.502658,1.5217778 1.672869,1.6821232 1.903824,1.793484 0.139497,0.067262 0.259909,0.1229592 0.267583,0.1237715 0.0077,8.112e-4 -0.05044,-0.071358 -0.129138,-0.1603781 z M 14.852087,7.8928133 c -0.18791,-0.19375 -0.950071,-0.9649264 -1.69369,-1.713725 L 11.806362,4.8176361 11.508566,4.7184609 c -0.163787,-0.054546 -0.304234,-0.092735 -0.312105,-0.084865 -0.0079,0.00787 0.755852,0.7964863 1.697161,1.7524791 l 1.711471,1.7381689 0.237994,0.055968 c 0.130897,0.030783 0.263343,0.057972 0.294325,0.060421 0.03098,0.00245 -0.09741,-0.15407 -0.285325,-0.3478196 z M 13.317245,7.1501843 C 12.855339,6.673664 12.068966,5.8766034 11.56975,5.3789383 L 10.662084,4.4740929 10.266845,4.3974761 c -0.217381,-0.04214 -0.4024473,-0.069408 -0.411258,-0.060598 -0.00881,0.00881 0.777725,0.8189267 1.747858,1.8002583 l 1.763877,1.7842393 0.304668,0.042453 c 0.167568,0.023349 0.345262,0.044771 0.394877,0.047604 0.07031,0.00402 -0.09507,-0.1859909 -0.749622,-0.8612484 z m 2.372664,0.4873398 C 15.263802,7.0816244 14.56895,6.4029346 14.033829,6.0199658 c -0.03139,-0.022468 0.387676,0.4175803 0.931265,0.9778843 0.543589,0.5603041 0.994425,1.0187347 1.001858,1.0187347 0.0074,0 -0.117237,-0.1705773 -0.277043,-0.3790607 z M 8.5285608,7.664312 C 8.4057981,7.5333999 7.5794882,6.6928353 6.6923169,5.796391 L 5.079278,4.1664918 l -0.2165434,0.011349 -0.216543,0.011349 1.8280099,1.8545175 1.8280098,1.8545171 0.2247774,0.00206 0.2247774,0.00206 L 8.5285608,7.6643147 Z M 10.008342,7.8498699 C 9.9915917,7.8210144 9.1699352,6.9812724 8.182439,5.9837765 L 6.3869909,4.1701474 H 5.9033631 5.4197353 l 1.8378922,1.8660934 1.8378921,1.8660934 h 0.4716387 c 0.3899613,0 0.4663647,-0.00909 0.4411837,-0.052464 z m 1.301493,-0.337892 C 11.102471,7.2972819 10.273729,6.4575399 9.468186,5.6458845 L 8.0035625,4.1701474 H 7.3595832 6.7156039 l 1.8403569,1.8660934 1.8403572,1.8660934 h 0.645272 0.645272 z M 11.219095,6.0786769 9.4241089,4.25502 9.1868702,4.2326943 C 9.0563887,4.2204154 8.8125307,4.1996686 8.6449631,4.1865904 L 8.3402948,4.1628118 9.2542879,5.0900054 c 0.5026963,0.5099565 1.3337411,1.351349 1.8467661,1.8697612 l 0.932773,0.9425676 h 0.490127 0.490127 z"
     id="path10350" />
</svg>
