<svg width="48" height="48" viewBox="0 0 48 48" fill="none" xmlns="http://www.w3.org/2000/svg">
<g clip-path="url(#clip0)">
<path fill-rule="evenodd" clip-rule="evenodd" d="M33.1113 35.9091L33.5547 38.6844H10.2218C7.89164 38.6844 6 36.9416 6 34.6327V8.05818C6 5.86873 7.89491 4.00491 10.23 4.00491L37.6669 4C40.0036 4 41.8887 5.86055 42 8.05V43.2727C42 43.2727 41.3941 42.7713 40.4987 42.0301C40.3324 41.8924 40.156 41.7464 39.9717 41.5939C38.4425 40.328 36.3651 38.608 34.8976 37.392C33.8817 36.5502 33.1578 35.9496 33.1113 35.9091ZM10.2303 5.53491L37.6669 5.53C39.176 5.53012 40.3819 6.73179 40.47 8.0935V40.0201L38.5934 38.4665C37.4927 37.555 36.387 36.6393 35.5462 35.9424C35.1258 35.5939 34.7719 35.3005 34.5181 35.0897L34.1016 34.7427C34.1164 34.7555 34.1101 34.7501 34.1164 34.7555L31.5 32.5487L31.7608 37.1544H10.2218C8.65832 37.1544 7.53 36.0204 7.53 34.6327V8.05818C7.53 6.76307 8.68997 5.53491 10.2303 5.53491Z" fill="#8D8AFF"/>
<path d="M33.5547 38.6844V39.4494H34.4517L34.3101 38.5637L33.5547 38.6844ZM33.1113 35.9091L33.6138 35.3323L32.0229 33.9462L32.3559 36.0298L33.1113 35.9091ZM10.23 4.00491V4.76991H10.2301L10.23 4.00491ZM37.6669 4V3.235H37.6668L37.6669 4ZM42 8.05H42.765V8.03057L42.764 8.01117L42 8.05ZM42 43.2727L41.5122 43.8621L42.765 44.8989V43.2727H42ZM40.4987 42.0301L40.0109 42.6194L40.0109 42.6194L40.4987 42.0301ZM39.9717 41.5939L39.4839 42.1831L39.4839 42.1831L39.9717 41.5939ZM34.8976 37.392L34.4095 37.9811L34.8976 37.392ZM37.6669 5.53L37.667 4.765H37.6668L37.6669 5.53ZM10.2303 5.53491V6.29991L10.2304 6.29991L10.2303 5.53491ZM40.47 8.0935H41.235V8.06879L41.2334 8.04414L40.47 8.0935ZM40.47 40.0201L39.9821 40.6094L41.235 41.6467V40.0201H40.47ZM38.5934 38.4665L38.1055 39.0557L38.1055 39.0557L38.5934 38.4665ZM35.5462 35.9424L36.0344 35.3534L35.5462 35.9424ZM34.5181 35.0897L34.0283 35.6774L34.0294 35.6783L34.5181 35.0897ZM34.1016 34.7427L34.5914 34.155L33.5991 35.3195L34.1016 34.7427ZM34.1164 34.7555L33.6231 35.3403L34.619 34.1788L34.1164 34.7555ZM31.5 32.5487L31.9932 31.9639L30.6358 30.819L30.7362 32.592L31.5 32.5487ZM31.7608 37.1544V37.9194H32.5704L32.5246 37.1111L31.7608 37.1544ZM34.3101 38.5637L33.8667 35.7884L32.3559 36.0298L32.7993 38.8051L34.3101 38.5637ZM10.2218 39.4494H33.5547V37.9194H10.2218V39.4494ZM5.235 34.6327C5.235 37.4023 7.5083 39.4494 10.2218 39.4494V37.9194C8.27498 37.9194 6.765 36.481 6.765 34.6327H5.235ZM5.235 8.05818V34.6327H6.765V8.05818H5.235ZM10.23 3.23991C7.49752 3.23991 5.235 5.42155 5.235 8.05818H6.765C6.765 6.3159 8.2923 4.76991 10.23 4.76991V3.23991ZM37.6668 3.235L10.2299 3.23991L10.2301 4.76991L37.667 4.765L37.6668 3.235ZM42.764 8.01117C42.6321 5.41488 40.4111 3.235 37.6669 3.235V4.765C39.5962 4.765 41.1454 6.30621 41.236 8.08883L42.764 8.01117ZM42.765 43.2727V8.05H41.235V43.2727H42.765ZM40.0109 42.6194C40.4586 42.99 40.834 43.3007 41.0974 43.5187C41.2291 43.6277 41.3328 43.7135 41.4036 43.7721C41.439 43.8014 41.4661 43.8239 41.4845 43.8391C41.4936 43.8466 41.5006 43.8524 41.5052 43.8563C41.5076 43.8582 41.5093 43.8596 41.5105 43.8606C41.5111 43.8611 41.5115 43.8615 41.5118 43.8617C41.512 43.8618 41.5121 43.8619 41.5121 43.862C41.5122 43.862 41.5122 43.862 41.5122 43.862C41.5122 43.8621 41.5122 43.8621 41.5122 43.8621C41.5122 43.8621 41.5122 43.8621 42 43.2727C42.4878 42.6834 42.4877 42.6834 42.4877 42.6834C42.4877 42.6834 42.4877 42.6834 42.4877 42.6834C42.4877 42.6833 42.4877 42.6833 42.4876 42.6833C42.4876 42.6832 42.4875 42.6831 42.4873 42.683C42.487 42.6828 42.4866 42.6824 42.486 42.6819C42.4848 42.681 42.4831 42.6795 42.4807 42.6776C42.4761 42.6737 42.4691 42.668 42.46 42.6604C42.4417 42.6452 42.4145 42.6228 42.3791 42.5935C42.3083 42.5349 42.2046 42.449 42.0729 42.34C41.8095 42.122 41.4342 41.8114 40.9865 41.4408L40.0109 42.6194ZM39.4839 42.1831C39.6682 42.3357 39.8446 42.4817 40.0109 42.6194L40.9865 41.4408C40.8202 41.3031 40.6438 41.1571 40.4595 41.0046L39.4839 42.1831ZM34.4095 37.9811C35.8771 39.1972 37.9547 40.9173 39.4839 42.1831L40.4595 41.0046C38.9304 39.7387 36.853 38.0189 35.3858 36.803L34.4095 37.9811ZM32.6087 36.4859C32.6647 36.5346 33.4021 37.1463 34.4095 37.9811L35.3858 36.803C34.8778 36.3821 34.443 36.0217 34.1295 35.7614C33.9727 35.6313 33.8464 35.5264 33.7566 35.4516C33.7116 35.4141 33.6761 35.3845 33.6506 35.3632C33.6216 35.3389 33.6124 35.3311 33.6138 35.3323L32.6087 36.4859ZM37.6668 4.765L10.2301 4.76991L10.2304 6.29991L37.667 6.295L37.6668 4.765ZM41.2334 8.04414C41.1194 6.28121 39.5807 4.76515 37.667 4.765L37.6668 6.295C38.7714 6.29509 39.6445 7.18237 39.7066 8.14287L41.2334 8.04414ZM41.235 40.0201V8.0935H39.705V40.0201H41.235ZM38.1055 39.0557L39.9821 40.6094L40.9579 39.4309L39.0813 37.8772L38.1055 39.0557ZM35.058 36.5314C35.899 37.2284 37.0048 38.1442 38.1055 39.0557L39.0813 37.8772C37.9806 36.9658 36.875 36.0502 36.0344 35.3534L35.058 36.5314ZM34.0294 35.6783C34.2834 35.8892 34.6375 36.1829 35.058 36.5314L36.0344 35.3534C35.614 35.005 35.2603 34.7117 35.0068 34.5012L34.0294 35.6783ZM33.6119 35.3304L34.0283 35.6774L35.0078 34.502L34.5914 34.155L33.6119 35.3304ZM34.619 34.1788C34.6128 34.1734 34.6186 34.1785 34.6042 34.1659L33.5991 35.3195C33.6141 35.3326 33.6075 35.3268 33.6137 35.3322L34.619 34.1788ZM31.0068 33.1335L33.6231 35.3403L34.6096 34.1708L31.9932 31.9639L31.0068 33.1335ZM32.5246 37.1111L32.2638 32.5054L30.7362 32.592L30.9971 37.1976L32.5246 37.1111ZM10.2218 37.9194H31.7608V36.3894H10.2218V37.9194ZM6.765 34.6327C6.765 36.4743 8.26791 37.9194 10.2218 37.9194V36.3894C9.04873 36.3894 8.295 35.5665 8.295 34.6327H6.765ZM6.765 8.05818V34.6327H8.295V8.05818H6.765ZM10.2303 4.76991C8.28823 4.76991 6.765 6.32011 6.765 8.05818H8.295C8.295 7.20604 9.0917 6.29991 10.2303 6.29991V4.76991Z" fill="#5C48DA"/>
<g filter="url(#filter0_dd)">
<g filter="url(#filter1_dd)">
<path fill-rule="evenodd" clip-rule="evenodd" d="M33.1113 35.9091L33.5547 38.6844H10.2218C7.89164 38.6844 6 36.9416 6 34.6327V8.05818C6 5.86873 7.89491 4.00491 10.23 4.00491L37.6669 4C40.0036 4 41.8887 5.86055 42 8.05V43.2727C42 43.2727 41.3941 42.7713 40.4987 42.0301C40.3324 41.8924 40.156 41.7464 39.9717 41.5939C38.4425 40.328 36.3651 38.608 34.8976 37.392C33.8817 36.5502 33.1578 35.9496 33.1113 35.9091ZM10.2303 5.53491L37.6669 5.53C39.176 5.53012 40.3819 6.73179 40.47 8.0935V40.0201L38.5934 38.4665C37.4927 37.555 36.387 36.6393 35.5462 35.9424C35.1258 35.5939 34.7719 35.3005 34.5181 35.0897L34.1016 34.7427C34.1164 34.7555 34.1101 34.7501 34.1164 34.7555L31.5 32.5487L31.7608 37.1544H10.2218C8.65832 37.1544 7.53 36.0204 7.53 34.6327V8.05818C7.53 6.76307 8.68997 5.53491 10.2303 5.53491Z" fill="#8D8AFF"/>
</g>
<g filter="url(#filter2_dd)">
<path d="M13 25.9232C12.5682 26.1753 12.5684 26.1756 12.5685 26.1759L12.5689 26.1764L12.5697 26.1778L12.5717 26.1812L12.5773 26.1906C12.5819 26.198 12.588 26.2078 12.5956 26.2198C12.6108 26.2438 12.6323 26.2765 12.6603 26.3167C12.7163 26.3971 12.7985 26.5077 12.9091 26.6385C13.1303 26.9002 13.4662 27.244 13.9351 27.5891C14.8776 28.2827 16.3427 28.9705 18.4564 29.0206C18.6164 29.0244 18.7686 28.9514 18.8657 28.8242L18.8657 28.8241L18.866 28.8238L18.8671 28.8223L18.8718 28.8162L18.8907 28.7916C18.9074 28.7699 18.9321 28.738 18.9636 28.6974C19.0267 28.6164 19.117 28.5011 19.2257 28.365C19.4435 28.092 19.7323 27.7383 20.0208 27.4091C20.1305 27.284 20.1705 27.1128 20.1284 26.9525C21.4481 27.3081 22.7383 27.5095 24.0271 27.507C24.9951 27.505 25.956 27.3881 26.9222 27.1398C26.9379 27.1862 26.9606 27.2306 26.99 27.2713C27.2418 27.6205 27.5409 27.9904 27.774 28.2697C27.8912 28.4101 27.993 28.5293 28.0656 28.6134C28.1019 28.6555 28.1311 28.6889 28.1512 28.712L28.1745 28.7385L28.1807 28.7456L28.1824 28.7475L28.1829 28.748L28.183 28.7482L28.1831 28.7483L28.5577 28.4172L28.1831 28.7483C28.2805 28.8585 28.4214 28.9202 28.5685 28.9171C30.6769 28.8717 32.1818 28.2168 33.1656 27.5593C33.6558 27.2317 34.0141 26.9052 34.2526 26.6567C34.3718 26.5324 34.4614 26.4274 34.5227 26.3512C34.5533 26.3131 34.5769 26.2821 34.5937 26.2595C34.6021 26.2482 34.6088 26.2389 34.6138 26.2319L34.62 26.2231L34.6222 26.22L34.623 26.2188L34.6234 26.2182C34.6236 26.218 34.6237 26.2178 34.2115 25.9347L34.6237 26.2178C34.6809 26.1345 34.7115 26.0358 34.7115 25.9347C34.7115 23.3524 34.0292 20.768 33.3575 18.8446C33.0205 17.8796 32.6834 17.0734 32.4302 16.5076C32.3035 16.2245 32.1976 16.0012 32.1229 15.8478C32.0856 15.7711 32.056 15.7119 32.0356 15.6713L32.0119 15.6247L32.0055 15.6122L32.0037 15.6087L32.0031 15.6077L32.0029 15.6073C32.0029 15.6072 32.0028 15.6071 31.5594 15.8381L32.0028 15.6071C31.9673 15.5389 31.9166 15.4799 31.8545 15.4345C29.6451 13.819 27.5569 13.5688 26.784 13.532C26.7301 13.5122 26.672 13.5014 26.6117 13.5014H26.5815C26.4489 13.5014 26.3217 13.5541 26.228 13.6479L26.2254 13.6505C26.2184 13.6566 26.2116 13.6629 26.205 13.6695L25.9375 13.9327C25.8106 14.0575 25.7597 14.2403 25.8037 14.4127C25.8045 14.4161 25.8054 14.4195 25.8064 14.4229C24.1596 14.1901 22.6578 14.2389 21.3577 14.4235C21.3731 14.3935 21.3857 14.3617 21.395 14.3285C21.4438 14.1534 21.3937 13.9656 21.2643 13.838L21.0672 13.6439C20.9513 13.5296 20.787 13.4789 20.6268 13.5081L20.6688 13.7391C20.6688 13.7391 20.6688 13.7391 20.6688 13.7391C20.6268 13.5081 20.6267 13.5081 20.6267 13.5081L20.6264 13.5081L20.6256 13.5083L20.6228 13.5088L20.6124 13.5107L20.5731 13.5181C20.5389 13.5245 20.4892 13.534 20.4259 13.5464C20.2995 13.5712 20.1188 13.6077 19.9003 13.6546C19.4641 13.7482 18.8743 13.8841 18.2638 14.0527C17.6562 14.2205 17.0141 14.4245 16.4793 14.6565C16.212 14.7725 15.9594 14.9006 15.7469 15.0417C15.542 15.1778 15.3341 15.3521 15.2043 15.5749C15.0806 15.7873 14.9538 16.111 14.8286 16.4789C14.6998 16.8573 14.561 17.3181 14.4181 17.8267C14.1322 18.8445 13.825 20.0726 13.543 21.2546C13.2608 22.4375 13.0028 23.5784 12.8155 24.4233C12.7218 24.8458 12.6457 25.1946 12.593 25.4377C12.5667 25.5594 12.5462 25.6546 12.5323 25.7195L12.5164 25.7936L12.5123 25.8126L12.5113 25.8175L12.511 25.8188L12.511 25.8191C12.5109 25.8192 12.5109 25.8192 13 25.9232ZM13 25.9232L12.5682 26.1753C12.5055 26.0679 12.4851 25.9409 12.5109 25.8192L13 25.9232Z" stroke="#FEFFC6" stroke-linejoin="round"/>
</g>
<path d="M26.6117 14.0014L26.5643 14.0187L26.5815 14.0014H26.6117ZM15.6363 15.8266C16.2246 14.8169 20.7163 14 20.7163 14L20.9133 14.1942C17.6873 14.9636 16.518 16.4997 16.518 16.4997C16.6676 16.4681 22.8881 12.615 30.7813 16.4997C30.7813 16.4997 29.3157 15.1521 26.2881 14.2891L26.5557 14.0259C26.9742 14.0273 29.1891 14.105 31.5594 15.8381C31.5594 15.8381 34.2115 20.9296 34.2115 25.9347C34.2115 25.9347 32.5662 28.3309 28.5577 28.4172C28.5577 28.4172 27.8789 27.6491 27.3956 26.9789C29.74 26.3058 30.6173 24.9596 30.6173 24.9596C26.0537 27.8332 22.0539 27.3845 17.2688 25.4428C17.2242 25.4428 17.2041 25.4227 17.181 25.3997V25.3911C17.158 25.3695 17.1379 25.3479 17.0933 25.3479H17.007C16.7136 25.1552 16.518 25.0603 16.518 25.0603C16.518 25.0603 17.3939 26.4065 19.6448 27.0796C19.0537 27.7541 18.4683 28.5207 18.4683 28.5207C14.4613 28.4258 13 25.9232 13 25.9232C13 25.9232 14.8662 17.1485 15.6363 15.8266Z" stroke="#FDA135" stroke-width="0.4" stroke-linejoin="round"/>
<g filter="url(#filter3_dd)">
<path d="M26.8706 19.2046C26.8531 19.2046 26.836 19.2063 26.8194 19.2095C25.6697 19.2378 24.7535 20.2141 24.7503 21.3976H24.7503V21.3983C24.7503 22.5917 25.6932 23.582 26.8706 23.582C28.0488 23.582 28.991 22.591 28.991 21.3897C28.991 20.1954 28.0529 19.2046 26.8706 19.2046Z" stroke="#FEFFC6" stroke-width="0.53" stroke-linejoin="round"/>
</g>
<g filter="url(#filter4_dd)">
<path d="M20.2345 19.2046C20.2176 19.2046 20.2008 19.2062 20.1844 19.2094C19.0275 19.2338 18.1084 20.2117 18.1084 21.3983C18.1084 22.5917 19.0513 23.582 20.2288 23.582C21.407 23.582 22.3491 22.591 22.3491 21.3897C22.3491 20.196 21.4131 19.2046 20.2345 19.2046Z" stroke="#FEFFC6" stroke-width="0.53" stroke-linejoin="round"/>
</g>
<g filter="url(#filter5_dd)">
<path d="M26.8706 19.6739H26.9885C27.8439 19.7367 28.526 20.4777 28.526 21.3897C28.526 22.3506 27.7758 23.117 26.8706 23.117C25.9649 23.117 25.2154 22.3502 25.2153 21.3986C25.218 20.4375 25.9696 19.6739 26.8706 19.6739Z" stroke="#FDA135" stroke-width="0.4"/>
</g>
<g filter="url(#filter6_dd)">
<path d="M20.2288 19.6739H20.2954L20.2994 19.6709C21.1747 19.7065 21.8841 20.4585 21.8841 21.3897C21.8841 22.3506 21.134 23.117 20.2288 23.117C19.323 23.117 18.5734 22.35 18.5734 21.3983C18.5734 20.4378 19.3232 19.6739 20.2288 19.6739Z" stroke="#FDA135" stroke-width="0.4"/>
</g>
</g>
</g>
<defs>
<filter id="filter0_dd" x="3.81" y="1.81" width="40.38" height="43.6527" filterUnits="userSpaceOnUse" color-interpolation-filters="sRGB">
<feFlood flood-opacity="0" result="BackgroundImageFix"/>
<feColorMatrix in="SourceAlpha" type="matrix" values="0 0 0 0 0 0 0 0 0 0 0 0 0 0 0 0 0 0 127 0"/>
<feMorphology radius="2.62801" operator="erode" in="SourceAlpha" result="effect1_dropShadow"/>
<feOffset/>
<feGaussianBlur stdDeviation="0.438001"/>
<feColorMatrix type="matrix" values="0 0 0 0 0.211765 0 0 0 0 0.14902 0 0 0 0 0.690196 0 0 0 1 0"/>
<feBlend mode="normal" in2="BackgroundImageFix" result="effect1_dropShadow"/>
<feColorMatrix in="SourceAlpha" type="matrix" values="0 0 0 0 0 0 0 0 0 0 0 0 0 0 0 0 0 0 127 0"/>
<feMorphology radius="2.62801" operator="erode" in="SourceAlpha" result="effect2_dropShadow"/>
<feOffset/>
<feGaussianBlur stdDeviation="2.409"/>
<feColorMatrix type="matrix" values="0 0 0 0 0.392361 0 0 0 0 0.314583 0 0 0 0 0.985417 0 0 0 1 0"/>
<feBlend mode="normal" in2="effect1_dropShadow" result="effect2_dropShadow"/>
<feBlend mode="normal" in="SourceGraphic" in2="effect2_dropShadow" result="shape"/>
</filter>
<filter id="filter1_dd" x="3.36315" y="1.36315" width="41.2737" height="44.5464" filterUnits="userSpaceOnUse" color-interpolation-filters="sRGB">
<feFlood flood-opacity="0" result="BackgroundImageFix"/>
<feColorMatrix in="SourceAlpha" type="matrix" values="0 0 0 0 0 0 0 0 0 0 0 0 0 0 0 0 0 0 127 0"/>
<feMorphology radius="3.16422" operator="erode" in="SourceAlpha" result="effect1_dropShadow"/>
<feOffset/>
<feGaussianBlur stdDeviation="0.527369"/>
<feColorMatrix type="matrix" values="0 0 0 0 0.211765 0 0 0 0 0.14902 0 0 0 0 0.690196 0 0 0 1 0"/>
<feBlend mode="normal" in2="BackgroundImageFix" result="effect1_dropShadow"/>
<feColorMatrix in="SourceAlpha" type="matrix" values="0 0 0 0 0 0 0 0 0 0 0 0 0 0 0 0 0 0 127 0"/>
<feMorphology radius="3.16422" operator="erode" in="SourceAlpha" result="effect2_dropShadow"/>
<feOffset/>
<feGaussianBlur stdDeviation="2.90053"/>
<feColorMatrix type="matrix" values="0 0 0 0 0.392361 0 0 0 0 0.314583 0 0 0 0 0.985417 0 0 0 1 0"/>
<feBlend mode="normal" in2="effect1_dropShadow" result="effect2_dropShadow"/>
<feBlend mode="normal" in="SourceGraphic" in2="effect2_dropShadow" result="shape"/>
</filter>
<filter id="filter2_dd" x="-5.40319" y="-4.40319" width="58.0179" height="51.3271" filterUnits="userSpaceOnUse" color-interpolation-filters="sRGB">
<feFlood flood-opacity="0" result="BackgroundImageFix"/>
<feColorMatrix in="SourceAlpha" type="matrix" values="0 0 0 0 0 0 0 0 0 0 0 0 0 0 0 0 0 0 127 0"/>
<feMorphology radius="3.16422" operator="erode" in="SourceAlpha" result="effect1_dropShadow"/>
<feOffset/>
<feGaussianBlur stdDeviation="0.527369"/>
<feColorMatrix type="matrix" values="0 0 0 0 0.964375 0 0 0 0 0.58315 0 0 0 0 0.135625 0 0 0 1 0"/>
<feBlend mode="normal" in2="BackgroundImageFix" result="effect1_dropShadow"/>
<feColorMatrix in="SourceAlpha" type="matrix" values="0 0 0 0 0 0 0 0 0 0 0 0 0 0 0 0 0 0 127 0"/>
<feMorphology radius="3.16422" operator="erode" in="SourceAlpha" result="effect2_dropShadow"/>
<feOffset/>
<feGaussianBlur stdDeviation="10.2837"/>
<feColorMatrix type="matrix" values="0 0 0 0 0.992157 0 0 0 0 0.631373 0 0 0 0 0.207843 0 0 0 1 0"/>
<feBlend mode="normal" in2="effect1_dropShadow" result="effect2_dropShadow"/>
<feBlend mode="normal" in="SourceGraphic" in2="effect2_dropShadow" result="shape"/>
</filter>
<filter id="filter3_dd" x="7.08204" y="1.53639" width="39.5771" height="39.7137" filterUnits="userSpaceOnUse" color-interpolation-filters="sRGB">
<feFlood flood-opacity="0" result="BackgroundImageFix"/>
<feColorMatrix in="SourceAlpha" type="matrix" values="0 0 0 0 0 0 0 0 0 0 0 0 0 0 0 0 0 0 127 0"/>
<feMorphology radius="3.16422" operator="erode" in="SourceAlpha" result="effect1_dropShadow"/>
<feOffset/>
<feGaussianBlur stdDeviation="10.2837"/>
<feColorMatrix type="matrix" values="0 0 0 0 0.992157 0 0 0 0 0.631373 0 0 0 0 0.207843 0 0 0 1 0"/>
<feBlend mode="normal" in2="BackgroundImageFix" result="effect1_dropShadow"/>
<feColorMatrix in="SourceAlpha" type="matrix" values="0 0 0 0 0 0 0 0 0 0 0 0 0 0 0 0 0 0 127 0"/>
<feOffset dy="4"/>
<feGaussianBlur stdDeviation="2"/>
<feColorMatrix type="matrix" values="0 0 0 0 0 0 0 0 0 0 0 0 0 0 0 0 0 0 0.25 0"/>
<feBlend mode="normal" in2="effect1_dropShadow" result="effect2_dropShadow"/>
<feBlend mode="normal" in="SourceGraphic" in2="effect2_dropShadow" result="shape"/>
</filter>
<filter id="filter4_dd" x="0.440197" y="1.53639" width="39.5771" height="39.7137" filterUnits="userSpaceOnUse" color-interpolation-filters="sRGB">
<feFlood flood-opacity="0" result="BackgroundImageFix"/>
<feColorMatrix in="SourceAlpha" type="matrix" values="0 0 0 0 0 0 0 0 0 0 0 0 0 0 0 0 0 0 127 0"/>
<feMorphology radius="3.16422" operator="erode" in="SourceAlpha" result="effect1_dropShadow"/>
<feOffset/>
<feGaussianBlur stdDeviation="10.2837"/>
<feColorMatrix type="matrix" values="0 0 0 0 0.992157 0 0 0 0 0.631373 0 0 0 0 0.207843 0 0 0 1 0"/>
<feBlend mode="normal" in2="BackgroundImageFix" result="effect1_dropShadow"/>
<feColorMatrix in="SourceAlpha" type="matrix" values="0 0 0 0 0 0 0 0 0 0 0 0 0 0 0 0 0 0 127 0"/>
<feOffset dy="4"/>
<feGaussianBlur stdDeviation="2"/>
<feColorMatrix type="matrix" values="0 0 0 0 0 0 0 0 0 0 0 0 0 0 0 0 0 0 0.25 0"/>
<feBlend mode="normal" in2="effect1_dropShadow" result="effect2_dropShadow"/>
<feBlend mode="normal" in="SourceGraphic" in2="effect2_dropShadow" result="shape"/>
</filter>
<filter id="filter5_dd" x="7.61207" y="2.06642" width="38.5171" height="38.6537" filterUnits="userSpaceOnUse" color-interpolation-filters="sRGB">
<feFlood flood-opacity="0" result="BackgroundImageFix"/>
<feColorMatrix in="SourceAlpha" type="matrix" values="0 0 0 0 0 0 0 0 0 0 0 0 0 0 0 0 0 0 127 0"/>
<feMorphology radius="3.16422" operator="erode" in="SourceAlpha" result="effect1_dropShadow"/>
<feOffset/>
<feGaussianBlur stdDeviation="0.527369"/>
<feColorMatrix type="matrix" values="0 0 0 0 0.964375 0 0 0 0 0.58315 0 0 0 0 0.135625 0 0 0 1 0"/>
<feBlend mode="normal" in2="BackgroundImageFix" result="effect1_dropShadow"/>
<feColorMatrix in="SourceAlpha" type="matrix" values="0 0 0 0 0 0 0 0 0 0 0 0 0 0 0 0 0 0 127 0"/>
<feMorphology radius="3.16422" operator="erode" in="SourceAlpha" result="effect2_dropShadow"/>
<feOffset/>
<feGaussianBlur stdDeviation="10.2837"/>
<feColorMatrix type="matrix" values="0 0 0 0 0.992157 0 0 0 0 0.631373 0 0 0 0 0.207843 0 0 0 1 0"/>
<feBlend mode="normal" in2="effect1_dropShadow" result="effect2_dropShadow"/>
<feBlend mode="normal" in="SourceGraphic" in2="effect2_dropShadow" result="shape"/>
</filter>
<filter id="filter6_dd" x="0.970227" y="2.06642" width="38.5171" height="38.6537" filterUnits="userSpaceOnUse" color-interpolation-filters="sRGB">
<feFlood flood-opacity="0" result="BackgroundImageFix"/>
<feColorMatrix in="SourceAlpha" type="matrix" values="0 0 0 0 0 0 0 0 0 0 0 0 0 0 0 0 0 0 127 0"/>
<feMorphology radius="3.16422" operator="erode" in="SourceAlpha" result="effect1_dropShadow"/>
<feOffset/>
<feGaussianBlur stdDeviation="0.527369"/>
<feColorMatrix type="matrix" values="0 0 0 0 0.964375 0 0 0 0 0.58315 0 0 0 0 0.135625 0 0 0 1 0"/>
<feBlend mode="normal" in2="BackgroundImageFix" result="effect1_dropShadow"/>
<feColorMatrix in="SourceAlpha" type="matrix" values="0 0 0 0 0 0 0 0 0 0 0 0 0 0 0 0 0 0 127 0"/>
<feMorphology radius="3.16422" operator="erode" in="SourceAlpha" result="effect2_dropShadow"/>
<feOffset/>
<feGaussianBlur stdDeviation="10.2837"/>
<feColorMatrix type="matrix" values="0 0 0 0 0.992157 0 0 0 0 0.631373 0 0 0 0 0.207843 0 0 0 1 0"/>
<feBlend mode="normal" in2="effect1_dropShadow" result="effect2_dropShadow"/>
<feBlend mode="normal" in="SourceGraphic" in2="effect2_dropShadow" result="shape"/>
</filter>
<clipPath id="clip0">
<rect width="48" height="48" fill="white"/>
</clipPath>
</defs>
</svg>
