<svg width="48" height="47" viewBox="0 0 48 47" fill="none" xmlns="http://www.w3.org/2000/svg">
<g filter="url(#filter0_dd)">
<path d="M13 25.9232C12.5682 26.1753 12.5684 26.1756 12.5685 26.1759L12.5689 26.1764L12.5697 26.1778L12.5717 26.1812L12.5773 26.1906C12.5819 26.198 12.588 26.2078 12.5956 26.2198C12.6108 26.2438 12.6323 26.2765 12.6603 26.3167C12.7163 26.3971 12.7985 26.5077 12.9091 26.6385C13.1303 26.9002 13.4662 27.244 13.9351 27.5891C14.8776 28.2827 16.3427 28.9705 18.4564 29.0206C18.6164 29.0244 18.7686 28.9514 18.8657 28.8242L18.8657 28.8241L18.866 28.8238L18.8671 28.8223L18.8718 28.8162L18.8907 28.7916C18.9074 28.7699 18.9321 28.738 18.9636 28.6974C19.0267 28.6164 19.117 28.5011 19.2257 28.365C19.4435 28.092 19.7323 27.7383 20.0208 27.4091C20.1305 27.284 20.1705 27.1128 20.1284 26.9525C21.4481 27.3081 22.7383 27.5095 24.0271 27.507C24.9951 27.505 25.956 27.3881 26.9222 27.1398C26.9379 27.1862 26.9606 27.2306 26.99 27.2713C27.2418 27.6205 27.5409 27.9904 27.774 28.2697C27.8912 28.4101 27.993 28.5293 28.0656 28.6134C28.1019 28.6555 28.1311 28.6889 28.1512 28.712L28.1745 28.7385L28.1807 28.7456L28.1824 28.7475L28.1829 28.748L28.183 28.7482L28.1831 28.7483L28.5577 28.4172L28.1831 28.7483C28.2805 28.8585 28.4214 28.9202 28.5685 28.9171C30.6769 28.8717 32.1818 28.2168 33.1656 27.5593C33.6558 27.2317 34.0141 26.9052 34.2526 26.6567C34.3718 26.5324 34.4614 26.4274 34.5227 26.3512C34.5533 26.3131 34.5769 26.2821 34.5937 26.2595C34.6021 26.2482 34.6088 26.2389 34.6138 26.2319L34.62 26.2231L34.6222 26.22L34.623 26.2188L34.6234 26.2182C34.6236 26.218 34.6237 26.2178 34.2115 25.9347L34.6237 26.2178C34.6809 26.1345 34.7115 26.0358 34.7115 25.9347C34.7115 23.3524 34.0292 20.768 33.3575 18.8446C33.0205 17.8796 32.6834 17.0734 32.4302 16.5076C32.3035 16.2245 32.1976 16.0012 32.1229 15.8478C32.0856 15.7711 32.056 15.7119 32.0356 15.6713L32.0119 15.6247L32.0055 15.6122L32.0037 15.6087L32.0031 15.6077L32.0029 15.6073C32.0029 15.6072 32.0028 15.6071 31.5594 15.8381L32.0028 15.6071C31.9673 15.5389 31.9166 15.4799 31.8545 15.4345C29.6451 13.819 27.5569 13.5688 26.784 13.532C26.7301 13.5122 26.672 13.5014 26.6117 13.5014H26.5815C26.4489 13.5014 26.3217 13.5541 26.228 13.6479L26.2254 13.6505C26.2184 13.6566 26.2116 13.6629 26.205 13.6695L25.9375 13.9327C25.8106 14.0575 25.7597 14.2403 25.8037 14.4127C25.8045 14.4161 25.8054 14.4195 25.8064 14.4229C24.1596 14.1901 22.6578 14.2389 21.3577 14.4235C21.3731 14.3935 21.3857 14.3617 21.395 14.3285C21.4438 14.1534 21.3937 13.9656 21.2643 13.838L21.0672 13.6439C20.9513 13.5296 20.787 13.4789 20.6268 13.5081L20.6688 13.7391C20.6688 13.7391 20.6688 13.7391 20.6688 13.7391C20.6268 13.5081 20.6267 13.5081 20.6267 13.5081L20.6264 13.5081L20.6256 13.5083L20.6228 13.5088L20.6124 13.5107L20.5731 13.5181C20.5389 13.5245 20.4892 13.534 20.4259 13.5464C20.2995 13.5712 20.1188 13.6077 19.9003 13.6546C19.4641 13.7482 18.8743 13.8841 18.2638 14.0527C17.6562 14.2205 17.0141 14.4245 16.4793 14.6565C16.212 14.7725 15.9594 14.9006 15.7469 15.0417C15.542 15.1778 15.3341 15.3521 15.2043 15.5749C15.0806 15.7873 14.9538 16.111 14.8286 16.4789C14.6998 16.8573 14.561 17.3181 14.4181 17.8267C14.1322 18.8445 13.825 20.0726 13.543 21.2546C13.2608 22.4375 13.0028 23.5784 12.8155 24.4233C12.7218 24.8458 12.6457 25.1946 12.593 25.4377C12.5667 25.5594 12.5462 25.6546 12.5323 25.7195L12.5164 25.7936L12.5123 25.8126L12.5113 25.8175L12.511 25.8188L12.511 25.8191C12.5109 25.8192 12.5109 25.8192 13 25.9232ZM13 25.9232L12.5682 26.1753C12.5055 26.0679 12.4851 25.9409 12.5109 25.8192L13 25.9232Z" stroke="#FEFFC6" stroke-linejoin="round"/>
</g>
<path d="M26.6117 14.0014L26.5643 14.0187L26.5815 14.0014H26.6117ZM15.6363 15.8266C16.2246 14.8169 20.7163 14 20.7163 14L20.9133 14.1942C17.6873 14.9636 16.518 16.4997 16.518 16.4997C16.6676 16.4681 22.8881 12.615 30.7813 16.4997C30.7813 16.4997 29.3157 15.1521 26.2881 14.2891L26.5557 14.0259C26.9742 14.0273 29.1891 14.105 31.5594 15.8381C31.5594 15.8381 34.2115 20.9296 34.2115 25.9347C34.2115 25.9347 32.5662 28.3309 28.5577 28.4172C28.5577 28.4172 27.8789 27.6491 27.3956 26.9789C29.74 26.3058 30.6173 24.9596 30.6173 24.9596C26.0537 27.8332 22.0539 27.3845 17.2688 25.4428C17.2242 25.4428 17.2041 25.4227 17.181 25.3997V25.3911C17.158 25.3695 17.1379 25.3479 17.0933 25.3479H17.007C16.7136 25.1552 16.518 25.0603 16.518 25.0603C16.518 25.0603 17.3939 26.4065 19.6448 27.0796C19.0537 27.7541 18.4683 28.5207 18.4683 28.5207C14.4613 28.4258 13 25.9232 13 25.9232C13 25.9232 14.8662 17.1485 15.6363 15.8266Z" stroke="#FDA135" stroke-width="0.4" stroke-linejoin="round"/>
<g filter="url(#filter1_dd)">
<path d="M26.8706 19.2046C26.8531 19.2046 26.836 19.2063 26.8194 19.2095C25.6697 19.2378 24.7535 20.2141 24.7503 21.3976H24.7503V21.3983C24.7503 22.5917 25.6932 23.582 26.8706 23.582C28.0488 23.582 28.991 22.591 28.991 21.3897C28.991 20.1954 28.0529 19.2046 26.8706 19.2046Z" stroke="#FEFFC6" stroke-width="0.53" stroke-linejoin="round"/>
</g>
<g filter="url(#filter2_dd)">
<path d="M20.2345 19.2046C20.2176 19.2046 20.2008 19.2062 20.1844 19.2094C19.0275 19.2338 18.1084 20.2117 18.1084 21.3983C18.1084 22.5917 19.0513 23.582 20.2287 23.582C21.4069 23.582 22.3491 22.591 22.3491 21.3897C22.3491 20.196 21.4131 19.2046 20.2345 19.2046Z" stroke="#FEFFC6" stroke-width="0.53" stroke-linejoin="round"/>
</g>
<g filter="url(#filter3_dd)">
<path d="M26.8706 19.6739H26.9885C27.8439 19.7367 28.526 20.4777 28.526 21.3897C28.526 22.3506 27.7758 23.117 26.8706 23.117C25.965 23.117 25.2154 22.3502 25.2153 21.3986C25.218 20.4375 25.9697 19.6739 26.8706 19.6739Z" stroke="#FDA135" stroke-width="0.4"/>
</g>
<g filter="url(#filter4_dd)">
<path d="M20.2287 19.6739H20.2954L20.2994 19.6709C21.1747 19.7065 21.8841 20.4585 21.8841 21.3897C21.8841 22.3506 21.1339 23.117 20.2287 23.117C19.323 23.117 18.5734 22.35 18.5734 21.3983C18.5734 20.4378 19.3232 19.6739 20.2287 19.6739Z" stroke="#FDA135" stroke-width="0.4"/>
</g>
<defs>
<filter id="filter0_dd" x="-5.40319" y="-4.40319" width="58.0179" height="51.3271" filterUnits="userSpaceOnUse" color-interpolation-filters="sRGB">
<feFlood flood-opacity="0" result="BackgroundImageFix"/>
<feColorMatrix in="SourceAlpha" type="matrix" values="0 0 0 0 0 0 0 0 0 0 0 0 0 0 0 0 0 0 127 0"/>
<feMorphology radius="3.16422" operator="erode" in="SourceAlpha" result="effect1_dropShadow"/>
<feOffset/>
<feGaussianBlur stdDeviation="0.527369"/>
<feColorMatrix type="matrix" values="0 0 0 0 0.964375 0 0 0 0 0.58315 0 0 0 0 0.135625 0 0 0 1 0"/>
<feBlend mode="normal" in2="BackgroundImageFix" result="effect1_dropShadow"/>
<feColorMatrix in="SourceAlpha" type="matrix" values="0 0 0 0 0 0 0 0 0 0 0 0 0 0 0 0 0 0 127 0"/>
<feMorphology radius="3.16422" operator="erode" in="SourceAlpha" result="effect2_dropShadow"/>
<feOffset/>
<feGaussianBlur stdDeviation="10.2837"/>
<feColorMatrix type="matrix" values="0 0 0 0 0.992157 0 0 0 0 0.631373 0 0 0 0 0.207843 0 0 0 1 0"/>
<feBlend mode="normal" in2="effect1_dropShadow" result="effect2_dropShadow"/>
<feBlend mode="normal" in="SourceGraphic" in2="effect2_dropShadow" result="shape"/>
</filter>
<filter id="filter1_dd" x="7.0821" y="1.53639" width="39.5771" height="39.7137" filterUnits="userSpaceOnUse" color-interpolation-filters="sRGB">
<feFlood flood-opacity="0" result="BackgroundImageFix"/>
<feColorMatrix in="SourceAlpha" type="matrix" values="0 0 0 0 0 0 0 0 0 0 0 0 0 0 0 0 0 0 127 0"/>
<feMorphology radius="3.16422" operator="erode" in="SourceAlpha" result="effect1_dropShadow"/>
<feOffset/>
<feGaussianBlur stdDeviation="10.2837"/>
<feColorMatrix type="matrix" values="0 0 0 0 0.992157 0 0 0 0 0.631373 0 0 0 0 0.207843 0 0 0 1 0"/>
<feBlend mode="normal" in2="BackgroundImageFix" result="effect1_dropShadow"/>
<feColorMatrix in="SourceAlpha" type="matrix" values="0 0 0 0 0 0 0 0 0 0 0 0 0 0 0 0 0 0 127 0"/>
<feOffset dy="4"/>
<feGaussianBlur stdDeviation="2"/>
<feColorMatrix type="matrix" values="0 0 0 0 0 0 0 0 0 0 0 0 0 0 0 0 0 0 0.25 0"/>
<feBlend mode="normal" in2="effect1_dropShadow" result="effect2_dropShadow"/>
<feBlend mode="normal" in="SourceGraphic" in2="effect2_dropShadow" result="shape"/>
</filter>
<filter id="filter2_dd" x="0.440182" y="1.53639" width="39.5771" height="39.7137" filterUnits="userSpaceOnUse" color-interpolation-filters="sRGB">
<feFlood flood-opacity="0" result="BackgroundImageFix"/>
<feColorMatrix in="SourceAlpha" type="matrix" values="0 0 0 0 0 0 0 0 0 0 0 0 0 0 0 0 0 0 127 0"/>
<feMorphology radius="3.16422" operator="erode" in="SourceAlpha" result="effect1_dropShadow"/>
<feOffset/>
<feGaussianBlur stdDeviation="10.2837"/>
<feColorMatrix type="matrix" values="0 0 0 0 0.992157 0 0 0 0 0.631373 0 0 0 0 0.207843 0 0 0 1 0"/>
<feBlend mode="normal" in2="BackgroundImageFix" result="effect1_dropShadow"/>
<feColorMatrix in="SourceAlpha" type="matrix" values="0 0 0 0 0 0 0 0 0 0 0 0 0 0 0 0 0 0 127 0"/>
<feOffset dy="4"/>
<feGaussianBlur stdDeviation="2"/>
<feColorMatrix type="matrix" values="0 0 0 0 0 0 0 0 0 0 0 0 0 0 0 0 0 0 0.25 0"/>
<feBlend mode="normal" in2="effect1_dropShadow" result="effect2_dropShadow"/>
<feBlend mode="normal" in="SourceGraphic" in2="effect2_dropShadow" result="shape"/>
</filter>
<filter id="filter3_dd" x="7.6121" y="2.06642" width="38.5171" height="38.6537" filterUnits="userSpaceOnUse" color-interpolation-filters="sRGB">
<feFlood flood-opacity="0" result="BackgroundImageFix"/>
<feColorMatrix in="SourceAlpha" type="matrix" values="0 0 0 0 0 0 0 0 0 0 0 0 0 0 0 0 0 0 127 0"/>
<feMorphology radius="3.16422" operator="erode" in="SourceAlpha" result="effect1_dropShadow"/>
<feOffset/>
<feGaussianBlur stdDeviation="0.527369"/>
<feColorMatrix type="matrix" values="0 0 0 0 0.964375 0 0 0 0 0.58315 0 0 0 0 0.135625 0 0 0 1 0"/>
<feBlend mode="normal" in2="BackgroundImageFix" result="effect1_dropShadow"/>
<feColorMatrix in="SourceAlpha" type="matrix" values="0 0 0 0 0 0 0 0 0 0 0 0 0 0 0 0 0 0 127 0"/>
<feMorphology radius="3.16422" operator="erode" in="SourceAlpha" result="effect2_dropShadow"/>
<feOffset/>
<feGaussianBlur stdDeviation="10.2837"/>
<feColorMatrix type="matrix" values="0 0 0 0 0.992157 0 0 0 0 0.631373 0 0 0 0 0.207843 0 0 0 1 0"/>
<feBlend mode="normal" in2="effect1_dropShadow" result="effect2_dropShadow"/>
<feBlend mode="normal" in="SourceGraphic" in2="effect2_dropShadow" result="shape"/>
</filter>
<filter id="filter4_dd" x="0.970181" y="2.06642" width="38.5171" height="38.6537" filterUnits="userSpaceOnUse" color-interpolation-filters="sRGB">
<feFlood flood-opacity="0" result="BackgroundImageFix"/>
<feColorMatrix in="SourceAlpha" type="matrix" values="0 0 0 0 0 0 0 0 0 0 0 0 0 0 0 0 0 0 127 0"/>
<feMorphology radius="3.16422" operator="erode" in="SourceAlpha" result="effect1_dropShadow"/>
<feOffset/>
<feGaussianBlur stdDeviation="0.527369"/>
<feColorMatrix type="matrix" values="0 0 0 0 0.964375 0 0 0 0 0.58315 0 0 0 0 0.135625 0 0 0 1 0"/>
<feBlend mode="normal" in2="BackgroundImageFix" result="effect1_dropShadow"/>
<feColorMatrix in="SourceAlpha" type="matrix" values="0 0 0 0 0 0 0 0 0 0 0 0 0 0 0 0 0 0 127 0"/>
<feMorphology radius="3.16422" operator="erode" in="SourceAlpha" result="effect2_dropShadow"/>
<feOffset/>
<feGaussianBlur stdDeviation="10.2837"/>
<feColorMatrix type="matrix" values="0 0 0 0 0.992157 0 0 0 0 0.631373 0 0 0 0 0.207843 0 0 0 1 0"/>
<feBlend mode="normal" in2="effect1_dropShadow" result="effect2_dropShadow"/>
<feBlend mode="normal" in="SourceGraphic" in2="effect2_dropShadow" result="shape"/>
</filter>
</defs>
</svg>
