<?xml version="1.0" encoding="UTF-8" standalone="no"?>
<svg
   width="171"
   height="272"
   stroke="#f124ff"
   stroke-linecap="round"
   stroke-linejoin="miter"
   fill="#f124ff"
   fill-rule="nonzero"
   stroke-width=".1333333333"
   version="1.1"
   id="svg8635"
   sodipodi:docname="huobi.svg"
   inkscape:version="1.2.2 (732a01da63, 2022-12-09)"
   xmlns:inkscape="http://www.inkscape.org/namespaces/inkscape"
   xmlns:sodipodi="http://sodipodi.sourceforge.net/DTD/sodipodi-0.dtd"
   xmlns="http://www.w3.org/2000/svg"
   xmlns:svg="http://www.w3.org/2000/svg">
  <defs
     id="defs8639" />
  <sodipodi:namedview
     id="namedview8637"
     pagecolor="#ffffff"
     bordercolor="#000000"
     borderopacity="0.25"
     inkscape:showpageshadow="2"
     inkscape:pageopacity="0.0"
     inkscape:pagecheckerboard="0"
     inkscape:deskcolor="#d1d1d1"
     showgrid="false"
     inkscape:zoom="2.9926471"
     inkscape:cx="85.710073"
     inkscape:cy="163.06634"
     inkscape:window-width="2560"
     inkscape:window-height="1009"
     inkscape:window-x="1912"
     inkscape:window-y="-8"
     inkscape:window-maximized="1"
     inkscape:current-layer="svg8635" />
  <path
     d="M80.3333666667 5.0637507191c1.6 14.1333-2.8 41.7333-8.6667 54.8-1.7333 3.8667-3.8667 9.0667-4.8 11.3333-1.0667 2.4-2.1333 4.4-2.6667 4.4-.4 0-1.6 1.8667-2.5333 4-1.0667 2.2667-2.5333 4.8-3.3333 5.7334-.9334.8-3.2 3.7333-5.0667 6.2666-2 2.5334-8.4 10-14.4 16.6667-14.5333 15.8667-25.7333 30.8-30 39.7333-4.2667 9.0667-8.8 28.1334-8.8 36.6667.1333 9.8667 4.9333 29.3333 9.4667 38.1333s15.0666 22.1334 20.9333 26.6667c2 1.4667 3.8667 3.0667 4.2667 3.4667 1.6 1.8666 13.7333 9.3333 19.6 12.1333l7.4666 3.6c.5334.2667.6667-.2667.2667-1.3333-1.4667-4.1334-6-33.3334-6-38.8 0-13.6 8.6667-39.3334 16.5333-49.0667 1.6-1.8667 4.2667-5.3333 6.1334-7.8667l21.0666-27.3333c.6667-.8 2.2667-3.2 3.7334-5.3333 1.3333-2.2667 2.8-4.2667 3.3333-4.6667 1.6-1.2 13.2-24.6667 13.2-26.8 0-1.0667.8-2.8 1.7333-3.6 1.0667-1.2 1.6-7.6 1.6-22 0-18-.4-21.3333-3.2-29.6-6.2666-18-17.2-34.2667-30.2666-44.8-3.6-2.8-7.3334-5.8667-8.4-6.8-1.6-1.3333-1.7334-.6667-1.2 4.4zm56.2666435059 98.533358162c3.2 10.9333 1.7333 49.0666-2 51.4666-.6667.4-1.2 1.7334-1.2 2.9334 0 3.2-9.8667 22-15.8667 30.1333-5.6 7.4667-12.6666 14.8-28.9333 30.2667-5.8667 5.6-12.2667 12.8-14.2667 16.1333-3.8666 6.8-8.9333 23.4667-8.9333 30 0 3.8667.5333 4.4 5.0667 5.6 6.4 1.8667 24.8 1.8667 31.6 0 5.4666-1.3333 15.7333-5.6 19.3333-7.8666 1.0667-.6667 4.6667-2.8001 8-4.8001 8.2667-5.0666 18.8-15.3333 25.2-24.6666 3.0667-4.4 5.4667-8.2667 5.4667-8.5334 0-.4 1.4666-3.6 3.2-7.2 3.8666-8.1333 4.6666-11.2 6.2666-24.6666 3.2-28.4-8.2666-61.4667-30.5333-88.1334-3.2-3.8666-3.3333-3.8666-2.4-.6666z"
     id="path8633" />
  <path
     style="fill:#a440f2;stroke:#a440f2;stroke-width:0.0445536;fill-opacity:1;stroke-opacity:1"
     d="M 55.433724,265.84504 C 35.666598,255.99149 24.712995,246.59151 13.575453,229.92382 9.9441329,224.48943 8.0697618,220.71931 6.0507453,214.78858 1.5752588,201.64215 -0.71598702,188.41866 0.12006852,180.56081 1.2765616,169.69126 5.44531,154.33896 9.3644337,146.51647 13.452682,138.35642 24.197877,124.18073 37.598981,109.26781 c 6.993414,-7.78236 14.460526,-16.490438 16.955922,-19.773849 1.142012,-1.502646 2.649754,-3.39456 3.350539,-4.204251 0.700784,-0.809691 2.225464,-3.306915 3.388184,-5.549388 1.162717,-2.24247 2.39616,-4.228207 2.740982,-4.412752 0.827294,-0.442755 1.9055,-2.644559 5.715468,-11.67155 4.311885,-10.216193 5.63021,-14.42805 7.582825,-24.226045 2.357575,-11.830036 3.228273,-21.013673 2.867128,-30.2407858 -0.342386,-8.74774085 -0.343586,-8.96045598 -0.0522,-9.2518438 0.378127,-0.37812607 1.299695,0.28086667 7.63255,5.4578658 12.356301,10.1010588 20.112251,19.7667628 27.176111,33.8676878 2.37595,4.742902 5.11248,11.511518 6.32622,15.647459 1.85741,6.329296 1.92457,7.098187 2.08991,23.926854 0.1667,16.966511 -0.10982,22.503828 -1.2276,24.582938 -1.27959,2.38007 -1.64117,3.2245 -2.30513,5.38332 -1.5217,4.94776 -10.12701,22.09747 -12.89204,25.69284 -0.77736,1.01082 -2.36399,3.26634 -3.52583,5.01229 -1.16185,1.74595 -8.516931,11.48513 -16.34463,21.64262 -7.827703,10.15749 -14.949511,19.48034 -15.826247,20.71744 -4.08547,5.76472 -9.448047,18.72445 -12.261623,29.63265 -2.742799,10.63379 -3.115633,15.64468 -1.8784,25.24562 1.483255,11.5101 4.189571,27.21206 5.399337,31.32678 0.376756,1.28144 -0.741842,0.92916 -7.076735,-2.22867 z"
     id="path9484" />
  <path
     style="fill:#a440f2;stroke:#a440f2;stroke-width:0.0445536;fill-opacity:1;stroke-opacity:1"
     d="m 77.857494,271.4871 c -6.559203,-0.53929 -10.953082,-1.80724 -12.04673,-3.47635 -0.491261,-0.74976 -0.548099,-1.44663 -0.390917,-4.79293 0.279028,-5.94034 3.213239,-16.58955 6.952621,-25.23332 2.517882,-5.82022 6.429508,-10.33497 23.152825,-26.72267 16.253727,-15.92753 20.561797,-20.84548 25.879887,-29.54358 6.41443,-10.49126 11.20245,-20.36656 11.902,-24.54791 0.11206,-0.66983 0.64072,-1.76772 1.17479,-2.43976 0.60613,-0.76272 1.16222,-2.06304 1.47979,-3.46027 1.47209,-6.47683 2.41343,-20.55719 2.08203,-31.14255 -0.28099,-8.97488 -0.61316,-11.84998 -2.11372,-18.29484 -0.36009,-1.54655 0.80822,-0.69632 3.44368,2.50615 15.71554,19.09663 25.80937,40.37976 29.51711,62.23765 1.60375,9.45445 1.7311,20.0338 0.36199,30.07124 -1.38107,10.12513 -2.11668,12.59625 -6.7598,22.708 -4.82171,10.5007 -10.18697,18.0587 -19.10587,26.91431 -6.0524,6.00944 -9.93599,9.02927 -17.44659,13.56625 -10.2097,6.16745 -19.55774,9.97482 -27.408704,11.16331 -4.082493,0.61801 -15.741831,0.89281 -20.674392,0.48727 z"
     id="path9486" />
</svg>
