<svg xmlns="http://www.w3.org/2000/svg" width="171" height="272" stroke="#f124ff" stroke-linecap="round" stroke-linejoin="miter" fill="#f124ff" fill-rule="nonzero" stroke-width=".1333333333">
<path d="M80.3333666667 5.0637507191c1.6 14.1333-2.8 41.7333-8.6667 54.8-1.7333 3.8667-3.8667 9.0667-4.8 11.3333-1.0667 2.4-2.1333 4.4-2.6667 4.4-.4 0-1.6 1.8667-2.5333 4-1.0667 2.2667-2.5333 4.8-3.3333 5.7334-.9334.8-3.2 3.7333-5.0667 6.2666-2 2.5334-8.4 10-14.4 16.6667-14.5333 15.8667-25.7333 30.8-30 39.7333-4.2667 9.0667-8.8 28.1334-8.8 36.6667.1333 9.8667 4.9333 29.3333 9.4667 38.1333s15.0666 22.1334 20.9333 26.6667c2 1.4667 3.8667 3.0667 4.2667 3.4667 1.6 1.8666 13.7333 9.3333 19.6 12.1333l7.4666 3.6c.5334.2667.6667-.2667.2667-1.3333-1.4667-4.1334-6-33.3334-6-38.8 0-13.6 8.6667-39.3334 16.5333-49.0667 1.6-1.8667 4.2667-5.3333 6.1334-7.8667l21.0666-27.3333c.6667-.8 2.2667-3.2 3.7334-5.3333 1.3333-2.2667 2.8-4.2667 3.3333-4.6667 1.6-1.2 13.2-24.6667 13.2-26.8 0-1.0667.8-2.8 1.7333-3.6 1.0667-1.2 1.6-7.6 1.6-22 0-18-.4-21.3333-3.2-29.6-6.2666-18-17.2-34.2667-30.2666-44.8-3.6-2.8-7.3334-5.8667-8.4-6.8-1.6-1.3333-1.7334-.6667-1.2 4.4zm56.2666435059 98.533358162c3.2 10.9333 1.7333 49.0666-2 51.4666-.6667.4-1.2 1.7334-1.2 2.9334 0 3.2-9.8667 22-15.8667 30.1333-5.6 7.4667-12.6666 14.8-28.9333 30.2667-5.8667 5.6-12.2667 12.8-14.2667 16.1333-3.8666 6.8-8.9333 23.4667-8.9333 30 0 3.8667.5333 4.4 5.0667 5.6 6.4 1.8667 24.8 1.8667 31.6 0 5.4666-1.3333 15.7333-5.6 19.3333-7.8666 1.0667-.6667 4.6667-2.8001 8-4.8001 8.2667-5.0666 18.8-15.3333 25.2-24.6666 3.0667-4.4 5.4667-8.2667 5.4667-8.5334 0-.4 1.4666-3.6 3.2-7.2 3.8666-8.1333 4.6666-11.2 6.2666-24.6666 3.2-28.4-8.2666-61.4667-30.5333-88.1334-3.2-3.8666-3.3333-3.8666-2.4-.6666z"/>
</svg>