<?xml version="1.0" encoding="UTF-8" standalone="no"?>
<svg
   width="100%"
   height="100%"
   viewBox="0 0 512 512"
   version="1.1"
   xml:space="preserve"
   style="fill-rule:evenodd;clip-rule:evenodd;stroke-linecap:round;stroke-linejoin:round;"
   id="svg5197"
   sodipodi:docname="sushi-logo.svg"
   inkscape:version="1.2.2 (732a01da63, 2022-12-09)"
   xmlns:inkscape="http://www.inkscape.org/namespaces/inkscape"
   xmlns:sodipodi="http://sodipodi.sourceforge.net/DTD/sodipodi-0.dtd"
   xmlns="http://www.w3.org/2000/svg"
   xmlns:svg="http://www.w3.org/2000/svg"
   xmlns:serif="http://www.serif.com/"><defs
   id="defs5201" /><sodipodi:namedview
   id="namedview5199"
   pagecolor="#ffffff"
   bordercolor="#000000"
   borderopacity="0.25"
   inkscape:showpageshadow="2"
   inkscape:pageopacity="0.0"
   inkscape:pagecheckerboard="0"
   inkscape:deskcolor="#d1d1d1"
   showgrid="false"
   inkscape:zoom="1.5898438"
   inkscape:cx="256.3145"
   inkscape:cy="256"
   inkscape:window-width="2560"
   inkscape:window-height="1001"
   inkscape:window-x="-9"
   inkscape:window-y="-9"
   inkscape:window-maximized="1"
   inkscape:current-layer="g5192" />
    <g
   transform="matrix(1,0,0,1,-21168.3,-16442.1)"
   id="g5195">
        <g
   id="Logos">
        </g>
        <g
   id="Icon-Logo"
   serif:id="Icon Logo"
   transform="matrix(0.266667,0,0,0.474074,21168.3,16442.1)">
            <rect
   x="0"
   y="0"
   width="1920"
   height="1080"
   style="fill:none;"
   id="rect5174" />
            <g
   transform="matrix(5.26794,4.70863e-17,-3.71743e-32,3.76673,-5053.29,-2457.08)"
   id="g5192">
                <g
   transform="matrix(1.53485,-7.37289e-16,-5.11207e-16,1.20744,-25893.4,-8083.24)"
   id="g5178">
                    <path
   d="M17721.1,7385.28C17721.1,7385.28 17678.5,7444.66 17678.5,7444.66C17671.8,7454.09 17658.8,7458.63 17641.9,7457.24C17620.1,7455.44 17591.2,7443.92 17563.5,7424.05C17535.8,7404.17 17515.6,7380.49 17506.8,7360.44C17500.1,7344.9 17500.2,7331.18 17507,7321.74C17507,7321.74 17549.5,7262.36 17549.5,7262.36C17556.3,7252.93 17569.3,7248.39 17586.1,7249.78C17607.9,7251.58 17636.9,7263.11 17664.6,7282.98C17692.3,7302.85 17712.5,7326.53 17721.2,7346.58C17728,7362.12 17727.8,7375.85 17721.1,7385.28L17721.1,7385.28ZM17560.9,7270.52C17565.3,7264.42 17574.1,7262.84 17585,7263.74C17604.9,7265.38 17631.1,7276.22 17656.4,7294.36C17681.7,7312.49 17700.4,7333.86 17708.4,7352.16C17712.7,7362.19 17714.1,7371.03 17709.7,7377.13L17715.4,7381.2C17715.4,7381.2 17709.7,7377.13 17709.7,7377.13L17667.1,7436.51C17662.8,7442.6 17654,7444.19 17643.1,7443.28C17623.2,7441.65 17596.9,7430.8 17571.6,7412.67C17546.3,7394.53 17527.6,7373.16 17519.7,7354.87C17515.3,7344.83 17514,7335.99 17518.4,7329.9C17518.4,7329.9 17560.9,7270.52 17560.9,7270.52Z"
   style="fill:#111131;"
   id="path5176" />
                </g>
                <g
   transform="matrix(1.53485,3.35132e-16,7.66811e-16,1.20744,-25885.9,-8092.74)"
   id="g5182">
                    <path
   d="M17550.4,7275.75C17564.3,7256.35 17611.4,7266.31 17655.6,7297.97C17699.8,7329.64 17724.4,7371.11 17710.5,7390.51C17710.5,7390.51 17668,7449.89 17668,7449.89C17654.1,7469.29 17606.9,7459.33 17562.7,7427.66C17518.5,7395.99 17493.9,7354.53 17507.8,7335.13C17507.8,7335.13 17550.4,7275.75 17550.4,7275.75Z"
   style="fill:#111131;"
   id="path5180" />
                </g>
                <g
   transform="matrix(1.58178,-1.97732e-17,8.78108e-33,1.24436,-28438.7,-19162.2)"
   id="g5186">
                    <path
   d="M18640.6,15952.1C18646.6,15943.7 18658.2,15940 18673.2,15941.2C18693.9,15942.9 18721.3,15954 18747.7,15972.8C18774,15991.7 18793.3,16014.2 18801.5,16033.2C18807.5,16047 18807.7,16059.2 18801.7,16067.6C18801.7,16067.6 18760.5,16125.2 18760.5,16125.2C18754.5,16133.6 18742.8,16137.3 18727.9,16136.1C18707.2,16134.3 18679.7,16123.3 18653.4,16104.4C18627,16085.6 18607.8,16063.1 18599.5,16044.1C18593.5,16030.3 18593.3,16018.1 18599.3,16009.7L18640.6,15952.1ZM18796,16063.5L18796,16063.4C18800.8,16056.8 18799.8,16047 18795.1,16036C18787.2,16017.9 18768.7,15996.6 18743.5,15978.6C18718.4,15960.6 18692.3,15949.9 18672.6,15948.3C18660.6,15947.3 18651.1,15949.5 18646.3,15956.2L18646.1,15956.6C18641.6,15963.3 18642.6,15972.8 18647.3,15983.6C18655.2,16001.8 18673.7,16023.1 18698.8,16041.1C18723.9,16059.1 18750,16069.8 18769.7,16071.4C18781.5,16072.3 18790.8,16070.2 18795.7,16063.9L18796,16063.4L18796,16063.5ZM18731.8,15994.9C18744.4,16003.9 18753.7,16014.6 18757.6,16023.7C18759.9,16028.8 18760.5,16033.3 18758.2,16036.4C18756,16039.5 18751.5,16040.4 18746,16039.9C18736.1,16039.1 18723.1,16033.7 18710.5,16024.7C18697.9,16015.7 18688.6,16005.1 18684.7,15996C18682.5,15990.9 18681.9,15986.4 18684.1,15983.3C18686.3,15980.2 18690.8,15979.3 18696.4,15979.7C18706.2,15980.6 18719.3,15985.9 18731.8,15994.9Z"
   style="fill:#F124FF;"
   id="path5184" />
                </g>
                <g
   transform="matrix(1.58178,-1.97732e-17,8.78108e-33,1.24436,-28393.2,-19215.7)"
   id="g5190">
                    <path
   d="M18607.7,16015.7C18608.8,16042 18634.7,16067.1 18654.6,16084.1C18682.3,16107.7 18726.9,16125.4 18751.8,16121.4"
   style="fill:none;stroke:white;stroke-width:3px;stroke-dasharray:6,6,75,75;stroke-dashoffset:3;"
   id="path5188" />
                </g>
            <path
   style="fill:#50d313;stroke:#50d313;stroke-width:0.628993"
   d="M 314.38559,472.06105 C 269.90908,467.38606 214.59567,444.65492 163.22359,409.94078 136.15985,391.65273 115.80205,374.96751 93.989092,353.19629 75.717204,334.95938 64.485569,321.78439 52.418047,304.43243 23.978726,263.53938 14.569093,224.73363 26.953905,199.41718 c 2.051372,-4.19332 15.289154,-23.1203 50.39008,-72.04617 26.184275,-36.4973 48.930485,-67.724777 50.547135,-69.394398 1.61664,-1.66962 5.34524,-4.6523 8.28578,-6.628178 22.3159,-14.995021 59.22745,-15.994287 103.46929,-2.801109 52.12155,15.542952 109.01481,48.231828 157.87715,90.710685 10.71616,9.31616 34.02251,32.87507 42.06506,42.52086 31.08923,37.28675 47.29214,68.99877 50.1923,98.23541 0.81793,8.24557 0.25668,16.24012 -1.67008,23.78916 -2.17714,8.53003 -5.51108,13.55787 -52.40718,79.03429 -25.18702,35.16616 -47.02657,65.53535 -48.53232,67.48709 -7.72136,10.00832 -22.414,17.78513 -39.3382,20.82172 -6.61574,1.18701 -25.85122,1.71295 -33.44733,0.91451 z M 429.33321,348.3924 c 6.09166,-0.46069 8.6152,-2.00476 7.90448,-4.83648 -0.65941,-2.6273 -2.09565,-3.01227 -8.35363,-2.23911 -7.25773,0.89666 -25.57801,0.35263 -34.69695,-1.03034 -6.76854,-1.02652 -7.16901,-1.02511 -8.33415,0.0293 -1.25098,1.13211 -1.57954,3.15366 -0.72979,4.49005 0.82971,1.30487 3.52664,1.96542 12.1627,2.97898 13.20661,1.54997 18.30755,1.64667 32.04734,0.60757 z m -51.74893,-5.40272 c 1.00647,-1.00647 0.96099,-3.9811 -0.0767,-5.01882 -0.45734,-0.45734 -4.16193,-1.6438 -8.23241,-2.63657 -8.78982,-2.1438 -10.43484,-1.86474 -10.43484,1.77015 0,2.69022 0.65993,3.09048 8.39004,5.08867 6.50942,1.68264 9.25653,1.89399 10.35395,0.79657 z m 57.99312,-14.62551 c 40.92637,-6.20562 50.81818,-38.24626 26.72658,-86.57031 C 434.16411,185.34958 364.79596,122.37116 289.33661,84.759068 234.55068,57.451476 182.69415,47.73915 153.12466,59.247628 c -24.77569,9.642729 -31.33275,35.241054 -17.77215,69.381362 18.37467,46.26028 65.21667,98.0881 126.30842,139.75257 49.57699,33.81142 103.57203,56.23567 145.6118,60.47287 6.15261,0.62012 22.89406,0.33015 28.30467,-0.49026 z M 217.9873,262.58229 c 2.20686,-1.18107 1.57758,-4.13314 -1.45659,-6.83307 -1.47027,-1.30831 -5.64521,-5.02969 -9.27764,-8.26973 -37.46995,-33.42228 -61.40435,-61.68787 -75.90553,-89.64145 -4.59682,-8.86118 -8.3017,-17.95807 -10.31978,-25.33898 -1.64203,-6.00557 -3.21838,-7.73239 -5.93052,-6.49665 -2.2608,1.03009 -2.5085,3.24572 -0.94271,8.43229 10.0503,33.29083 33.36483,66.65616 72.39676,103.60672 15.34868,14.53022 27.6389,25.192 29.03973,25.192 0.6488,0 1.72713,-0.29301 2.39628,-0.65113 z M 116.1252,118.63 c 1.32633,-1.07399 1.45479,-1.62339 1.28689,-5.50368 -0.22469,-5.19273 -1.28299,-7.14106 -3.87892,-7.14106 -2.99376,0 -3.82716,1.9298 -3.23337,7.48707 0.36373,3.40412 0.80654,4.86034 1.6699,5.49164 1.57351,1.15059 2.40464,1.08379 4.1555,-0.33397 z"
   id="path6117"
   transform="matrix(0.71185232,0,0,0.56000173,959.25352,652.31116)" /><path
   style="fill:#50d313;stroke:#50d313;stroke-width:0.628993"
   d="m 353.80835,258.18923 c -47.96102,-6.66104 -111.25696,-52.17663 -131.50506,-94.5642 -10.65131,-22.29755 -5.96521,-35.76831 13.28235,-38.18175 14.46038,-1.81318 35.2179,3.4731 58.15392,14.80996 12.70152,6.27814 20.81541,11.14454 32.1909,19.30691 35.14085,25.21496 60.82609,59.27842 60.86244,80.71503 0.007,4.40839 -0.2235,5.45453 -1.86393,8.44207 -3.65662,6.65943 -9.4299,9.43663 -20.39837,9.81248 -3.64859,0.12503 -8.4736,-0.0282 -10.72225,-0.3405 z"
   id="path6119"
   transform="matrix(0.71185232,0,0,0.56000173,959.25352,652.31116)" /></g>
        </g>
    </g>
</svg>
