<?xml version="1.0" encoding="UTF-8" standalone="no"?>
<svg
   fill="none"
   height="38"
   viewBox="0 0 33 38"
   width="33"
   version="1.1"
   id="svg6164"
   sodipodi:docname="uni-logo.svg"
   inkscape:version="1.2.2 (732a01da63, 2022-12-09)"
   xmlns:inkscape="http://www.inkscape.org/namespaces/inkscape"
   xmlns:sodipodi="http://sodipodi.sourceforge.net/DTD/sodipodi-0.dtd"
   xmlns="http://www.w3.org/2000/svg"
   xmlns:svg="http://www.w3.org/2000/svg">
  <defs
     id="defs6168" />
  <sodipodi:namedview
     id="namedview6166"
     pagecolor="#ffffff"
     bordercolor="#000000"
     borderopacity="0.25"
     inkscape:showpageshadow="2"
     inkscape:pageopacity="0.0"
     inkscape:pagecheckerboard="0"
     inkscape:deskcolor="#d1d1d1"
     showgrid="false"
     inkscape:zoom="21.421053"
     inkscape:cx="16.502457"
     inkscape:cy="22.781326"
     inkscape:window-width="2560"
     inkscape:window-height="1009"
     inkscape:window-x="1912"
     inkscape:window-y="-8"
     inkscape:window-maximized="1"
     inkscape:current-layer="svg6164" />
  <clipPath
     id="a">
    <path
       d="m0 0h33v38h-33z"
       id="path6139" />
  </clipPath>
  <g
     clip-path="url(#a)"
     fill="#f124ff"
     id="g6162">
    <path
       d="m12.9411 8.6471c-.4117-.05883-.4313-.07844-.2352-.09804.3725-.05883 1.2352.01961 1.8431.15686 1.4118.33333 2.6863 1.19608 4.0392 2.70588l.3529.4118.5099-.0785c2.1764-.3529 4.4117-.0784 6.2745.7844.5098.2352 1.3137.7058 1.4117.8235.0392.0392.0981.2941.1373.549.1372.9216.0784 1.6078-.2157 2.1373-.1569.2941-.1569.3725-.0588.6274.0784.1961.3137.3333.5294.3333.4706 0 .9608-.7451 1.1961-1.7843l.098-.4117.1765.196c1 1.1177 1.7843 2.6667 1.9019 3.7647l.0392.2942-.1764-.2549c-.2941-.451-.5686-.7451-.9412-1-.6667-.451-1.3725-.5883-3.2353-.6863-1.6863-.0981-2.6471-.2353-3.5882-.549-1.6079-.5294-2.4314-1.2157-4.3334-3.7451-.8431-1.1177-1.3725-1.7255-1.9019-2.2353-1.1569-1.11767-2.3137-1.70591-3.8236-1.9412z"
       id="path6142" />
    <path
       d="m27.549 11.1373c.0392-.7451.1373-1.23531.353-1.68629.0784-.17647.1568-.33333.1764-.33333s-.0196.13725-.0784.29411c-.1569.43138-.1765 1.03921-.0784 1.72551.1372.8823.196 1 1.1372 1.9608.4314.4509.9412 1.0196 1.1373 1.2549l.3333.4313-.3333-.3137c-.4118-.3921-1.353-1.1372-1.5686-1.2353-.1373-.0784-.1569-.0784-.2549.0196-.0785.0785-.0981.1961-.0981.7647-.0196.8824-.1372 1.4314-.4314 2-.1568.2942-.1764.2353-.0392-.098.0981-.2549.1177-.3726.1177-1.2157 0-1.7059-.1961-2.1176-1.3922-2.8039-.2941-.1765-.8039-.4314-1.098-.5686-.3138-.1373-.549-.2549-.5294-.2549.0392-.0393 1.196.2941 1.647.4902.6863.2745.8039.2941.8824.2745.0588-.0589.098-.2157.1176-.7059z"
       id="path6144" />
    <path
       d="m13.7451 14.0588c-.8235-1.1372-1.353-2.9019-1.2353-4.21564l.0392-.41176.1961.03921c.3529.05883.9608.29412 1.2549.47059.7843.4706 1.1372 1.1176 1.4706 2.7255.098.4706.2353 1.0196.2941 1.1961.098.2941.4706.9804.7843 1.4117.2157.3138.0784.4706-.4118.4314-.7451-.0784-1.7451-.7647-2.3921-1.6471z"
       id="path6146" />
    <path
       d="m26.549 22.5882c-3.8823-1.5687-5.2549-2.9216-5.2549-5.2157 0-.3333.0196-.6079.0196-.6079.0196 0 .1569.1177.3334.255.7843.6274 1.6666.9019 4.1176 1.2549 1.4314.2156 2.2549.3725 3 .6274 2.3726.7843 3.8432 2.3922 4.1961 4.5686.098.6275.0392 1.8236-.1176 2.451-.1373.4902-.5295 1.3922-.6275 1.4118-.0196 0-.0588-.0981-.0588-.2549-.0392-.8236-.451-1.6079-1.1373-2.2157-.8235-.7059-1.8823-1.2353-4.4706-2.2745z"
       id="path6148" />
    <path
       d="m23.8039 23.2353c-.0392-.2941-.1372-.6666-.196-.8235l-.0981-.2941.1765.2157c.2549.2941.451.647.6275 1.1372.1372.3726.1372.4902.1372 1.0981 0 .5882-.0196.7254-.1372 1.0588-.1961.5294-.4314.9019-.8236 1.3137-.7059.7255-1.6274 1.1177-2.9412 1.2941-.2352.0196-.9019.0785-1.4901.1177-1.4706.0784-2.451.2353-3.3334.549-.1176.0392-.2353.0784-.2549.0588-.0392-.0392.5686-.3921 1.0588-.6274.6863-.3334 1.3922-.5098 2.9412-.7844.7647-.1176 1.549-.2745 1.7451-.3529 1.9412-.6078 2.902-2.1176 2.5882-3.9608z"
       id="path6150" />
    <path
       d="m25.5882 26.3921c-.5098-1.1177-.6274-2.1765-.3529-3.1765.0392-.098.0784-.1961.1177-.1961.0392 0 .1568.0589.2745.1373.2353.1568.7255.4314 1.9804 1.1176 1.5882.8628 2.4901 1.5294 3.1176 2.2941.549.6667.8824 1.4314 1.0392 2.3726.0981.5294.0392 1.8039-.098 2.3333-.4314 1.6667-1.4118 3-2.8432 3.7647-.2156.1177-.3921.1961-.4117.1961s.0588-.1961.1764-.4314c.4706-1 .5295-1.9607.1765-3.0392-.2157-.6666-.6667-1.4706-1.5686-2.8235-1.0784-1.5686-1.3333-1.9804-1.6079-2.549z"
       id="path6152" />
    <path
       d="m10.9804 32.3921c1.4509-1.2157 3.2353-2.0784 4.8823-2.3529.7059-.1177 1.8824-.0785 2.5294.098 1.0392.2745 1.9804.8628 2.4706 1.5882.4706.7059.6863 1.3138.902 2.6667.0784.5294.1765 1.0784.1961 1.1961.1568.7059.4705 1.2549.8627 1.549.6078.451 1.6667.4706 2.7059.0784.1765-.0588.3333-.1176.3333-.098.0392.0392-.4902.3922-.8431.5686-.4902.2549-.8824.3334-1.4118.3334-.9412 0-1.7451-.4902-2.3921-1.4706-.1373-.1961-.4118-.7647-.6471-1.2941-.6863-1.5883-1.0392-2.0589-1.8431-2.5883-.7059-.451-1.6079-.549-2.2942-.2157-.9019.4314-1.1372 1.5883-.5098 2.2942.2549.2941.7255.5294 1.1177.5882.7255.098 1.3529-.4706 1.3529-1.1961 0-.4706-.1764-.7451-.647-.9608-.6275-.2745-1.3138.0392-1.2941.6471 0 .2549.1176.4117.3725.5294.1569.0784.1569.0784.0392.0588-.5686-.1176-.7059-.8235-.2549-1.2745.549-.549 1.7059-.3137 2.0981.451.1568.3137.1764.9412.0392 1.3333-.3334.8628-1.2745 1.3137-2.2353 1.0588-.6471-.1764-.9216-.3529-1.7059-1.1568-1.3726-1.4118-1.902-1.6863-3.8627-1.9804l-.3726-.0588z"
       id="path6154" />
    <g
       clip-rule="evenodd"
       fill-rule="evenodd"
       id="g6160">
      <path
         d="m.666318.843137c4.568632 5.549023 11.607882 14.176463 11.960782 14.647063.2941.3922.1765.7647-.3137 1.0392-.2745.1569-.8432.3137-1.1177.3137-.3137 0-.6862-.1568-.9411-.4117-.1765-.1765-.94122-1.2941-2.66671-3.9804-1.31373-2.0588-2.43137-3.76473-2.45098-3.78433-.07843-.03922-.07843-.03922 2.31372 4.23533 1.50981 2.6862 2 3.647 2 3.7647 0 .2549-.07843.3921-.39215.7451-.52941.5882-.76471 1.2549-.94118 2.647-.19608 1.549-.72549 2.6471-2.23529 4.5098-.88236 1.0981-1.01961 1.2941-1.2353 1.7451-.27451.549-.35294.8628-.39216 1.5687-.03921.7451.03922 1.2156.25491 1.9215.19607.6275.41176 1.0392.94117 1.8432.45098.7058.72549 1.2353.72549 1.4313 0 .1569.03922.1569.7451 0 1.68628-.3921 3.07843-1.0588 3.84318-1.8823.4705-.5098.5882-.7843.5882-1.4902 0-.451-.0196-.549-.1373-.8235-.196-.4314-.5686-.7844-1.37251-1.3334-1.05882-.7255-1.5098-1.3137-1.62745-2.098-.09804-.6667.01961-1.1177.60784-2.353.60785-1.2745.76471-1.8039.86275-3.098.05882-.8235.15686-1.1569.39217-1.4118.2549-.2745.4706-.3725 1.0784-.4509 1-.1373 1.6471-.3922 2.1569-.8824.451-.4118.647-.8235.6666-1.4314l.0197-.4509-.2549-.2746c-.9216-1.0588-13.686325-15.098-13.74514854-15.098-.01960786 0 .29411754.372549.66666654.843137zm6.019612 27.882363c.21568-.3726.09804-.8431-.2549-1.0784-.33334-.2157-.84314-.1177-.84314.1764 0 .0785.03921.1569.15686.1961.17647.098.19608.1961.05882.4118-.13725.2157-.13725.4117.03922.549.27451.2157.64706.098.84314-.2549z"
         id="path6156" />
      <path
         d="m14.6275 18.4117c-.4706.1373-.9216.6471-1.0588 1.1569-.0785.3137-.0393.8823.098 1.0588.2157.2745.4118.3529.9608.3529 1.0784 0 2-.4706 2.098-1.0392.0981-.4706-.3137-1.1176-.8823-1.4118-.2941-.1568-.902-.2156-1.2157-.1176zm1.2549.9804c.1568-.2353.098-.4902-.1961-.6667-.5294-.3333-1.3333-.0588-1.3333.451 0 .2549.4117.5294.8039.5294.2549 0 .6078-.1568.7255-.3137z"
         id="path6158" />
    </g>
  </g>
  <path
     style="fill:#a440f2;stroke:#a440f2;stroke-width:0.046683;fill-opacity:1;stroke-opacity:1"
     d="m 6.1699428,33.183866 c -0.017117,-0.01712 -0.031122,-0.07995 -0.031122,-0.13963 0,-0.141162 -0.3631577,-0.83305 -0.7924839,-1.509838 -0.8612593,-1.357686 -1.1589882,-2.324966 -1.106417,-3.594595 0.052513,-1.268212 0.241738,-1.644896 1.8526296,-3.68796 0.7711428,-0.978026 1.2276764,-1.705454 1.5528079,-2.474202 0.2179039,-0.515216 0.3349728,-0.987415 0.4819754,-1.944049 0.1855903,-1.20775 0.4017002,-1.83669 0.7869702,-2.290306 0.3827945,-0.4507 0.4923311,-0.627637 0.4923311,-0.795271 0,-0.215444 -0.4663239,-1.117805 -1.9603976,-3.79347 C 5.3636776,9.2249916 5.1049167,8.7503608 5.1236082,8.6942861 c 0.023282,-0.069846 0.332169,0.3909588 2.042133,3.0464999 1.6831083,2.613835 2.8336918,4.348577 3.0557048,4.607106 0.238536,0.277769 0.626741,0.457978 0.982485,0.456079 0.546547,-0.0029 1.271807,-0.317574 1.472848,-0.639001 0.117261,-0.18748 0.0957,-0.398398 -0.06519,-0.63773 C 12.450942,15.288265 7.623032,9.3623536 2.870907,3.5712531 -0.10092185,-0.05031838 -0.14257261,-0.10254057 0.02185795,-9.1689705e-4 0.12597,0.06342789 3.7364079,4.0098276 9.3118743,10.153563 c 2.5334777,2.791696 3.2932807,3.631487 4.3618887,4.821078 l 0.367881,0.409531 -0.05011,0.495509 c -0.06256,0.618583 -0.211674,0.948044 -0.602856,1.332001 -0.5146,0.505096 -1.074872,0.752838 -2.091376,0.924767 -0.66541,0.112546 -0.799837,0.15296 -1.000004,0.300639 -0.3786208,0.279337 -0.4863064,0.572498 -0.5894199,1.604623 -0.1312471,1.313733 -0.2434825,1.715875 -0.8492977,3.043056 -0.5887605,1.289818 -0.7085081,1.731133 -0.6216436,2.290991 0.1365059,0.879801 0.5336442,1.384892 1.7783522,2.261756 0.571152,0.402362 1.028796,0.853727 1.191589,1.17524 0.131545,0.259799 0.137107,0.296352 0.137107,0.901005 0,0.590309 -0.0081,0.64762 -0.128683,0.904956 -0.159465,0.340454 -0.757845,0.952813 -1.225125,1.253746 -0.7730703,0.497866 -1.6748808,0.869957 -2.8109016,1.15979 -0.6976193,0.177984 -0.9456944,0.215248 -1.0093276,0.151615 z M 6.421162,28.955001 c 0.4302749,-0.289962 0.4477539,-0.961428 0.03272,-1.256958 -0.188445,-0.134185 -0.5554116,-0.168486 -0.7111084,-0.06647 -0.1670651,0.109466 -0.1565483,0.285623 0.022582,0.378255 0.1688045,0.08729 0.1822566,0.225028 0.046683,0.477979 -0.1229613,0.229419 -0.1185231,0.274316 0.043092,0.435931 0.1671314,0.167132 0.3494702,0.177203 0.5660305,0.03126 z"
     id="path7015" />
  <path
     style="fill:#a440f2;stroke:#a440f2;stroke-width:0.046683;stroke-opacity:1;fill-opacity:1"
     d="m 16.015212,15.699887 c -0.579325,-0.0764 -1.509942,-0.679839 -2.058109,-1.334542 -0.676912,-0.80847 -1.209388,-2.027551 -1.400641,-3.206705 -0.06985,-0.430675 -0.0922,-1.3429534 -0.03937,-1.6071053 0.02799,-0.1399529 0.03733,-0.1454192 0.198403,-0.1160941 0.267766,0.048751 0.936708,0.2933675 1.242132,0.4542198 0.431625,0.2273156 0.776219,0.6026426 1.022636,1.1138406 0.216041,0.448182 0.31757,0.791707 0.611125,2.067752 0.187128,0.81342 0.358814,1.224539 0.795576,1.905088 0.270669,0.421747 0.319151,0.53879 0.261309,0.630843 -0.05924,0.09428 -0.325474,0.133266 -0.633058,0.0927 z"
     id="path7017" />
  <path
     style="fill:#a440f2;stroke:#a440f2;stroke-width:0.046683;stroke-opacity:1;fill-opacity:1"
     d="M 30.82161,18.935687 C 30.633715,18.617605 30.20832,18.130031 29.947906,17.934274 29.276985,17.429933 28.610709,17.263137 26.842752,17.156927 24.385085,17.009282 23.23502,16.782825 22.081081,16.219316 21.017004,15.699691 20.289966,14.984887 18.632371,12.828638 17.416849,11.247452 16.756003,10.53691 15.911321,9.9029659 15.100088,9.2941255 14.0407,8.847584 13.02457,8.6861741 c -0.613043,-0.09738 -0.598372,-0.1667949 0.03501,-0.1656628 0.926682,0.00166 1.846315,0.196537 2.624908,0.5562478 0.899242,0.4154511 1.947805,1.2347549 2.793356,2.1826129 0.461646,0.517502 0.480222,0.532299 0.638862,0.508868 1.294346,-0.191172 2.552122,-0.235864 3.477887,-0.123581 1.213102,0.147135 2.382325,0.487964 3.363943,0.980593 0.769158,0.386005 1.172702,0.646898 1.231433,0.796124 0.06164,0.156614 0.131995,0.594717 0.168686,1.050368 0.04164,0.517181 -0.04062,1.0363 -0.236479,1.492314 -0.191672,0.446261 -0.197354,0.519879 -0.05628,0.729218 0.430542,0.638883 1.152342,0.101173 1.540789,-1.147821 0.06388,-0.205406 0.130881,-0.462746 0.148884,-0.571868 0.018,-0.109121 0.04664,-0.198045 0.06364,-0.197608 0.04872,0.0013 0.50102,0.551814 0.82768,1.007492 0.334171,0.466155 0.837601,1.414675 1.013425,1.909404 0.168978,0.475469 0.3519,1.37715 0.27938,1.37715 -0.0213,0 -0.07444,-0.06045 -0.118089,-0.134338 z"
     id="path7019" />
  <path
     style="fill:#a440f2;stroke:#a440f2;stroke-width:0.046683;stroke-opacity:1;fill-opacity:1"
     d="m 27.720423,16.12426 c 0.01516,-0.06159 0.06022,-0.226842 0.100135,-0.367235 0.05263,-0.185147 0.07231,-0.467241 0.07164,-1.027027 -0.0019,-1.606067 -0.179713,-2.032027 -1.096127,-2.626189 -0.231081,-0.149823 -0.751014,-0.434352 -1.155406,-0.632286 -0.697906,-0.341598 -0.892449,-0.470457 -0.606879,-0.401975 0.433895,0.104051 1.100709,0.315258 1.654237,0.523962 0.351029,0.132353 0.658495,0.240642 0.683257,0.240642 0.07589,0 0.106393,-0.141675 0.150767,-0.700245 0.05257,-0.661781 0.07822,-0.840519 0.167448,-1.1670765 0.08967,-0.328187 0.345512,-0.8913538 0.391902,-0.8626832 0.01952,0.012064 -0.0089,0.153333 -0.06309,0.3139307 -0.08325,0.2465681 -0.09841,0.4009374 -0.09745,0.992241 0.0012,0.750527 0.07658,1.224107 0.252675,1.587872 0.05291,0.1093 0.305357,0.426963 0.560991,0.705919 1.392386,1.519414 1.869909,2.071074 1.792746,2.071074 -0.01905,0 -0.194123,-0.143326 -0.389058,-0.318502 -0.507465,-0.456029 -1.287587,-1.067928 -1.499082,-1.175825 l -0.180932,-0.0923 -0.07246,0.103457 c -0.04752,0.06784 -0.07248,0.208365 -0.0725,0.408181 -6.1e-5,0.458634 -0.08796,1.296254 -0.168857,1.609148 -0.0857,0.331439 -0.309347,0.839028 -0.392266,0.890275 -0.04392,0.02714 -0.05212,0.0076 -0.03168,-0.07535 z"
     id="path7021" />
  <path
     style="fill:#a440f2;stroke:#a440f2;stroke-width:0.046683;stroke-opacity:1;fill-opacity:1"
     d="m 32.168291,27.27457 c -0.0092,-0.0321 -0.04013,-0.223398 -0.06871,-0.425119 -0.133279,-0.940534 -0.704518,-1.755884 -1.685574,-2.405879 -0.622089,-0.412162 -1.792427,-0.97484 -3.454546,-1.660882 -0.783108,-0.323229 -1.75995,-0.754337 -2.170761,-0.958018 -2.034239,-1.008581 -3.037403,-1.99877 -3.387689,-3.343874 -0.105398,-0.404729 -0.179045,-1.537823 -0.108184,-1.664446 0.03581,-0.06398 0.08654,-0.04052 0.34256,0.158434 0.83925,0.652173 1.671062,0.904533 4.297047,1.303664 1.993599,0.303014 2.864054,0.537172 3.898035,1.048598 1.73811,0.859703 2.81904,2.25476 3.13219,4.042431 0.05978,0.34129 0.07091,0.604957 0.05001,1.185804 -0.03901,1.084652 -0.131841,1.499794 -0.524535,2.345823 -0.187553,0.404068 -0.280074,0.5121 -0.319843,0.373464 z"
     id="path7023" />
  <path
     style="fill:#a440f2;stroke:#a440f2;stroke-width:0.046683;stroke-opacity:1;fill-opacity:1"
     d="m 28.406744,35.212886 c 6.1e-5,-0.0333 0.08287,-0.252374 0.184017,-0.486823 0.291574,-0.675831 0.347888,-0.93856 0.3489,-1.627783 0.0018,-1.255693 -0.294045,-1.911293 -2.064793,-4.574938 -1.248467,-1.878006 -1.56918,-2.516398 -1.733926,-3.451449 -0.11549,-0.655489 -0.01693,-1.885921 0.163037,-2.035277 0.05171,-0.04291 0.113456,-0.027 0.288759,0.0744 0.122643,0.07094 0.821697,0.463492 1.553454,0.872339 1.93719,1.082345 2.691757,1.597983 3.339285,2.281925 0.657072,0.694023 1.048433,1.454595 1.258306,2.445397 0.08215,0.387832 0.09387,1.542754 0.02156,2.124704 -0.0884,0.711454 -0.466363,1.686362 -0.927859,2.393302 -0.279752,0.428538 -0.884516,1.071158 -1.308979,1.390919 -0.378131,0.284857 -1.121916,0.678237 -1.121761,0.593288 z"
     id="path7025" />
  <path
     style="fill:#a440f2;stroke:#a440f2;stroke-width:0.046683;stroke-opacity:1;fill-opacity:1"
     d="m 15.522113,28.874117 c 0.232163,-0.180301 1.007188,-0.583934 1.420952,-0.740031 0.575046,-0.216943 1.29527,-0.38934 2.570449,-0.615277 1.333695,-0.236306 1.571661,-0.290905 2.010402,-0.461269 1.931569,-0.75003 2.701527,-2.417143 2.091025,-4.52749 -0.06226,-0.215229 -0.104204,-0.400329 -0.0932,-0.411332 0.03437,-0.03437 0.43069,0.51009 0.566072,0.777663 0.281596,0.556554 0.358443,0.83681 0.384474,1.402145 0.03001,0.651721 -0.0357,1.113835 -0.219918,1.546753 -0.422328,0.992456 -1.264886,1.737732 -2.402247,2.124881 -0.544116,0.185214 -1.250374,0.291329 -2.593364,0.389651 -1.799512,0.131746 -2.365572,0.214296 -3.205087,0.467407 -0.252743,0.0762 -0.501547,0.13832 -0.552899,0.138042 -0.08545,-4.67e-4 -0.08347,-0.0082 0.02334,-0.09114 z"
     id="path7027" />
  <path
     style="fill:#a440f2;stroke:#a440f2;stroke-width:0.046683;stroke-opacity:1;fill-opacity:1"
     d="M 22.930141,37.953238 C 22.212346,37.755922 21.517947,37.152027 21.053143,36.32088 20.960761,36.155687 20.7195,35.653254 20.517005,35.204364 19.917221,33.874758 19.608169,33.390249 19.094972,32.975002 18.490383,32.485806 17.86186,32.256571 17.226044,32.293367 c -0.716002,0.04144 -1.241118,0.366816 -1.491154,0.923969 -0.112689,0.251106 -0.126601,0.331994 -0.110797,0.644249 0.02013,0.397718 0.09791,0.596705 0.347019,0.887728 0.210279,0.245663 0.747199,0.515026 1.098969,0.551332 0.647192,0.0668 1.205913,-0.388935 1.283593,-1.046985 0.05426,-0.459636 -0.133264,-0.801863 -0.554353,-1.011701 -0.264136,-0.131624 -0.702484,-0.165037 -0.891456,-0.06795 -0.514087,0.264117 -0.582674,0.834672 -0.134504,1.118893 0.176597,0.111994 0.195127,0.135845 0.105539,0.135845 -0.321759,0 -0.589151,-0.366802 -0.551679,-0.756782 0.08951,-0.931565 1.482428,-1.15848 2.201547,-0.358646 0.261373,0.290709 0.323983,0.520676 0.299965,1.101766 -0.01634,0.395349 -0.0371,0.490436 -0.153589,0.703361 -0.1745,0.31897 -0.519614,0.639021 -0.855382,0.793261 -0.555786,0.25531 -1.367981,0.179272 -2.015031,-0.188646 -0.14686,-0.08351 -0.582023,-0.462893 -1.030337,-0.898276 -0.902371,-0.876343 -1.280837,-1.176172 -1.796507,-1.423231 -0.463215,-0.221929 -0.898587,-0.343416 -1.732578,-0.483462 -0.399457,-0.06708 -0.648257,-0.129706 -0.648257,-0.16318 0,-0.07556 0.566893,-0.561117 1.097051,-0.939657 1.5407,-1.10008 3.316365,-1.780574 4.831696,-1.851666 2.288444,-0.107364 4.016674,0.790958 4.760859,2.47466 0.204371,0.462385 0.336404,0.997728 0.536126,2.173799 0.24681,1.453351 0.410192,1.90594 0.844995,2.340743 0.573909,0.573909 1.601141,0.6682 2.794329,0.256493 0.384738,-0.132753 0.423641,-0.139609 0.423641,-0.07466 0,0.137599 -1.05854,0.713156 -1.505361,0.818506 -0.357314,0.08425 -1.143958,0.08431 -1.450247,9.3e-5 z"
     id="path7029" />
  <path
     style="fill:#a440f2;stroke:#a440f2;stroke-width:0.046683;stroke-opacity:1;fill-opacity:1"
     d="m 13.934178,20.878993 c -0.319878,-0.162137 -0.396094,-0.335054 -0.396094,-0.898649 0,-0.401063 0.01614,-0.499714 0.114546,-0.700246 0.234903,-0.478672 0.708112,-0.858497 1.15518,-0.927213 0.268537,-0.04128 0.818189,0.04323 1.049833,0.161406 0.695426,0.35478 1.092081,1.202379 0.790807,1.68985 -0.291986,0.472444 -1.084711,0.779888 -2.010891,0.779888 -0.422008,0 -0.527122,-0.0157 -0.703381,-0.105036 z m 1.51572,-1.253844 c 0.228658,-0.06348 0.492362,-0.317425 0.492362,-0.474136 0,-0.160707 -0.168088,-0.35708 -0.393136,-0.459292 -0.339551,-0.154217 -0.76318,-0.0921 -1.002231,0.146946 -0.267445,0.267445 -0.192649,0.543528 0.196316,0.724628 0.267314,0.124461 0.429922,0.138693 0.706689,0.06185 z"
     id="path7033" />
</svg>
