<svg fill="none" height="38" viewBox="0 0 33 38" width="33" xmlns="http://www.w3.org/2000/svg" xmlns:xlink="http://www.w3.org/1999/xlink"><clipPath id="a"><path d="m0 0h33v38h-33z"/></clipPath><g clip-path="url(#a)" fill="#f124ff"><path d="m12.9411 8.6471c-.4117-.05883-.4313-.07844-.2352-.09804.3725-.05883 1.2352.01961 1.8431.15686 1.4118.33333 2.6863 1.19608 4.0392 2.70588l.3529.4118.5099-.0785c2.1764-.3529 4.4117-.0784 6.2745.7844.5098.2352 1.3137.7058 1.4117.8235.0392.0392.0981.2941.1373.549.1372.9216.0784 1.6078-.2157 2.1373-.1569.2941-.1569.3725-.0588.6274.0784.1961.3137.3333.5294.3333.4706 0 .9608-.7451 1.1961-1.7843l.098-.4117.1765.196c1 1.1177 1.7843 2.6667 1.9019 3.7647l.0392.2942-.1764-.2549c-.2941-.451-.5686-.7451-.9412-1-.6667-.451-1.3725-.5883-3.2353-.6863-1.6863-.0981-2.6471-.2353-3.5882-.549-1.6079-.5294-2.4314-1.2157-4.3334-3.7451-.8431-1.1177-1.3725-1.7255-1.9019-2.2353-1.1569-1.11767-2.3137-1.70591-3.8236-1.9412z"/><path d="m27.549 11.1373c.0392-.7451.1373-1.23531.353-1.68629.0784-.17647.1568-.33333.1764-.33333s-.0196.13725-.0784.29411c-.1569.43138-.1765 1.03921-.0784 1.72551.1372.8823.196 1 1.1372 1.9608.4314.4509.9412 1.0196 1.1373 1.2549l.3333.4313-.3333-.3137c-.4118-.3921-1.353-1.1372-1.5686-1.2353-.1373-.0784-.1569-.0784-.2549.0196-.0785.0785-.0981.1961-.0981.7647-.0196.8824-.1372 1.4314-.4314 2-.1568.2942-.1764.2353-.0392-.098.0981-.2549.1177-.3726.1177-1.2157 0-1.7059-.1961-2.1176-1.3922-2.8039-.2941-.1765-.8039-.4314-1.098-.5686-.3138-.1373-.549-.2549-.5294-.2549.0392-.0393 1.196.2941 1.647.4902.6863.2745.8039.2941.8824.2745.0588-.0589.098-.2157.1176-.7059z"/><path d="m13.7451 14.0588c-.8235-1.1372-1.353-2.9019-1.2353-4.21564l.0392-.41176.1961.03921c.3529.05883.9608.29412 1.2549.47059.7843.4706 1.1372 1.1176 1.4706 2.7255.098.4706.2353 1.0196.2941 1.1961.098.2941.4706.9804.7843 1.4117.2157.3138.0784.4706-.4118.4314-.7451-.0784-1.7451-.7647-2.3921-1.6471z"/><path d="m26.549 22.5882c-3.8823-1.5687-5.2549-2.9216-5.2549-5.2157 0-.3333.0196-.6079.0196-.6079.0196 0 .1569.1177.3334.255.7843.6274 1.6666.9019 4.1176 1.2549 1.4314.2156 2.2549.3725 3 .6274 2.3726.7843 3.8432 2.3922 4.1961 4.5686.098.6275.0392 1.8236-.1176 2.451-.1373.4902-.5295 1.3922-.6275 1.4118-.0196 0-.0588-.0981-.0588-.2549-.0392-.8236-.451-1.6079-1.1373-2.2157-.8235-.7059-1.8823-1.2353-4.4706-2.2745z"/><path d="m23.8039 23.2353c-.0392-.2941-.1372-.6666-.196-.8235l-.0981-.2941.1765.2157c.2549.2941.451.647.6275 1.1372.1372.3726.1372.4902.1372 1.0981 0 .5882-.0196.7254-.1372 1.0588-.1961.5294-.4314.9019-.8236 1.3137-.7059.7255-1.6274 1.1177-2.9412 1.2941-.2352.0196-.9019.0785-1.4901.1177-1.4706.0784-2.451.2353-3.3334.549-.1176.0392-.2353.0784-.2549.0588-.0392-.0392.5686-.3921 1.0588-.6274.6863-.3334 1.3922-.5098 2.9412-.7844.7647-.1176 1.549-.2745 1.7451-.3529 1.9412-.6078 2.902-2.1176 2.5882-3.9608z"/><path d="m25.5882 26.3921c-.5098-1.1177-.6274-2.1765-.3529-3.1765.0392-.098.0784-.1961.1177-.1961.0392 0 .1568.0589.2745.1373.2353.1568.7255.4314 1.9804 1.1176 1.5882.8628 2.4901 1.5294 3.1176 2.2941.549.6667.8824 1.4314 1.0392 2.3726.0981.5294.0392 1.8039-.098 2.3333-.4314 1.6667-1.4118 3-2.8432 3.7647-.2156.1177-.3921.1961-.4117.1961s.0588-.1961.1764-.4314c.4706-1 .5295-1.9607.1765-3.0392-.2157-.6666-.6667-1.4706-1.5686-2.8235-1.0784-1.5686-1.3333-1.9804-1.6079-2.549z"/><path d="m10.9804 32.3921c1.4509-1.2157 3.2353-2.0784 4.8823-2.3529.7059-.1177 1.8824-.0785 2.5294.098 1.0392.2745 1.9804.8628 2.4706 1.5882.4706.7059.6863 1.3138.902 2.6667.0784.5294.1765 1.0784.1961 1.1961.1568.7059.4705 1.2549.8627 1.549.6078.451 1.6667.4706 2.7059.0784.1765-.0588.3333-.1176.3333-.098.0392.0392-.4902.3922-.8431.5686-.4902.2549-.8824.3334-1.4118.3334-.9412 0-1.7451-.4902-2.3921-1.4706-.1373-.1961-.4118-.7647-.6471-1.2941-.6863-1.5883-1.0392-2.0589-1.8431-2.5883-.7059-.451-1.6079-.549-2.2942-.2157-.9019.4314-1.1372 1.5883-.5098 2.2942.2549.2941.7255.5294 1.1177.5882.7255.098 1.3529-.4706 1.3529-1.1961 0-.4706-.1764-.7451-.647-.9608-.6275-.2745-1.3138.0392-1.2941.6471 0 .2549.1176.4117.3725.5294.1569.0784.1569.0784.0392.0588-.5686-.1176-.7059-.8235-.2549-1.2745.549-.549 1.7059-.3137 2.0981.451.1568.3137.1764.9412.0392 1.3333-.3334.8628-1.2745 1.3137-2.2353 1.0588-.6471-.1764-.9216-.3529-1.7059-1.1568-1.3726-1.4118-1.902-1.6863-3.8627-1.9804l-.3726-.0588z"/><g clip-rule="evenodd" fill-rule="evenodd"><path d="m.666318.843137c4.568632 5.549023 11.607882 14.176463 11.960782 14.647063.2941.3922.1765.7647-.3137 1.0392-.2745.1569-.8432.3137-1.1177.3137-.3137 0-.6862-.1568-.9411-.4117-.1765-.1765-.94122-1.2941-2.66671-3.9804-1.31373-2.0588-2.43137-3.76473-2.45098-3.78433-.07843-.03922-.07843-.03922 2.31372 4.23533 1.50981 2.6862 2 3.647 2 3.7647 0 .2549-.07843.3921-.39215.7451-.52941.5882-.76471 1.2549-.94118 2.647-.19608 1.549-.72549 2.6471-2.23529 4.5098-.88236 1.0981-1.01961 1.2941-1.2353 1.7451-.27451.549-.35294.8628-.39216 1.5687-.03921.7451.03922 1.2156.25491 1.9215.19607.6275.41176 1.0392.94117 1.8432.45098.7058.72549 1.2353.72549 1.4313 0 .1569.03922.1569.7451 0 1.68628-.3921 3.07843-1.0588 3.84318-1.8823.4705-.5098.5882-.7843.5882-1.4902 0-.451-.0196-.549-.1373-.8235-.196-.4314-.5686-.7844-1.37251-1.3334-1.05882-.7255-1.5098-1.3137-1.62745-2.098-.09804-.6667.01961-1.1177.60784-2.353.60785-1.2745.76471-1.8039.86275-3.098.05882-.8235.15686-1.1569.39217-1.4118.2549-.2745.4706-.3725 1.0784-.4509 1-.1373 1.6471-.3922 2.1569-.8824.451-.4118.647-.8235.6666-1.4314l.0197-.4509-.2549-.2746c-.9216-1.0588-13.686325-15.098-13.74514854-15.098-.01960786 0 .29411754.372549.66666654.843137zm6.019612 27.882363c.21568-.3726.09804-.8431-.2549-1.0784-.33334-.2157-.84314-.1177-.84314.1764 0 .0785.03921.1569.15686.1961.17647.098.19608.1961.05882.4118-.13725.2157-.13725.4117.03922.549.27451.2157.64706.098.84314-.2549z"/><path d="m14.6275 18.4117c-.4706.1373-.9216.6471-1.0588 1.1569-.0785.3137-.0393.8823.098 1.0588.2157.2745.4118.3529.9608.3529 1.0784 0 2-.4706 2.098-1.0392.0981-.4706-.3137-1.1176-.8823-1.4118-.2941-.1568-.902-.2156-1.2157-.1176zm1.2549.9804c.1568-.2353.098-.4902-.1961-.6667-.5294-.3333-1.3333-.0588-1.3333.451 0 .2549.4117.5294.8039.5294.2549 0 .6078-.1568.7255-.3137z"/></g></g></svg>